G04 start of page 2 for group 0 idx 0 *
G04 Title: (unknown), top *
G04 Creator: pcb 20140316 *
G04 CreationDate: Fri 19 May 2017 10:14:56 PM GMT UTC *
G04 For: thomasc *
G04 Format: Gerber/RS-274X *
G04 PCB-Dimensions (mil): 2500.00 3000.00 *
G04 PCB-Coordinate-Origin: lower left *
%MOIN*%
%FSLAX25Y25*%
%LNTOP*%
%ADD27C,0.0420*%
%ADD26C,0.1250*%
%ADD25C,0.0450*%
%ADD24C,0.0520*%
%ADD23C,0.0350*%
%ADD22C,0.1520*%
%ADD21C,0.0400*%
%ADD20C,0.0600*%
%ADD19C,0.1560*%
%ADD18R,0.0200X0.0200*%
%ADD17C,0.2500*%
%ADD16C,0.0700*%
%ADD15C,0.0900*%
%ADD14C,0.0800*%
%ADD13C,0.0100*%
%ADD12C,0.0200*%
%ADD11C,0.0001*%
G54D11*G36*
X90000Y227500D02*X92500D01*
Y225000D01*
X90000D01*
Y227500D01*
G37*
G36*
X150000D02*X152500D01*
Y225000D01*
X150000D01*
Y227500D01*
G37*
G36*
X210000D02*X212500D01*
Y225000D01*
X210000D01*
Y227500D01*
G37*
G36*
X42500Y157500D02*X45000D01*
Y155000D01*
X42500D01*
Y157500D01*
G37*
G36*
X92500D02*X95000D01*
Y155000D01*
X92500D01*
Y157500D01*
G37*
G36*
X17500Y135000D02*X22500D01*
Y130000D01*
X17500D01*
Y135000D01*
G37*
G54D12*X145000Y224000D02*Y230000D01*
X147500Y232500D01*
X157500D01*
Y222500D02*X180000D01*
G54D13*X165000Y260000D02*X185000Y240000D01*
X175000Y255000D02*X190000Y240000D01*
G54D12*X205000Y224000D02*Y245000D01*
G54D13*X185000Y240000D02*Y224000D01*
X190000Y240000D02*Y224000D01*
X200000D02*Y240000D01*
X195000Y245000D01*
Y224000D02*Y240000D01*
X185000Y250000D01*
X135000Y280000D02*Y265000D01*
X130000Y260000D01*
X145000Y280000D02*Y270000D01*
X135000Y260000D01*
X155000Y275000D02*X140000Y260000D01*
X135000D02*Y224000D01*
X140000Y260000D02*Y224000D01*
X155000Y280000D02*Y275000D01*
X165000Y280000D02*Y260000D01*
X175000Y280000D02*Y255000D01*
X185000Y280000D02*Y250000D01*
X195000Y280000D02*Y245000D01*
G54D12*X145000Y202000D02*Y197500D01*
X147500Y195000D01*
X157500D01*
Y205000D02*X170000D01*
X205000Y202000D02*Y197500D01*
X207500Y195000D01*
X217500D01*
G54D13*X200000Y202000D02*Y195000D01*
X185000Y202000D02*Y195000D01*
X190000Y202000D02*Y195000D01*
X195000Y202000D02*Y195000D01*
X185000D02*X180000Y190000D01*
X190000Y195000D02*X182500Y187500D01*
X195000Y195000D02*X185000Y185000D01*
X200000Y195000D02*X187500Y182500D01*
X180000Y190000D02*X162500D01*
X182500Y187500D02*X165000D01*
X185000Y185000D02*X167500D01*
X187500Y182500D02*X170000D01*
X162500Y190000D02*X155000Y182500D01*
X165000Y187500D02*X157500Y180000D01*
X167500Y185000D02*X160000Y177500D01*
X170000Y182500D02*X162500Y175000D01*
G54D12*X85000Y224000D02*Y230000D01*
X87500Y232500D01*
X97500D01*
Y222500D02*X110000D01*
X85000Y202000D02*Y197500D01*
X87500Y195000D01*
X97500D01*
X37500Y222500D02*X50000D01*
G54D13*X45000Y280000D02*Y270000D01*
X55000Y260000D01*
Y280000D02*Y265000D01*
X60000Y260000D01*
X55000D02*Y224000D01*
X60000Y260000D02*Y224000D01*
X65000Y280000D02*Y224000D01*
X75000Y280000D02*Y265000D01*
X70000Y260000D01*
Y224000D01*
X75000Y260000D02*Y224000D01*
X85000Y280000D02*Y270000D01*
X75000Y260000D01*
X95000Y280000D02*Y275000D01*
X80000Y260000D01*
Y224000D01*
X115000Y260000D02*Y224000D01*
X105000Y280000D02*Y270000D01*
X115000Y260000D01*
Y280000D02*Y265000D01*
X120000Y260000D01*
Y224000D01*
X125000Y280000D02*Y224000D01*
X130000Y260000D02*Y224000D01*
G54D12*X37500Y205000D02*X50000D01*
G54D13*X55000Y202000D02*Y185000D01*
X60000Y202000D02*Y185000D01*
X65000Y202000D02*Y185000D01*
X70000Y202000D02*Y185000D01*
X60000D02*X47500Y172500D01*
X65000Y185000D02*X77500Y172500D01*
X70000Y185000D02*X82500Y172500D01*
X75000Y202000D02*Y185000D01*
X80000Y202000D02*Y185000D01*
G54D12*X67500Y162500D02*Y150000D01*
G54D13*X77500Y172500D02*Y147500D01*
X82500Y172500D02*Y142500D01*
X77500Y147500D02*X75000Y145000D01*
X68000D01*
X82500Y142500D02*X75000Y135000D01*
X68000D01*
Y140000D02*X60000D01*
X57500Y137500D01*
X46000Y135000D02*X40000D01*
X37500Y132500D01*
G54D12*X97500Y205000D02*X110000D01*
G54D13*X115000Y202000D02*Y192500D01*
X107500Y185000D01*
X120000Y202000D02*Y172500D01*
X125000Y202000D02*Y175000D01*
X130000Y202000D02*Y175000D01*
X135000Y202000D02*Y175000D01*
X140000Y202000D02*Y175000D01*
X55000Y185000D02*X37500Y167500D01*
X47500Y172500D02*Y150000D01*
X75000Y185000D02*X87500Y172500D01*
X80000Y185000D02*X97500Y167500D01*
X87500Y172500D02*Y142500D01*
X90000Y140000D01*
X96000D01*
X37500Y167500D02*Y142500D01*
X40000Y140000D01*
X46000D01*
Y145000D02*X52500D01*
X55000Y142500D01*
X96000Y135000D02*X90000D01*
X87500Y132500D01*
G54D12*X117500Y162500D02*Y150000D01*
G54D13*X107500Y185000D02*Y147500D01*
X110000Y145000D01*
X118000D01*
Y140000D02*X110000D01*
X107500Y137500D01*
X120000Y172500D02*X127500Y165000D01*
X125000Y175000D02*X142500Y157500D01*
X130000Y175000D02*X145000Y160000D01*
X135000Y175000D02*X147500Y162500D01*
X127500Y165000D02*Y137500D01*
X125000Y135000D01*
X118000D01*
X140000Y175000D02*X150000Y165000D01*
G54D12*X95000Y107500D02*Y120000D01*
G54D13*X96000Y135000D02*Y130000D01*
X97500Y167500D02*Y150000D01*
X96000Y145000D02*X102500D01*
X105000Y142500D01*
Y92500D01*
X107500Y137500D02*Y100000D01*
X110000Y87500D02*X105000Y92500D01*
X102500Y85000D02*X87500Y100000D01*
X95000Y82500D02*X77500Y100000D01*
G54D12*X45000Y107500D02*Y120000D01*
G54D13*X37500Y132500D02*Y105000D01*
X45000Y97500D02*X37500Y105000D01*
X46000Y135000D02*Y130000D01*
X55000Y142500D02*Y102500D01*
X57500Y137500D02*Y110000D01*
X68000Y130000D02*Y125000D01*
Y130000D02*X75000D01*
X77500Y127500D01*
Y100000D01*
X87500Y132500D02*Y100000D01*
Y80000D02*X57500Y110000D01*
X80000Y77500D02*X55000Y102500D01*
X72500Y75000D02*X50000Y97500D01*
X45000D01*
X118000Y130000D02*Y125000D01*
Y130000D02*X125000D01*
X127500Y127500D01*
Y95000D01*
X125000Y92500D02*X127500Y95000D01*
X150000Y165000D02*Y55000D01*
X147500Y52500D01*
X142500Y157500D02*Y87500D01*
X145000Y160000D02*Y77500D01*
X147500Y162500D02*Y67500D01*
X162500Y175000D02*Y85000D01*
X157500Y180000D02*Y65000D01*
X155000Y182500D02*Y55000D01*
X160000Y177500D02*Y75000D01*
X117500Y90000D02*X107500Y100000D01*
X142500Y87500D02*X115000Y60000D01*
X145000Y77500D02*X125000Y57500D01*
X147500Y67500D02*X135000Y55000D01*
X162500Y85000D02*X180000Y67500D01*
X160000Y75000D02*X172500Y62500D01*
X157500Y65000D02*X165000Y57500D01*
X155000Y55000D02*X157600Y52400D01*
X14500Y138500D02*X21500D01*
X22500Y139500D01*
X17500D02*Y137500D01*
X19500Y141500D02*X21500D01*
X19500D02*X18500Y142500D01*
Y144500D02*Y142500D01*
Y144500D02*X19500Y145500D01*
X21500D01*
X22500Y144500D02*X21500Y145500D01*
X22500Y144500D02*Y142500D01*
X21500Y141500D02*X22500Y142500D01*
X19500Y148900D02*X25500D01*
X18500Y147900D02*X19500Y148900D01*
X18500Y149900D01*
Y151900D02*Y149900D01*
Y151900D02*X19500Y152900D01*
X21500D01*
X22500Y151900D02*X21500Y152900D01*
X22500Y151900D02*Y149900D01*
X21500Y148900D02*X22500Y149900D01*
X18500Y162900D02*Y159900D01*
X19500Y158900D02*X18500Y159900D01*
X19500Y158900D02*X21500D01*
X22500Y159900D01*
Y162900D02*Y159900D01*
X19500Y165300D02*X21500D01*
X19500D02*X18500Y166300D01*
Y168300D02*Y166300D01*
Y168300D02*X19500Y169300D01*
X21500D01*
X22500Y168300D02*X21500Y169300D01*
X22500Y168300D02*Y166300D01*
X21500Y165300D02*X22500Y166300D01*
X19500Y172700D02*X25500D01*
X18500Y171700D02*X19500Y172700D01*
X18500Y173700D01*
Y175700D02*Y173700D01*
Y175700D02*X19500Y176700D01*
X21500D01*
X22500Y175700D02*X21500Y176700D01*
X22500Y175700D02*Y173700D01*
X21500Y172700D02*X22500Y173700D01*
X19500Y180100D02*X25500D01*
X18500Y179100D02*X19500Y180100D01*
X18500Y181100D01*
Y183100D02*Y181100D01*
Y183100D02*X19500Y184100D01*
X21500D01*
X22500Y183100D02*X21500Y184100D01*
X22500Y183100D02*Y181100D01*
X21500Y180100D02*X22500Y181100D01*
Y190500D02*Y187500D01*
X21500Y186500D02*X22500Y187500D01*
X19500Y186500D02*X21500D01*
X19500D02*X18500Y187500D01*
Y189500D02*Y187500D01*
Y189500D02*X19500Y190500D01*
X20500D02*Y186500D01*
X19500Y190500D02*X20500D01*
X19500Y193900D02*X22500D01*
X19500D02*X18500Y194900D01*
Y196900D02*Y194900D01*
Y192900D02*X19500Y193900D01*
X186000Y83000D02*Y80000D01*
Y83000D02*X187000Y84000D01*
X189000D01*
X185000D02*X186000Y83000D01*
X192400Y80000D02*X195400D01*
X191400Y81000D02*X192400Y80000D01*
X191400Y83000D02*Y81000D01*
Y83000D02*X192400Y84000D01*
X194400D01*
X195400Y83000D01*
X191400Y82000D02*X195400D01*
Y83000D02*Y82000D01*
X197800Y84000D02*X199800Y80000D01*
X201800Y84000D02*X199800Y80000D01*
X207800Y86400D02*X209400Y88000D01*
Y80000D01*
X207800D02*X210800D01*
G54D14*X200000Y150000D03*
G54D15*X187500Y162500D03*
X212500D03*
Y137500D03*
X187500D03*
G54D11*G36*
X186500Y28500D02*Y21500D01*
X193500D01*
Y28500D01*
X186500D01*
G37*
G54D16*X179200Y25000D03*
X184600Y13800D03*
X157600Y25000D03*
X146800D03*
X136000D03*
X168400D03*
X173800Y13800D03*
X163000D03*
X152200D03*
X141400D03*
X130600D03*
G54D17*X217000Y19400D03*
G54D16*X125200Y25000D03*
X114400D03*
X103600D03*
X92800D03*
X82000D03*
X71200D03*
X60400D03*
G54D11*G36*
X44000Y68500D02*Y61500D01*
X51000D01*
Y68500D01*
X44000D01*
G37*
G54D16*X57500Y65000D03*
X119800Y13800D03*
X109000D03*
X98200D03*
X87400D03*
X76600D03*
X65800D03*
G54D17*X33400Y19400D03*
G54D16*X95000Y290000D03*
X105000D03*
X115000D03*
X95000Y280000D03*
X105000D03*
X115000D03*
X125000D03*
X135000D03*
X145000D03*
X125000Y290000D03*
X135000D03*
X145000D03*
X155000D03*
Y280000D03*
X165000Y290000D03*
X175000D03*
X185000D03*
X195000D03*
X205000D03*
X65000D03*
Y280000D03*
X75000Y290000D03*
Y280000D03*
X45000Y290000D03*
G54D11*G36*
X41500Y283500D02*Y276500D01*
X48500D01*
Y283500D01*
X41500D01*
G37*
G54D16*X55000Y290000D03*
Y280000D03*
X85000Y290000D03*
Y280000D03*
X165000D03*
X175000D03*
X185000D03*
X195000D03*
X205000D03*
G54D18*X80000Y228000D02*Y220000D01*
X70000Y228000D02*Y220000D01*
X75000Y228000D02*Y220000D01*
Y206000D02*Y198000D01*
X70000Y206000D02*Y198000D01*
X80000Y206000D02*Y198000D01*
X65000Y228000D02*Y220000D01*
Y206000D02*Y198000D01*
X60000Y228000D02*Y220000D01*
Y206000D02*Y198000D01*
X85000Y228000D02*Y220000D01*
Y206000D02*Y198000D01*
X55000Y228000D02*Y220000D01*
Y206000D02*Y198000D01*
X125000Y228000D02*Y220000D01*
X120000Y228000D02*Y220000D01*
X110000Y228000D02*Y220000D01*
X115000Y228000D02*Y220000D01*
X140000Y228000D02*Y220000D01*
X130000Y228000D02*Y220000D01*
X135000Y228000D02*Y220000D01*
X145000Y228000D02*Y220000D01*
X135000Y206000D02*Y198000D01*
X140000Y206000D02*Y198000D01*
X145000Y206000D02*Y198000D01*
X130000Y206000D02*Y198000D01*
X125000Y206000D02*Y198000D01*
X120000Y206000D02*Y198000D01*
X110000Y206000D02*Y198000D01*
X115000Y206000D02*Y198000D01*
X185000Y228000D02*Y220000D01*
Y206000D02*Y198000D01*
X180000Y228000D02*Y220000D01*
Y206000D02*Y198000D01*
X170000Y228000D02*Y220000D01*
Y206000D02*Y198000D01*
X175000Y228000D02*Y220000D01*
Y206000D02*Y198000D01*
X50000Y228000D02*Y220000D01*
Y206000D02*Y198000D01*
X42000Y135000D02*X50000D01*
X42000Y150000D02*X50000D01*
X42000Y145000D02*X50000D01*
X42000Y140000D02*X50000D01*
X64000Y120000D02*X72000D01*
X64000Y125000D02*X72000D01*
X64000Y130000D02*X72000D01*
X64000Y150000D02*X72000D01*
X64000Y145000D02*X72000D01*
X64000Y135000D02*X72000D01*
X64000Y140000D02*X72000D01*
X42000Y120000D02*X50000D01*
X42000Y125000D02*X50000D01*
X42000Y130000D02*X50000D01*
X114000Y120000D02*X122000D01*
X114000Y125000D02*X122000D01*
X114000Y130000D02*X122000D01*
X92000Y135000D02*X100000D01*
X92000Y150000D02*X100000D01*
X92000Y145000D02*X100000D01*
X92000Y140000D02*X100000D01*
X92000Y120000D02*X100000D01*
X114000Y150000D02*X122000D01*
X114000Y145000D02*X122000D01*
X114000Y135000D02*X122000D01*
X114000Y140000D02*X122000D01*
X92000Y125000D02*X100000D01*
X92000Y130000D02*X100000D01*
X200000Y228000D02*Y220000D01*
X190000Y228000D02*Y220000D01*
X195000Y228000D02*Y220000D01*
X205000Y228000D02*Y220000D01*
Y206000D02*Y198000D01*
X195000Y206000D02*Y198000D01*
X190000Y206000D02*Y198000D01*
X200000Y206000D02*Y198000D01*
G54D19*X25000Y250000D03*
G54D20*X37500Y222500D03*
Y205000D03*
X45000Y107500D03*
X95000D03*
G54D21*X102500Y85000D03*
X95000Y82500D03*
X87500Y80000D03*
X80000Y77500D03*
X72500Y75000D03*
G54D20*X67500Y162500D03*
X97500Y222500D03*
Y232500D03*
Y205000D03*
Y195000D03*
G54D19*X25000Y62500D03*
X225000Y250000D03*
G54D20*X157500Y222500D03*
Y232500D03*
X205000Y245000D03*
X157500Y205000D03*
Y195000D03*
X217500D03*
X117500Y162500D03*
G54D19*X225000Y62500D03*
G54D21*X125000Y92500D03*
X117500Y90000D03*
X110000Y87500D03*
X115000Y60000D03*
X125000Y57500D03*
X135000Y55000D03*
X147500Y52500D03*
X157500D03*
X165000Y57500D03*
X172500Y62500D03*
X180000Y67500D03*
G54D22*G54D23*G54D12*G54D23*G54D22*G54D23*G54D22*G54D12*G54D24*G54D20*G54D25*G54D26*G54D25*G54D27*G54D25*G54D26*G54D27*M02*
