G04 start of page 10 for group -4015 idx -4015 *
G04 Title: (unknown), toppaste *
G04 Creator: pcb 20140316 *
G04 CreationDate: Fri 19 May 2017 10:14:56 PM GMT UTC *
G04 For: thomasc *
G04 Format: Gerber/RS-274X *
G04 PCB-Dimensions (mil): 2500.00 3000.00 *
G04 PCB-Coordinate-Origin: lower left *
%MOIN*%
%FSLAX25Y25*%
%LNTOPPASTE*%
%ADD69R,0.0200X0.0200*%
G54D69*X140000Y228000D02*Y220000D01*
X130000Y228000D02*Y220000D01*
X135000Y228000D02*Y220000D01*
X125000Y228000D02*Y220000D01*
X120000Y228000D02*Y220000D01*
X110000Y228000D02*Y220000D01*
X145000Y228000D02*Y220000D01*
X115000Y228000D02*Y220000D01*
X135000Y206000D02*Y198000D01*
X130000Y206000D02*Y198000D01*
X125000Y206000D02*Y198000D01*
X120000Y206000D02*Y198000D01*
X140000Y206000D02*Y198000D01*
X145000Y206000D02*Y198000D01*
X110000Y206000D02*Y198000D01*
X115000Y206000D02*Y198000D01*
X80000Y228000D02*Y220000D01*
X70000Y228000D02*Y220000D01*
X75000Y228000D02*Y220000D01*
X65000Y228000D02*Y220000D01*
X60000Y228000D02*Y220000D01*
X50000Y228000D02*Y220000D01*
X85000Y228000D02*Y220000D01*
X55000Y228000D02*Y220000D01*
X75000Y206000D02*Y198000D01*
X70000Y206000D02*Y198000D01*
X65000Y206000D02*Y198000D01*
X60000Y206000D02*Y198000D01*
X80000Y206000D02*Y198000D01*
X85000Y206000D02*Y198000D01*
X50000Y206000D02*Y198000D01*
X55000Y206000D02*Y198000D01*
X200000Y228000D02*Y220000D01*
X190000Y228000D02*Y220000D01*
X195000Y228000D02*Y220000D01*
X185000Y228000D02*Y220000D01*
X180000Y228000D02*Y220000D01*
X170000Y228000D02*Y220000D01*
X205000Y228000D02*Y220000D01*
X175000Y228000D02*Y220000D01*
X195000Y206000D02*Y198000D01*
X190000Y206000D02*Y198000D01*
X185000Y206000D02*Y198000D01*
X180000Y206000D02*Y198000D01*
X200000Y206000D02*Y198000D01*
X205000Y206000D02*Y198000D01*
X170000Y206000D02*Y198000D01*
X175000Y206000D02*Y198000D01*
X64000Y120000D02*X72000D01*
X42000Y135000D02*X50000D01*
X64000Y150000D02*X72000D01*
X64000Y145000D02*X72000D01*
X64000Y125000D02*X72000D01*
X64000Y130000D02*X72000D01*
X64000Y135000D02*X72000D01*
X64000Y140000D02*X72000D01*
X42000Y120000D02*X50000D01*
X42000Y150000D02*X50000D01*
X42000Y145000D02*X50000D01*
X42000Y125000D02*X50000D01*
X42000Y130000D02*X50000D01*
X42000Y140000D02*X50000D01*
X114000Y120000D02*X122000D01*
X92000Y135000D02*X100000D01*
X114000Y150000D02*X122000D01*
X114000Y145000D02*X122000D01*
X114000Y125000D02*X122000D01*
X114000Y130000D02*X122000D01*
X114000Y135000D02*X122000D01*
X114000Y140000D02*X122000D01*
X92000Y120000D02*X100000D01*
X92000Y150000D02*X100000D01*
X92000Y145000D02*X100000D01*
X92000Y125000D02*X100000D01*
X92000Y130000D02*X100000D01*
X92000Y140000D02*X100000D01*
M02*
