G04 start of page 8 for group -4079 idx -4079 *
G04 Title: (unknown), topsilk *
G04 Creator: pcb 20140316 *
G04 CreationDate: Fri 19 May 2017 10:14:56 PM GMT UTC *
G04 For: thomasc *
G04 Format: Gerber/RS-274X *
G04 PCB-Dimensions (mil): 2500.00 3000.00 *
G04 PCB-Coordinate-Origin: lower left *
%MOIN*%
%FSLAX25Y25*%
%LNTOPSILK*%
%ADD67C,0.0150*%
%ADD66C,0.0100*%
G54D66*X53500Y100000D02*X57500Y108000D01*
X52500D02*X57500D01*
X59900Y103000D02*X63900Y108000D01*
X59900Y103000D02*X64900D01*
X63900Y108000D02*Y100000D01*
X67300Y101000D02*X68300Y100000D01*
X67300Y107000D02*Y101000D01*
Y107000D02*X68300Y108000D01*
X70300D01*
X71300Y107000D01*
Y101000D01*
X70300Y100000D02*X71300Y101000D01*
X68300Y100000D02*X70300D01*
X67300Y102000D02*X71300Y106000D01*
X73700Y108000D02*X77700D01*
X73700D02*Y104000D01*
X74700Y105000D01*
X76700D01*
X77700Y104000D01*
Y101000D01*
X76700Y100000D02*X77700Y101000D01*
X74700Y100000D02*X76700D01*
X73700Y101000D02*X74700Y100000D01*
X106000D02*X110000Y108000D01*
X105000D02*X110000D01*
X112400Y103000D02*X116400Y108000D01*
X112400Y103000D02*X117400D01*
X116400Y108000D02*Y100000D01*
X119800Y101000D02*X120800Y100000D01*
X119800Y107000D02*Y101000D01*
Y107000D02*X120800Y108000D01*
X122800D01*
X123800Y107000D01*
Y101000D01*
X122800Y100000D02*X123800Y101000D01*
X120800Y100000D02*X122800D01*
X119800Y102000D02*X123800Y106000D01*
X126200Y108000D02*X130200D01*
X126200D02*Y104000D01*
X127200Y105000D01*
X129200D01*
X130200Y104000D01*
Y101000D01*
X129200Y100000D02*X130200Y101000D01*
X127200Y100000D02*X129200D01*
X126200Y101000D02*X127200Y100000D01*
X157500Y113500D02*Y107500D01*
Y113500D02*X158900Y115500D01*
X161100D01*
X162500Y113500D01*
Y107500D01*
X157500Y111500D02*X162500D01*
X165900Y110500D02*Y107500D01*
Y110500D02*X166900Y111500D01*
X168900D01*
X164900D02*X165900Y110500D01*
X175300Y115500D02*Y107500D01*
X174300D02*X175300Y108500D01*
X172300Y107500D02*X174300D01*
X171300Y108500D02*X172300Y107500D01*
X171300Y110500D02*Y108500D01*
Y110500D02*X172300Y111500D01*
X174300D01*
X175300Y110500D01*
X177700Y111500D02*Y108500D01*
X178700Y107500D01*
X180700D01*
X181700Y108500D01*
Y111500D02*Y108500D01*
X184100Y113500D02*Y113300D01*
Y110500D02*Y107500D01*
X187100Y110500D02*Y107500D01*
Y110500D02*X188100Y111500D01*
X189100D01*
X190100Y110500D01*
Y107500D01*
X186100Y111500D02*X187100Y110500D01*
X192500D02*Y108500D01*
Y110500D02*X193500Y111500D01*
X195500D01*
X196500Y110500D01*
Y108500D01*
X195500Y107500D02*X196500Y108500D01*
X193500Y107500D02*X195500D01*
X192500Y108500D02*X193500Y107500D01*
X203500Y115500D02*Y107500D01*
X202500Y115500D02*X206500D01*
X207500Y114500D01*
Y112500D01*
X206500Y111500D02*X207500Y112500D01*
X203500Y111500D02*X206500D01*
X209900Y110500D02*Y108500D01*
Y110500D02*X210900Y111500D01*
X212900D01*
X213900Y110500D01*
Y108500D01*
X212900Y107500D02*X213900Y108500D01*
X210900Y107500D02*X212900D01*
X209900Y108500D02*X210900Y107500D01*
X216300Y111500D02*Y108500D01*
X217300Y107500D01*
X218300D01*
X219300Y108500D01*
Y111500D02*Y108500D01*
X220300Y107500D01*
X221300D01*
X222300Y108500D01*
Y111500D02*Y108500D01*
X225700Y107500D02*X228700D01*
X224700Y108500D02*X225700Y107500D01*
X224700Y110500D02*Y108500D01*
Y110500D02*X225700Y111500D01*
X227700D01*
X228700Y110500D01*
X224700Y109500D02*X228700D01*
Y110500D02*Y109500D01*
X232100Y110500D02*Y107500D01*
Y110500D02*X233100Y111500D01*
X235100D01*
X231100D02*X232100Y110500D01*
X54000Y245500D02*X55000Y244500D01*
X51000Y245500D02*X54000D01*
X50000Y244500D02*X51000Y245500D01*
X50000Y244500D02*Y242500D01*
X51000Y241500D01*
X54000D01*
X55000Y240500D01*
Y238500D01*
X54000Y237500D02*X55000Y238500D01*
X51000Y237500D02*X54000D01*
X50000Y238500D02*X51000Y237500D01*
X57400Y243500D02*Y243300D01*
Y240500D02*Y237500D01*
X59400Y238500D02*X60400Y237500D01*
X59400Y240100D02*Y238500D01*
Y240100D02*X60800Y241500D01*
X62000D01*
X63400Y240100D01*
Y238500D01*
X62400Y237500D02*X63400Y238500D01*
X60400Y237500D02*X62400D01*
X59400Y242900D02*X60800Y241500D01*
X59400Y244500D02*Y242900D01*
Y244500D02*X60400Y245500D01*
X62400D01*
X63400Y244500D01*
Y242900D01*
X62000Y241500D02*X63400Y242900D01*
X68800Y245500D02*X69800Y244500D01*
X66800Y245500D02*X68800D01*
X65800Y244500D02*X66800Y245500D01*
X65800Y244500D02*Y238500D01*
X66800Y237500D01*
X68800Y241900D02*X69800Y240900D01*
X65800Y241900D02*X68800D01*
X66800Y237500D02*X68800D01*
X69800Y238500D01*
Y240900D02*Y238500D01*
X75200Y245500D02*X76200Y244500D01*
X73200Y245500D02*X75200D01*
X72200Y244500D02*X73200Y245500D01*
X72200Y244500D02*Y238500D01*
X73200Y237500D01*
X75200Y241900D02*X76200Y240900D01*
X72200Y241900D02*X75200D01*
X73200Y237500D02*X75200D01*
X76200Y238500D01*
Y240900D02*Y238500D01*
X78600D02*X79600Y237500D01*
X78600Y244500D02*Y238500D01*
Y244500D02*X79600Y245500D01*
X81600D01*
X82600Y244500D01*
Y238500D01*
X81600Y237500D02*X82600Y238500D01*
X79600Y237500D02*X81600D01*
X78600Y239500D02*X82600Y243500D01*
X116500Y245500D02*X117500Y244500D01*
X113500Y245500D02*X116500D01*
X112500Y244500D02*X113500Y245500D01*
X112500Y244500D02*Y242500D01*
X113500Y241500D01*
X116500D01*
X117500Y240500D01*
Y238500D01*
X116500Y237500D02*X117500Y238500D01*
X113500Y237500D02*X116500D01*
X112500Y238500D02*X113500Y237500D01*
X119900Y243500D02*Y243300D01*
Y240500D02*Y237500D01*
X121900Y238500D02*X122900Y237500D01*
X121900Y240100D02*Y238500D01*
Y240100D02*X123300Y241500D01*
X124500D01*
X125900Y240100D01*
Y238500D01*
X124900Y237500D02*X125900Y238500D01*
X122900Y237500D02*X124900D01*
X121900Y242900D02*X123300Y241500D01*
X121900Y244500D02*Y242900D01*
Y244500D02*X122900Y245500D01*
X124900D01*
X125900Y244500D01*
Y242900D01*
X124500Y241500D02*X125900Y242900D01*
X131300Y245500D02*X132300Y244500D01*
X129300Y245500D02*X131300D01*
X128300Y244500D02*X129300Y245500D01*
X128300Y244500D02*Y238500D01*
X129300Y237500D01*
X131300Y241900D02*X132300Y240900D01*
X128300Y241900D02*X131300D01*
X129300Y237500D02*X131300D01*
X132300Y238500D01*
Y240900D02*Y238500D01*
X137700Y245500D02*X138700Y244500D01*
X135700Y245500D02*X137700D01*
X134700Y244500D02*X135700Y245500D01*
X134700Y244500D02*Y238500D01*
X135700Y237500D01*
X137700Y241900D02*X138700Y240900D01*
X134700Y241900D02*X137700D01*
X135700Y237500D02*X137700D01*
X138700Y238500D01*
Y240900D02*Y238500D01*
X141100D02*X142100Y237500D01*
X141100Y244500D02*Y238500D01*
Y244500D02*X142100Y245500D01*
X144100D01*
X145100Y244500D01*
Y238500D01*
X144100Y237500D02*X145100Y238500D01*
X142100Y237500D02*X144100D01*
X141100Y239500D02*X145100Y243500D01*
X164000Y245500D02*X165000Y244500D01*
X161000Y245500D02*X164000D01*
X160000Y244500D02*X161000Y245500D01*
X160000Y244500D02*Y242500D01*
X161000Y241500D01*
X164000D01*
X165000Y240500D01*
Y238500D01*
X164000Y237500D02*X165000Y238500D01*
X161000Y237500D02*X164000D01*
X160000Y238500D02*X161000Y237500D01*
X167400Y243500D02*Y243300D01*
Y240500D02*Y237500D01*
X169400Y238500D02*X170400Y237500D01*
X169400Y240100D02*Y238500D01*
Y240100D02*X170800Y241500D01*
X172000D01*
X173400Y240100D01*
Y238500D01*
X172400Y237500D02*X173400Y238500D01*
X170400Y237500D02*X172400D01*
X169400Y242900D02*X170800Y241500D01*
X169400Y244500D02*Y242900D01*
Y244500D02*X170400Y245500D01*
X172400D01*
X173400Y244500D01*
Y242900D01*
X172000Y241500D02*X173400Y242900D01*
X178800Y245500D02*X179800Y244500D01*
X176800Y245500D02*X178800D01*
X175800Y244500D02*X176800Y245500D01*
X175800Y244500D02*Y238500D01*
X176800Y237500D01*
X178800Y241900D02*X179800Y240900D01*
X175800Y241900D02*X178800D01*
X176800Y237500D02*X178800D01*
X179800Y238500D01*
Y240900D02*Y238500D01*
X185200Y245500D02*X186200Y244500D01*
X183200Y245500D02*X185200D01*
X182200Y244500D02*X183200Y245500D01*
X182200Y244500D02*Y238500D01*
X183200Y237500D01*
X185200Y241900D02*X186200Y240900D01*
X182200Y241900D02*X185200D01*
X183200Y237500D02*X185200D01*
X186200Y238500D01*
Y240900D02*Y238500D01*
X188600D02*X189600Y237500D01*
X188600Y244500D02*Y238500D01*
Y244500D02*X189600Y245500D01*
X191600D01*
X192600Y244500D01*
Y238500D01*
X191600Y237500D02*X192600Y238500D01*
X189600Y237500D02*X191600D01*
X188600Y239500D02*X192600Y243500D01*
X92500Y268000D02*Y260000D01*
Y268000D02*X97500Y260000D01*
Y268000D02*Y260000D01*
X100900D02*X103900D01*
X99900Y261000D02*X100900Y260000D01*
X99900Y263000D02*Y261000D01*
Y263000D02*X100900Y264000D01*
X102900D01*
X103900Y263000D01*
X99900Y262000D02*X103900D01*
Y263000D02*Y262000D01*
X106300Y264000D02*Y261000D01*
X107300Y260000D01*
X109300D01*
X110300Y261000D01*
Y264000D02*Y261000D01*
X113700Y263000D02*Y260000D01*
Y263000D02*X114700Y264000D01*
X116700D01*
X112700D02*X113700Y263000D01*
X122100Y264000D02*X123100Y263000D01*
X120100Y264000D02*X122100D01*
X119100Y263000D02*X120100Y264000D01*
X119100Y263000D02*Y261000D01*
X120100Y260000D01*
X123100Y264000D02*Y261000D01*
X124100Y260000D01*
X120100D02*X122100D01*
X123100Y261000D01*
X127500Y263000D02*Y260000D01*
Y263000D02*X128500Y264000D01*
X130500D01*
X126500D02*X127500Y263000D01*
X136900Y268000D02*Y260000D01*
X135900D02*X136900Y261000D01*
X133900Y260000D02*X135900D01*
X132900Y261000D02*X133900Y260000D01*
X132900Y263000D02*Y261000D01*
Y263000D02*X133900Y264000D01*
X135900D01*
X136900Y263000D01*
X139300Y264000D02*Y261000D01*
X140300Y260000D01*
X142300D01*
X143300Y261000D01*
Y264000D02*Y261000D01*
X145700Y266000D02*Y265800D01*
Y263000D02*Y260000D01*
X148700Y263000D02*Y260000D01*
Y263000D02*X149700Y264000D01*
X150700D01*
X151700Y263000D01*
Y260000D01*
X147700Y264000D02*X148700Y263000D01*
X154100D02*Y261000D01*
Y263000D02*X155100Y264000D01*
X157100D01*
X158100Y263000D01*
Y261000D01*
X157100Y260000D02*X158100Y261000D01*
X155100Y260000D02*X157100D01*
X154100Y261000D02*X155100Y260000D01*
X110000Y78000D02*Y70000D01*
Y78000D02*X115000Y70000D01*
Y78000D02*Y70000D01*
X118400D02*X121400D01*
X117400Y71000D02*X118400Y70000D01*
X117400Y73000D02*Y71000D01*
Y73000D02*X118400Y74000D01*
X120400D01*
X121400Y73000D01*
X117400Y72000D02*X121400D01*
Y73000D02*Y72000D01*
X123800Y74000D02*Y71000D01*
X124800Y70000D01*
X126800D01*
X127800Y71000D01*
Y74000D02*Y71000D01*
X131200Y73000D02*Y70000D01*
Y73000D02*X132200Y74000D01*
X134200D01*
X130200D02*X131200Y73000D01*
X136600D02*Y71000D01*
Y73000D02*X137600Y74000D01*
X139600D01*
X140600Y73000D01*
Y71000D01*
X139600Y70000D02*X140600Y71000D01*
X137600Y70000D02*X139600D01*
X136600Y71000D02*X137600Y70000D01*
X147000Y78000D02*X148000Y77000D01*
X144000Y78000D02*X147000D01*
X143000Y77000D02*X144000Y78000D01*
X143000Y77000D02*Y75000D01*
X144000Y74000D01*
X147000D01*
X148000Y73000D01*
Y71000D01*
X147000Y70000D02*X148000Y71000D01*
X144000Y70000D02*X147000D01*
X143000Y71000D02*X144000Y70000D01*
X151400Y74000D02*X154400D01*
X150400Y73000D02*X151400Y74000D01*
X150400Y73000D02*Y71000D01*
X151400Y70000D01*
X154400D01*
X159800Y74000D02*X160800Y73000D01*
X157800Y74000D02*X159800D01*
X156800Y73000D02*X157800Y74000D01*
X156800Y73000D02*Y71000D01*
X157800Y70000D01*
X160800Y74000D02*Y71000D01*
X161800Y70000D01*
X157800D02*X159800D01*
X160800Y71000D01*
X165200Y73000D02*Y70000D01*
Y73000D02*X166200Y74000D01*
X167200D01*
X168200Y73000D01*
Y70000D01*
X164200Y74000D02*X165200Y73000D01*
X16400Y85000D02*X19000D01*
X15000Y86400D02*X16400Y85000D01*
X15000Y91600D02*Y86400D01*
Y91600D02*X16400Y93000D01*
X19000D01*
X24400Y89000D02*X25400Y88000D01*
X22400Y89000D02*X24400D01*
X21400Y88000D02*X22400Y89000D01*
X21400Y88000D02*Y86000D01*
X22400Y85000D01*
X25400Y89000D02*Y86000D01*
X26400Y85000D01*
X22400D02*X24400D01*
X25400Y86000D01*
X29800Y85000D02*X32800D01*
X33800Y86000D01*
X32800Y87000D02*X33800Y86000D01*
X29800Y87000D02*X32800D01*
X28800Y88000D02*X29800Y87000D01*
X28800Y88000D02*X29800Y89000D01*
X32800D01*
X33800Y88000D01*
X28800Y86000D02*X29800Y85000D01*
X37200D02*X40200D01*
X36200Y86000D02*X37200Y85000D01*
X36200Y88000D02*Y86000D01*
Y88000D02*X37200Y89000D01*
X39200D01*
X40200Y88000D01*
X36200Y87000D02*X40200D01*
Y88000D02*Y87000D01*
X50200Y93000D02*X51200Y92000D01*
X47200Y93000D02*X50200D01*
X46200Y92000D02*X47200Y93000D01*
X46200Y92000D02*Y86000D01*
X47200Y85000D01*
X50200D01*
X51200Y86000D01*
Y88000D02*Y86000D01*
X50200Y89000D02*X51200Y88000D01*
X48200Y89000D02*X50200D01*
X54600Y88000D02*Y85000D01*
Y88000D02*X55600Y89000D01*
X56600D01*
X57600Y88000D01*
Y85000D01*
X53600Y89000D02*X54600Y88000D01*
X64000Y93000D02*Y85000D01*
X63000D02*X64000Y86000D01*
X61000Y85000D02*X63000D01*
X60000Y86000D02*X61000Y85000D01*
X60000Y88000D02*Y86000D01*
Y88000D02*X61000Y89000D01*
X63000D01*
X64000Y88000D01*
X186000Y83000D02*Y80000D01*
Y83000D02*X187000Y84000D01*
X189000D01*
X185000D02*X186000Y83000D01*
X192400Y80000D02*X195400D01*
X191400Y81000D02*X192400Y80000D01*
X191400Y83000D02*Y81000D01*
Y83000D02*X192400Y84000D01*
X194400D01*
X195400Y83000D01*
X191400Y82000D02*X195400D01*
Y83000D02*Y82000D01*
X197800Y84000D02*X199800Y80000D01*
X201800Y84000D02*X199800Y80000D01*
X207800Y86400D02*X209400Y88000D01*
Y80000D01*
X207800D02*X210800D01*
G54D67*X163000Y231000D02*Y195000D01*
X212000Y231000D02*Y195000D01*
G54D66*Y226000D02*X207000Y231000D01*
G54D67*X163000D02*X212000D01*
X163000Y195000D02*X212000D01*
G54D66*X170000Y120000D02*Y180000D01*
X230000D01*
Y120000D01*
X170000D01*
G54D67*X210000Y295000D02*Y275000D01*
X40000Y295000D02*Y275000D01*
G54D66*X42000D02*Y271000D01*
G54D67*X40000Y275000D02*X210000D01*
G54D66*X42000Y271000D02*X46000D01*
G54D67*X40000Y295000D02*X210000D01*
G54D66*X46000Y275000D02*Y271000D01*
X135000Y275000D02*Y271000D01*
X115000Y275000D02*Y271000D01*
X115500D02*X135000D01*
G54D67*X103000Y231000D02*Y195000D01*
X152000Y231000D02*Y195000D01*
G54D66*Y226000D02*X147000Y231000D01*
G54D67*X103000D02*X152000D01*
X103000Y195000D02*X152000D01*
X43000Y231000D02*Y195000D01*
X92000Y231000D02*Y195000D01*
G54D66*Y226000D02*X87000Y231000D01*
G54D67*X43000D02*X92000D01*
X43000Y195000D02*X92000D01*
X62500Y70000D02*X42500D01*
Y60000D02*X62500D01*
G54D66*X44500Y56000D02*X48500D01*
Y60000D01*
X44500D02*Y56000D01*
G54D67*X42500Y70000D02*Y60000D01*
X62500Y70000D02*Y60000D01*
X39000Y113000D02*X75000D01*
X39000Y157000D02*X75000D01*
G54D66*X44000D02*X39000Y152000D01*
G54D67*Y157000D02*Y113000D01*
X75000Y157000D02*Y113000D01*
X89000D02*X125000D01*
X89000Y157000D02*X125000D01*
G54D66*X94000D02*X89000Y152000D01*
G54D67*Y157000D02*Y113000D01*
X125000Y157000D02*Y113000D01*
M02*
