M48
INCH
T53C0.020
T52C0.035
T51C0.152
T50C0.042
T49C0.125
T48C0.045
T47C0.060
T46C0.052
%
T53
X007250Y007500
X008000Y007750
X008750Y008000
X009500Y008250
X010250Y008500
X011000Y008750
X011500Y006000
X011750Y009000
X012500Y009250
X012500Y005750
X013500Y005500
X014750Y005250
X015750Y005250
X016500Y005750
X017250Y006250
X018000Y006750
T52
X003750Y022250
X003750Y020500
X004500Y010750
X006750Y016250
X009500Y010750
X009750Y023250
X009750Y022250
X009750Y020500
X009750Y019500
X011750Y016250
X015750Y023250
X015750Y022250
X015750Y020500
X015750Y019500
X020500Y024500
X021750Y019500
T50
X004500Y029000
X004500Y028000
X004750Y006500
X005500Y029000
X005500Y028000
X005750Y006500
X006500Y029000
X006500Y028000
X007500Y029000
X007500Y028000
X008500Y029000
X008500Y028000
X009500Y029000
X009500Y028000
X010500Y029000
X010500Y028000
X011500Y029000
X011500Y028000
X012500Y029000
X012500Y028000
X013500Y029000
X013500Y028000
X014500Y029000
X014500Y028000
X015500Y029000
X015500Y028000
X016500Y029000
X016500Y028000
X017500Y029000
X017500Y028000
X018500Y029000
X018500Y028000
X019500Y029000
X019500Y028000
X020500Y029000
X020500Y028000
T48
X006040Y002500
X006580Y001380
X007120Y002500
X007660Y001380
X008200Y002500
X008740Y001380
X009280Y002500
X009820Y001380
X010360Y002500
X010900Y001380
X011440Y002500
X011980Y001380
X012520Y002500
X013060Y001380
X013600Y002500
X014140Y001380
X014680Y002500
X015220Y001380
X015760Y002500
X016300Y001380
X016840Y002500
X017380Y001380
X017920Y002500
X018460Y001380
X019000Y002500
T46
X020000Y015000
T47
X018750Y016250
X018750Y013750
X021250Y016250
X021250Y013750
T49
X003340Y001940
X021700Y001940
T51
X002500Y025000
X002500Y006250
X022500Y025000
X022500Y006250
M30
