G04 start of page 2 for group 0 idx 0 *
G04 Title: (unknown), component *
G04 Creator: pcb 20110918 *
G04 CreationDate: Wed 06 Jul 2016 08:46:05 AM GMT UTC *
G04 For: thomasc *
G04 Format: Gerber/RS-274X *
G04 PCB-Dimensions: 190000 192500 *
G04 PCB-Coordinate-Origin: lower left *
%MOIN*%
%FSLAX25Y25*%
%LNTOP*%
%ADD20C,0.0420*%
%ADD19C,0.0380*%
%ADD18C,0.0200*%
%ADD17C,0.1250*%
%ADD16C,0.0360*%
%ADD15C,0.0001*%
%ADD14C,0.0700*%
%ADD13C,0.0600*%
%ADD12C,0.1290*%
%ADD11C,0.0100*%
G54D11*X115000Y145000D02*X110000Y140000D01*
X135000Y145000D02*X130000Y140000D01*
Y117500D01*
X110000Y140000D02*Y112500D01*
X95000Y145000D02*X90000Y140000D01*
Y107500D01*
X80000Y140000D02*Y92500D01*
X125000Y145000D02*X120000Y140000D01*
X105000Y145000D02*X100000Y140000D01*
X85000Y145000D02*X80000Y140000D01*
X88500Y65000D02*Y51000D01*
X77500Y40000D01*
X97500Y65000D02*Y50000D01*
X85000Y37500D01*
X111000Y57000D02*Y49000D01*
X117500Y42500D01*
X134500Y57000D02*X140000Y62500D01*
Y97500D01*
X142500Y55000D02*Y92500D01*
X145000Y52500D02*Y87500D01*
X142500Y92500D02*X147500Y97500D01*
X120000Y85000D02*Y73000D01*
X111000Y83500D02*Y73000D01*
X120000Y100000D02*X102000Y82000D01*
Y73000D01*
X93000D02*Y85500D01*
X100000Y92500D01*
X84000Y73000D02*Y88500D01*
X80000Y92500D01*
X155000Y145000D02*X150000Y140000D01*
Y122500D01*
X165000Y145000D02*X160000Y140000D01*
Y125000D01*
X140000Y97500D02*X145000Y102500D01*
X175000Y145000D02*X170000Y140000D01*
Y127500D01*
X167500Y125000D01*
X160000D02*X120000Y85000D01*
X140000Y112500D02*X111000Y83500D01*
X120000Y140000D02*Y100000D01*
X100000Y140000D02*Y92500D01*
X145000Y87500D02*X155000Y97500D01*
X145000Y145000D02*X140000Y140000D01*
Y112500D01*
X132500Y45000D02*X142500Y55000D01*
X129000Y57000D02*X134500D01*
X120000D02*Y50000D01*
X125000Y45000D01*
X132500D01*
X117500Y42500D02*X135000D01*
X145000Y52500D01*
X55000Y145000D02*X50000Y140000D01*
X75000Y145000D02*X70000Y140000D01*
X50000D02*Y97500D01*
X70000Y140000D02*Y102500D01*
X60000Y140000D02*X65000Y145000D01*
X60000Y97500D02*Y140000D01*
X35000Y145000D02*X30000Y140000D01*
X40000Y97500D02*Y140000D01*
X45000Y145000D01*
X30000Y140000D02*Y97500D01*
X66000Y73000D02*Y81500D01*
X55000Y92500D01*
X45000D01*
X40000Y97500D01*
X75000Y73000D02*Y82500D01*
X60000Y97500D01*
X55000Y65000D02*X50000Y70000D01*
Y75000D01*
X15000Y50000D02*Y120000D01*
X17500Y122500D01*
Y115000D02*X20000Y117500D01*
Y110000D02*X22500Y112500D01*
X25000Y107500D02*Y85000D01*
X20000D02*Y110000D01*
X17500Y82500D02*Y115000D01*
X45000Y70000D02*X37500Y77500D01*
X47500Y72500D02*X40000Y80000D01*
X50000Y75000D02*X42500Y82500D01*
X27500D01*
X25000Y85000D02*X27500Y82500D01*
X40000Y80000D02*X25000D01*
X20000Y85000D01*
X37500Y77500D02*X22500D01*
X17500Y82500D01*
X12500Y47500D02*Y125000D01*
X61500Y65000D02*X55000D01*
X65000Y45000D02*X52500D01*
X47500Y50000D01*
Y72500D01*
X50000Y42500D02*X45000Y47500D01*
Y70000D01*
X70500Y65000D02*Y50500D01*
X65000Y45000D01*
X79500Y65000D02*Y49500D01*
X72500Y42500D01*
X50000D01*
X77500Y40000D02*X25000D01*
X15000Y50000D01*
X22500Y37500D02*X12500Y47500D01*
X85000Y37500D02*X22500D01*
G54D12*X29500Y65000D03*
X160500D03*
G54D13*X115500D03*
X120000Y57000D03*
X129000D03*
X124500Y65000D03*
X120000Y73000D03*
X133500Y65000D03*
X129000Y73000D03*
X97500Y65000D03*
X106500D03*
X102000Y57000D03*
Y73000D03*
X111000Y57000D03*
Y73000D03*
X93000Y57000D03*
Y73000D03*
X88500Y65000D03*
X84000Y57000D03*
X79500Y65000D03*
X75000Y57000D03*
X70500Y65000D03*
X66000Y57000D03*
X61500Y65000D03*
X84000Y73000D03*
X75000D03*
X66000D03*
X57000D03*
G54D14*X175000Y135000D03*
G54D15*G36*
X171500Y148500D02*Y141500D01*
X178500D01*
Y148500D01*
X171500D01*
G37*
G54D14*X165000Y145000D03*
X155000D03*
X165000Y135000D03*
X155000D03*
X145000D03*
X135000D03*
X125000D03*
X115000D03*
X145000Y145000D03*
X135000D03*
X125000D03*
X115000D03*
X105000Y135000D03*
X95000D03*
X85000D03*
X105000Y145000D03*
X95000D03*
X85000D03*
X75000D03*
X65000D03*
X55000D03*
X75000Y135000D03*
X65000D03*
X55000D03*
X45000D03*
Y145000D03*
X35000Y135000D03*
X25000D03*
X15000D03*
X35000Y145000D03*
X25000D03*
X15000D03*
G54D12*X20000Y15000D03*
Y177500D03*
G54D16*X17500Y122500D03*
X20000Y117500D03*
X90000Y107500D03*
X110000Y112500D03*
X22500D03*
X25000Y107500D03*
X50000Y97500D03*
X70000Y102500D03*
X30000Y97500D03*
X12500Y125000D03*
G54D12*X170000Y15000D03*
Y177500D03*
G54D16*X150000Y122500D03*
X130000Y117500D03*
X147500Y97500D03*
X145000Y102500D03*
X167500Y125000D03*
X155000Y97500D03*
G54D17*G54D18*G54D17*G54D18*G54D17*G54D19*G54D20*M02*
