M48
INCH
T36C0.020
T35C0.042
T34C0.038
T33C0.125
%
T36
X001750Y012250
X002000Y011750
X009000Y010750
X011000Y011250
X002250Y011250
X002500Y010750
X005000Y009750
X007000Y010250
X003000Y009750
X001250Y012500
X015000Y012250
X013000Y011750
X014750Y009750
X014500Y010250
X016750Y012500
X015500Y009750
T34
X011550Y006500
X012000Y005700
X012900Y005700
X012450Y006500
X012000Y007300
X013350Y006500
X012900Y007300
X009750Y006500
X010650Y006500
X010200Y005700
X010200Y007300
X011100Y005700
X011100Y007300
X009300Y005700
X009300Y007300
X008850Y006500
X008400Y005700
X007950Y006500
X007500Y005700
X007050Y006500
X006600Y005700
X006150Y006500
X008400Y007300
X007500Y007300
X006600Y007300
X005700Y007300
T35
X017500Y013500
X017500Y014500
X016500Y014500
X015500Y014500
X016500Y013500
X015500Y013500
X014500Y013500
X013500Y013500
X012500Y013500
X011500Y013500
X014500Y014500
X013500Y014500
X012500Y014500
X011500Y014500
X010500Y013500
X009500Y013500
X008500Y013500
X010500Y014500
X009500Y014500
X008500Y014500
X007500Y014500
X006500Y014500
X005500Y014500
X007500Y013500
X006500Y013500
X005500Y013500
X004500Y013500
X004500Y014500
X003500Y013500
X002500Y013500
X001500Y013500
X003500Y014500
X002500Y014500
X001500Y014500
T33
X002950Y006500
X016050Y006500
X002000Y001500
X002000Y017750
X017000Y001500
X017000Y017750
M30
