G04 start of page 3 for group 1 idx 1 *
G04 Title: (unknown), solder *
G04 Creator: pcb 20110918 *
G04 CreationDate: Wed 06 Jul 2016 08:46:05 AM GMT UTC *
G04 For: thomasc *
G04 Format: Gerber/RS-274X *
G04 PCB-Dimensions: 190000 192500 *
G04 PCB-Coordinate-Origin: lower left *
%MOIN*%
%FSLAX25Y25*%
%LNBOTTOM*%
%ADD31C,0.0420*%
%ADD30C,0.0380*%
%ADD29C,0.0200*%
%ADD28C,0.1250*%
%ADD27C,0.0360*%
%ADD26C,0.0001*%
%ADD25C,0.0700*%
%ADD24C,0.0600*%
%ADD23C,0.1290*%
%ADD22C,0.0100*%
%ADD21C,0.0250*%
G54D21*X15000Y135000D02*X175000D01*
G54D22*X15000Y127500D02*X165000D01*
X15000D02*X12500Y125000D01*
G54D21*X129000Y73000D02*X140000D01*
X144500Y68500D01*
Y52000D01*
X140000Y47500D01*
X106000D01*
X102000Y51500D01*
Y57000D01*
X140000Y73000D02*X175000Y108000D01*
G54D22*X150000Y92500D02*X155000Y97500D01*
G54D21*X175000Y108000D02*Y135000D01*
G54D22*X165000Y127500D02*X167500Y125000D01*
X57000Y73000D02*X52500Y68500D01*
Y52500D01*
X57500Y47500D01*
X98000D01*
X102000Y51500D01*
X90000Y107500D02*X25000D01*
X22500Y112500D02*X110000D01*
X17500Y122500D02*X150000D01*
X130000Y117500D02*X20000D01*
X70000Y102500D02*X145000D01*
X50000Y97500D02*X147500D01*
X35000Y92500D02*X150000D01*
X30000Y97500D02*X35000Y92500D01*
G54D23*X29500Y65000D03*
X160500D03*
G54D24*X115500D03*
X120000Y57000D03*
X129000D03*
X124500Y65000D03*
X120000Y73000D03*
X133500Y65000D03*
X129000Y73000D03*
X97500Y65000D03*
X106500D03*
X102000Y57000D03*
Y73000D03*
X111000Y57000D03*
Y73000D03*
X93000Y57000D03*
Y73000D03*
X88500Y65000D03*
X84000Y57000D03*
X79500Y65000D03*
X75000Y57000D03*
X70500Y65000D03*
X66000Y57000D03*
X61500Y65000D03*
X84000Y73000D03*
X75000D03*
X66000D03*
X57000D03*
G54D25*X175000Y135000D03*
G54D26*G36*
X171500Y148500D02*Y141500D01*
X178500D01*
Y148500D01*
X171500D01*
G37*
G54D25*X165000Y145000D03*
X155000D03*
X165000Y135000D03*
X155000D03*
X145000D03*
X135000D03*
X125000D03*
X115000D03*
X145000Y145000D03*
X135000D03*
X125000D03*
X115000D03*
X105000Y135000D03*
X95000D03*
X85000D03*
X105000Y145000D03*
X95000D03*
X85000D03*
X75000D03*
X65000D03*
X55000D03*
X75000Y135000D03*
X65000D03*
X55000D03*
X45000D03*
Y145000D03*
X35000Y135000D03*
X25000D03*
X15000D03*
X35000Y145000D03*
X25000D03*
X15000D03*
G54D23*X20000Y15000D03*
Y177500D03*
G54D27*X17500Y122500D03*
X20000Y117500D03*
X90000Y107500D03*
X110000Y112500D03*
X22500D03*
X25000Y107500D03*
X50000Y97500D03*
X70000Y102500D03*
X30000Y97500D03*
X12500Y125000D03*
G54D23*X170000Y15000D03*
Y177500D03*
G54D27*X150000Y122500D03*
X130000Y117500D03*
X147500Y97500D03*
X145000Y102500D03*
X167500Y125000D03*
X155000Y97500D03*
G54D28*G54D29*G54D28*G54D29*G54D28*G54D30*G54D31*M02*
