G04 start of page 7 for group -4062 idx -4062 *
G04 Title: (unknown), soldermask *
G04 Creator: pcb 20110918 *
G04 CreationDate: Wed 06 Jul 2016 08:46:05 AM GMT UTC *
G04 For: thomasc *
G04 Format: Gerber/RS-274X *
G04 PCB-Dimensions: 190000 192500 *
G04 PCB-Coordinate-Origin: lower left *
%MOIN*%
%FSLAX25Y25*%
%LNBOTTOMMASK*%
%ADD44C,0.0001*%
%ADD43C,0.0760*%
%ADD42C,0.0660*%
%ADD41C,0.1350*%
G54D41*X29500Y65000D03*
X160500D03*
G54D42*X115500D03*
X120000Y57000D03*
X129000D03*
X124500Y65000D03*
X120000Y73000D03*
X133500Y65000D03*
X129000Y73000D03*
X97500Y65000D03*
X106500D03*
X102000Y57000D03*
Y73000D03*
X111000Y57000D03*
Y73000D03*
X93000Y57000D03*
Y73000D03*
X88500Y65000D03*
X84000Y57000D03*
X79500Y65000D03*
X75000Y57000D03*
X70500Y65000D03*
X66000Y57000D03*
X61500Y65000D03*
X84000Y73000D03*
X75000D03*
X66000D03*
X57000D03*
G54D43*X175000Y135000D03*
G54D44*G36*
X171200Y148800D02*Y141200D01*
X178800D01*
Y148800D01*
X171200D01*
G37*
G54D43*X165000Y145000D03*
X155000D03*
X165000Y135000D03*
X155000D03*
X145000D03*
X135000D03*
X125000D03*
X115000D03*
X145000Y145000D03*
X135000D03*
X125000D03*
X115000D03*
X105000Y135000D03*
X95000D03*
X85000D03*
X105000Y145000D03*
X95000D03*
X85000D03*
X75000D03*
X65000D03*
X55000D03*
X75000Y135000D03*
X65000D03*
X55000D03*
X45000D03*
Y145000D03*
X35000Y135000D03*
X25000D03*
X15000D03*
X35000Y145000D03*
X25000D03*
X15000D03*
M02*
