G04 start of page 7 for group -4062 idx -4062 *
G04 Title: (unknown), soldermask *
G04 Creator: pcb 20140316 *
G04 CreationDate: Wed 12 Dec 2018 10:26:37 PM GMT UTC *
G04 For: thomasc *
G04 Format: Gerber/RS-274X *
G04 PCB-Dimensions (mil): 3750.00 5000.00 *
G04 PCB-Coordinate-Origin: lower left *
%MOIN*%
%FSLAX25Y25*%
%LNBOTTOMMASK*%
%ADD48C,0.0001*%
%ADD47C,0.0760*%
G54D47*X260000Y430000D03*
X270000D03*
X250000D03*
X240000D03*
G54D48*G36*
X296200Y433800D02*Y426200D01*
X303800D01*
Y433800D01*
X296200D01*
G37*
G54D47*X280000Y430000D03*
X290000D03*
X230000D03*
G54D48*G36*
X206200Y433800D02*Y426200D01*
X213800D01*
Y433800D01*
X206200D01*
G37*
G54D47*X200000Y430000D03*
X180000D03*
X190000D03*
G54D48*G36*
X326200Y433800D02*Y426200D01*
X333800D01*
Y433800D01*
X326200D01*
G37*
G54D47*X340000Y420000D03*
X330000D03*
X340000Y430000D03*
Y410000D03*
X330000D03*
X340000Y400000D03*
X170000Y430000D03*
X160000D03*
X150000D03*
X140000D03*
X84000D03*
X94000D03*
X104000D03*
X114000D03*
X124000D03*
G54D48*G36*
X156200Y243800D02*Y236200D01*
X163800D01*
Y243800D01*
X156200D01*
G37*
G54D47*X170000Y240000D03*
X190000D03*
X180000D03*
X120000D03*
X130000D03*
X140000D03*
G54D48*G36*
X30200Y433800D02*Y426200D01*
X37800D01*
Y433800D01*
X30200D01*
G37*
G54D47*X74000Y430000D03*
X64000D03*
X54000D03*
X44000D03*
X140000Y345000D03*
G54D48*G36*
X136200Y358800D02*Y351200D01*
X143800D01*
Y358800D01*
X136200D01*
G37*
G54D47*X130000Y345000D03*
Y355000D03*
X120000Y345000D03*
Y355000D03*
X110000Y345000D03*
Y355000D03*
X100000Y345000D03*
Y355000D03*
G54D48*G36*
X66200Y243800D02*Y236200D01*
X73800D01*
Y243800D01*
X66200D01*
G37*
G54D47*X110000Y240000D03*
X100000D03*
X90000D03*
X80000D03*
X55000Y160000D03*
G54D48*G36*
X51200Y153800D02*Y146200D01*
X58800D01*
Y153800D01*
X51200D01*
G37*
G54D47*X65000Y160000D03*
Y150000D03*
X75000Y160000D03*
X85000D03*
X95000D03*
X105000D03*
X115000D03*
X125000D03*
X75000Y150000D03*
X85000D03*
X95000D03*
X105000D03*
X115000D03*
X125000D03*
G54D48*G36*
X246200Y243800D02*Y236200D01*
X253800D01*
Y243800D01*
X246200D01*
G37*
G54D47*X270000Y240000D03*
X260000D03*
X290000D03*
X280000D03*
X300000D03*
X310000D03*
X320000D03*
X200000D03*
X210000D03*
X220000D03*
X230000D03*
X330000Y400000D03*
Y390000D03*
Y380000D03*
X340000Y390000D03*
Y380000D03*
Y370000D03*
Y360000D03*
Y350000D03*
Y340000D03*
X330000Y370000D03*
Y360000D03*
Y350000D03*
Y340000D03*
X340000Y330000D03*
X330000D03*
Y320000D03*
Y310000D03*
X340000Y320000D03*
Y310000D03*
Y300000D03*
Y290000D03*
Y280000D03*
Y270000D03*
X330000Y300000D03*
Y290000D03*
Y280000D03*
Y270000D03*
X340000Y260000D03*
X330000D03*
X275000Y285000D03*
G54D48*G36*
X281200Y288800D02*Y281200D01*
X288800D01*
Y288800D01*
X281200D01*
G37*
G54D47*X275000Y295000D03*
X285000D03*
X275000Y305000D03*
X285000D03*
X275000Y315000D03*
X285000D03*
X220500Y350000D03*
Y340000D03*
Y330000D03*
G54D48*G36*
X206700Y353800D02*Y346200D01*
X214300D01*
Y353800D01*
X206700D01*
G37*
G54D47*X210500Y340000D03*
Y330000D03*
X275000Y325000D03*
X285000D03*
X275000Y335000D03*
X285000D03*
Y345000D03*
Y355000D03*
Y365000D03*
Y375000D03*
X275000Y345000D03*
Y355000D03*
Y365000D03*
Y375000D03*
M02*
