G04 start of page 8 for group -4079 idx -4079 *
G04 Title: (unknown), topsilk *
G04 Creator: pcb 20140316 *
G04 CreationDate: Wed 12 Dec 2018 10:26:37 PM GMT UTC *
G04 For: thomasc *
G04 Format: Gerber/RS-274X *
G04 PCB-Dimensions (mil): 3750.00 5000.00 *
G04 PCB-Coordinate-Origin: lower left *
%MOIN*%
%FSLAX25Y25*%
%LNTOPSILK*%
%ADD52C,0.0150*%
%ADD51C,0.0120*%
%ADD50C,0.0160*%
%ADD49C,0.0100*%
G54D49*X260000Y357500D02*X267500Y365000D01*
X208000Y322000D02*X210000D01*
X209000D02*Y314000D01*
X208000D02*X210000D01*
X216400Y322000D02*X217400Y321000D01*
X213400Y322000D02*X216400D01*
X212400Y321000D02*X213400Y322000D01*
X212400Y321000D02*Y319000D01*
X213400Y318000D01*
X216400D01*
X217400Y317000D01*
Y315000D01*
X216400Y314000D02*X217400Y315000D01*
X213400Y314000D02*X216400D01*
X212400Y315000D02*X213400Y314000D01*
X220800Y322000D02*Y314000D01*
X219800Y322000D02*X223800D01*
X224800Y321000D01*
Y319000D01*
X223800Y318000D02*X224800Y319000D01*
X220800Y318000D02*X223800D01*
X251500Y358000D02*X252500Y357000D01*
X248500Y358000D02*X251500D01*
X247500Y357000D02*X248500Y358000D01*
X247500Y357000D02*Y351000D01*
X248500Y350000D01*
X251500D01*
X252500Y351000D01*
Y353000D02*Y351000D01*
X251500Y354000D02*X252500Y353000D01*
X249500Y354000D02*X251500D01*
X255900Y353000D02*Y350000D01*
Y353000D02*X256900Y354000D01*
X257900D01*
X258900Y353000D01*
Y350000D01*
X254900Y354000D02*X255900Y353000D01*
X265300Y358000D02*Y350000D01*
X264300D02*X265300Y351000D01*
X262300Y350000D02*X264300D01*
X261300Y351000D02*X262300Y350000D01*
X261300Y353000D02*Y351000D01*
Y353000D02*X262300Y354000D01*
X264300D01*
X265300Y353000D01*
X295000Y373000D02*X297000Y365000D01*
X299000Y373000D01*
X305400D02*Y365000D01*
X304400D02*X305400Y366000D01*
X302400Y365000D02*X304400D01*
X301400Y366000D02*X302400Y365000D01*
X301400Y368000D02*Y366000D01*
Y368000D02*X302400Y369000D01*
X304400D01*
X305400Y368000D01*
X311800Y373000D02*Y365000D01*
X310800D02*X311800Y366000D01*
X308800Y365000D02*X310800D01*
X307800Y366000D02*X308800Y365000D01*
X307800Y368000D02*Y366000D01*
Y368000D02*X308800Y369000D01*
X310800D01*
X311800Y368000D01*
X260000Y393000D02*X264000D01*
X265000Y392000D01*
Y390000D01*
X264000Y389000D02*X265000Y390000D01*
X261000Y389000D02*X264000D01*
X261000Y393000D02*Y385000D01*
X262600Y389000D02*X265000Y385000D01*
X268400D02*X271400D01*
X272400Y386000D01*
X271400Y387000D02*X272400Y386000D01*
X268400Y387000D02*X271400D01*
X267400Y388000D02*X268400Y387000D01*
X267400Y388000D02*X268400Y389000D01*
X271400D01*
X272400Y388000D01*
X267400Y386000D02*X268400Y385000D01*
X275800Y393000D02*Y386000D01*
X276800Y385000D01*
X274800Y390000D02*X276800D01*
X242500Y389000D02*X244500Y391500D01*
X242500Y389000D02*X245000D01*
X244500Y391500D02*Y387500D01*
X246700D02*X248700Y391500D01*
X246200D02*X248700D01*
X249900D02*Y387500D01*
Y389000D02*X251400Y387500D01*
X249900Y389000D02*X250900Y390000D01*
X113500Y327500D02*X117500Y335500D01*
X112500D02*X117500D01*
X123500Y327500D02*X124500D01*
X126900D02*X127900D01*
X133900Y328500D02*X134900Y327500D01*
X133900Y334500D02*Y328500D01*
Y334500D02*X134900Y335500D01*
X136900D01*
X137900Y334500D01*
Y328500D01*
X136900Y327500D02*X137900Y328500D01*
X134900Y327500D02*X136900D01*
X133900Y329500D02*X137900Y333500D01*
X82500Y373000D02*X84500Y365000D01*
X86500Y373000D01*
X92900D02*Y365000D01*
X91900D02*X92900Y366000D01*
X89900Y365000D02*X91900D01*
X88900Y366000D02*X89900Y365000D01*
X88900Y368000D02*Y366000D01*
Y368000D02*X89900Y369000D01*
X91900D01*
X92900Y368000D01*
X99300Y373000D02*Y365000D01*
X98300D02*X99300Y366000D01*
X96300Y365000D02*X98300D01*
X95300Y366000D02*X96300Y365000D01*
X95300Y368000D02*Y366000D01*
Y368000D02*X96300Y369000D01*
X98300D01*
X99300Y368000D01*
X86500Y335500D02*X87500Y334500D01*
X83500Y335500D02*X86500D01*
X82500Y334500D02*X83500Y335500D01*
X82500Y334500D02*Y328500D01*
X83500Y327500D01*
X86500D01*
X87500Y328500D01*
Y330500D02*Y328500D01*
X86500Y331500D02*X87500Y330500D01*
X84500Y331500D02*X86500D01*
X90900Y330500D02*Y327500D01*
Y330500D02*X91900Y331500D01*
X92900D01*
X93900Y330500D01*
Y327500D01*
X89900Y331500D02*X90900Y330500D01*
X100300Y335500D02*Y327500D01*
X99300D02*X100300Y328500D01*
X97300Y327500D02*X99300D01*
X96300Y328500D02*X97300Y327500D01*
X96300Y330500D02*Y328500D01*
Y330500D02*X97300Y331500D01*
X99300D01*
X100300Y330500D01*
X141000Y195000D02*X138500Y197000D01*
X141000Y197500D02*Y195000D01*
X138500Y197000D02*X142500D01*
Y199200D02*X138500Y201200D01*
Y198700D01*
X142000Y202400D02*X142500Y202900D01*
X139000Y202400D02*X142000D01*
X139000D02*X138500Y202900D01*
Y203900D02*Y202900D01*
Y203900D02*X139000Y204400D01*
X142000D01*
X142500Y203900D02*X142000Y204400D01*
X142500Y203900D02*Y202900D01*
X141500Y202400D02*X139500Y204400D01*
X138500Y205600D02*X142500D01*
X141000D02*X142500Y207100D01*
X141000Y205600D02*X140000Y206600D01*
X295000Y388000D02*Y380000D01*
X299000D01*
X301400Y384400D02*X304400D01*
X301400Y380000D02*X305400D01*
X301400Y388000D02*Y380000D01*
Y388000D02*X305400D01*
X308800D02*Y380000D01*
X311400Y388000D02*X312800Y386600D01*
Y381400D01*
X311400Y380000D02*X312800Y381400D01*
X307800Y380000D02*X311400D01*
X307800Y388000D02*X311400D01*
X196500Y394000D02*X197000Y393500D01*
X195500Y394000D02*X196500D01*
X195000Y393500D02*X195500Y394000D01*
X195000Y393500D02*Y390500D01*
X195500Y390000D01*
X196500Y392200D02*X197000Y391700D01*
X195000Y392200D02*X196500D01*
X195500Y390000D02*X196500D01*
X197000Y390500D01*
Y391700D02*Y390500D01*
X198200D02*X198700Y390000D01*
X198200Y391300D02*Y390500D01*
Y391300D02*X198900Y392000D01*
X199500D01*
X200200Y391300D01*
Y390500D01*
X199700Y390000D02*X200200Y390500D01*
X198700Y390000D02*X199700D01*
X198200Y392700D02*X198900Y392000D01*
X198200Y393500D02*Y392700D01*
Y393500D02*X198700Y394000D01*
X199700D01*
X200200Y393500D01*
Y392700D01*
X199500Y392000D02*X200200Y392700D01*
X201400Y390500D02*X201900Y390000D01*
X201400Y393500D02*Y390500D01*
Y393500D02*X201900Y394000D01*
X202900D01*
X203400Y393500D01*
Y390500D01*
X202900Y390000D02*X203400Y390500D01*
X201900Y390000D02*X202900D01*
X201400Y391000D02*X203400Y393000D01*
X204600Y394000D02*X206600D01*
X207100Y393500D01*
Y392500D01*
X206600Y392000D02*X207100Y392500D01*
X205100Y392000D02*X206600D01*
X205100Y394000D02*Y390000D01*
X205900Y392000D02*X207100Y390000D01*
G54D50*X87500Y478500D02*Y464500D01*
X89500Y462500D01*
X93500D01*
X95500Y464500D01*
Y478500D02*Y464500D01*
X108300Y478500D02*X110300Y476500D01*
X102300Y478500D02*X108300D01*
X100300Y476500D02*X102300Y478500D01*
X100300Y476500D02*Y472500D01*
X102300Y470500D01*
X108300D01*
X110300Y468500D01*
Y464500D01*
X108300Y462500D02*X110300Y464500D01*
X102300Y462500D02*X108300D01*
X100300Y464500D02*X102300Y462500D01*
X115100Y471300D02*X121100D01*
X115100Y462500D02*X123100D01*
X115100Y478500D02*Y462500D01*
Y478500D02*X123100D01*
X143100D02*X145100Y476500D01*
X137100Y478500D02*X143100D01*
X135100Y476500D02*X137100Y478500D01*
X135100Y476500D02*Y472500D01*
X137100Y470500D01*
X143100D01*
X145100Y468500D01*
Y464500D01*
X143100Y462500D02*X145100Y464500D01*
X137100Y462500D02*X143100D01*
X135100Y464500D02*X137100Y462500D01*
X149900Y470500D02*Y464500D01*
X151900Y462500D01*
X157900Y470500D02*Y458500D01*
X155900Y456500D02*X157900Y458500D01*
X151900Y456500D02*X155900D01*
X149900Y458500D02*X151900Y456500D01*
Y462500D02*X155900D01*
X157900Y464500D01*
X164700Y468500D02*Y462500D01*
Y468500D02*X166700Y470500D01*
X168700D01*
X170700Y468500D01*
Y462500D01*
X162700Y470500D02*X164700Y468500D01*
X177500Y470500D02*X183500D01*
X175500Y468500D02*X177500Y470500D01*
X175500Y468500D02*Y464500D01*
X177500Y462500D01*
X183500D01*
X188300D02*X196300D01*
X198300Y464500D01*
Y469300D02*Y464500D01*
X196300Y471300D02*X198300Y469300D01*
X190300Y471300D02*X196300D01*
X190300Y478500D02*Y462500D01*
X188300Y478500D02*X196300D01*
X198300Y476500D01*
Y473300D01*
X196300Y471300D02*X198300Y473300D01*
X203100Y468500D02*Y464500D01*
Y468500D02*X205100Y470500D01*
X209100D01*
X211100Y468500D01*
Y464500D01*
X209100Y462500D02*X211100Y464500D01*
X205100Y462500D02*X209100D01*
X203100Y464500D02*X205100Y462500D01*
X215900Y470500D02*X223900Y462500D01*
X215900D02*X223900Y470500D01*
X237900Y468500D02*Y462500D01*
Y468500D02*X239900Y470500D01*
X243900D01*
X235900D02*X237900Y468500D01*
X250700Y462500D02*X256700D01*
X248700Y464500D02*X250700Y462500D01*
X248700Y468500D02*Y464500D01*
Y468500D02*X250700Y470500D01*
X254700D01*
X256700Y468500D01*
X248700Y466500D02*X256700D01*
Y468500D02*Y466500D01*
X261500Y470500D02*X265500Y462500D01*
X269500Y470500D02*X265500Y462500D01*
X281500Y476500D02*X283500Y478500D01*
X289500D01*
X291500Y476500D01*
Y472500D01*
X281500Y462500D02*X291500Y472500D01*
X281500Y462500D02*X291500D01*
G54D51*X229000Y287000D02*Y275000D01*
X232900Y287000D02*X235000Y284900D01*
Y277100D01*
X232900Y275000D02*X235000Y277100D01*
X227500Y275000D02*X232900D01*
X227500Y287000D02*X232900D01*
G54D52*X238600Y284000D02*Y283700D01*
G54D51*Y279500D02*Y275000D01*
X246100Y281000D02*X247600Y279500D01*
X243100Y281000D02*X246100D01*
X241600Y279500D02*X243100Y281000D01*
X241600Y279500D02*Y276500D01*
X243100Y275000D01*
X246100D01*
X247600Y276500D01*
X241600Y272000D02*X243100Y270500D01*
X246100D01*
X247600Y272000D01*
Y281000D02*Y272000D01*
X251200Y287000D02*X254200D01*
X252700D02*Y275000D01*
X251200D02*X254200D01*
X257800Y285500D02*Y276500D01*
Y285500D02*X259300Y287000D01*
X262300D01*
X263800Y285500D01*
Y276500D01*
X262300Y275000D02*X263800Y276500D01*
X259300Y275000D02*X262300D01*
X257800Y276500D02*X259300Y275000D01*
G54D49*X218500Y192500D02*X216000Y194500D01*
X218500Y195000D02*Y192500D01*
X216000Y194500D02*X220000D01*
Y196700D02*X216000Y198700D01*
Y196200D01*
X219500Y199900D02*X220000Y200400D01*
X216500Y199900D02*X219500D01*
X216500D02*X216000Y200400D01*
Y201400D02*Y200400D01*
Y201400D02*X216500Y201900D01*
X219500D01*
X220000Y201400D02*X219500Y201900D01*
X220000Y201400D02*Y200400D01*
X219000Y199900D02*X217000Y201900D01*
X216000Y203100D02*X220000D01*
X218500D02*X220000Y204600D01*
X218500Y203100D02*X217500Y204100D01*
G54D51*X41500Y357000D02*Y345000D01*
X45400Y357000D02*X47500Y354900D01*
Y347100D01*
X45400Y345000D02*X47500Y347100D01*
X40000Y345000D02*X45400D01*
X40000Y357000D02*X45400D01*
G54D52*X51100Y354000D02*Y353700D01*
G54D51*Y349500D02*Y345000D01*
X58600Y351000D02*X60100Y349500D01*
X55600Y351000D02*X58600D01*
X54100Y349500D02*X55600Y351000D01*
X54100Y349500D02*Y346500D01*
X55600Y345000D01*
X58600D01*
X60100Y346500D01*
X54100Y342000D02*X55600Y340500D01*
X58600D01*
X60100Y342000D01*
Y351000D02*Y342000D01*
X63700Y357000D02*X66700D01*
X65200D02*Y345000D01*
X63700D02*X66700D01*
X70300Y355500D02*Y346500D01*
Y355500D02*X71800Y357000D01*
X74800D01*
X76300Y355500D01*
Y346500D01*
X74800Y345000D02*X76300Y346500D01*
X71800Y345000D02*X74800D01*
X70300Y346500D02*X71800Y345000D01*
G54D49*X72500Y131000D02*X73500Y130000D01*
X72500Y137000D02*Y131000D01*
Y137000D02*X73500Y138000D01*
X75500D01*
X76500Y137000D01*
Y131000D01*
X75500Y130000D02*X76500Y131000D01*
X73500Y130000D02*X75500D01*
X72500Y132000D02*X76500Y136000D01*
X82500Y130000D02*X83500D01*
X85900D02*X86900D01*
X93900D02*X97900Y138000D01*
X92900D02*X97900D01*
X56500Y178000D02*X57500Y177000D01*
X53500Y178000D02*X56500D01*
X52500Y177000D02*X53500Y178000D01*
X52500Y177000D02*Y171000D01*
X53500Y170000D01*
X56500D01*
X57500Y171000D01*
Y173000D02*Y171000D01*
X56500Y174000D02*X57500Y173000D01*
X54500Y174000D02*X56500D01*
X60900Y173000D02*Y170000D01*
Y173000D02*X61900Y174000D01*
X62900D01*
X63900Y173000D01*
Y170000D01*
X59900Y174000D02*X60900Y173000D01*
X70300Y178000D02*Y170000D01*
X69300D02*X70300Y171000D01*
X67300Y170000D02*X69300D01*
X66300Y171000D02*X67300Y170000D01*
X66300Y173000D02*Y171000D01*
Y173000D02*X67300Y174000D01*
X69300D01*
X70300Y173000D01*
G54D51*X17500Y159000D02*Y150000D01*
Y159000D02*X19600Y162000D01*
X22900D01*
X25000Y159000D01*
Y150000D01*
X17500Y156000D02*X25000D01*
X28600Y162000D02*X31600D01*
X30100D02*Y150000D01*
X28600D02*X31600D01*
X36700Y154500D02*Y150000D01*
Y154500D02*X38200Y156000D01*
X39700D01*
X41200Y154500D01*
Y150000D01*
X35200Y156000D02*X36700Y154500D01*
G54D49*X262000Y337500D02*X263000Y336500D01*
Y333500D01*
X262000Y332500D01*
X260000D02*X262000D01*
X255000Y337500D02*X260000Y332500D01*
X255000Y337500D02*Y332500D01*
X262000Y330100D02*X263000Y329100D01*
Y327100D01*
X262000Y326100D01*
X255000Y327100D02*X256000Y326100D01*
X255000Y329100D02*Y327100D01*
X256000Y330100D02*X255000Y329100D01*
X259400D02*Y327100D01*
X260400Y326100D02*X262000D01*
X256000D02*X258400D01*
X259400Y327100D01*
X260400Y326100D02*X259400Y327100D01*
X255000Y320100D02*Y319100D01*
Y316700D02*Y315700D01*
X256000Y309700D02*X255000Y308700D01*
X256000Y309700D02*X257600D01*
X259000Y308300D01*
Y307100D01*
X257600Y305700D01*
X256000D02*X257600D01*
X255000Y306700D02*X256000Y305700D01*
X255000Y308700D02*Y306700D01*
X260400Y309700D02*X259000Y308300D01*
X260400Y309700D02*X262000D01*
X263000Y308700D01*
Y306700D01*
X262000Y305700D01*
X260400D02*X262000D01*
X259000Y307100D02*X260400Y305700D01*
X12500Y112500D02*Y42500D01*
X72500D01*
Y112500D01*
X12500D01*
X87500Y76500D02*Y51500D01*
X77500D02*X87500D01*
X77500Y76500D02*Y51500D01*
Y76500D02*X87500D01*
X91500Y52000D02*X123500D01*
X91500Y68000D02*Y52000D01*
Y68000D02*X123500D01*
Y52000D01*
X91500Y72000D02*X123500D01*
X91500Y88000D02*Y72000D01*
Y88000D02*X123500D01*
Y72000D01*
G54D52*X129000Y435000D02*Y425000D01*
X29000Y435000D02*Y425000D01*
G54D49*X31000D02*Y421000D01*
X35000D02*Y425000D01*
X31000Y421000D02*X35000D01*
G54D52*X29000Y425000D02*X129000D01*
Y435000D02*X29000D01*
X145000Y245000D02*Y235000D01*
X65000Y245000D02*Y235000D01*
G54D49*X67000D02*Y231000D01*
X71000D02*Y235000D01*
X67000Y231000D02*X71000D01*
G54D52*X65000Y235000D02*X145000D01*
Y245000D02*X65000D01*
G54D49*X188500Y407500D02*X213500D01*
Y397500D01*
X188500D01*
Y407500D01*
G54D52*X95000Y360000D02*Y340000D01*
X145000Y360000D02*Y340000D01*
G54D49*X143000Y364000D02*Y360000D01*
G54D52*X95000D02*X145000D01*
G54D49*X139000Y364000D02*X143000D01*
G54D52*X95000Y340000D02*X145000D01*
G54D49*X139000Y364000D02*Y360000D01*
X110000Y364000D02*Y360000D01*
X130000Y364000D02*Y360000D01*
X110000Y364000D02*X129500D01*
G54D52*X225000Y435000D02*Y425000D01*
X305000Y435000D02*Y425000D01*
G54D49*X303000Y439000D02*Y435000D01*
X299000Y439000D02*Y435000D01*
Y439000D02*X303000D01*
G54D52*X225000Y435000D02*X305000D01*
X225000Y425000D02*X305000D01*
X135000Y435000D02*Y425000D01*
X215000Y435000D02*Y425000D01*
G54D49*X213000Y439000D02*Y435000D01*
X209000Y439000D02*Y435000D01*
Y439000D02*X213000D01*
G54D52*X135000Y435000D02*X215000D01*
X135000Y425000D02*X215000D01*
G54D49*X320000Y355000D02*X325000D01*
X320000Y335000D02*X325000D01*
X320000Y355000D02*Y335000D01*
X321000Y429000D02*X325000D01*
G54D52*X345000Y435000D02*Y255000D01*
G54D49*X321000Y433000D02*Y429000D01*
G54D52*X325000Y435000D02*Y255000D01*
G54D49*X321000Y433000D02*X325000D01*
G54D52*Y435000D02*X345000D01*
X325000Y255000D02*X345000D01*
X325000Y245000D02*Y235000D01*
X245000Y245000D02*Y235000D01*
G54D49*X247000D02*Y231000D01*
X251000D02*Y235000D01*
X247000Y231000D02*X251000D01*
G54D52*X245000Y235000D02*X325000D01*
Y245000D02*X245000D01*
X235000D02*Y235000D01*
X155000Y245000D02*Y235000D01*
G54D49*X157000D02*Y231000D01*
X161000D02*Y235000D01*
X157000Y231000D02*X161000D01*
G54D52*X155000Y235000D02*X235000D01*
Y245000D02*X155000D01*
X225500Y355000D02*Y325000D01*
G54D49*X201500Y353000D02*Y349000D01*
Y353000D02*X205500D01*
G54D52*Y325000D02*X225500D01*
G54D49*X201500Y349000D02*X205500D01*
G54D52*Y355000D02*Y325000D01*
Y355000D02*X225500D01*
X270000Y380000D02*X290000D01*
X270000Y280000D02*X290000D01*
G54D49*Y282000D02*X294000D01*
G54D52*X290000Y380000D02*Y280000D01*
G54D49*X294000Y286000D02*Y282000D01*
G54D52*X270000Y380000D02*Y280000D01*
G54D49*X290000Y286000D02*X294000D01*
X290000Y340000D02*X294000D01*
X290000Y320000D02*X294000D01*
Y340000D02*Y320500D01*
X252500Y385000D02*Y360000D01*
X242500D02*X252500D01*
X242500Y385000D02*Y360000D01*
Y385000D02*X252500D01*
G54D52*X289500Y77000D02*X330500D01*
Y48000D01*
X289500Y77000D02*Y48000D01*
X330500D01*
G54D49*X294500Y77000D02*X289500Y72000D01*
X273500Y83000D02*X241500D01*
X273500Y67000D02*Y83000D01*
X241500Y67000D02*X273500D01*
X241500Y83000D02*Y67000D01*
X335000Y70000D02*Y45000D01*
Y70000D02*X345000D01*
Y45000D01*
X335000D02*X345000D01*
X272500Y47500D02*X297500D01*
Y37500D01*
X272500D02*X297500D01*
X272500Y47500D02*Y37500D01*
X225000Y70000D02*Y45000D01*
Y70000D02*X235000D01*
Y45000D01*
X225000D02*X235000D01*
X242500Y57500D02*X267500D01*
Y47500D01*
X242500D01*
Y57500D01*
Y95000D02*X267500D01*
Y85000D01*
X242500D01*
Y95000D01*
X273500Y158000D02*X241500D01*
X273500Y142000D02*Y158000D01*
X241500Y142000D02*X273500D01*
X241500Y158000D02*Y142000D01*
X242500Y132500D02*X267500D01*
Y122500D01*
X242500D01*
Y132500D01*
Y170000D02*X267500D01*
Y160000D01*
X242500D01*
Y170000D01*
X225000Y145000D02*Y120000D01*
Y145000D02*X235000D01*
Y120000D01*
X225000D02*X235000D01*
X305000Y87500D02*X330000D01*
Y77500D01*
X305000D01*
Y87500D01*
Y97500D02*X330000D01*
Y87500D01*
X305000D01*
Y97500D01*
G54D52*X289500Y152000D02*X330500D01*
Y123000D01*
X289500Y152000D02*Y123000D01*
X330500D01*
G54D49*X294500Y152000D02*X289500Y147000D01*
X305000Y162500D02*X330000D01*
Y152500D01*
X305000D01*
Y162500D01*
Y172500D02*X330000D01*
Y162500D01*
X305000D01*
Y172500D01*
X335000Y145000D02*Y120000D01*
Y145000D02*X345000D01*
Y120000D01*
X335000D02*X345000D01*
X272500Y122500D02*X297500D01*
Y112500D01*
X272500D02*X297500D01*
X272500Y122500D02*Y112500D01*
X145000Y92500D02*Y67500D01*
Y92500D02*X155000D01*
Y67500D01*
X145000D02*X155000D01*
Y92500D02*Y67500D01*
Y92500D02*X165000D01*
Y67500D01*
X155000D02*X165000D01*
X145000D02*Y42500D01*
Y67500D02*X155000D01*
Y42500D01*
X145000D02*X155000D01*
G54D52*X175500Y86000D02*Y50000D01*
X204500Y86000D02*Y50000D01*
G54D49*Y81000D02*X199500Y86000D01*
G54D52*X175500D02*X204500D01*
X175500Y50000D02*X204500D01*
G54D49*X210000Y75000D02*Y50000D01*
Y75000D02*X220000D01*
Y50000D01*
X210000D02*X220000D01*
X186000Y47500D02*X211000D01*
Y37500D01*
X186000D02*X211000D01*
X186000Y47500D02*Y37500D01*
X145000Y167500D02*Y142500D01*
Y167500D02*X155000D01*
Y142500D01*
X145000D02*X155000D01*
X145000D02*Y117500D01*
Y142500D02*X155000D01*
Y117500D01*
X145000D02*X155000D01*
G54D52*X130000Y165000D02*Y145000D01*
X50000Y165000D02*Y145000D01*
G54D49*X52000D02*Y141000D01*
G54D52*X50000Y145000D02*X130000D01*
G54D49*X52000Y141000D02*X56000D01*
G54D52*X50000Y165000D02*X130000D01*
G54D49*X56000Y145000D02*Y141000D01*
X100000Y145000D02*Y141000D01*
X80000Y145000D02*Y141000D01*
X80500D02*X100000D01*
X155000Y167500D02*Y142500D01*
Y167500D02*X165000D01*
Y142500D01*
X155000D02*X165000D01*
G54D52*X175500Y161000D02*Y125000D01*
X204500Y161000D02*Y125000D01*
G54D49*Y156000D02*X199500Y161000D01*
G54D52*X175500D02*X204500D01*
X175500Y125000D02*X204500D01*
G54D49*X210000Y150000D02*Y125000D01*
Y150000D02*X220000D01*
Y125000D01*
X210000D02*X220000D01*
X186000Y122500D02*X211000D01*
Y112500D01*
X186000D02*X211000D01*
X186000Y122500D02*Y112500D01*
X85000Y189000D02*Y214000D01*
X75000Y189000D02*X85000D01*
X75000D02*Y214000D01*
X85000D01*
X75000Y189000D02*Y214000D01*
X65000Y189000D02*X75000D01*
X65000D02*Y214000D01*
X75000D01*
X65000Y189000D02*Y214000D01*
X55000Y189000D02*X65000D01*
X55000D02*Y214000D01*
X65000D01*
X95000Y189000D02*Y214000D01*
X85000Y189000D02*X95000D01*
X85000D02*Y214000D01*
X95000D01*
X115000Y189000D02*Y214000D01*
X105000Y189000D02*X115000D01*
X105000D02*Y214000D01*
X115000D01*
X105000Y189000D02*Y214000D01*
X95000Y189000D02*X105000D01*
X95000D02*Y214000D01*
X105000D01*
X125000Y189000D02*Y214000D01*
X115000Y189000D02*X125000D01*
X115000D02*Y214000D01*
X125000D01*
X135000Y189000D02*Y214000D01*
X125000Y189000D02*X135000D01*
X125000D02*Y214000D01*
X135000D01*
X182500Y186500D02*Y211500D01*
X172500Y186500D02*X182500D01*
X172500D02*Y211500D01*
X182500D01*
X192500Y186500D02*Y211500D01*
X182500Y186500D02*X192500D01*
X182500D02*Y211500D01*
X192500D01*
X202500Y186500D02*Y211500D01*
X192500Y186500D02*X202500D01*
X192500D02*Y211500D01*
X202500D01*
X212500Y186500D02*Y211500D01*
X202500Y186500D02*X212500D01*
X202500D02*Y211500D01*
X212500D01*
X138500Y77500D02*X139000Y78000D01*
X138500Y77500D02*Y76500D01*
X139000Y76000D02*X138500Y76500D01*
X139000Y76000D02*X142000D01*
X142500Y76500D01*
X140300Y77500D02*X140800Y78000D01*
X140300Y77500D02*Y76000D01*
X142500Y77500D02*Y76500D01*
Y77500D02*X142000Y78000D01*
X140800D02*X142000D01*
X142500Y79700D02*Y79200D01*
X142000Y80900D02*X142500Y81400D01*
X141200Y80900D02*X142000D01*
X141200D02*X140500Y81600D01*
Y82200D02*Y81600D01*
Y82200D02*X141200Y82900D01*
X142000D01*
X142500Y82400D02*X142000Y82900D01*
X142500Y82400D02*Y81400D01*
X139800Y80900D02*X140500Y81600D01*
X139000Y80900D02*X139800D01*
X139000D02*X138500Y81400D01*
Y82400D02*Y81400D01*
Y82400D02*X139000Y82900D01*
X139800D01*
X140500Y82200D02*X139800Y82900D01*
X138500Y84100D02*X142500D01*
X141000D02*X142500Y85600D01*
X141000Y84100D02*X140000Y85100D01*
X169000Y83500D02*X168500Y84000D01*
Y85500D02*Y84000D01*
Y85500D02*X169000Y86000D01*
X170000D01*
X172500Y83500D02*X170000Y86000D01*
X172500D02*Y83500D01*
Y87700D02*Y87200D01*
X169000Y88900D02*X168500Y89400D01*
Y90900D02*Y89400D01*
Y90900D02*X169000Y91400D01*
X170000D01*
X172500Y88900D02*X170000Y91400D01*
X172500D02*Y88900D01*
X168500Y92600D02*X172500D01*
X171000D02*X172500Y94100D01*
X171000Y92600D02*X170000Y93600D01*
X139300Y51000D02*X138500Y51800D01*
X142500D01*
Y52500D02*Y51000D01*
X142000Y53700D02*X142500Y54200D01*
X139000Y53700D02*X142000D01*
X139000D02*X138500Y54200D01*
Y55200D02*Y54200D01*
Y55200D02*X139000Y55700D01*
X142000D01*
X142500Y55200D02*X142000Y55700D01*
X142500Y55200D02*Y54200D01*
X141500Y53700D02*X139500Y55700D01*
X138500Y56900D02*X142500D01*
X141000D02*X142500Y58400D01*
X141000Y56900D02*X140000Y57900D01*
X180000Y92000D02*Y89000D01*
Y92000D02*X180700Y93000D01*
X181800D01*
X182500Y92000D01*
Y89000D01*
X180000Y91000D02*X182500D01*
X184200Y93000D02*Y89000D01*
X185500Y93000D02*X186200Y92300D01*
Y89700D01*
X185500Y89000D02*X186200Y89700D01*
X183700Y89000D02*X185500D01*
X183700Y93000D02*X185500D01*
X187400Y89500D02*X187900Y89000D01*
X187400Y90300D02*Y89500D01*
Y90300D02*X188100Y91000D01*
X188700D01*
X189400Y90300D01*
Y89500D01*
X188900Y89000D02*X189400Y89500D01*
X187900Y89000D02*X188900D01*
X187400Y91700D02*X188100Y91000D01*
X187400Y92500D02*Y91700D01*
Y92500D02*X187900Y93000D01*
X188900D01*
X189400Y92500D01*
Y91700D01*
X188700Y91000D02*X189400Y91700D01*
X192100Y93000D02*X192600Y92500D01*
X191100Y93000D02*X192100D01*
X190600Y92500D02*X191100Y93000D01*
X190600Y92500D02*Y89500D01*
X191100Y89000D01*
X192100Y91200D02*X192600Y90700D01*
X190600Y91200D02*X192100D01*
X191100Y89000D02*X192100D01*
X192600Y89500D01*
Y90700D02*Y89500D01*
X193800Y92200D02*X194600Y93000D01*
Y89000D01*
X193800D02*X195300D01*
X198000Y93000D02*X198500Y92500D01*
X197000Y93000D02*X198000D01*
X196500Y92500D02*X197000Y93000D01*
X196500Y92500D02*Y89500D01*
X197000Y89000D01*
X198000Y91200D02*X198500Y90700D01*
X196500Y91200D02*X198000D01*
X197000Y89000D02*X198000D01*
X198500Y89500D01*
Y90700D02*Y89500D01*
X178500Y43200D02*X179300Y44000D01*
Y40000D01*
X178500D02*X180000D01*
X181200Y44000D02*Y40000D01*
Y41500D02*X182700Y40000D01*
X181200Y41500D02*X182200Y42500D01*
X75000Y103000D02*X75500Y102500D01*
X75000Y106000D02*Y103000D01*
Y106000D02*X75500Y106500D01*
X76500D01*
X77000Y106000D01*
Y103000D01*
X76500Y102500D02*X77000Y103000D01*
X75500Y102500D02*X76500D01*
X75000Y103500D02*X77000Y105500D01*
X78200Y102500D02*X78700D01*
X79900Y104000D02*X81900Y106500D01*
X79900Y104000D02*X82400D01*
X81900Y106500D02*Y102500D01*
X84100D02*X86100Y106500D01*
X83600D02*X86100D01*
X87800Y104000D02*Y102500D01*
Y104000D02*X88300Y104500D01*
X88800D01*
X89300Y104000D01*
Y102500D01*
Y104000D02*X89800Y104500D01*
X90300D01*
X90800Y104000D01*
Y102500D01*
X87300Y104500D02*X87800Y104000D01*
X92000Y106500D02*Y102500D01*
X94500Y106500D02*Y102500D01*
X92000Y104500D02*X94500D01*
X77500Y80500D02*X79500Y83000D01*
X77500Y80500D02*X80000D01*
X79500Y83000D02*Y79000D01*
X81200D02*X81700D01*
X83400D02*X85400Y83000D01*
X82900D02*X85400D01*
X86600D02*X88600D01*
X89100Y82500D01*
Y81500D01*
X88600Y81000D02*X89100Y81500D01*
X87100Y81000D02*X88600D01*
X87100Y83000D02*Y79000D01*
X87900Y81000D02*X89100Y79000D01*
X128500Y55000D02*X126000Y57000D01*
X128500Y57500D02*Y55000D01*
X126000Y57000D02*X130000D01*
Y59200D02*X126000Y61200D01*
Y58700D01*
X128000Y62400D02*X129500D01*
X130000Y62900D01*
Y63900D02*Y62900D01*
Y63900D02*X129500Y64400D01*
X128000D02*X129500D01*
X128500Y75000D02*X126000Y77000D01*
X128500Y77500D02*Y75000D01*
X126000Y77000D02*X130000D01*
Y79200D02*X126000Y81200D01*
Y78700D01*
X128000Y82400D02*X129500D01*
X130000Y82900D01*
Y83900D02*Y82900D01*
Y83900D02*X129500Y84400D01*
X128000D02*X129500D01*
X217000Y85000D02*X217500Y85500D01*
X214000Y85000D02*X217000D01*
X214000D02*X213500Y85500D01*
Y86500D02*Y85500D01*
Y86500D02*X214000Y87000D01*
X217000D01*
X217500Y86500D02*X217000Y87000D01*
X217500Y86500D02*Y85500D01*
X216500Y85000D02*X214500Y87000D01*
X217500Y88700D02*Y88200D01*
X214000Y89900D02*X213500Y90400D01*
Y91400D02*Y90400D01*
Y91400D02*X214000Y91900D01*
X217500Y91400D02*X217000Y91900D01*
X217500Y91400D02*Y90400D01*
X217000Y89900D02*X217500Y90400D01*
X215300Y91400D02*Y90400D01*
X214000Y91900D02*X214800D01*
X215800D02*X217000D01*
X215800D02*X215300Y91400D01*
X214800Y91900D02*X215300Y91400D01*
X214000Y93100D02*X213500Y93600D01*
Y94600D02*Y93600D01*
Y94600D02*X214000Y95100D01*
X217500Y94600D02*X217000Y95100D01*
X217500Y94600D02*Y93600D01*
X217000Y93100D02*X217500Y93600D01*
X215300Y94600D02*Y93600D01*
X214000Y95100D02*X214800D01*
X215800D02*X217000D01*
X215800D02*X215300Y94600D01*
X214800Y95100D02*X215300Y94600D01*
X215500Y96300D02*X217000D01*
X217500Y96800D01*
Y97800D02*Y96800D01*
Y97800D02*X217000Y98300D01*
X215500D02*X217000D01*
X231000Y73500D02*X228500Y75500D01*
X231000Y76000D02*Y73500D01*
X228500Y75500D02*X232500D01*
Y77700D02*X228500Y79700D01*
Y77200D01*
Y80900D02*X232500D01*
X231000D02*X232500Y82400D01*
X231000Y80900D02*X230000Y81900D01*
X237500Y119000D02*X239500D01*
X237500D02*Y117000D01*
X238000Y117500D01*
X239000D01*
X239500Y117000D01*
Y115500D01*
X239000Y115000D02*X239500Y115500D01*
X238000Y115000D02*X239000D01*
X237500Y115500D02*X238000Y115000D01*
X240700D02*X241200D01*
X242400Y116500D02*X244400Y119000D01*
X242400Y116500D02*X244900D01*
X244400Y119000D02*Y115000D01*
X246600D02*X248100Y117000D01*
Y118500D02*Y117000D01*
X247600Y119000D02*X248100Y118500D01*
X246600Y119000D02*X247600D01*
X246100Y118500D02*X246600Y119000D01*
X246100Y118500D02*Y117500D01*
X246600Y117000D01*
X248100D01*
X249300Y119000D02*Y115000D01*
Y116500D02*X250800Y115000D01*
X249300Y116500D02*X250300Y117500D01*
X336000Y75700D02*X336800Y76500D01*
Y72500D01*
X336000D02*X337500D01*
X338700Y73000D02*X339200Y72500D01*
X338700Y76000D02*Y73000D01*
Y76000D02*X339200Y76500D01*
X340200D01*
X340700Y76000D01*
Y73000D01*
X340200Y72500D02*X340700Y73000D01*
X339200Y72500D02*X340200D01*
X338700Y73500D02*X340700Y75500D01*
X341900Y76500D02*Y72500D01*
Y74000D02*X343400Y72500D01*
X341900Y74000D02*X342900Y75000D01*
X312500Y43000D02*Y40000D01*
Y43000D02*X313200Y44000D01*
X314300D01*
X315000Y43000D01*
Y40000D01*
X312500Y42000D02*X315000D01*
X316700Y44000D02*Y40000D01*
X318000Y44000D02*X318700Y43300D01*
Y40700D01*
X318000Y40000D02*X318700Y40700D01*
X316200Y40000D02*X318000D01*
X316200Y44000D02*X318000D01*
X319900Y40500D02*X320400Y40000D01*
X319900Y41300D02*Y40500D01*
Y41300D02*X320600Y42000D01*
X321200D01*
X321900Y41300D01*
Y40500D01*
X321400Y40000D02*X321900Y40500D01*
X320400Y40000D02*X321400D01*
X319900Y42700D02*X320600Y42000D01*
X319900Y43500D02*Y42700D01*
Y43500D02*X320400Y44000D01*
X321400D01*
X321900Y43500D01*
Y42700D01*
X321200Y42000D02*X321900Y42700D01*
X323100Y43500D02*X323600Y44000D01*
X325100D01*
X325600Y43500D01*
Y42500D01*
X323100Y40000D02*X325600Y42500D01*
X323100Y40000D02*X325600D01*
X326800Y43500D02*X327300Y44000D01*
X328800D01*
X329300Y43500D01*
Y42500D01*
X326800Y40000D02*X329300Y42500D01*
X326800Y40000D02*X329300D01*
X332000Y44000D02*X332500Y43500D01*
X331000Y44000D02*X332000D01*
X330500Y43500D02*X331000Y44000D01*
X330500Y43500D02*Y40500D01*
X331000Y40000D01*
X332000Y42200D02*X332500Y41700D01*
X330500Y42200D02*X332000D01*
X331000Y40000D02*X332000D01*
X332500Y40500D01*
Y41700D02*Y40500D01*
X278500Y70000D02*X276000Y72000D01*
X278500Y72500D02*Y70000D01*
X276000Y72000D02*X280000D01*
Y74200D02*X276000Y76200D01*
Y73700D01*
X278000Y77400D02*X279500D01*
X280000Y77900D01*
Y78900D02*Y77900D01*
Y78900D02*X279500Y79400D01*
X278000D02*X279500D01*
X237500Y44000D02*X239500D01*
X237500D02*Y42000D01*
X238000Y42500D01*
X239000D01*
X239500Y42000D01*
Y40500D01*
X239000Y40000D02*X239500Y40500D01*
X238000Y40000D02*X239000D01*
X237500Y40500D02*X238000Y40000D01*
X240700D02*X241200D01*
X242400Y41500D02*X244400Y44000D01*
X242400Y41500D02*X244900D01*
X244400Y44000D02*Y40000D01*
X246600D02*X248100Y42000D01*
Y43500D02*Y42000D01*
X247600Y44000D02*X248100Y43500D01*
X246600Y44000D02*X247600D01*
X246100Y43500D02*X246600Y44000D01*
X246100Y43500D02*Y42500D01*
X246600Y42000D01*
X248100D01*
X249300Y44000D02*Y40000D01*
Y41500D02*X250800Y40000D01*
X249300Y41500D02*X250300Y42500D01*
X271800Y87500D02*X271000Y88300D01*
X275000D01*
Y89000D02*Y87500D01*
X274500Y90200D02*X275000Y90700D01*
X271500Y90200D02*X274500D01*
X271500D02*X271000Y90700D01*
Y91700D02*Y90700D01*
Y91700D02*X271500Y92200D01*
X274500D01*
X275000Y91700D02*X274500Y92200D01*
X275000Y91700D02*Y90700D01*
X274000Y90200D02*X272000Y92200D01*
X271000Y93400D02*X275000D01*
X271000D02*X273000Y94900D01*
X271000Y96400D01*
X275000D01*
X260000Y43200D02*X260800Y44000D01*
Y40000D01*
X260000D02*X261500D01*
X262700Y40500D02*X263200Y40000D01*
X262700Y43500D02*Y40500D01*
Y43500D02*X263200Y44000D01*
X264200D01*
X264700Y43500D01*
Y40500D01*
X264200Y40000D02*X264700Y40500D01*
X263200Y40000D02*X264200D01*
X262700Y41000D02*X264700Y43000D01*
X265900Y44000D02*Y40000D01*
Y44000D02*X267400Y42000D01*
X268900Y44000D01*
Y40000D01*
X332500Y83000D02*X333000Y82500D01*
X332500Y86000D02*Y83000D01*
Y86000D02*X333000Y86500D01*
X334000D01*
X334500Y86000D01*
Y83000D01*
X334000Y82500D02*X334500Y83000D01*
X333000Y82500D02*X334000D01*
X332500Y83500D02*X334500Y85500D01*
X335700Y82500D02*X336200D01*
X337400Y85700D02*X338200Y86500D01*
Y82500D01*
X337400D02*X338900D01*
X340100Y84500D02*Y83000D01*
X340600Y82500D01*
X341600D01*
X342100Y83000D01*
Y84500D02*Y83000D01*
X332500Y95700D02*X333300Y96500D01*
Y92500D01*
X332500D02*X334000D01*
X335200Y93000D02*X335700Y92500D01*
X335200Y96000D02*Y93000D01*
Y96000D02*X335700Y96500D01*
X336700D01*
X337200Y96000D01*
Y93000D01*
X336700Y92500D02*X337200Y93000D01*
X335700Y92500D02*X336700D01*
X335200Y93500D02*X337200Y95500D01*
X338400Y94500D02*Y93000D01*
X338900Y92500D01*
X339900D01*
X340400Y93000D01*
Y94500D02*Y93000D01*
X312500Y118000D02*Y115000D01*
Y118000D02*X313200Y119000D01*
X314300D01*
X315000Y118000D01*
Y115000D01*
X312500Y117000D02*X315000D01*
X316700Y119000D02*Y115000D01*
X318000Y119000D02*X318700Y118300D01*
Y115700D01*
X318000Y115000D02*X318700Y115700D01*
X316200Y115000D02*X318000D01*
X316200Y119000D02*X318000D01*
X319900Y115500D02*X320400Y115000D01*
X319900Y116300D02*Y115500D01*
Y116300D02*X320600Y117000D01*
X321200D01*
X321900Y116300D01*
Y115500D01*
X321400Y115000D02*X321900Y115500D01*
X320400Y115000D02*X321400D01*
X319900Y117700D02*X320600Y117000D01*
X319900Y118500D02*Y117700D01*
Y118500D02*X320400Y119000D01*
X321400D01*
X321900Y118500D01*
Y117700D01*
X321200Y117000D02*X321900Y117700D01*
X323100Y118500D02*X323600Y119000D01*
X325100D01*
X325600Y118500D01*
Y117500D01*
X323100Y115000D02*X325600Y117500D01*
X323100Y115000D02*X325600D01*
X326800Y118500D02*X327300Y119000D01*
X328800D01*
X329300Y118500D01*
Y117500D01*
X326800Y115000D02*X329300Y117500D01*
X326800Y115000D02*X329300D01*
X332000Y119000D02*X332500Y118500D01*
X331000Y119000D02*X332000D01*
X330500Y118500D02*X331000Y119000D01*
X330500Y118500D02*Y115500D01*
X331000Y115000D01*
X332000Y117200D02*X332500Y116700D01*
X330500Y117200D02*X332000D01*
X331000Y115000D02*X332000D01*
X332500Y115500D01*
Y116700D02*Y115500D01*
X332500Y158000D02*X333000Y157500D01*
X332500Y161000D02*Y158000D01*
Y161000D02*X333000Y161500D01*
X334000D01*
X334500Y161000D01*
Y158000D01*
X334000Y157500D02*X334500Y158000D01*
X333000Y157500D02*X334000D01*
X332500Y158500D02*X334500Y160500D01*
X335700Y157500D02*X336200D01*
X337400Y160700D02*X338200Y161500D01*
Y157500D01*
X337400D02*X338900D01*
X340100Y159500D02*Y158000D01*
X340600Y157500D01*
X341600D01*
X342100Y158000D01*
Y159500D02*Y158000D01*
X332500Y170700D02*X333300Y171500D01*
Y167500D01*
X332500D02*X334000D01*
X335200Y168000D02*X335700Y167500D01*
X335200Y171000D02*Y168000D01*
Y171000D02*X335700Y171500D01*
X336700D01*
X337200Y171000D01*
Y168000D01*
X336700Y167500D02*X337200Y168000D01*
X335700Y167500D02*X336700D01*
X335200Y168500D02*X337200Y170500D01*
X338400Y169500D02*Y168000D01*
X338900Y167500D01*
X339900D01*
X340400Y168000D01*
Y169500D02*Y168000D01*
X336000Y150700D02*X336800Y151500D01*
Y147500D01*
X336000D02*X337500D01*
X338700Y148000D02*X339200Y147500D01*
X338700Y151000D02*Y148000D01*
Y151000D02*X339200Y151500D01*
X340200D01*
X340700Y151000D01*
Y148000D01*
X340200Y147500D02*X340700Y148000D01*
X339200Y147500D02*X340200D01*
X338700Y148500D02*X340700Y150500D01*
X341900Y151500D02*Y147500D01*
Y149000D02*X343400Y147500D01*
X341900Y149000D02*X342900Y150000D01*
X278500Y145000D02*X276000Y147000D01*
X278500Y147500D02*Y145000D01*
X276000Y147000D02*X280000D01*
Y149200D02*X276000Y151200D01*
Y148700D01*
X278000Y152400D02*X279500D01*
X280000Y152900D01*
Y153900D02*Y152900D01*
Y153900D02*X279500Y154400D01*
X278000D02*X279500D01*
X271800Y162500D02*X271000Y163300D01*
X275000D01*
Y164000D02*Y162500D01*
X274500Y165200D02*X275000Y165700D01*
X271500Y165200D02*X274500D01*
X271500D02*X271000Y165700D01*
Y166700D02*Y165700D01*
Y166700D02*X271500Y167200D01*
X274500D01*
X275000Y166700D02*X274500Y167200D01*
X275000Y166700D02*Y165700D01*
X274000Y165200D02*X272000Y167200D01*
X271000Y168400D02*X275000D01*
X271000D02*X273000Y169900D01*
X271000Y171400D01*
X275000D01*
X260000Y118200D02*X260800Y119000D01*
Y115000D01*
X260000D02*X261500D01*
X262700Y115500D02*X263200Y115000D01*
X262700Y118500D02*Y115500D01*
Y118500D02*X263200Y119000D01*
X264200D01*
X264700Y118500D01*
Y115500D01*
X264200Y115000D02*X264700Y115500D01*
X263200Y115000D02*X264200D01*
X262700Y116000D02*X264700Y118000D01*
X265900Y119000D02*Y115000D01*
Y119000D02*X267400Y117000D01*
X268900Y119000D01*
Y115000D01*
X138500Y152500D02*X139000Y153000D01*
X138500Y152500D02*Y151500D01*
X139000Y151000D02*X138500Y151500D01*
X139000Y151000D02*X142000D01*
X142500Y151500D01*
X140300Y152500D02*X140800Y153000D01*
X140300Y152500D02*Y151000D01*
X142500Y152500D02*Y151500D01*
Y152500D02*X142000Y153000D01*
X140800D02*X142000D01*
X142500Y154700D02*Y154200D01*
X142000Y155900D02*X142500Y156400D01*
X141200Y155900D02*X142000D01*
X141200D02*X140500Y156600D01*
Y157200D02*Y156600D01*
Y157200D02*X141200Y157900D01*
X142000D01*
X142500Y157400D02*X142000Y157900D01*
X142500Y157400D02*Y156400D01*
X139800Y155900D02*X140500Y156600D01*
X139000Y155900D02*X139800D01*
X139000D02*X138500Y156400D01*
Y157400D02*Y156400D01*
Y157400D02*X139000Y157900D01*
X139800D01*
X140500Y157200D02*X139800Y157900D01*
X138500Y159100D02*X142500D01*
X141000D02*X142500Y160600D01*
X141000Y159100D02*X140000Y160100D01*
X169000Y158500D02*X168500Y159000D01*
Y160500D02*Y159000D01*
Y160500D02*X169000Y161000D01*
X170000D01*
X172500Y158500D02*X170000Y161000D01*
X172500D02*Y158500D01*
Y162700D02*Y162200D01*
X169000Y163900D02*X168500Y164400D01*
Y165900D02*Y164400D01*
Y165900D02*X169000Y166400D01*
X170000D01*
X172500Y163900D02*X170000Y166400D01*
X172500D02*Y163900D01*
X168500Y167600D02*X172500D01*
X171000D02*X172500Y169100D01*
X171000Y167600D02*X170000Y168600D01*
X139300Y126000D02*X138500Y126800D01*
X142500D01*
Y127500D02*Y126000D01*
X142000Y128700D02*X142500Y129200D01*
X139000Y128700D02*X142000D01*
X139000D02*X138500Y129200D01*
Y130200D02*Y129200D01*
Y130200D02*X139000Y130700D01*
X142000D01*
X142500Y130200D02*X142000Y130700D01*
X142500Y130200D02*Y129200D01*
X141500Y128700D02*X139500Y130700D01*
X138500Y131900D02*X142500D01*
X141000D02*X142500Y133400D01*
X141000Y131900D02*X140000Y132900D01*
X178500Y118200D02*X179300Y119000D01*
Y115000D01*
X178500D02*X180000D01*
X181200Y119000D02*Y115000D01*
Y116500D02*X182700Y115000D01*
X181200Y116500D02*X182200Y117500D01*
X180000Y167000D02*Y164000D01*
Y167000D02*X180700Y168000D01*
X181800D01*
X182500Y167000D01*
Y164000D01*
X180000Y166000D02*X182500D01*
X184200Y168000D02*Y164000D01*
X185500Y168000D02*X186200Y167300D01*
Y164700D01*
X185500Y164000D02*X186200Y164700D01*
X183700Y164000D02*X185500D01*
X183700Y168000D02*X185500D01*
X187400Y164500D02*X187900Y164000D01*
X187400Y165300D02*Y164500D01*
Y165300D02*X188100Y166000D01*
X188700D01*
X189400Y165300D01*
Y164500D01*
X188900Y164000D02*X189400Y164500D01*
X187900Y164000D02*X188900D01*
X187400Y166700D02*X188100Y166000D01*
X187400Y167500D02*Y166700D01*
Y167500D02*X187900Y168000D01*
X188900D01*
X189400Y167500D01*
Y166700D01*
X188700Y166000D02*X189400Y166700D01*
X192100Y168000D02*X192600Y167500D01*
X191100Y168000D02*X192100D01*
X190600Y167500D02*X191100Y168000D01*
X190600Y167500D02*Y164500D01*
X191100Y164000D01*
X192100Y166200D02*X192600Y165700D01*
X190600Y166200D02*X192100D01*
X191100Y164000D02*X192100D01*
X192600Y164500D01*
Y165700D02*Y164500D01*
X193800Y167200D02*X194600Y168000D01*
Y164000D01*
X193800D02*X195300D01*
X198000Y168000D02*X198500Y167500D01*
X197000Y168000D02*X198000D01*
X196500Y167500D02*X197000Y168000D01*
X196500Y167500D02*Y164500D01*
X197000Y164000D01*
X198000Y166200D02*X198500Y165700D01*
X196500Y166200D02*X198000D01*
X197000Y164000D02*X198000D01*
X198500Y164500D01*
Y165700D02*Y164500D01*
X217000Y160000D02*X217500Y160500D01*
X214000Y160000D02*X217000D01*
X214000D02*X213500Y160500D01*
Y161500D02*Y160500D01*
Y161500D02*X214000Y162000D01*
X217000D01*
X217500Y161500D02*X217000Y162000D01*
X217500Y161500D02*Y160500D01*
X216500Y160000D02*X214500Y162000D01*
X217500Y163700D02*Y163200D01*
X214000Y164900D02*X213500Y165400D01*
Y166400D02*Y165400D01*
Y166400D02*X214000Y166900D01*
X217500Y166400D02*X217000Y166900D01*
X217500Y166400D02*Y165400D01*
X217000Y164900D02*X217500Y165400D01*
X215300Y166400D02*Y165400D01*
X214000Y166900D02*X214800D01*
X215800D02*X217000D01*
X215800D02*X215300Y166400D01*
X214800Y166900D02*X215300Y166400D01*
X214000Y168100D02*X213500Y168600D01*
Y169600D02*Y168600D01*
Y169600D02*X214000Y170100D01*
X217500Y169600D02*X217000Y170100D01*
X217500Y169600D02*Y168600D01*
X217000Y168100D02*X217500Y168600D01*
X215300Y169600D02*Y168600D01*
X214000Y170100D02*X214800D01*
X215800D02*X217000D01*
X215800D02*X215300Y169600D01*
X214800Y170100D02*X215300Y169600D01*
X215500Y171300D02*X217000D01*
X217500Y171800D01*
Y172800D02*Y171800D01*
Y172800D02*X217000Y173300D01*
X215500D02*X217000D01*
X231000Y148500D02*X228500Y150500D01*
X231000Y151000D02*Y148500D01*
X228500Y150500D02*X232500D01*
Y152700D02*X228500Y154700D01*
Y152200D01*
Y155900D02*X232500D01*
X231000D02*X232500Y157400D01*
X231000Y155900D02*X230000Y156900D01*
M02*
