G04 start of page 10 for group -3984 idx -3984 *
G04 Title: (unknown), fab *
G04 Creator: pcb 20140316 *
G04 CreationDate: Wed 12 Dec 2018 10:26:37 PM GMT UTC *
G04 For: thomasc *
G04 Format: Gerber/RS-274X *
G04 PCB-Dimensions (mil): 3750.00 5000.00 *
G04 PCB-Coordinate-Origin: lower left *
%MOIN*%
%FSLAX25Y25*%
%LNFAB*%
%ADD60C,0.0100*%
%ADD59C,0.0075*%
%ADD58C,0.0060*%
%ADD57R,0.0080X0.0080*%
G54D57*X349200Y25000D02*G75*G03X350800Y25000I800J0D01*G01*
G75*G03X349200Y25000I-800J0D01*G01*
Y475000D02*G75*G03X350800Y475000I800J0D01*G01*
G75*G03X349200Y475000I-800J0D01*G01*
X24200D02*G75*G03X25800Y475000I800J0D01*G01*
G75*G03X24200Y475000I-800J0D01*G01*
X14200Y240000D02*G75*G03X15800Y240000I800J0D01*G01*
G75*G03X14200Y240000I-800J0D01*G01*
X19200Y430000D02*G75*G03X20800Y430000I800J0D01*G01*
G75*G03X19200Y430000I-800J0D01*G01*
X219200Y370000D02*G75*G03X220800Y370000I800J0D01*G01*
G75*G03X219200Y370000I-800J0D01*G01*
X339200Y240000D02*G75*G03X340800Y240000I800J0D01*G01*
G75*G03X339200Y240000I-800J0D01*G01*
X24200Y25000D02*G75*G03X25800Y25000I800J0D01*G01*
G75*G03X24200Y25000I-800J0D01*G01*
X14200Y511250D02*G75*G03X15800Y511250I800J0D01*G01*
G75*G03X14200Y511250I-800J0D01*G01*
G54D58*X135000Y513500D02*X136500Y510500D01*
X138000Y513500D01*
X136500Y510500D02*Y507500D01*
X139800Y510800D02*X142050D01*
X139800Y507500D02*X142800D01*
X139800Y513500D02*Y507500D01*
Y513500D02*X142800D01*
X147600D02*X148350Y512750D01*
X145350Y513500D02*X147600D01*
X144600Y512750D02*X145350Y513500D01*
X144600Y512750D02*Y511250D01*
X145350Y510500D01*
X147600D01*
X148350Y509750D01*
Y508250D01*
X147600Y507500D02*X148350Y508250D01*
X145350Y507500D02*X147600D01*
X144600Y508250D02*X145350Y507500D01*
X98000Y508250D02*X98750Y507500D01*
X98000Y509450D02*Y508250D01*
Y509450D02*X99050Y510500D01*
X99950D01*
X101000Y509450D01*
Y508250D01*
X100250Y507500D02*X101000Y508250D01*
X98750Y507500D02*X100250D01*
X98000Y511550D02*X99050Y510500D01*
X98000Y512750D02*Y511550D01*
Y512750D02*X98750Y513500D01*
X100250D01*
X101000Y512750D01*
Y511550D01*
X99950Y510500D02*X101000Y511550D01*
X45000Y508250D02*X45750Y507500D01*
X45000Y512750D02*Y508250D01*
Y512750D02*X45750Y513500D01*
X47250D01*
X48000Y512750D01*
Y508250D01*
X47250Y507500D02*X48000Y508250D01*
X45750Y507500D02*X47250D01*
X45000Y509000D02*X48000Y512000D01*
X49800Y507500D02*X50550D01*
X52350Y512300D02*X53550Y513500D01*
Y507500D01*
X52350D02*X54600D01*
X56400Y512750D02*X57150Y513500D01*
X59400D01*
X60150Y512750D01*
Y511250D01*
X56400Y507500D02*X60150Y511250D01*
X56400Y507500D02*X60150D01*
X61950Y513500D02*X64950D01*
X61950D02*Y510500D01*
X62700Y511250D01*
X64200D01*
X64950Y510500D01*
Y508250D01*
X64200Y507500D02*X64950Y508250D01*
X62700Y507500D02*X64200D01*
X61950Y508250D02*X62700Y507500D01*
X298800Y431200D02*X301200Y428800D01*
X298800D02*X301200Y431200D01*
X258800D02*X261200Y428800D01*
X258800D02*X261200Y431200D01*
X268800D02*X271200Y428800D01*
X268800D02*X271200Y431200D01*
X278800D02*X281200Y428800D01*
X278800D02*X281200Y431200D01*
X288800D02*X291200Y428800D01*
X288800D02*X291200Y431200D01*
X248800D02*X251200Y428800D01*
X248800D02*X251200Y431200D01*
X238800D02*X241200Y428800D01*
X238800D02*X241200Y431200D01*
X228800D02*X231200Y428800D01*
X228800D02*X231200Y431200D01*
X208800D02*X211200Y428800D01*
X208800D02*X211200Y431200D01*
X168800D02*X171200Y428800D01*
X168800D02*X171200Y431200D01*
X178800D02*X181200Y428800D01*
X178800D02*X181200Y431200D01*
X188800D02*X191200Y428800D01*
X188800D02*X191200Y431200D01*
X198800D02*X201200Y428800D01*
X198800D02*X201200Y431200D01*
X158800D02*X161200Y428800D01*
X158800D02*X161200Y431200D01*
X148800D02*X151200Y428800D01*
X148800D02*X151200Y431200D01*
X138800D02*X141200Y428800D01*
X138800D02*X141200Y431200D01*
X32800D02*X35200Y428800D01*
X32800D02*X35200Y431200D01*
X72800D02*X75200Y428800D01*
X72800D02*X75200Y431200D01*
X62800D02*X65200Y428800D01*
X62800D02*X65200Y431200D01*
X52800D02*X55200Y428800D01*
X52800D02*X55200Y431200D01*
X42800D02*X45200Y428800D01*
X42800D02*X45200Y431200D01*
X82800D02*X85200Y428800D01*
X82800D02*X85200Y431200D01*
X92800D02*X95200Y428800D01*
X92800D02*X95200Y431200D01*
X102800D02*X105200Y428800D01*
X102800D02*X105200Y431200D01*
X112800D02*X115200Y428800D01*
X112800D02*X115200Y431200D01*
X122800D02*X125200Y428800D01*
X122800D02*X125200Y431200D01*
X248800Y241200D02*X251200Y238800D01*
X248800D02*X251200Y241200D01*
X288800D02*X291200Y238800D01*
X288800D02*X291200Y241200D01*
X278800D02*X281200Y238800D01*
X278800D02*X281200Y241200D01*
X268800D02*X271200Y238800D01*
X268800D02*X271200Y241200D01*
X258800D02*X261200Y238800D01*
X258800D02*X261200Y241200D01*
X298800D02*X301200Y238800D01*
X298800D02*X301200Y241200D01*
X308800D02*X311200Y238800D01*
X308800D02*X311200Y241200D01*
X318800D02*X321200Y238800D01*
X318800D02*X321200Y241200D01*
X158800D02*X161200Y238800D01*
X158800D02*X161200Y241200D01*
X198800D02*X201200Y238800D01*
X198800D02*X201200Y241200D01*
X188800D02*X191200Y238800D01*
X188800D02*X191200Y241200D01*
X178800D02*X181200Y238800D01*
X178800D02*X181200Y241200D01*
X168800D02*X171200Y238800D01*
X168800D02*X171200Y241200D01*
X208800D02*X211200Y238800D01*
X208800D02*X211200Y241200D01*
X218800D02*X221200Y238800D01*
X218800D02*X221200Y241200D01*
X228800D02*X231200Y238800D01*
X228800D02*X231200Y241200D01*
X68800D02*X71200Y238800D01*
X68800D02*X71200Y241200D01*
X108800D02*X111200Y238800D01*
X108800D02*X111200Y241200D01*
X98800D02*X101200Y238800D01*
X98800D02*X101200Y241200D01*
X88800D02*X91200Y238800D01*
X88800D02*X91200Y241200D01*
X78800D02*X81200Y238800D01*
X78800D02*X81200Y241200D01*
X118800D02*X121200Y238800D01*
X118800D02*X121200Y241200D01*
X128800D02*X131200Y238800D01*
X128800D02*X131200Y241200D01*
X138800D02*X141200Y238800D01*
X138800D02*X141200Y241200D01*
X219300Y351200D02*X221700Y348800D01*
X219300D02*X221700Y351200D01*
X219300Y341200D02*X221700Y338800D01*
X219300D02*X221700Y341200D01*
X219300Y331200D02*X221700Y328800D01*
X219300D02*X221700Y331200D01*
X209300Y351200D02*X211700Y348800D01*
X209300D02*X211700Y351200D01*
X209300Y341200D02*X211700Y338800D01*
X209300D02*X211700Y341200D01*
X209300Y331200D02*X211700Y328800D01*
X209300D02*X211700Y331200D01*
X328800Y431200D02*X331200Y428800D01*
X328800D02*X331200Y431200D01*
X338800Y421200D02*X341200Y418800D01*
X338800D02*X341200Y421200D01*
X328800D02*X331200Y418800D01*
X328800D02*X331200Y421200D01*
X338800Y411200D02*X341200Y408800D01*
X338800D02*X341200Y411200D01*
X328800D02*X331200Y408800D01*
X328800D02*X331200Y411200D01*
X338800Y401200D02*X341200Y398800D01*
X338800D02*X341200Y401200D01*
X328800D02*X331200Y398800D01*
X328800D02*X331200Y401200D01*
X338800Y391200D02*X341200Y388800D01*
X338800D02*X341200Y391200D01*
X328800D02*X331200Y388800D01*
X328800D02*X331200Y391200D01*
X338800Y381200D02*X341200Y378800D01*
X338800D02*X341200Y381200D01*
X328800D02*X331200Y378800D01*
X328800D02*X331200Y381200D01*
X338800Y371200D02*X341200Y368800D01*
X338800D02*X341200Y371200D01*
X328800D02*X331200Y368800D01*
X328800D02*X331200Y371200D01*
X338800Y361200D02*X341200Y358800D01*
X338800D02*X341200Y361200D01*
X328800D02*X331200Y358800D01*
X328800D02*X331200Y361200D01*
X338800Y351200D02*X341200Y348800D01*
X338800D02*X341200Y351200D01*
X328800D02*X331200Y348800D01*
X328800D02*X331200Y351200D01*
X338800Y341200D02*X341200Y338800D01*
X338800D02*X341200Y341200D01*
X328800D02*X331200Y338800D01*
X328800D02*X331200Y341200D01*
X338800Y331200D02*X341200Y328800D01*
X338800D02*X341200Y331200D01*
X328800D02*X331200Y328800D01*
X328800D02*X331200Y331200D01*
X338800Y321200D02*X341200Y318800D01*
X338800D02*X341200Y321200D01*
X328800D02*X331200Y318800D01*
X328800D02*X331200Y321200D01*
X338800Y311200D02*X341200Y308800D01*
X338800D02*X341200Y311200D01*
X328800D02*X331200Y308800D01*
X328800D02*X331200Y311200D01*
X338800Y301200D02*X341200Y298800D01*
X338800D02*X341200Y301200D01*
X328800D02*X331200Y298800D01*
X328800D02*X331200Y301200D01*
X338800Y291200D02*X341200Y288800D01*
X338800D02*X341200Y291200D01*
X328800D02*X331200Y288800D01*
X328800D02*X331200Y291200D01*
X338800Y281200D02*X341200Y278800D01*
X338800D02*X341200Y281200D01*
X328800D02*X331200Y278800D01*
X328800D02*X331200Y281200D01*
X338800Y271200D02*X341200Y268800D01*
X338800D02*X341200Y271200D01*
X328800D02*X331200Y268800D01*
X328800D02*X331200Y271200D01*
X338800Y261200D02*X341200Y258800D01*
X338800D02*X341200Y261200D01*
X328800D02*X331200Y258800D01*
X328800D02*X331200Y261200D01*
X338800Y431200D02*X341200Y428800D01*
X338800D02*X341200Y431200D01*
X273800Y286200D02*X276200Y283800D01*
X273800D02*X276200Y286200D01*
X283800D02*X286200Y283800D01*
X283800D02*X286200Y286200D01*
X273800Y296200D02*X276200Y293800D01*
X273800D02*X276200Y296200D01*
X283800D02*X286200Y293800D01*
X283800D02*X286200Y296200D01*
X273800Y306200D02*X276200Y303800D01*
X273800D02*X276200Y306200D01*
X283800D02*X286200Y303800D01*
X283800D02*X286200Y306200D01*
X273800Y316200D02*X276200Y313800D01*
X273800D02*X276200Y316200D01*
X283800D02*X286200Y313800D01*
X283800D02*X286200Y316200D01*
X273800Y326200D02*X276200Y323800D01*
X273800D02*X276200Y326200D01*
X283800D02*X286200Y323800D01*
X283800D02*X286200Y326200D01*
X273800Y336200D02*X276200Y333800D01*
X273800D02*X276200Y336200D01*
X283800D02*X286200Y333800D01*
X283800D02*X286200Y336200D01*
X273800Y346200D02*X276200Y343800D01*
X273800D02*X276200Y346200D01*
X283800D02*X286200Y343800D01*
X283800D02*X286200Y346200D01*
X273800Y356200D02*X276200Y353800D01*
X273800D02*X276200Y356200D01*
X283800D02*X286200Y353800D01*
X283800D02*X286200Y356200D01*
X273800Y366200D02*X276200Y363800D01*
X273800D02*X276200Y366200D01*
X283800D02*X286200Y363800D01*
X283800D02*X286200Y366200D01*
X273800Y376200D02*X276200Y373800D01*
X273800D02*X276200Y376200D01*
X283800D02*X286200Y373800D01*
X283800D02*X286200Y376200D01*
X138800Y346200D02*X141200Y343800D01*
X138800D02*X141200Y346200D01*
X138800Y356200D02*X141200Y353800D01*
X138800D02*X141200Y356200D01*
X128800Y346200D02*X131200Y343800D01*
X128800D02*X131200Y346200D01*
X128800Y356200D02*X131200Y353800D01*
X128800D02*X131200Y356200D01*
X118800Y346200D02*X121200Y343800D01*
X118800D02*X121200Y346200D01*
X118800Y356200D02*X121200Y353800D01*
X118800D02*X121200Y356200D01*
X108800Y346200D02*X111200Y343800D01*
X108800D02*X111200Y346200D01*
X108800Y356200D02*X111200Y353800D01*
X108800D02*X111200Y356200D01*
X98800Y346200D02*X101200Y343800D01*
X98800D02*X101200Y346200D01*
X98800Y356200D02*X101200Y353800D01*
X98800D02*X101200Y356200D01*
X53800Y161200D02*X56200Y158800D01*
X53800D02*X56200Y161200D01*
X53800Y151200D02*X56200Y148800D01*
X53800D02*X56200Y151200D01*
X63800Y161200D02*X66200Y158800D01*
X63800D02*X66200Y161200D01*
X63800Y151200D02*X66200Y148800D01*
X63800D02*X66200Y151200D01*
X73800Y161200D02*X76200Y158800D01*
X73800D02*X76200Y161200D01*
X73800Y151200D02*X76200Y148800D01*
X73800D02*X76200Y151200D01*
X83800Y161200D02*X86200Y158800D01*
X83800D02*X86200Y161200D01*
X83800Y151200D02*X86200Y148800D01*
X83800D02*X86200Y151200D01*
X93800Y161200D02*X96200Y158800D01*
X93800D02*X96200Y161200D01*
X93800Y151200D02*X96200Y148800D01*
X93800D02*X96200Y151200D01*
X103800Y161200D02*X106200Y158800D01*
X103800D02*X106200Y161200D01*
X103800Y151200D02*X106200Y148800D01*
X103800D02*X106200Y151200D01*
X113800Y161200D02*X116200Y158800D01*
X113800D02*X116200Y161200D01*
X113800Y151200D02*X116200Y148800D01*
X113800D02*X116200Y151200D01*
X123800Y161200D02*X126200Y158800D01*
X123800D02*X126200Y161200D01*
X123800Y151200D02*X126200Y148800D01*
X123800D02*X126200Y151200D01*
X13800Y527450D02*X16200Y525050D01*
X13800D02*X16200Y527450D01*
X135000Y528500D02*X136500Y525500D01*
X138000Y528500D01*
X136500Y525500D02*Y522500D01*
X139800Y525800D02*X142050D01*
X139800Y522500D02*X142800D01*
X139800Y528500D02*Y522500D01*
Y528500D02*X142800D01*
X147600D02*X148350Y527750D01*
X145350Y528500D02*X147600D01*
X144600Y527750D02*X145350Y528500D01*
X144600Y527750D02*Y526250D01*
X145350Y525500D01*
X147600D01*
X148350Y524750D01*
Y523250D01*
X147600Y522500D02*X148350Y523250D01*
X145350Y522500D02*X147600D01*
X144600Y523250D02*X145350Y522500D01*
X98000Y527300D02*X99200Y528500D01*
Y522500D01*
X98000D02*X100250D01*
X102050Y527750D02*X102800Y528500D01*
X104300D01*
X105050Y527750D01*
X104300Y522500D02*X105050Y523250D01*
X102800Y522500D02*X104300D01*
X102050Y523250D02*X102800Y522500D01*
Y525800D02*X104300D01*
X105050Y527750D02*Y526550D01*
Y525050D02*Y523250D01*
Y525050D02*X104300Y525800D01*
X105050Y526550D02*X104300Y525800D01*
X106850Y523250D02*X107600Y522500D01*
X106850Y524450D02*Y523250D01*
Y524450D02*X107900Y525500D01*
X108800D01*
X109850Y524450D01*
Y523250D01*
X109100Y522500D02*X109850Y523250D01*
X107600Y522500D02*X109100D01*
X106850Y526550D02*X107900Y525500D01*
X106850Y527750D02*Y526550D01*
Y527750D02*X107600Y528500D01*
X109100D01*
X109850Y527750D01*
Y526550D01*
X108800Y525500D02*X109850Y526550D01*
X45000Y523250D02*X45750Y522500D01*
X45000Y527750D02*Y523250D01*
Y527750D02*X45750Y528500D01*
X47250D01*
X48000Y527750D01*
Y523250D01*
X47250Y522500D02*X48000Y523250D01*
X45750Y522500D02*X47250D01*
X45000Y524000D02*X48000Y527000D01*
X49800Y522500D02*X50550D01*
X52350Y523250D02*X53100Y522500D01*
X52350Y527750D02*Y523250D01*
Y527750D02*X53100Y528500D01*
X54600D01*
X55350Y527750D01*
Y523250D01*
X54600Y522500D02*X55350Y523250D01*
X53100Y522500D02*X54600D01*
X52350Y524000D02*X55350Y527000D01*
X57150Y524750D02*X60150Y528500D01*
X57150Y524750D02*X60900D01*
X60150Y528500D02*Y522500D01*
X62700Y527750D02*X63450Y528500D01*
X65700D01*
X66450Y527750D01*
Y526250D01*
X62700Y522500D02*X66450Y526250D01*
X62700Y522500D02*X66450D01*
X297500Y96600D02*Y93400D01*
X295900Y95000D02*X299100D01*
X350000Y51600D02*Y48400D01*
X348400Y50000D02*X351600D01*
X117500Y96600D02*Y93400D01*
X115900Y95000D02*X119100D01*
X297500Y171600D02*Y168400D01*
X295900Y170000D02*X299100D01*
X350000Y126600D02*Y123400D01*
X348400Y125000D02*X351600D01*
X355000Y209100D02*Y205900D01*
X353400Y207500D02*X356600D01*
X65000Y224100D02*Y220900D01*
X63400Y222500D02*X66600D01*
X15000Y542850D02*Y539650D01*
X13400Y541250D02*X16600D01*
X135000Y543500D02*X136500Y540500D01*
X138000Y543500D01*
X136500Y540500D02*Y537500D01*
X139800Y540800D02*X142050D01*
X139800Y537500D02*X142800D01*
X139800Y543500D02*Y537500D01*
Y543500D02*X142800D01*
X147600D02*X148350Y542750D01*
X145350Y543500D02*X147600D01*
X144600Y542750D02*X145350Y543500D01*
X144600Y542750D02*Y541250D01*
X145350Y540500D01*
X147600D01*
X148350Y539750D01*
Y538250D01*
X147600Y537500D02*X148350Y538250D01*
X145350Y537500D02*X147600D01*
X144600Y538250D02*X145350Y537500D01*
X98750D02*X101750Y543500D01*
X98000D02*X101750D01*
X45000Y538250D02*X45750Y537500D01*
X45000Y542750D02*Y538250D01*
Y542750D02*X45750Y543500D01*
X47250D01*
X48000Y542750D01*
Y538250D01*
X47250Y537500D02*X48000Y538250D01*
X45750Y537500D02*X47250D01*
X45000Y539000D02*X48000Y542000D01*
X49800Y537500D02*X50550D01*
X52350Y538250D02*X53100Y537500D01*
X52350Y542750D02*Y538250D01*
Y542750D02*X53100Y543500D01*
X54600D01*
X55350Y542750D01*
Y538250D01*
X54600Y537500D02*X55350Y538250D01*
X53100Y537500D02*X54600D01*
X52350Y539000D02*X55350Y542000D01*
X57150Y542750D02*X57900Y543500D01*
X59400D01*
X60150Y542750D01*
X59400Y537500D02*X60150Y538250D01*
X57900Y537500D02*X59400D01*
X57150Y538250D02*X57900Y537500D01*
Y540800D02*X59400D01*
X60150Y542750D02*Y541550D01*
Y540050D02*Y538250D01*
Y540050D02*X59400Y540800D01*
X60150Y541550D02*X59400Y540800D01*
X61950Y543500D02*X64950D01*
X61950D02*Y540500D01*
X62700Y541250D01*
X64200D01*
X64950Y540500D01*
Y538250D01*
X64200Y537500D02*X64950Y538250D01*
X62700Y537500D02*X64200D01*
X61950Y538250D02*X62700Y537500D01*
X170000Y77500D02*Y75900D01*
Y77500D02*X171387Y78300D01*
X170000Y77500D02*X168613Y78300D01*
X170000Y47500D02*Y45900D01*
Y47500D02*X171387Y48300D01*
X170000Y47500D02*X168613Y48300D01*
X280000Y90000D02*Y88400D01*
Y90000D02*X281387Y90800D01*
X280000Y90000D02*X278613Y90800D01*
X302500Y42500D02*Y40900D01*
Y42500D02*X303887Y43300D01*
X302500Y42500D02*X301113Y43300D01*
X215000Y80000D02*Y78400D01*
Y80000D02*X216387Y80800D01*
X215000Y80000D02*X213613Y80800D01*
X170000Y152500D02*Y150900D01*
Y152500D02*X171387Y153300D01*
X170000Y152500D02*X168613Y153300D01*
X170000Y122500D02*Y120900D01*
Y122500D02*X171387Y123300D01*
X170000Y122500D02*X168613Y123300D01*
X280000Y165000D02*Y163400D01*
Y165000D02*X281387Y165800D01*
X280000Y165000D02*X278613Y165800D01*
X302500Y117500D02*Y115900D01*
Y117500D02*X303887Y118300D01*
X302500Y117500D02*X301113Y118300D01*
X215000Y155000D02*Y153400D01*
Y155000D02*X216387Y155800D01*
X215000Y155000D02*X213613Y155800D01*
X127500Y102500D02*Y100900D01*
Y102500D02*X128887Y103300D01*
X127500Y102500D02*X126113Y103300D01*
X127500Y112500D02*Y110900D01*
Y112500D02*X128887Y113300D01*
X127500Y112500D02*X126113Y113300D01*
X140000Y137500D02*Y135900D01*
Y137500D02*X141387Y138300D01*
X140000Y137500D02*X138613Y138300D01*
X130000Y137500D02*Y135900D01*
Y137500D02*X131387Y138300D01*
X130000Y137500D02*X128613Y138300D01*
X165000Y187500D02*Y185900D01*
Y187500D02*X166387Y188300D01*
X165000Y187500D02*X163613Y188300D01*
X207500Y182500D02*Y180900D01*
Y182500D02*X208887Y183300D01*
X207500Y182500D02*X206113Y183300D01*
X317500Y222500D02*Y220900D01*
Y222500D02*X318887Y223300D01*
X317500Y222500D02*X316113Y223300D01*
X317674Y209826D02*Y208226D01*
Y209826D02*X319061Y210626D01*
X317674Y209826D02*X316288Y210626D01*
X207500Y217500D02*Y215900D01*
Y217500D02*X208887Y218300D01*
X207500Y217500D02*X206113Y218300D01*
X200000Y217500D02*Y215900D01*
Y217500D02*X201387Y218300D01*
X200000Y217500D02*X198613Y218300D01*
X15000Y556250D02*Y554650D01*
Y556250D02*X16387Y557050D01*
X15000Y556250D02*X13613Y557050D01*
X135000Y558500D02*X136500Y555500D01*
X138000Y558500D01*
X136500Y555500D02*Y552500D01*
X139800Y555800D02*X142050D01*
X139800Y552500D02*X142800D01*
X139800Y558500D02*Y552500D01*
Y558500D02*X142800D01*
X147600D02*X148350Y557750D01*
X145350Y558500D02*X147600D01*
X144600Y557750D02*X145350Y558500D01*
X144600Y557750D02*Y556250D01*
X145350Y555500D01*
X147600D01*
X148350Y554750D01*
Y553250D01*
X147600Y552500D02*X148350Y553250D01*
X145350Y552500D02*X147600D01*
X144600Y553250D02*X145350Y552500D01*
X98000Y557750D02*X98750Y558500D01*
X101000D01*
X101750Y557750D01*
Y556250D01*
X98000Y552500D02*X101750Y556250D01*
X98000Y552500D02*X101750D01*
X103550Y553250D02*X104300Y552500D01*
X103550Y557750D02*Y553250D01*
Y557750D02*X104300Y558500D01*
X105800D01*
X106550Y557750D01*
Y553250D01*
X105800Y552500D02*X106550Y553250D01*
X104300Y552500D02*X105800D01*
X103550Y554000D02*X106550Y557000D01*
X45000Y553250D02*X45750Y552500D01*
X45000Y557750D02*Y553250D01*
Y557750D02*X45750Y558500D01*
X47250D01*
X48000Y557750D01*
Y553250D01*
X47250Y552500D02*X48000Y553250D01*
X45750Y552500D02*X47250D01*
X45000Y554000D02*X48000Y557000D01*
X49800Y552500D02*X50550D01*
X52350Y553250D02*X53100Y552500D01*
X52350Y557750D02*Y553250D01*
Y557750D02*X53100Y558500D01*
X54600D01*
X55350Y557750D01*
Y553250D01*
X54600Y552500D02*X55350Y553250D01*
X53100Y552500D02*X54600D01*
X52350Y554000D02*X55350Y557000D01*
X57150Y557750D02*X57900Y558500D01*
X60150D01*
X60900Y557750D01*
Y556250D01*
X57150Y552500D02*X60900Y556250D01*
X57150Y552500D02*X60900D01*
X62700Y553250D02*X63450Y552500D01*
X62700Y557750D02*Y553250D01*
Y557750D02*X63450Y558500D01*
X64950D01*
X65700Y557750D01*
Y553250D01*
X64950Y552500D02*X65700Y553250D01*
X63450Y552500D02*X64950D01*
X62700Y554000D02*X65700Y557000D01*
X3000Y573500D02*X3750Y572750D01*
X750Y573500D02*X3000D01*
X0Y572750D02*X750Y573500D01*
X0Y572750D02*Y571250D01*
X750Y570500D01*
X3000D01*
X3750Y569750D01*
Y568250D01*
X3000Y567500D02*X3750Y568250D01*
X750Y567500D02*X3000D01*
X0Y568250D02*X750Y567500D01*
X5550Y570500D02*Y568250D01*
X6300Y567500D01*
X8550Y570500D02*Y566000D01*
X7800Y565250D02*X8550Y566000D01*
X6300Y565250D02*X7800D01*
X5550Y566000D02*X6300Y565250D01*
Y567500D02*X7800D01*
X8550Y568250D01*
X11100Y569750D02*Y567500D01*
Y569750D02*X11850Y570500D01*
X12600D01*
X13350Y569750D01*
Y567500D01*
Y569750D02*X14100Y570500D01*
X14850D01*
X15600Y569750D01*
Y567500D01*
X10350Y570500D02*X11100Y569750D01*
X17400Y573500D02*Y567500D01*
Y568250D02*X18150Y567500D01*
X19650D01*
X20400Y568250D01*
Y569750D02*Y568250D01*
X19650Y570500D02*X20400Y569750D01*
X18150Y570500D02*X19650D01*
X17400Y569750D02*X18150Y570500D01*
X22200Y569750D02*Y568250D01*
Y569750D02*X22950Y570500D01*
X24450D01*
X25200Y569750D01*
Y568250D01*
X24450Y567500D02*X25200Y568250D01*
X22950Y567500D02*X24450D01*
X22200Y568250D02*X22950Y567500D01*
X27000Y573500D02*Y568250D01*
X27750Y567500D01*
X0Y564250D02*X29250D01*
X41750Y573500D02*Y567500D01*
X43700Y573500D02*X44750Y572450D01*
Y568550D01*
X43700Y567500D02*X44750Y568550D01*
X41000Y567500D02*X43700D01*
X41000Y573500D02*X43700D01*
G54D59*X46550Y572000D02*Y571850D01*
G54D58*Y569750D02*Y567500D01*
X50300Y570500D02*X51050Y569750D01*
X48800Y570500D02*X50300D01*
X48050Y569750D02*X48800Y570500D01*
X48050Y569750D02*Y568250D01*
X48800Y567500D01*
X51050Y570500D02*Y568250D01*
X51800Y567500D01*
X48800D02*X50300D01*
X51050Y568250D01*
X54350Y569750D02*Y567500D01*
Y569750D02*X55100Y570500D01*
X55850D01*
X56600Y569750D01*
Y567500D01*
Y569750D02*X57350Y570500D01*
X58100D01*
X58850Y569750D01*
Y567500D01*
X53600Y570500D02*X54350Y569750D01*
X60650Y567500D02*X61400D01*
X65900Y568250D02*X66650Y567500D01*
X65900Y572750D02*X66650Y573500D01*
X65900Y572750D02*Y568250D01*
X68450Y573500D02*X69950D01*
X69200D02*Y567500D01*
X68450D02*X69950D01*
X72500Y569750D02*Y567500D01*
Y569750D02*X73250Y570500D01*
X74000D01*
X74750Y569750D01*
Y567500D01*
X71750Y570500D02*X72500Y569750D01*
X77300Y570500D02*X79550D01*
X76550Y569750D02*X77300Y570500D01*
X76550Y569750D02*Y568250D01*
X77300Y567500D01*
X79550D01*
X81350Y573500D02*Y567500D01*
Y569750D02*X82100Y570500D01*
X83600D01*
X84350Y569750D01*
Y567500D01*
X86150Y573500D02*X86900Y572750D01*
Y568250D01*
X86150Y567500D02*X86900Y568250D01*
X41000Y564250D02*X88700D01*
X96050Y567500D02*X98000D01*
X95000Y568550D02*X96050Y567500D01*
X95000Y572450D02*Y568550D01*
Y572450D02*X96050Y573500D01*
X98000D01*
X99800Y569750D02*Y568250D01*
Y569750D02*X100550Y570500D01*
X102050D01*
X102800Y569750D01*
Y568250D01*
X102050Y567500D02*X102800Y568250D01*
X100550Y567500D02*X102050D01*
X99800Y568250D02*X100550Y567500D01*
X104600Y570500D02*Y568250D01*
X105350Y567500D01*
X106850D01*
X107600Y568250D01*
Y570500D02*Y568250D01*
X110150Y569750D02*Y567500D01*
Y569750D02*X110900Y570500D01*
X111650D01*
X112400Y569750D01*
Y567500D01*
X109400Y570500D02*X110150Y569750D01*
X114950Y573500D02*Y568250D01*
X115700Y567500D01*
X114200Y571250D02*X115700D01*
X95000Y564250D02*X117200D01*
X130750Y573500D02*Y567500D01*
X130000Y573500D02*X133000D01*
X133750Y572750D01*
Y571250D01*
X133000Y570500D02*X133750Y571250D01*
X130750Y570500D02*X133000D01*
X135550Y573500D02*Y568250D01*
X136300Y567500D01*
X140050Y570500D02*X140800Y569750D01*
X138550Y570500D02*X140050D01*
X137800Y569750D02*X138550Y570500D01*
X137800Y569750D02*Y568250D01*
X138550Y567500D01*
X140800Y570500D02*Y568250D01*
X141550Y567500D01*
X138550D02*X140050D01*
X140800Y568250D01*
X144100Y573500D02*Y568250D01*
X144850Y567500D01*
X143350Y571250D02*X144850D01*
X147100Y567500D02*X149350D01*
X146350Y568250D02*X147100Y567500D01*
X146350Y569750D02*Y568250D01*
Y569750D02*X147100Y570500D01*
X148600D01*
X149350Y569750D01*
X146350Y569000D02*X149350D01*
Y569750D02*Y569000D01*
X154150Y573500D02*Y567500D01*
X153400D02*X154150Y568250D01*
X151900Y567500D02*X153400D01*
X151150Y568250D02*X151900Y567500D01*
X151150Y569750D02*Y568250D01*
Y569750D02*X151900Y570500D01*
X153400D01*
X154150Y569750D01*
X157450Y570500D02*Y569750D01*
Y568250D02*Y567500D01*
X155950Y572750D02*Y572000D01*
Y572750D02*X156700Y573500D01*
X158200D01*
X158950Y572750D01*
Y572000D01*
X157450Y570500D02*X158950Y572000D01*
X130000Y564250D02*X160750D01*
X0Y588500D02*X3000D01*
X1500D02*Y582500D01*
X4800Y588500D02*Y582500D01*
Y584750D02*X5550Y585500D01*
X7050D01*
X7800Y584750D01*
Y582500D01*
X10350D02*X12600D01*
X9600Y583250D02*X10350Y582500D01*
X9600Y584750D02*Y583250D01*
Y584750D02*X10350Y585500D01*
X11850D01*
X12600Y584750D01*
X9600Y584000D02*X12600D01*
Y584750D02*Y584000D01*
X15150Y584750D02*Y582500D01*
Y584750D02*X15900Y585500D01*
X17400D01*
X14400D02*X15150Y584750D01*
X19950Y582500D02*X22200D01*
X19200Y583250D02*X19950Y582500D01*
X19200Y584750D02*Y583250D01*
Y584750D02*X19950Y585500D01*
X21450D01*
X22200Y584750D01*
X19200Y584000D02*X22200D01*
Y584750D02*Y584000D01*
X28950Y585500D02*X29700Y584750D01*
X27450Y585500D02*X28950D01*
X26700Y584750D02*X27450Y585500D01*
X26700Y584750D02*Y583250D01*
X27450Y582500D01*
X29700Y585500D02*Y583250D01*
X30450Y582500D01*
X27450D02*X28950D01*
X29700Y583250D01*
X33000Y584750D02*Y582500D01*
Y584750D02*X33750Y585500D01*
X35250D01*
X32250D02*X33000Y584750D01*
X37800Y582500D02*X40050D01*
X37050Y583250D02*X37800Y582500D01*
X37050Y584750D02*Y583250D01*
Y584750D02*X37800Y585500D01*
X39300D01*
X40050Y584750D01*
X37050Y584000D02*X40050D01*
Y584750D02*Y584000D01*
X44550Y584750D02*X47550Y588500D01*
X44550Y584750D02*X48300D01*
X47550Y588500D02*Y582500D01*
X55800Y588500D02*Y582500D01*
X55050D02*X55800Y583250D01*
X53550Y582500D02*X55050D01*
X52800Y583250D02*X53550Y582500D01*
X52800Y584750D02*Y583250D01*
Y584750D02*X53550Y585500D01*
X55050D01*
X55800Y584750D01*
G54D59*X57600Y587000D02*Y586850D01*
G54D58*Y584750D02*Y582500D01*
X59850Y587750D02*Y582500D01*
Y587750D02*X60600Y588500D01*
X61350D01*
X59100Y585500D02*X60600D01*
X63600Y587750D02*Y582500D01*
Y587750D02*X64350Y588500D01*
X65100D01*
X62850Y585500D02*X64350D01*
X67350Y582500D02*X69600D01*
X66600Y583250D02*X67350Y582500D01*
X66600Y584750D02*Y583250D01*
Y584750D02*X67350Y585500D01*
X68850D01*
X69600Y584750D01*
X66600Y584000D02*X69600D01*
Y584750D02*Y584000D01*
X72150Y584750D02*Y582500D01*
Y584750D02*X72900Y585500D01*
X74400D01*
X71400D02*X72150Y584750D01*
X76950Y582500D02*X79200D01*
X76200Y583250D02*X76950Y582500D01*
X76200Y584750D02*Y583250D01*
Y584750D02*X76950Y585500D01*
X78450D01*
X79200Y584750D01*
X76200Y584000D02*X79200D01*
Y584750D02*Y584000D01*
X81750Y584750D02*Y582500D01*
Y584750D02*X82500Y585500D01*
X83250D01*
X84000Y584750D01*
Y582500D01*
X81000Y585500D02*X81750Y584750D01*
X86550Y588500D02*Y583250D01*
X87300Y582500D01*
X85800Y586250D02*X87300D01*
X94500Y588500D02*Y582500D01*
X93750D02*X94500Y583250D01*
X92250Y582500D02*X93750D01*
X91500Y583250D02*X92250Y582500D01*
X91500Y584750D02*Y583250D01*
Y584750D02*X92250Y585500D01*
X93750D01*
X94500Y584750D01*
X97050D02*Y582500D01*
Y584750D02*X97800Y585500D01*
X99300D01*
X96300D02*X97050Y584750D01*
G54D59*X101100Y587000D02*Y586850D01*
G54D58*Y584750D02*Y582500D01*
X102600Y588500D02*Y583250D01*
X103350Y582500D01*
X104850Y588500D02*Y583250D01*
X105600Y582500D01*
X110550D02*X112800D01*
X113550Y583250D01*
X112800Y584000D02*X113550Y583250D01*
X110550Y584000D02*X112800D01*
X109800Y584750D02*X110550Y584000D01*
X109800Y584750D02*X110550Y585500D01*
X112800D01*
X113550Y584750D01*
X109800Y583250D02*X110550Y582500D01*
G54D59*X115350Y587000D02*Y586850D01*
G54D58*Y584750D02*Y582500D01*
X116850Y585500D02*X119850D01*
X116850Y582500D02*X119850Y585500D01*
X116850Y582500D02*X119850D01*
X122400D02*X124650D01*
X121650Y583250D02*X122400Y582500D01*
X121650Y584750D02*Y583250D01*
Y584750D02*X122400Y585500D01*
X123900D01*
X124650Y584750D01*
X121650Y584000D02*X124650D01*
Y584750D02*Y584000D01*
X127200Y582500D02*X129450D01*
X130200Y583250D01*
X129450Y584000D02*X130200Y583250D01*
X127200Y584000D02*X129450D01*
X126450Y584750D02*X127200Y584000D01*
X126450Y584750D02*X127200Y585500D01*
X129450D01*
X130200Y584750D01*
X126450Y583250D02*X127200Y582500D01*
X134700Y585500D02*Y583250D01*
X135450Y582500D01*
X136950D01*
X137700Y583250D01*
Y585500D02*Y583250D01*
X140250Y582500D02*X142500D01*
X143250Y583250D01*
X142500Y584000D02*X143250Y583250D01*
X140250Y584000D02*X142500D01*
X139500Y584750D02*X140250Y584000D01*
X139500Y584750D02*X140250Y585500D01*
X142500D01*
X143250Y584750D01*
X139500Y583250D02*X140250Y582500D01*
X145800D02*X148050D01*
X145050Y583250D02*X145800Y582500D01*
X145050Y584750D02*Y583250D01*
Y584750D02*X145800Y585500D01*
X147300D01*
X148050Y584750D01*
X145050Y584000D02*X148050D01*
Y584750D02*Y584000D01*
X152850Y588500D02*Y582500D01*
X152100D02*X152850Y583250D01*
X150600Y582500D02*X152100D01*
X149850Y583250D02*X150600Y582500D01*
X149850Y584750D02*Y583250D01*
Y584750D02*X150600Y585500D01*
X152100D01*
X152850Y584750D01*
G54D59*X157350Y587000D02*Y586850D01*
G54D58*Y584750D02*Y582500D01*
X159600Y584750D02*Y582500D01*
Y584750D02*X160350Y585500D01*
X161100D01*
X161850Y584750D01*
Y582500D01*
X158850Y585500D02*X159600Y584750D01*
X167100Y588500D02*Y583250D01*
X167850Y582500D01*
X166350Y586250D02*X167850D01*
X169350Y588500D02*Y582500D01*
Y584750D02*X170100Y585500D01*
X171600D01*
X172350Y584750D01*
Y582500D01*
G54D59*X174150Y587000D02*Y586850D01*
G54D58*Y584750D02*Y582500D01*
X176400D02*X178650D01*
X179400Y583250D01*
X178650Y584000D02*X179400Y583250D01*
X176400Y584000D02*X178650D01*
X175650Y584750D02*X176400Y584000D01*
X175650Y584750D02*X176400Y585500D01*
X178650D01*
X179400Y584750D01*
X175650Y583250D02*X176400Y582500D01*
X183900Y588500D02*Y583250D01*
X184650Y582500D01*
X188400Y585500D02*X189150Y584750D01*
X186900Y585500D02*X188400D01*
X186150Y584750D02*X186900Y585500D01*
X186150Y584750D02*Y583250D01*
X186900Y582500D01*
X189150Y585500D02*Y583250D01*
X189900Y582500D01*
X186900D02*X188400D01*
X189150Y583250D01*
X191700Y585500D02*Y583250D01*
X192450Y582500D01*
X194700Y585500D02*Y581000D01*
X193950Y580250D02*X194700Y581000D01*
X192450Y580250D02*X193950D01*
X191700Y581000D02*X192450Y580250D01*
Y582500D02*X193950D01*
X194700Y583250D01*
X196500Y584750D02*Y583250D01*
Y584750D02*X197250Y585500D01*
X198750D01*
X199500Y584750D01*
Y583250D01*
X198750Y582500D02*X199500Y583250D01*
X197250Y582500D02*X198750D01*
X196500Y583250D02*X197250Y582500D01*
X201300Y585500D02*Y583250D01*
X202050Y582500D01*
X203550D01*
X204300Y583250D01*
Y585500D02*Y583250D01*
X206850Y588500D02*Y583250D01*
X207600Y582500D01*
X206100Y586250D02*X207600D01*
X209100Y581000D02*X210600Y582500D01*
X215100Y587300D02*X216300Y588500D01*
Y582500D01*
X215100D02*X217350D01*
X219900D02*X222900Y588500D01*
X219150D02*X222900D01*
X224700Y587750D02*X225450Y588500D01*
X226950D01*
X227700Y587750D01*
X226950Y582500D02*X227700Y583250D01*
X225450Y582500D02*X226950D01*
X224700Y583250D02*X225450Y582500D01*
Y585800D02*X226950D01*
X227700Y587750D02*Y586550D01*
Y585050D02*Y583250D01*
Y585050D02*X226950Y585800D01*
X227700Y586550D02*X226950Y585800D01*
X232200Y588500D02*Y582500D01*
Y584750D02*X232950Y585500D01*
X234450D01*
X235200Y584750D01*
Y582500D01*
X237000Y584750D02*Y583250D01*
Y584750D02*X237750Y585500D01*
X239250D01*
X240000Y584750D01*
Y583250D01*
X239250Y582500D02*X240000Y583250D01*
X237750Y582500D02*X239250D01*
X237000Y583250D02*X237750Y582500D01*
X241800Y588500D02*Y583250D01*
X242550Y582500D01*
X244800D02*X247050D01*
X244050Y583250D02*X244800Y582500D01*
X244050Y584750D02*Y583250D01*
Y584750D02*X244800Y585500D01*
X246300D01*
X247050Y584750D01*
X244050Y584000D02*X247050D01*
Y584750D02*Y584000D01*
X249600Y582500D02*X251850D01*
X252600Y583250D01*
X251850Y584000D02*X252600Y583250D01*
X249600Y584000D02*X251850D01*
X248850Y584750D02*X249600Y584000D01*
X248850Y584750D02*X249600Y585500D01*
X251850D01*
X252600Y584750D01*
X248850Y583250D02*X249600Y582500D01*
X257850Y588500D02*Y583250D01*
X258600Y582500D01*
X257100Y586250D02*X258600D01*
X260100Y584750D02*Y583250D01*
Y584750D02*X260850Y585500D01*
X262350D01*
X263100Y584750D01*
Y583250D01*
X262350Y582500D02*X263100Y583250D01*
X260850Y582500D02*X262350D01*
X260100Y583250D02*X260850Y582500D01*
X265650Y588500D02*Y583250D01*
X266400Y582500D01*
X264900Y586250D02*X266400D01*
X270150Y585500D02*X270900Y584750D01*
X268650Y585500D02*X270150D01*
X267900Y584750D02*X268650Y585500D01*
X267900Y584750D02*Y583250D01*
X268650Y582500D01*
X270900Y585500D02*Y583250D01*
X271650Y582500D01*
X268650D02*X270150D01*
X270900Y583250D01*
X273450Y588500D02*Y583250D01*
X274200Y582500D01*
G54D60*X0Y500000D02*X375000D01*
Y0D02*X0D01*
Y500000D01*
X375000Y0D02*Y500000D01*
G54D58*X101175Y-9500D02*X104175D01*
X104925Y-8750D01*
Y-6950D02*Y-8750D01*
X104175Y-6200D02*X104925Y-6950D01*
X101925Y-6200D02*X104175D01*
X101925Y-3500D02*Y-9500D01*
X101175Y-3500D02*X104175D01*
X104925Y-4250D01*
Y-5450D01*
X104175Y-6200D02*X104925Y-5450D01*
X106725Y-7250D02*Y-8750D01*
Y-7250D02*X107475Y-6500D01*
X108975D01*
X109725Y-7250D01*
Y-8750D01*
X108975Y-9500D02*X109725Y-8750D01*
X107475Y-9500D02*X108975D01*
X106725Y-8750D02*X107475Y-9500D01*
X113775Y-6500D02*X114525Y-7250D01*
X112275Y-6500D02*X113775D01*
X111525Y-7250D02*X112275Y-6500D01*
X111525Y-7250D02*Y-8750D01*
X112275Y-9500D01*
X114525Y-6500D02*Y-8750D01*
X115275Y-9500D01*
X112275D02*X113775D01*
X114525Y-8750D01*
X117825Y-7250D02*Y-9500D01*
Y-7250D02*X118575Y-6500D01*
X120075D01*
X117075D02*X117825Y-7250D01*
X124875Y-3500D02*Y-9500D01*
X124125D02*X124875Y-8750D01*
X122625Y-9500D02*X124125D01*
X121875Y-8750D02*X122625Y-9500D01*
X121875Y-7250D02*Y-8750D01*
Y-7250D02*X122625Y-6500D01*
X124125D01*
X124875Y-7250D01*
X129375D02*Y-8750D01*
Y-7250D02*X130125Y-6500D01*
X131625D01*
X132375Y-7250D01*
Y-8750D01*
X131625Y-9500D02*X132375Y-8750D01*
X130125Y-9500D02*X131625D01*
X129375Y-8750D02*X130125Y-9500D01*
X134175Y-6500D02*Y-8750D01*
X134925Y-9500D01*
X136425D01*
X137175Y-8750D01*
Y-6500D02*Y-8750D01*
X139725Y-3500D02*Y-8750D01*
X140475Y-9500D01*
X138975Y-5750D02*X140475D01*
X141975Y-3500D02*Y-8750D01*
X142725Y-9500D01*
G54D59*X144225Y-5000D02*Y-5150D01*
G54D58*Y-7250D02*Y-9500D01*
X146475Y-7250D02*Y-9500D01*
Y-7250D02*X147225Y-6500D01*
X147975D01*
X148725Y-7250D01*
Y-9500D01*
X145725Y-6500D02*X146475Y-7250D01*
X151275Y-9500D02*X153525D01*
X150525Y-8750D02*X151275Y-9500D01*
X150525Y-7250D02*Y-8750D01*
Y-7250D02*X151275Y-6500D01*
X152775D01*
X153525Y-7250D01*
X150525Y-8000D02*X153525D01*
Y-7250D02*Y-8000D01*
G54D59*X158025Y-5000D02*Y-5150D01*
G54D58*Y-7250D02*Y-9500D01*
X160275D02*X162525D01*
X163275Y-8750D01*
X162525Y-8000D02*X163275Y-8750D01*
X160275Y-8000D02*X162525D01*
X159525Y-7250D02*X160275Y-8000D01*
X159525Y-7250D02*X160275Y-6500D01*
X162525D01*
X163275Y-7250D01*
X159525Y-8750D02*X160275Y-9500D01*
X168525Y-3500D02*Y-8750D01*
X169275Y-9500D01*
X167775Y-5750D02*X169275D01*
X170775Y-3500D02*Y-9500D01*
Y-7250D02*X171525Y-6500D01*
X173025D01*
X173775Y-7250D01*
Y-9500D01*
X176325D02*X178575D01*
X175575Y-8750D02*X176325Y-9500D01*
X175575Y-7250D02*Y-8750D01*
Y-7250D02*X176325Y-6500D01*
X177825D01*
X178575Y-7250D01*
X175575Y-8000D02*X178575D01*
Y-7250D02*Y-8000D01*
X183825Y-6500D02*X186075D01*
X183075Y-7250D02*X183825Y-6500D01*
X183075Y-7250D02*Y-8750D01*
X183825Y-9500D01*
X186075D01*
X188625D02*X190875D01*
X187875Y-8750D02*X188625Y-9500D01*
X187875Y-7250D02*Y-8750D01*
Y-7250D02*X188625Y-6500D01*
X190125D01*
X190875Y-7250D01*
X187875Y-8000D02*X190875D01*
Y-7250D02*Y-8000D01*
X193425Y-7250D02*Y-9500D01*
Y-7250D02*X194175Y-6500D01*
X194925D01*
X195675Y-7250D01*
Y-9500D01*
X192675Y-6500D02*X193425Y-7250D01*
X198225Y-3500D02*Y-8750D01*
X198975Y-9500D01*
X197475Y-5750D02*X198975D01*
X201225Y-9500D02*X203475D01*
X200475Y-8750D02*X201225Y-9500D01*
X200475Y-7250D02*Y-8750D01*
Y-7250D02*X201225Y-6500D01*
X202725D01*
X203475Y-7250D01*
X200475Y-8000D02*X203475D01*
Y-7250D02*Y-8000D01*
X206025Y-7250D02*Y-9500D01*
Y-7250D02*X206775Y-6500D01*
X208275D01*
X205275D02*X206025Y-7250D01*
X210075Y-3500D02*Y-8750D01*
X210825Y-9500D01*
G54D59*X212325Y-5000D02*Y-5150D01*
G54D58*Y-7250D02*Y-9500D01*
X214575Y-7250D02*Y-9500D01*
Y-7250D02*X215325Y-6500D01*
X216075D01*
X216825Y-7250D01*
Y-9500D01*
X213825Y-6500D02*X214575Y-7250D01*
X219375Y-9500D02*X221625D01*
X218625Y-8750D02*X219375Y-9500D01*
X218625Y-7250D02*Y-8750D01*
Y-7250D02*X219375Y-6500D01*
X220875D01*
X221625Y-7250D01*
X218625Y-8000D02*X221625D01*
Y-7250D02*Y-8000D01*
X226125Y-7250D02*Y-8750D01*
Y-7250D02*X226875Y-6500D01*
X228375D01*
X229125Y-7250D01*
Y-8750D01*
X228375Y-9500D02*X229125Y-8750D01*
X226875Y-9500D02*X228375D01*
X226125Y-8750D02*X226875Y-9500D01*
X231675Y-4250D02*Y-9500D01*
Y-4250D02*X232425Y-3500D01*
X233175D01*
X230925Y-6500D02*X232425D01*
X238125Y-3500D02*Y-8750D01*
X238875Y-9500D01*
X237375Y-5750D02*X238875D01*
X240375Y-3500D02*Y-9500D01*
Y-7250D02*X241125Y-6500D01*
X242625D01*
X243375Y-7250D01*
Y-9500D01*
G54D59*X245175Y-5000D02*Y-5150D01*
G54D58*Y-7250D02*Y-9500D01*
X247425D02*X249675D01*
X250425Y-8750D01*
X249675Y-8000D02*X250425Y-8750D01*
X247425Y-8000D02*X249675D01*
X246675Y-7250D02*X247425Y-8000D01*
X246675Y-7250D02*X247425Y-6500D01*
X249675D01*
X250425Y-7250D01*
X246675Y-8750D02*X247425Y-9500D01*
X255675Y-7250D02*Y-11750D01*
X254925Y-6500D02*X255675Y-7250D01*
X256425Y-6500D01*
X257925D01*
X258675Y-7250D01*
Y-8750D01*
X257925Y-9500D02*X258675Y-8750D01*
X256425Y-9500D02*X257925D01*
X255675Y-8750D02*X256425Y-9500D01*
X262725Y-6500D02*X263475Y-7250D01*
X261225Y-6500D02*X262725D01*
X260475Y-7250D02*X261225Y-6500D01*
X260475Y-7250D02*Y-8750D01*
X261225Y-9500D01*
X263475Y-6500D02*Y-8750D01*
X264225Y-9500D01*
X261225D02*X262725D01*
X263475Y-8750D01*
X266775Y-3500D02*Y-8750D01*
X267525Y-9500D01*
X266025Y-5750D02*X267525D01*
X269025Y-3500D02*Y-9500D01*
Y-7250D02*X269775Y-6500D01*
X271275D01*
X272025Y-7250D01*
Y-9500D01*
X200750Y528500D02*Y522500D01*
X202700Y528500D02*X203750Y527450D01*
Y523550D01*
X202700Y522500D02*X203750Y523550D01*
X200000Y522500D02*X202700D01*
X200000Y528500D02*X202700D01*
X207800Y525500D02*X208550Y524750D01*
X206300Y525500D02*X207800D01*
X205550Y524750D02*X206300Y525500D01*
X205550Y524750D02*Y523250D01*
X206300Y522500D01*
X208550Y525500D02*Y523250D01*
X209300Y522500D01*
X206300D02*X207800D01*
X208550Y523250D01*
X211850Y528500D02*Y523250D01*
X212600Y522500D01*
X211100Y526250D02*X212600D01*
X214850Y522500D02*X217100D01*
X214100Y523250D02*X214850Y522500D01*
X214100Y524750D02*Y523250D01*
Y524750D02*X214850Y525500D01*
X216350D01*
X217100Y524750D01*
X214100Y524000D02*X217100D01*
Y524750D02*Y524000D01*
X218900Y526250D02*X219650D01*
X218900Y524750D02*X219650D01*
X224150Y528500D02*Y525500D01*
X224900Y522500D01*
X226400Y525500D01*
X227900Y522500D01*
X228650Y525500D01*
Y528500D02*Y525500D01*
X231200Y522500D02*X233450D01*
X230450Y523250D02*X231200Y522500D01*
X230450Y524750D02*Y523250D01*
Y524750D02*X231200Y525500D01*
X232700D01*
X233450Y524750D01*
X230450Y524000D02*X233450D01*
Y524750D02*Y524000D01*
X238250Y528500D02*Y522500D01*
X237500D02*X238250Y523250D01*
X236000Y522500D02*X237500D01*
X235250Y523250D02*X236000Y522500D01*
X235250Y524750D02*Y523250D01*
Y524750D02*X236000Y525500D01*
X237500D01*
X238250Y524750D01*
X242750Y527300D02*X243950Y528500D01*
Y522500D01*
X242750D02*X245000D01*
X246800Y527750D02*X247550Y528500D01*
X249800D01*
X250550Y527750D01*
Y526250D01*
X246800Y522500D02*X250550Y526250D01*
X246800Y522500D02*X250550D01*
X255800Y528500D02*Y522500D01*
X257750Y528500D02*X258800Y527450D01*
Y523550D01*
X257750Y522500D02*X258800Y523550D01*
X255050Y522500D02*X257750D01*
X255050Y528500D02*X257750D01*
X261350Y522500D02*X263600D01*
X260600Y523250D02*X261350Y522500D01*
X260600Y524750D02*Y523250D01*
Y524750D02*X261350Y525500D01*
X262850D01*
X263600Y524750D01*
X260600Y524000D02*X263600D01*
Y524750D02*Y524000D01*
X266150Y525500D02*X268400D01*
X265400Y524750D02*X266150Y525500D01*
X265400Y524750D02*Y523250D01*
X266150Y522500D01*
X268400D01*
X272900Y527750D02*X273650Y528500D01*
X275900D01*
X276650Y527750D01*
Y526250D01*
X272900Y522500D02*X276650Y526250D01*
X272900Y522500D02*X276650D01*
X278450Y523250D02*X279200Y522500D01*
X278450Y527750D02*Y523250D01*
Y527750D02*X279200Y528500D01*
X280700D01*
X281450Y527750D01*
Y523250D01*
X280700Y522500D02*X281450Y523250D01*
X279200Y522500D02*X280700D01*
X278450Y524000D02*X281450Y527000D01*
X283250Y527300D02*X284450Y528500D01*
Y522500D01*
X283250D02*X285500D01*
X287300Y523250D02*X288050Y522500D01*
X287300Y524450D02*Y523250D01*
Y524450D02*X288350Y525500D01*
X289250D01*
X290300Y524450D01*
Y523250D01*
X289550Y522500D02*X290300Y523250D01*
X288050Y522500D02*X289550D01*
X287300Y526550D02*X288350Y525500D01*
X287300Y527750D02*Y526550D01*
Y527750D02*X288050Y528500D01*
X289550D01*
X290300Y527750D01*
Y526550D01*
X289250Y525500D02*X290300Y526550D01*
X294800Y527300D02*X296000Y528500D01*
Y522500D01*
X294800D02*X297050D01*
X298850Y523250D02*X299600Y522500D01*
X298850Y527750D02*Y523250D01*
Y527750D02*X299600Y528500D01*
X301100D01*
X301850Y527750D01*
Y523250D01*
X301100Y522500D02*X301850Y523250D01*
X299600Y522500D02*X301100D01*
X298850Y524000D02*X301850Y527000D01*
X303650Y526250D02*X304400D01*
X303650Y524750D02*X304400D01*
X306200Y527750D02*X306950Y528500D01*
X309200D01*
X309950Y527750D01*
Y526250D01*
X306200Y522500D02*X309950Y526250D01*
X306200Y522500D02*X309950D01*
X314000Y528500D02*X314750Y527750D01*
X312500Y528500D02*X314000D01*
X311750Y527750D02*X312500Y528500D01*
X311750Y527750D02*Y523250D01*
X312500Y522500D01*
X314000Y525800D02*X314750Y525050D01*
X311750Y525800D02*X314000D01*
X312500Y522500D02*X314000D01*
X314750Y523250D01*
Y525050D02*Y523250D01*
X316550Y526250D02*X317300D01*
X316550Y524750D02*X317300D01*
X319100Y527750D02*X319850Y528500D01*
X321350D01*
X322100Y527750D01*
X321350Y522500D02*X322100Y523250D01*
X319850Y522500D02*X321350D01*
X319100Y523250D02*X319850Y522500D01*
Y525800D02*X321350D01*
X322100Y527750D02*Y526550D01*
Y525050D02*Y523250D01*
Y525050D02*X321350Y525800D01*
X322100Y526550D02*X321350Y525800D01*
X324650Y522500D02*X327650Y528500D01*
X323900D02*X327650D01*
X332900D02*Y522500D01*
X332150Y528500D02*X335150D01*
X335900Y527750D01*
Y526250D01*
X335150Y525500D02*X335900Y526250D01*
X332900Y525500D02*X335150D01*
X337700Y528500D02*Y522500D01*
Y528500D02*X339950Y525500D01*
X342200Y528500D01*
Y522500D01*
X349700Y528500D02*X350450Y527750D01*
X347450Y528500D02*X349700D01*
X346700Y527750D02*X347450Y528500D01*
X346700Y527750D02*Y523250D01*
X347450Y522500D01*
X349700D01*
X350450Y523250D01*
Y524750D02*Y523250D01*
X349700Y525500D02*X350450Y524750D01*
X348200Y525500D02*X349700D01*
X352250Y528500D02*Y522500D01*
Y528500D02*X354500Y525500D01*
X356750Y528500D01*
Y522500D01*
X358550Y528500D02*X361550D01*
X360050D02*Y522500D01*
X366050Y528500D02*Y523250D01*
X366800Y522500D01*
X368300D01*
X369050Y523250D01*
Y528500D02*Y523250D01*
X370850Y528500D02*X373850D01*
X372350D02*Y522500D01*
X376700D02*X378650D01*
X375650Y523550D02*X376700Y522500D01*
X375650Y527450D02*Y523550D01*
Y527450D02*X376700Y528500D01*
X378650D01*
X200000Y542000D02*Y537500D01*
Y542000D02*X201050Y543500D01*
X202700D01*
X203750Y542000D01*
Y537500D01*
X200000Y540500D02*X203750D01*
X205550D02*Y538250D01*
X206300Y537500D01*
X207800D01*
X208550Y538250D01*
Y540500D02*Y538250D01*
X211100Y543500D02*Y538250D01*
X211850Y537500D01*
X210350Y541250D02*X211850D01*
X213350Y543500D02*Y537500D01*
Y539750D02*X214100Y540500D01*
X215600D01*
X216350Y539750D01*
Y537500D01*
X218150Y539750D02*Y538250D01*
Y539750D02*X218900Y540500D01*
X220400D01*
X221150Y539750D01*
Y538250D01*
X220400Y537500D02*X221150Y538250D01*
X218900Y537500D02*X220400D01*
X218150Y538250D02*X218900Y537500D01*
X223700Y539750D02*Y537500D01*
Y539750D02*X224450Y540500D01*
X225950D01*
X222950D02*X223700Y539750D01*
X227750Y541250D02*X228500D01*
X227750Y539750D02*X228500D01*
X234050Y537500D02*X236000D01*
X233000Y538550D02*X234050Y537500D01*
X233000Y542450D02*Y538550D01*
Y542450D02*X234050Y543500D01*
X236000D01*
X237800D02*Y537500D01*
Y539750D02*X238550Y540500D01*
X240050D01*
X240800Y539750D01*
Y537500D01*
X243350Y539750D02*Y537500D01*
Y539750D02*X244100Y540500D01*
X245600D01*
X242600D02*X243350Y539750D01*
G54D59*X247400Y542000D02*Y541850D01*
G54D58*Y539750D02*Y537500D01*
X249650D02*X251900D01*
X252650Y538250D01*
X251900Y539000D02*X252650Y538250D01*
X249650Y539000D02*X251900D01*
X248900Y539750D02*X249650Y539000D01*
X248900Y539750D02*X249650Y540500D01*
X251900D01*
X252650Y539750D01*
X248900Y538250D02*X249650Y537500D01*
X255200Y543500D02*Y538250D01*
X255950Y537500D01*
X254450Y541250D02*X255950D01*
X257450Y539750D02*Y538250D01*
Y539750D02*X258200Y540500D01*
X259700D01*
X260450Y539750D01*
Y538250D01*
X259700Y537500D02*X260450Y538250D01*
X258200Y537500D02*X259700D01*
X257450Y538250D02*X258200Y537500D01*
X263000Y539750D02*Y535250D01*
X262250Y540500D02*X263000Y539750D01*
X263750Y540500D01*
X265250D01*
X266000Y539750D01*
Y538250D01*
X265250Y537500D02*X266000Y538250D01*
X263750Y537500D02*X265250D01*
X263000Y538250D02*X263750Y537500D01*
X267800Y543500D02*Y537500D01*
Y539750D02*X268550Y540500D01*
X270050D01*
X270800Y539750D01*
Y537500D01*
X273350D02*X275600D01*
X272600Y538250D02*X273350Y537500D01*
X272600Y539750D02*Y538250D01*
Y539750D02*X273350Y540500D01*
X274850D01*
X275600Y539750D01*
X272600Y539000D02*X275600D01*
Y539750D02*Y539000D01*
X278150Y539750D02*Y537500D01*
Y539750D02*X278900Y540500D01*
X280400D01*
X277400D02*X278150Y539750D01*
X284900Y543500D02*X287900D01*
X286400D02*Y537500D01*
X289700Y543500D02*Y537500D01*
Y539750D02*X290450Y540500D01*
X291950D01*
X292700Y539750D01*
Y537500D01*
X294500Y539750D02*Y538250D01*
Y539750D02*X295250Y540500D01*
X296750D01*
X297500Y539750D01*
Y538250D01*
X296750Y537500D02*X297500Y538250D01*
X295250Y537500D02*X296750D01*
X294500Y538250D02*X295250Y537500D01*
X300050Y539750D02*Y537500D01*
Y539750D02*X300800Y540500D01*
X301550D01*
X302300Y539750D01*
Y537500D01*
Y539750D02*X303050Y540500D01*
X303800D01*
X304550Y539750D01*
Y537500D01*
X299300Y540500D02*X300050Y539750D01*
X308600Y540500D02*X309350Y539750D01*
X307100Y540500D02*X308600D01*
X306350Y539750D02*X307100Y540500D01*
X306350Y539750D02*Y538250D01*
X307100Y537500D01*
X309350Y540500D02*Y538250D01*
X310100Y537500D01*
X307100D02*X308600D01*
X309350Y538250D01*
X312650Y537500D02*X314900D01*
X315650Y538250D01*
X314900Y539000D02*X315650Y538250D01*
X312650Y539000D02*X314900D01*
X311900Y539750D02*X312650Y539000D01*
X311900Y539750D02*X312650Y540500D01*
X314900D01*
X315650Y539750D01*
X311900Y538250D02*X312650Y537500D01*
X200000Y558500D02*X203000D01*
X201500D02*Y552500D01*
G54D59*X204800Y557000D02*Y556850D01*
G54D58*Y554750D02*Y552500D01*
X207050Y558500D02*Y553250D01*
X207800Y552500D01*
X206300Y556250D02*X207800D01*
X209300Y558500D02*Y553250D01*
X210050Y552500D01*
X212300D02*X214550D01*
X211550Y553250D02*X212300Y552500D01*
X211550Y554750D02*Y553250D01*
Y554750D02*X212300Y555500D01*
X213800D01*
X214550Y554750D01*
X211550Y554000D02*X214550D01*
Y554750D02*Y554000D01*
X216350Y556250D02*X217100D01*
X216350Y554750D02*X217100D01*
X221600Y553250D02*X222350Y552500D01*
X221600Y557750D02*X222350Y558500D01*
X221600Y557750D02*Y553250D01*
X224150Y555500D02*Y553250D01*
X224900Y552500D01*
X226400D01*
X227150Y553250D01*
Y555500D02*Y553250D01*
X229700Y554750D02*Y552500D01*
Y554750D02*X230450Y555500D01*
X231200D01*
X231950Y554750D01*
Y552500D01*
X228950Y555500D02*X229700Y554750D01*
X233750Y558500D02*Y552500D01*
Y554750D02*X236000Y552500D01*
X233750Y554750D02*X235250Y556250D01*
X238550Y554750D02*Y552500D01*
Y554750D02*X239300Y555500D01*
X240050D01*
X240800Y554750D01*
Y552500D01*
X237800Y555500D02*X238550Y554750D01*
X242600D02*Y553250D01*
Y554750D02*X243350Y555500D01*
X244850D01*
X245600Y554750D01*
Y553250D01*
X244850Y552500D02*X245600Y553250D01*
X243350Y552500D02*X244850D01*
X242600Y553250D02*X243350Y552500D01*
X247400Y555500D02*Y553250D01*
X248150Y552500D01*
X248900D01*
X249650Y553250D01*
Y555500D02*Y553250D01*
X250400Y552500D01*
X251150D01*
X251900Y553250D01*
Y555500D02*Y553250D01*
X254450Y554750D02*Y552500D01*
Y554750D02*X255200Y555500D01*
X255950D01*
X256700Y554750D01*
Y552500D01*
X253700Y555500D02*X254450Y554750D01*
X258500Y558500D02*X259250Y557750D01*
Y553250D01*
X258500Y552500D02*X259250Y553250D01*
X263750Y555500D02*X266750D01*
X271250Y558500D02*Y552500D01*
Y558500D02*X274250D01*
X271250Y555800D02*X273500D01*
X278300Y555500D02*X279050Y554750D01*
X276800Y555500D02*X278300D01*
X276050Y554750D02*X276800Y555500D01*
X276050Y554750D02*Y553250D01*
X276800Y552500D01*
X279050Y555500D02*Y553250D01*
X279800Y552500D01*
X276800D02*X278300D01*
X279050Y553250D01*
X281600Y558500D02*Y552500D01*
Y553250D02*X282350Y552500D01*
X283850D01*
X284600Y553250D01*
Y554750D02*Y553250D01*
X283850Y555500D02*X284600Y554750D01*
X282350Y555500D02*X283850D01*
X281600Y554750D02*X282350Y555500D01*
X287150Y554750D02*Y552500D01*
Y554750D02*X287900Y555500D01*
X289400D01*
X286400D02*X287150Y554750D01*
G54D59*X291200Y557000D02*Y556850D01*
G54D58*Y554750D02*Y552500D01*
X293450Y555500D02*X295700D01*
X292700Y554750D02*X293450Y555500D01*
X292700Y554750D02*Y553250D01*
X293450Y552500D01*
X295700D01*
X299750Y555500D02*X300500Y554750D01*
X298250Y555500D02*X299750D01*
X297500Y554750D02*X298250Y555500D01*
X297500Y554750D02*Y553250D01*
X298250Y552500D01*
X300500Y555500D02*Y553250D01*
X301250Y552500D01*
X298250D02*X299750D01*
X300500Y553250D01*
X303800Y558500D02*Y553250D01*
X304550Y552500D01*
X303050Y556250D02*X304550D01*
G54D59*X306050Y557000D02*Y556850D01*
G54D58*Y554750D02*Y552500D01*
X307550Y554750D02*Y553250D01*
Y554750D02*X308300Y555500D01*
X309800D01*
X310550Y554750D01*
Y553250D01*
X309800Y552500D02*X310550Y553250D01*
X308300Y552500D02*X309800D01*
X307550Y553250D02*X308300Y552500D01*
X313100Y554750D02*Y552500D01*
Y554750D02*X313850Y555500D01*
X314600D01*
X315350Y554750D01*
Y552500D01*
X312350Y555500D02*X313100Y554750D01*
X320600Y558500D02*Y552500D01*
X322550Y558500D02*X323600Y557450D01*
Y553550D01*
X322550Y552500D02*X323600Y553550D01*
X319850Y552500D02*X322550D01*
X319850Y558500D02*X322550D01*
X326150Y554750D02*Y552500D01*
Y554750D02*X326900Y555500D01*
X328400D01*
X325400D02*X326150Y554750D01*
X332450Y555500D02*X333200Y554750D01*
X330950Y555500D02*X332450D01*
X330200Y554750D02*X330950Y555500D01*
X330200Y554750D02*Y553250D01*
X330950Y552500D01*
X333200Y555500D02*Y553250D01*
X333950Y552500D01*
X330950D02*X332450D01*
X333200Y553250D01*
X335750Y555500D02*Y553250D01*
X336500Y552500D01*
X337250D01*
X338000Y553250D01*
Y555500D02*Y553250D01*
X338750Y552500D01*
X339500D01*
X340250Y553250D01*
Y555500D02*Y553250D01*
G54D59*X342050Y557000D02*Y556850D01*
G54D58*Y554750D02*Y552500D01*
X344300Y554750D02*Y552500D01*
Y554750D02*X345050Y555500D01*
X345800D01*
X346550Y554750D01*
Y552500D01*
X343550Y555500D02*X344300Y554750D01*
X350600Y555500D02*X351350Y554750D01*
X349100Y555500D02*X350600D01*
X348350Y554750D02*X349100Y555500D01*
X348350Y554750D02*Y553250D01*
X349100Y552500D01*
X350600D01*
X351350Y553250D01*
X348350Y551000D02*X349100Y550250D01*
X350600D01*
X351350Y551000D01*
Y555500D02*Y551000D01*
M02*
