M48
INCH
T40C0.035
T39C0.125
T38C0.020
T37C0.042
%
T38
X012750Y011250
X012750Y010250
X013000Y013750
X014000Y013750
X016500Y018750
X017000Y015250
X017000Y012250
X017000Y007750
X017000Y004750
X020000Y021750
X020750Y021750
X020750Y018250
X021500Y015500
X021500Y008000
X028000Y016500
X028000Y009000
X030250Y011750
X030250Y004250
X031750Y022250
X031767Y020983
T40
X006500Y022250
X011750Y009500
X029750Y017000
X029750Y009500
X035000Y012500
X035000Y005000
X035500Y020750
T37
X003400Y043000
X004400Y043000
X005400Y043000
X005500Y016000
X005500Y015000
X006400Y043000
X006500Y016000
X006500Y015000
X007000Y024000
X007400Y043000
X007500Y016000
X007500Y015000
X008000Y024000
X008400Y043000
X008500Y016000
X008500Y015000
X009000Y024000
X009400Y043000
X009500Y016000
X009500Y015000
X010000Y035500
X010000Y034500
X010000Y024000
X010400Y043000
X010500Y016000
X010500Y015000
X011000Y035500
X011000Y034500
X011000Y024000
X011400Y043000
X011500Y016000
X011500Y015000
X012000Y035500
X012000Y034500
X012000Y024000
X012400Y043000
X012500Y016000
X012500Y015000
X013000Y035500
X013000Y034500
X013000Y024000
X014000Y043000
X014000Y035500
X014000Y034500
X014000Y024000
X015000Y043000
X016000Y043000
X016000Y024000
X017000Y043000
X017000Y024000
X018000Y043000
X018000Y024000
X019000Y043000
X019000Y024000
X020000Y043000
X020000Y024000
X021000Y043000
X021000Y024000
X021050Y035000
X021050Y034000
X021050Y033000
X022000Y024000
X022050Y035000
X022050Y034000
X022050Y033000
X023000Y043000
X023000Y024000
X024000Y043000
X025000Y043000
X025000Y024000
X026000Y043000
X026000Y024000
X027000Y043000
X027000Y024000
X027500Y037500
X027500Y036500
X027500Y035500
X027500Y034500
X027500Y033500
X027500Y032500
X027500Y031500
X027500Y030500
X027500Y029500
X027500Y028500
X028000Y043000
X028000Y024000
X028500Y037500
X028500Y036500
X028500Y035500
X028500Y034500
X028500Y033500
X028500Y032500
X028500Y031500
X028500Y030500
X028500Y029500
X028500Y028500
X029000Y043000
X029000Y024000
X030000Y043000
X030000Y024000
X031000Y024000
X032000Y024000
X033000Y043000
X033000Y042000
X033000Y041000
X033000Y040000
X033000Y039000
X033000Y038000
X033000Y037000
X033000Y036000
X033000Y035000
X033000Y034000
X033000Y033000
X033000Y032000
X033000Y031000
X033000Y030000
X033000Y029000
X033000Y028000
X033000Y027000
X033000Y026000
X034000Y043000
X034000Y042000
X034000Y041000
X034000Y040000
X034000Y039000
X034000Y038000
X034000Y037000
X034000Y036000
X034000Y035000
X034000Y034000
X034000Y033000
X034000Y032000
X034000Y031000
X034000Y030000
X034000Y029000
X034000Y028000
X034000Y027000
X034000Y026000
T39
X001500Y024000
X002000Y043000
X002500Y047500
X002500Y002500
X022000Y037000
X034000Y024000
X035000Y047500
X035000Y002500
M30
