G04 start of page 2 for group 0 idx 0 *
G04 Title: (unknown), component *
G04 Creator: pcb 20140316 *
G04 CreationDate: Wed 12 Dec 2018 10:26:37 PM GMT UTC *
G04 For: thomasc *
G04 Format: Gerber/RS-274X *
G04 PCB-Dimensions (mil): 3750.00 5000.00 *
G04 PCB-Coordinate-Origin: lower left *
%MOIN*%
%FSLAX25Y25*%
%LNTOP*%
%ADD25C,0.0420*%
%ADD24C,0.0350*%
%ADD23C,0.1250*%
%ADD22C,0.0600*%
%ADD21C,0.1290*%
%ADD20C,0.0360*%
%ADD19R,0.1000X0.1000*%
%ADD18R,0.1500X0.1500*%
%ADD17R,0.0200X0.0200*%
%ADD16R,0.0500X0.0500*%
%ADD15C,0.0700*%
%ADD14C,0.0200*%
%ADD13C,0.0250*%
%ADD12C,0.0100*%
%ADD11C,0.0001*%
G54D11*G36*
X130000Y457500D02*X137500D01*
Y450000D01*
X130000D01*
Y457500D01*
G37*
G54D12*X150000Y430000D02*Y365000D01*
X140000Y430000D02*Y370000D01*
X124000Y430000D02*Y398500D01*
X130000Y392500D01*
X114000Y430000D02*Y401000D01*
X104000Y430000D02*Y403500D01*
X94000Y430000D02*Y406000D01*
X84000Y430000D02*Y408500D01*
X74000Y430000D02*Y411000D01*
X114000Y401000D02*X125000Y390000D01*
X104000Y403500D02*X120000Y387500D01*
X94000Y406000D02*X115000Y385000D01*
X84000Y408500D02*X110000Y382500D01*
X74000Y411000D02*X105000Y380000D01*
X170000Y430000D02*Y415000D01*
X182500Y402500D01*
X195000D01*
X150000Y365000D02*X140000Y355000D01*
Y370000D02*X135000Y365000D01*
Y350000D01*
X140000Y345000D01*
X130000Y392500D02*Y355000D01*
X125000Y390000D02*Y350000D01*
X130000Y345000D01*
X120000Y387500D02*Y355000D01*
X115000Y385000D02*Y350000D01*
X120000Y345000D01*
X110000Y382500D02*Y355000D01*
X105000Y380000D02*Y350000D01*
X110000Y345000D01*
G54D13*X92500Y347500D02*X100000Y355000D01*
X92500Y270000D02*Y347500D01*
X100000Y272500D02*Y345000D01*
X110000Y252500D02*X92500Y270000D01*
X120000Y252500D02*X100000Y272500D01*
X110000Y252500D02*Y240000D01*
G54D12*X145000Y225000D02*X80000D01*
G54D13*X120000Y252500D02*Y235000D01*
X115000Y230000D01*
G54D12*X155000Y220000D02*X95000D01*
X160000Y240000D02*X145000Y225000D01*
X170000Y240000D02*Y235000D01*
X155000Y220000D01*
X180000Y240000D02*Y235000D01*
X190000Y240000D02*Y235000D01*
X200000Y240000D02*Y232500D01*
X180000Y235000D02*X160000Y215000D01*
X190000Y235000D02*X162500Y207500D01*
X187500Y212500D02*X192500Y217500D01*
X160000Y215000D02*X112500D01*
X120000Y207500D02*X162500D01*
X177500Y205000D02*X187500D01*
Y212500D01*
X192500Y217500D02*X200000D01*
X142500Y192500D02*X177500D01*
X140000Y182500D02*X195000D01*
X185000Y185000D02*X167500D01*
X165000Y187500D01*
X195000Y182500D02*X197500Y185000D01*
Y193000D01*
X187500D02*Y187500D01*
X185000Y185000D01*
X137500Y60000D02*X150000D01*
Y62500D02*X165000D01*
X172500Y55000D01*
X182500D01*
X150000Y47500D02*X170000D01*
X215000Y56500D02*Y45000D01*
X192500Y55000D02*Y42500D01*
X204500D02*X212500D01*
X215000Y45000D01*
X175000Y82500D02*X182500D01*
X192500D02*X210000D01*
X150000Y87500D02*X185000D01*
X187500Y85000D02*Y80000D01*
Y55000D02*X192500D01*
G54D14*X197500Y65000D02*Y57000D01*
G54D12*X215000Y68500D02*Y80000D01*
X160000Y72500D02*X165000D01*
X175000Y82500D01*
G54D14*X150000Y72500D02*X155000Y67500D01*
X195000D01*
X197500Y65000D01*
G54D12*X185000Y87500D02*X187500Y85000D01*
X210000Y82500D02*X225000Y97500D01*
G54D14*X137500Y102500D02*X320000D01*
G54D12*X232500Y72500D02*X247500D01*
Y52500D02*Y57500D01*
X250000Y60000D01*
X247500Y67500D02*X250000Y65000D01*
X230000Y63500D02*Y70000D01*
X232500Y72500D01*
X247500Y90000D02*Y67500D01*
X270000Y75000D02*Y90000D01*
X225000Y97500D02*X285000D01*
X261000Y90000D02*X280000D01*
G54D14*X297500Y95000D02*X305000Y87500D01*
X310000D01*
Y92500D02*Y82500D01*
X320000Y102500D02*X325000Y97500D01*
Y70000D02*Y97500D01*
G54D13*X117500Y95000D02*Y60000D01*
X137500Y77500D02*X142500Y72500D01*
X150000D01*
G54D12*X127500Y102500D02*Y70000D01*
X137500Y60000D01*
X262500Y52500D02*X280000D01*
X250000Y60000D02*X282500D01*
X280000Y52500D02*X287500Y60000D01*
X295000D01*
X290000Y55000D02*X295000D01*
X282500Y47500D02*X290000Y55000D01*
X282500Y47500D02*X272500D01*
X215000Y45000D02*X270000D01*
X225000Y54000D02*Y45000D01*
X230000Y51500D02*Y45000D01*
X282500Y60000D02*X287500Y65000D01*
X280000D02*X285000Y70000D01*
X295000D01*
X285000Y97500D02*X310000Y72500D01*
Y62500D01*
X312500Y60000D01*
X287500Y65000D02*X295000D01*
X250000D02*X280000D01*
G54D14*X322500D02*X340000D01*
G54D12*X312500Y60000D02*X322500D01*
G54D14*Y55000D02*X330000D01*
X335000Y50000D02*X350000D01*
G54D12*X291000Y42500D02*X302500D01*
X277500D02*Y47500D01*
X340000Y65000D02*X347500D01*
X350000Y145000D02*Y177500D01*
X317674Y209826D01*
X272500Y47500D02*X270000Y45000D01*
G54D14*X330000Y55000D02*X335000Y50000D01*
G54D12*X340000Y140000D02*X345000D01*
X350000Y145000D01*
X357500Y180000D02*Y75000D01*
X347500Y65000D01*
G54D13*X340000Y260000D02*X345000D01*
X355000Y250000D01*
Y207500D01*
G54D12*X220000Y222500D02*X210000Y232500D01*
Y240000D01*
X200000Y232500D02*X215000Y217500D01*
X207500Y193000D02*Y182500D01*
X197500Y205000D02*X207500D01*
Y217500D01*
X215000D02*X320000D01*
X220000Y222500D02*X317500D01*
G54D13*X82500Y58000D02*X82000Y57500D01*
X42500D01*
X98500Y70000D02*X82500D01*
X98500Y93500D02*X112500Y107500D01*
X98500Y60000D02*Y94000D01*
X137500Y77500D02*Y105000D01*
X135000Y107500D01*
G54D14*X145000Y177500D02*X137500Y170000D01*
Y147500D01*
G54D13*X135000Y145000D01*
Y107500D01*
X112500D02*X135000D01*
G54D12*X100000Y140000D02*X127500Y112500D01*
X110000Y145000D02*X117500Y137500D01*
X130000D01*
X105000Y142500D02*X115000Y132500D01*
X135000D01*
X115000Y172500D02*Y160000D01*
Y150000D02*X120000Y155000D01*
X110000D02*Y145000D01*
X95000Y160000D02*X100000Y155000D01*
Y140000D01*
X120000Y155000D02*Y170000D01*
X142500Y192500D01*
X130000Y172500D02*X140000Y182500D01*
X125000Y150000D02*X130000Y155000D01*
Y172500D01*
G54D13*X42500Y250000D02*Y100000D01*
G54D12*X60000Y155000D02*Y195500D01*
G54D13*X62500Y270000D02*X42500Y250000D01*
G54D12*X55000Y150000D02*X60000Y155000D01*
X65000Y150000D02*X70000Y155000D01*
Y180000D01*
X75000D02*Y160000D01*
Y150000D02*X80000Y155000D01*
Y177500D01*
X65000Y185000D02*Y160000D01*
X70000Y190000D02*X65000Y185000D01*
X80000Y225000D02*X70000Y215000D01*
G54D13*X72500Y230000D02*X65000Y222500D01*
G54D12*X70000Y215000D02*Y207500D01*
G54D13*X92500Y270000D02*X62500D01*
G54D12*X70000Y180000D02*X80000Y190000D01*
Y177500D02*X85000Y182500D01*
X87500Y177500D02*X85000Y175000D01*
X82500Y187500D02*X75000Y180000D01*
X87500Y187500D02*X82500D01*
X80000Y207500D02*X90000D01*
X60000D02*X70000D01*
X80000Y190000D02*Y195500D01*
X70000D02*Y190000D01*
X95000Y220000D02*X90000Y215000D01*
Y207500D01*
X87500Y177500D02*X97500D01*
X85000Y182500D02*X92500D01*
X100000Y190000D01*
X90000D02*X87500Y187500D01*
X92500Y172500D02*X102500D01*
X100000Y207500D02*X110000D01*
X90000Y195500D02*Y190000D01*
X85000Y175000D02*Y160000D01*
Y150000D02*X90000Y155000D01*
Y170000D01*
X92500Y172500D01*
X112500Y215000D02*X110000Y212500D01*
G54D13*X115000Y230000D02*X72500D01*
G54D12*X110000Y212500D02*Y207500D01*
X105000Y160000D02*X110000Y155000D01*
X105000Y150000D02*Y142500D01*
X100000Y190000D02*Y195500D01*
X110000Y190000D02*Y195500D01*
X97500Y177500D02*X110000Y190000D01*
X102500Y172500D02*X120000Y190000D01*
Y195500D01*
X130000D02*Y187500D01*
X115000Y172500D01*
X340000Y290000D02*X335000Y285000D01*
X340000Y300000D02*X335000Y295000D01*
Y285000D02*X285000D01*
X330000Y290000D02*X280000D01*
X275000Y285000D01*
X335000Y295000D02*X285000D01*
X330000Y300000D02*X280000D01*
X275000Y295000D01*
X335000Y305000D02*X285000D01*
X280000Y310000D02*X275000Y305000D01*
X340000Y310000D02*X335000Y305000D01*
X340000Y320000D02*X335000Y315000D01*
X340000Y370000D02*X335000Y365000D01*
X340000Y380000D02*X335000Y375000D01*
G54D13*X340000Y430000D02*X325000D01*
X317500Y422500D01*
Y390000D01*
G54D12*X330000Y310000D02*X280000D01*
X335000Y315000D02*X285000D01*
X330000Y320000D02*X280000D01*
X275000Y315000D01*
X297500Y325000D02*X285000D01*
X335000Y345000D02*X317500D01*
X340000Y350000D02*X335000Y345000D01*
X330000Y350000D02*X317500D01*
X297500Y330000D02*X280000D01*
X297500Y335000D02*X285000D01*
X297500Y340000D02*X280000D01*
X317500Y345000D02*X297500Y325000D01*
X317500Y350000D02*X297500Y330000D01*
X317500Y355000D02*X297500Y335000D01*
X317500Y360000D02*X297500Y340000D01*
X317500Y365000D02*X297500Y345000D01*
X317500Y370000D02*X297500Y350000D01*
X280000Y340000D02*X275000Y335000D01*
X297500Y345000D02*X285000D01*
X297500Y350000D02*X280000D01*
X275000Y345000D01*
X280000Y330000D02*X275000Y325000D01*
G54D13*X220500Y330000D02*X232500D01*
G54D12*X210500Y330500D02*X215000Y335000D01*
X227500D01*
X235000Y342500D01*
G54D13*X232500Y330000D02*X267500Y365000D01*
X275000D01*
G54D12*X235000Y342500D02*Y372500D01*
X260000Y370000D02*X257500Y367500D01*
X247500D01*
X235000Y372500D02*X240000Y377500D01*
X260000D01*
X277500Y402500D02*X207000D01*
X260000Y377500D02*X262500Y375000D01*
X275000D01*
X280000Y370000D02*X260000D01*
X340000Y360000D02*X335000Y355000D01*
X317500D01*
X330000Y360000D02*X317500D01*
X335000Y365000D02*X317500D01*
X330000Y370000D02*X317500D01*
X335000Y375000D02*X317500D01*
X297500Y355000D01*
X317500Y380000D02*X297500Y360000D01*
G54D13*X317500Y390000D02*X292500Y365000D01*
G54D12*X297500Y355000D02*X285000D01*
X297500Y360000D02*X280000D01*
X275000Y355000D01*
G54D13*X292500Y365000D02*X285000D01*
G54D12*X280000Y370000D01*
X330000Y380000D02*X317500D01*
X277500Y402500D02*X285000Y395000D01*
Y375000D01*
X140000Y137500D02*X150000D01*
Y122500D02*X170000D01*
X150000Y137500D02*X165000D01*
X172500Y130000D01*
X215000Y131500D02*Y120000D01*
X192500Y130000D02*Y117500D01*
X204500D02*X212500D01*
X215000Y120000D01*
X160000Y147500D02*X165000D01*
X175000Y157500D01*
X150000Y162500D02*X185000D01*
X172500Y130000D02*X182500D01*
X187500D02*X192500D01*
G54D14*X197500Y140000D02*Y132000D01*
X150000Y147500D02*X155000Y142500D01*
X195000D01*
X197500Y140000D01*
G54D12*X232500Y147500D02*X247500D01*
X230000Y145000D02*X232500Y147500D01*
X175000Y157500D02*X182500D01*
X185000Y162500D02*X187500Y160000D01*
Y155000D01*
X192500Y157500D02*X210000D01*
X215000Y143500D02*Y155000D01*
X230000Y138500D02*Y145000D01*
X210000Y157500D02*X225000Y172500D01*
X285000D01*
G54D14*X145000Y177500D02*X320000D01*
G54D12*X261000Y165000D02*X280000D01*
G54D14*X297500Y170000D02*X305000Y162500D01*
X310000D01*
G54D12*X247500Y165000D02*Y142500D01*
X270000Y150000D02*Y165000D01*
X247500Y142500D02*X250000Y140000D01*
G54D13*X137500Y147500D02*X150000D01*
G54D14*X310000Y167500D02*Y157500D01*
X320000Y177500D02*X325000Y172500D01*
Y145000D02*Y172500D01*
G54D12*X262500Y127500D02*X280000D01*
X287500Y135000D01*
X247500Y127500D02*Y132500D01*
X250000Y135000D01*
X282500D01*
X287500Y140000D02*X295000D01*
X250000D02*X280000D01*
X290000Y130000D02*X295000D01*
X291000Y117500D02*X302500D01*
X277500D02*Y122500D01*
X282500D02*X290000Y130000D01*
X282500Y122500D02*X272500D01*
X270000Y120000D01*
X215000D02*X270000D01*
X225000Y129000D02*Y120000D01*
X230000Y126500D02*Y120000D01*
X282500Y135000D02*X287500Y140000D01*
X280000D02*X285000Y145000D01*
X295000D01*
X285000Y172500D02*X310000Y147500D01*
Y137500D01*
X312500Y135000D01*
X287500D02*X295000D01*
X312500D02*X322500D01*
G54D14*Y130000D02*X330000D01*
X335000Y125000D01*
X350000D01*
X322500Y140000D02*X340000D01*
G54D12*X320000Y217500D02*X357500Y180000D01*
X143500Y460500D02*Y453500D01*
X144500Y452500D01*
X142500Y457500D02*X144500D01*
X146500Y455500D02*Y453500D01*
Y455500D02*X147500Y456500D01*
X149500D01*
X150500Y455500D01*
Y453500D01*
X149500Y452500D02*X150500Y453500D01*
X147500Y452500D02*X149500D01*
X146500Y453500D02*X147500Y452500D01*
X153900Y455500D02*Y449500D01*
X152900Y456500D02*X153900Y455500D01*
X154900Y456500D01*
X156900D01*
X157900Y455500D01*
Y453500D01*
X156900Y452500D02*X157900Y453500D01*
X154900Y452500D02*X156900D01*
X153900Y453500D02*X154900Y452500D01*
X163900Y453500D02*X164900Y452500D01*
X163900Y459500D02*X164900Y460500D01*
X163900Y459500D02*Y453500D01*
X168300Y456500D02*X171300D01*
X167300Y455500D02*X168300Y456500D01*
X167300Y455500D02*Y453500D01*
X168300Y452500D01*
X171300D01*
X173700Y455500D02*Y453500D01*
Y455500D02*X174700Y456500D01*
X176700D01*
X177700Y455500D01*
Y453500D01*
X176700Y452500D02*X177700Y453500D01*
X174700Y452500D02*X176700D01*
X173700Y453500D02*X174700Y452500D01*
X181100Y455500D02*Y452500D01*
Y455500D02*X182100Y456500D01*
X183100D01*
X184100Y455500D01*
Y452500D01*
Y455500D02*X185100Y456500D01*
X186100D01*
X187100Y455500D01*
Y452500D01*
X180100Y456500D02*X181100Y455500D01*
X190500D02*Y449500D01*
X189500Y456500D02*X190500Y455500D01*
X191500Y456500D01*
X193500D01*
X194500Y455500D01*
Y453500D01*
X193500Y452500D02*X194500Y453500D01*
X191500Y452500D02*X193500D01*
X190500Y453500D02*X191500Y452500D01*
X196900Y455500D02*Y453500D01*
Y455500D02*X197900Y456500D01*
X199900D01*
X200900Y455500D01*
Y453500D01*
X199900Y452500D02*X200900Y453500D01*
X197900Y452500D02*X199900D01*
X196900Y453500D02*X197900Y452500D01*
X204300Y455500D02*Y452500D01*
Y455500D02*X205300Y456500D01*
X206300D01*
X207300Y455500D01*
Y452500D01*
X203300Y456500D02*X204300Y455500D01*
X210700Y452500D02*X213700D01*
X209700Y453500D02*X210700Y452500D01*
X209700Y455500D02*Y453500D01*
Y455500D02*X210700Y456500D01*
X212700D01*
X213700Y455500D01*
X209700Y454500D02*X213700D01*
Y455500D02*Y454500D01*
X217100Y455500D02*Y452500D01*
Y455500D02*X218100Y456500D01*
X219100D01*
X220100Y455500D01*
Y452500D01*
X216100Y456500D02*X217100Y455500D01*
X223500Y460500D02*Y453500D01*
X224500Y452500D01*
X222500Y457500D02*X224500D01*
X226500Y460500D02*X227500Y459500D01*
Y453500D01*
X226500Y452500D02*X227500Y453500D01*
X234500Y452500D02*X237500D01*
X238500Y453500D01*
X237500Y454500D02*X238500Y453500D01*
X234500Y454500D02*X237500D01*
X233500Y455500D02*X234500Y454500D01*
X233500Y455500D02*X234500Y456500D01*
X237500D01*
X238500Y455500D01*
X233500Y453500D02*X234500Y452500D01*
X240900Y458500D02*Y458300D01*
Y455500D02*Y452500D01*
X246900Y460500D02*Y452500D01*
X245900D02*X246900Y453500D01*
X243900Y452500D02*X245900D01*
X242900Y453500D02*X243900Y452500D01*
X242900Y455500D02*Y453500D01*
Y455500D02*X243900Y456500D01*
X245900D01*
X246900Y455500D01*
X250300Y452500D02*X253300D01*
X249300Y453500D02*X250300Y452500D01*
X249300Y455500D02*Y453500D01*
Y455500D02*X250300Y456500D01*
X252300D01*
X253300Y455500D01*
X249300Y454500D02*X253300D01*
Y455500D02*Y454500D01*
G54D15*X260000Y430000D03*
X270000D03*
X250000D03*
X240000D03*
G54D11*G36*
X296500Y433500D02*Y426500D01*
X303500D01*
Y433500D01*
X296500D01*
G37*
G54D15*X280000Y430000D03*
X290000D03*
X230000D03*
G54D11*G36*
X206500Y433500D02*Y426500D01*
X213500D01*
Y433500D01*
X206500D01*
G37*
G54D15*X200000Y430000D03*
X180000D03*
X190000D03*
G54D11*G36*
X326500Y433500D02*Y426500D01*
X333500D01*
Y433500D01*
X326500D01*
G37*
G54D15*X340000Y420000D03*
X330000D03*
X340000Y430000D03*
Y410000D03*
X330000D03*
X340000Y400000D03*
X170000Y430000D03*
X160000D03*
X150000D03*
X140000D03*
X84000D03*
X94000D03*
X104000D03*
X114000D03*
X124000D03*
G54D11*G36*
X156500Y243500D02*Y236500D01*
X163500D01*
Y243500D01*
X156500D01*
G37*
G54D15*X170000Y240000D03*
X190000D03*
X180000D03*
X120000D03*
X130000D03*
X140000D03*
G54D11*G36*
X30500Y433500D02*Y426500D01*
X37500D01*
Y433500D01*
X30500D01*
G37*
G54D15*X74000Y430000D03*
X64000D03*
X54000D03*
X44000D03*
X140000Y345000D03*
G54D11*G36*
X136500Y358500D02*Y351500D01*
X143500D01*
Y358500D01*
X136500D01*
G37*
G54D15*X130000Y345000D03*
Y355000D03*
X120000Y345000D03*
Y355000D03*
X110000Y345000D03*
Y355000D03*
X100000Y345000D03*
Y355000D03*
G54D11*G36*
X66500Y243500D02*Y236500D01*
X73500D01*
Y243500D01*
X66500D01*
G37*
G54D15*X110000Y240000D03*
X100000D03*
X90000D03*
X80000D03*
X55000Y160000D03*
G54D11*G36*
X51500Y153500D02*Y146500D01*
X58500D01*
Y153500D01*
X51500D01*
G37*
G54D15*X65000Y160000D03*
Y150000D03*
X75000Y160000D03*
X85000D03*
X95000D03*
X105000D03*
X115000D03*
X125000D03*
X75000Y150000D03*
X85000D03*
X95000D03*
X105000D03*
X115000D03*
X125000D03*
G54D11*G36*
X246500Y243500D02*Y236500D01*
X253500D01*
Y243500D01*
X246500D01*
G37*
G54D15*X270000Y240000D03*
X260000D03*
X290000D03*
X280000D03*
X300000D03*
X310000D03*
X320000D03*
X200000D03*
X210000D03*
X220000D03*
X230000D03*
X330000Y400000D03*
Y390000D03*
Y380000D03*
X340000Y390000D03*
Y380000D03*
Y370000D03*
Y360000D03*
Y350000D03*
Y340000D03*
X330000Y370000D03*
Y360000D03*
Y350000D03*
Y340000D03*
X340000Y330000D03*
X330000D03*
Y320000D03*
Y310000D03*
X340000Y320000D03*
Y310000D03*
Y300000D03*
Y290000D03*
Y280000D03*
Y270000D03*
X330000Y300000D03*
Y290000D03*
Y280000D03*
Y270000D03*
X340000Y260000D03*
X330000D03*
X275000Y285000D03*
G54D11*G36*
X281500Y288500D02*Y281500D01*
X288500D01*
Y288500D01*
X281500D01*
G37*
G54D15*X275000Y295000D03*
X285000D03*
X275000Y305000D03*
X285000D03*
X275000Y315000D03*
X285000D03*
X220500Y350000D03*
Y340000D03*
Y330000D03*
G54D11*G36*
X207000Y353500D02*Y346500D01*
X214000D01*
Y353500D01*
X207000D01*
G37*
G54D15*X210500Y340000D03*
Y330000D03*
X275000Y325000D03*
X285000D03*
X275000Y335000D03*
X285000D03*
Y345000D03*
Y355000D03*
Y365000D03*
Y375000D03*
X275000Y345000D03*
Y355000D03*
Y365000D03*
Y375000D03*
G54D16*X150000Y75500D02*Y72500D01*
Y87500D02*Y84500D01*
X160000Y75500D02*Y72500D01*
Y87500D02*Y84500D01*
X150000Y62500D02*Y59500D01*
G54D17*X197500Y61000D02*Y53000D01*
X192500Y61000D02*Y53000D01*
X187500Y61000D02*Y53000D01*
X192500Y83000D02*Y75000D01*
X187500Y83000D02*Y75000D01*
G54D16*X191000Y42500D02*X194000D01*
G54D17*X197500Y83000D02*Y75000D01*
G54D16*X215000Y58000D02*Y55000D01*
Y70000D02*Y67000D01*
X203000Y42500D02*X206000D01*
X150000Y50500D02*Y47500D01*
G54D18*X37500Y55000D02*X47500D01*
G54D16*X82500Y59500D02*Y56500D01*
G54D19*X98500Y61000D02*Y59000D01*
X116500Y61000D02*Y59000D01*
G54D18*X37500Y100000D02*X47500D01*
G54D16*X82500Y71500D02*Y68500D01*
G54D19*X98500Y81000D02*Y79000D01*
X116500Y81000D02*Y79000D01*
G54D17*X182500Y83000D02*Y75000D01*
Y61000D02*Y53000D01*
Y158000D02*Y150000D01*
Y136000D02*Y128000D01*
G54D16*X150000Y150500D02*Y147500D01*
Y162500D02*Y159500D01*
X160000Y150500D02*Y147500D01*
Y162500D02*Y159500D01*
X150000Y125500D02*Y122500D01*
Y137500D02*Y134500D01*
G54D17*X197500Y136000D02*Y128000D01*
G54D16*X215000Y133000D02*Y130000D01*
Y145000D02*Y142000D01*
X203000Y117500D02*X206000D01*
G54D17*X192500Y136000D02*Y128000D01*
G54D16*X191000Y117500D02*X194000D01*
G54D17*X187500Y136000D02*Y128000D01*
X197500Y158000D02*Y150000D01*
X192500Y158000D02*Y150000D01*
X187500Y158000D02*Y150000D01*
G54D16*X80000Y209000D02*Y206000D01*
X60000Y209000D02*Y206000D01*
X90000Y209000D02*Y206000D01*
X80000Y197000D02*Y194000D01*
X60000Y197000D02*Y194000D01*
X90000Y197000D02*Y194000D01*
X110000Y197000D02*Y194000D01*
X100000Y197000D02*Y194000D01*
X120000Y197000D02*Y194000D01*
X70000Y209000D02*Y206000D01*
Y197000D02*Y194000D01*
X110000Y209000D02*Y206000D01*
X100000Y209000D02*Y206000D01*
X120000Y209000D02*Y206000D01*
X130000Y209000D02*Y206000D01*
Y197000D02*Y194000D01*
X177500Y206500D02*Y203500D01*
Y194500D02*Y191500D01*
X187500Y206500D02*Y203500D01*
Y194500D02*Y191500D01*
X197500Y206500D02*Y203500D01*
Y194500D02*Y191500D01*
X207500Y206500D02*Y203500D01*
Y194500D02*Y191500D01*
X193500Y402500D02*X196500D01*
X205500D02*X208500D01*
X247500Y380000D02*Y377000D01*
Y368000D02*Y365000D01*
G54D17*X292500Y55000D02*X302500D01*
X292500Y60000D02*X302500D01*
X292500Y65000D02*X302500D01*
X292500Y70000D02*X302500D01*
X317500Y55000D02*X327500D01*
X317500Y60000D02*X327500D01*
X317500Y65000D02*X327500D01*
G54D16*X340000Y53000D02*Y50000D01*
Y65000D02*Y62000D01*
G54D17*X317500Y70000D02*X327500D01*
G54D16*X310000Y82500D02*X313000D01*
X322000D02*X325000D01*
X310000Y92500D02*X313000D01*
X322000D02*X325000D01*
X247500Y52500D02*X250500D01*
X259500D02*X262500D01*
X277500Y42500D02*X280500D01*
X289500D02*X292500D01*
X230000Y53000D02*Y50000D01*
G54D19*X266500Y76000D02*Y74000D01*
G54D16*X259500Y90000D02*X262500D01*
G54D19*X248500Y76000D02*Y74000D01*
G54D16*X247500Y90000D02*X250500D01*
X230000Y65000D02*Y62000D01*
G54D17*X292500Y130000D02*X302500D01*
X292500Y135000D02*X302500D01*
X292500Y140000D02*X302500D01*
G54D16*X277500Y117500D02*X280500D01*
X289500D02*X292500D01*
G54D19*X266500Y151000D02*Y149000D01*
X248500Y151000D02*Y149000D01*
G54D16*X247500Y165000D02*X250500D01*
X259500D02*X262500D01*
X230000Y140000D02*Y137000D01*
G54D17*X317500Y130000D02*X327500D01*
G54D16*X247500Y127500D02*X250500D01*
X259500D02*X262500D01*
X340000Y128000D02*Y125000D01*
X230000Y128000D02*Y125000D01*
G54D17*X317500Y135000D02*X327500D01*
X317500Y140000D02*X327500D01*
X317500Y145000D02*X327500D01*
G54D16*X322000Y157500D02*X325000D01*
X340000Y140000D02*Y137000D01*
G54D17*X292500Y145000D02*X302500D01*
G54D16*X310000Y157500D02*X313000D01*
X310000Y167500D02*X313000D01*
X322000D02*X325000D01*
G54D20*X170000Y47500D03*
G54D21*X25000Y25000D03*
G54D22*X117500Y95000D03*
G54D20*X127500Y102500D03*
Y112500D03*
X140000Y137500D03*
X130000D03*
G54D22*X65000Y222500D03*
G54D21*X350000Y475000D03*
X25000D03*
X15000Y240000D03*
X20000Y430000D03*
X220000Y370000D03*
X350000Y25000D03*
G54D22*Y50000D03*
G54D20*X170000Y77500D03*
Y152500D03*
Y122500D03*
X215000Y155000D03*
X165000Y187500D03*
X207500Y182500D03*
X280000Y90000D03*
X215000Y80000D03*
G54D22*X297500Y95000D03*
G54D20*X302500Y42500D03*
X280000Y165000D03*
G54D22*X297500Y170000D03*
G54D20*X302500Y117500D03*
G54D21*X340000Y240000D03*
G54D22*X350000Y125000D03*
X355000Y207500D03*
G54D20*X317500Y222500D03*
X317674Y209826D03*
X207500Y217500D03*
X200000D03*
G54D14*G54D23*G54D24*G54D14*G54D24*G54D23*G54D24*G54D14*G54D24*G54D14*G54D24*G54D14*G54D23*G54D24*G54D14*G54D25*M02*
