G04 start of page 8 for group -4079 idx -4079 *
G04 Title: (unknown), topsilk *
G04 Creator: pcb 20140316 *
G04 CreationDate: Wed 08 Jan 2020 09:12:33 PM GMT UTC *
G04 For: thomasc *
G04 Format: Gerber/RS-274X *
G04 PCB-Dimensions (mil): 2000.00 1000.00 *
G04 PCB-Coordinate-Origin: lower left *
%MOIN*%
%FSLAX25Y25*%
%LNTOPSILK*%
%ADD31C,0.0100*%
%ADD30C,0.0150*%
%ADD29C,0.0120*%
G54D29*X52500Y49100D02*X57000D01*
X52500Y42500D02*X58500D01*
X52500Y54500D02*Y42500D01*
Y54500D02*X58500D01*
X62100Y48500D02*X65100Y42500D01*
X68100Y48500D02*X65100Y42500D01*
X73200D02*X77700D01*
X71700Y44000D02*X73200Y42500D01*
X71700Y47000D02*Y44000D01*
Y47000D02*X73200Y48500D01*
X76200D01*
X77700Y47000D01*
X71700Y45500D02*X77700D01*
Y47000D02*Y45500D01*
X82800Y47000D02*Y42500D01*
Y47000D02*X84300Y48500D01*
X85800D01*
X87300Y47000D01*
Y42500D01*
X81300Y48500D02*X82800Y47000D01*
X92400Y54500D02*Y44000D01*
X93900Y42500D01*
X90900Y50000D02*X93900D01*
X104400Y42500D02*X108300D01*
X102300Y44600D02*X104400Y42500D01*
X102300Y52400D02*Y44600D01*
Y52400D02*X104400Y54500D01*
X108300D01*
X111900Y47000D02*Y44000D01*
Y47000D02*X113400Y48500D01*
X116400D01*
X117900Y47000D01*
Y44000D01*
X116400Y42500D02*X117900Y44000D01*
X113400Y42500D02*X116400D01*
X111900Y44000D02*X113400Y42500D01*
X127500Y54500D02*Y42500D01*
X126000D02*X127500Y44000D01*
X123000Y42500D02*X126000D01*
X121500Y44000D02*X123000Y42500D01*
X121500Y47000D02*Y44000D01*
Y47000D02*X123000Y48500D01*
X126000D01*
X127500Y47000D01*
X132600Y42500D02*X137100D01*
X131100Y44000D02*X132600Y42500D01*
X131100Y47000D02*Y44000D01*
Y47000D02*X132600Y48500D01*
X135600D01*
X137100Y47000D01*
X131100Y45500D02*X137100D01*
Y47000D02*Y45500D01*
X142200Y42500D02*X146700D01*
X148200Y44000D01*
X146700Y45500D02*X148200Y44000D01*
X142200Y45500D02*X146700D01*
X140700Y47000D02*X142200Y45500D01*
X140700Y47000D02*X142200Y48500D01*
X146700D01*
X148200Y47000D01*
X140700Y44000D02*X142200Y42500D01*
G54D30*X15000Y27500D02*Y7500D01*
X185000Y27500D02*Y7500D01*
G54D31*X183000Y31500D02*Y27500D01*
G54D30*X15000D02*X185000D01*
G54D31*X179000Y31500D02*X183000D01*
G54D30*X15000Y7500D02*X185000D01*
G54D31*X179000Y31500D02*Y27500D01*
X90000Y31500D02*Y27500D01*
X110000Y31500D02*Y27500D01*
X90000Y31500D02*X109500D01*
G54D30*X65000Y92500D02*Y72500D01*
X15000Y92500D02*Y72500D01*
G54D31*X17000D02*Y68500D01*
G54D30*X15000Y72500D02*X65000D01*
G54D31*X17000Y68500D02*X21000D01*
G54D30*X15000Y92500D02*X65000D01*
G54D31*X21000Y72500D02*Y68500D01*
X50000Y72500D02*Y68500D01*
X30000Y72500D02*Y68500D01*
X30500D02*X50000D01*
G54D30*X185000Y92500D02*Y72500D01*
X135000Y92500D02*Y72500D01*
G54D31*X137000D02*Y68500D01*
G54D30*X135000Y72500D02*X185000D01*
G54D31*X137000Y68500D02*X141000D01*
G54D30*X135000Y92500D02*X185000D01*
G54D31*X141000Y72500D02*Y68500D01*
X170000Y72500D02*Y68500D01*
X150000Y72500D02*Y68500D01*
X150500D02*X170000D01*
M02*
