G04 start of page 2 for group 0 idx 0 *
G04 Title: (unknown), top *
G04 Creator: pcb 20140316 *
G04 CreationDate: Wed 08 Jan 2020 09:12:33 PM GMT UTC *
G04 For: thomasc *
G04 Format: Gerber/RS-274X *
G04 PCB-Dimensions (mil): 2000.00 1000.00 *
G04 PCB-Coordinate-Origin: lower left *
%MOIN*%
%FSLAX25Y25*%
%LNTOP*%
%ADD16C,0.0420*%
%ADD15C,0.1520*%
%ADD14C,0.1560*%
%ADD13C,0.0001*%
%ADD12C,0.0700*%
%ADD11C,0.0100*%
G54D11*X140000Y87500D02*X135000D01*
X72500Y80000D02*X65000Y87500D01*
X20000D02*X15000D01*
X10000Y82500D01*
X30000Y87500D02*X35000Y82500D01*
X40000Y87500D02*X45000Y82500D01*
X50000Y87500D02*X55000Y82500D01*
X65000Y87500D02*X60000D01*
X20000Y77500D02*X15000D01*
X12500Y75000D01*
X20000Y35000D02*X12500Y42500D01*
Y75000D02*Y42500D01*
X10000Y82500D02*Y40000D01*
X17500Y32500D01*
X25000D01*
X27500Y35000D02*X20000D01*
X25000Y32500D02*X30000Y27500D01*
X35000D02*X27500Y35000D01*
X30000Y27500D02*Y22500D01*
Y12500D02*X35000Y17500D01*
Y27500D01*
X40000Y22500D02*Y62500D01*
X50000Y57500D02*Y22500D01*
X60000Y52500D02*Y22500D01*
X70000Y47500D02*Y22500D01*
X80000Y42500D02*Y22500D01*
X90000Y37500D02*Y22500D01*
X100000Y32500D02*Y22500D01*
Y12500D02*X105000Y17500D01*
Y40000D01*
X40000Y62500D02*X30000Y72500D01*
X35000D02*X50000Y57500D01*
X40000Y72500D02*X60000Y52500D01*
X45000Y72500D02*X70000Y47500D01*
X30000Y72500D02*Y77500D01*
X35000Y82500D02*Y72500D01*
X40000Y77500D02*Y72500D01*
X45000Y82500D02*Y72500D01*
X50000Y77500D02*Y72500D01*
X80000Y42500D01*
X55000Y82500D02*Y72500D01*
X60000Y77500D02*Y72500D01*
X72500D02*Y80000D01*
X55000Y72500D02*X90000Y37500D01*
X60000Y72500D02*X100000Y32500D01*
X105000Y40000D02*X72500Y72500D01*
X170000Y87500D02*X175000Y82500D01*
X160000Y87500D02*X165000Y82500D01*
X150000Y87500D02*X155000Y82500D01*
X175000D02*Y72500D01*
X170000Y77500D02*Y72500D01*
X165000Y82500D02*Y72500D01*
X160000Y77500D02*Y72500D01*
X155000Y82500D02*Y72500D01*
X150000Y77500D02*Y72500D01*
X175000D02*X162500Y60000D01*
X170000Y72500D02*X160000Y62500D01*
X165000Y72500D02*X150000Y57500D01*
X162500Y35000D02*X170000Y27500D01*
X162500Y60000D02*Y35000D01*
X170000Y27500D02*Y22500D01*
X135000Y87500D02*X127500Y80000D01*
Y72500D01*
X190000Y17500D02*Y82500D01*
X185000Y87500D01*
X180000D01*
X187500Y30000D02*Y70000D01*
X180000Y77500D01*
Y12500D02*X185000D01*
X190000Y17500D01*
X180000Y22500D02*X187500Y30000D01*
X160000Y62500D02*Y22500D01*
X150000Y57500D02*Y22500D01*
X140000Y52500D02*Y22500D01*
X130000Y47500D02*Y22500D01*
X120000Y42500D02*Y22500D01*
X110000Y12500D02*X115000Y17500D01*
Y52500D01*
X160000Y72500D02*X140000Y52500D01*
X155000Y72500D02*X130000Y47500D01*
X150000Y72500D02*X120000Y42500D01*
X115000Y52500D02*X140000Y77500D01*
X127500Y72500D02*X110000Y55000D01*
Y22500D01*
G54D12*X30000Y12500D03*
Y22500D03*
X20000Y12500D03*
Y22500D03*
X180000Y12500D03*
G54D13*G36*
X176500Y26000D02*Y19000D01*
X183500D01*
Y26000D01*
X176500D01*
G37*
G54D12*X170000Y12500D03*
X160000D03*
X170000Y22500D03*
X160000D03*
X90000Y12500D03*
Y22500D03*
X80000Y12500D03*
X70000D03*
X60000D03*
X50000D03*
X80000Y22500D03*
X70000D03*
X60000D03*
X50000D03*
X40000Y12500D03*
Y22500D03*
X150000Y12500D03*
Y22500D03*
X140000D03*
X130000D03*
X120000D03*
X140000Y12500D03*
X130000D03*
X120000D03*
X110000D03*
Y22500D03*
X100000Y12500D03*
Y22500D03*
X140000Y87500D03*
X150000D03*
X160000D03*
G54D13*G36*
X136500Y81000D02*Y74000D01*
X143500D01*
Y81000D01*
X136500D01*
G37*
G54D12*X150000Y77500D03*
X160000D03*
X170000Y87500D03*
Y77500D03*
X180000Y87500D03*
Y77500D03*
X40000Y87500D03*
Y77500D03*
X20000Y87500D03*
G54D13*G36*
X16500Y81000D02*Y74000D01*
X23500D01*
Y81000D01*
X16500D01*
G37*
G54D12*X30000Y87500D03*
Y77500D03*
X50000Y87500D03*
Y77500D03*
X60000Y87500D03*
Y77500D03*
G54D14*X25000Y50000D03*
X175000D03*
X100000Y75000D03*
G54D15*G54D16*M02*
