M48
INCH
T24C0.152
T23C0.042
%
T23
X002000Y008750
X002000Y007750
X002000Y002250
X002000Y001250
X003000Y008750
X003000Y007750
X003000Y002250
X003000Y001250
X004000Y008750
X004000Y007750
X004000Y002250
X004000Y001250
X005000Y008750
X005000Y007750
X005000Y002250
X005000Y001250
X006000Y008750
X006000Y007750
X006000Y002250
X006000Y001250
X007000Y002250
X007000Y001250
X008000Y002250
X008000Y001250
X009000Y002250
X009000Y001250
X010000Y002250
X010000Y001250
X011000Y002250
X011000Y001250
X012000Y002250
X012000Y001250
X013000Y002250
X013000Y001250
X014000Y008750
X014000Y007750
X014000Y002250
X014000Y001250
X015000Y008750
X015000Y007750
X015000Y002250
X015000Y001250
X016000Y008750
X016000Y007750
X016000Y002250
X016000Y001250
X017000Y008750
X017000Y007750
X017000Y002250
X017000Y001250
X018000Y008750
X018000Y007750
X018000Y002250
X018000Y001250
T24
X002500Y005000
X010000Y007500
X017500Y005000
M30
