G04 start of page 8 for group -4079 idx -4079 *
G04 Title: (unknown), topsilk *
G04 Creator: pcb 20140316 *
G04 CreationDate: Tue 28 Aug 2018 06:00:51 PM GMT UTC *
G04 For: thomasc *
G04 Format: Gerber/RS-274X *
G04 PCB-Dimensions (mil): 3800.00 1250.00 *
G04 PCB-Coordinate-Origin: lower left *
%MOIN*%
%FSLAX25Y25*%
%LNTOPSILK*%
%ADD44C,0.0100*%
%ADD43C,0.0160*%
G54D43*X165000Y105300D02*X168200Y108500D01*
Y92500D01*
X165000D02*X171000D01*
X265000Y104000D02*X267000Y106000D01*
X273000D01*
X275000Y104000D01*
Y100000D01*
X265000Y90000D02*X275000Y100000D01*
X265000Y90000D02*X275000D01*
X165000Y33500D02*X173000D01*
X165000D02*Y25500D01*
X167000Y27500D01*
X171000D01*
X173000Y25500D01*
Y19500D01*
X171000Y17500D02*X173000Y19500D01*
X167000Y17500D02*X171000D01*
X165000Y19500D02*X167000Y17500D01*
X271000Y33500D02*X273000Y31500D01*
X267000Y33500D02*X271000D01*
X265000Y31500D02*X267000Y33500D01*
X265000Y31500D02*Y19500D01*
X267000Y17500D01*
X271000Y26300D02*X273000Y24300D01*
X265000Y26300D02*X271000D01*
X267000Y17500D02*X271000D01*
X273000Y19500D01*
Y24300D02*Y19500D01*
X59500Y71000D02*Y55000D01*
X64700Y71000D02*X67500Y68200D01*
Y57800D01*
X64700Y55000D02*X67500Y57800D01*
X57500Y55000D02*X64700D01*
X57500Y71000D02*X64700D01*
X72300D02*X76300D01*
X74300D02*Y55000D01*
X72300D02*X76300D01*
X89100Y71000D02*X91100Y69000D01*
X83100Y71000D02*X89100D01*
X81100Y69000D02*X83100Y71000D01*
X81100Y69000D02*Y57000D01*
X83100Y55000D01*
X89100D01*
X91100Y57000D01*
Y61000D02*Y57000D01*
X89100Y63000D02*X91100Y61000D01*
X85100Y63000D02*X89100D01*
X95900Y71000D02*X99900D01*
X97900D02*Y55000D01*
X95900D02*X99900D01*
X104700Y71000D02*X112700D01*
X108700D02*Y55000D01*
X117500Y67000D02*Y55000D01*
Y67000D02*X120300Y71000D01*
X124700D01*
X127500Y67000D01*
Y55000D01*
X117500Y63000D02*X127500D01*
X132300Y71000D02*Y55000D01*
X140300D01*
X65000Y94500D02*X67000Y92500D01*
X65000Y106500D02*Y94500D01*
Y106500D02*X67000Y108500D01*
X71000D01*
X73000Y106500D01*
Y94500D01*
X71000Y92500D02*X73000Y94500D01*
X67000Y92500D02*X71000D01*
X65000Y96500D02*X73000Y104500D01*
X65000Y23500D02*X73000Y33500D01*
X65000Y23500D02*X75000D01*
X73000Y33500D02*Y17500D01*
X365000Y104000D02*X367000Y106000D01*
X371000D01*
X373000Y104000D01*
X371000Y90000D02*X373000Y92000D01*
X367000Y90000D02*X371000D01*
X365000Y92000D02*X367000Y90000D01*
Y98800D02*X371000D01*
X373000Y104000D02*Y100800D01*
Y96800D02*Y92000D01*
Y96800D02*X371000Y98800D01*
X373000Y100800D02*X371000Y98800D01*
X367000Y17500D02*X375000Y33500D01*
X365000D02*X375000D01*
G54D44*X17500Y77500D02*Y122500D01*
X62500D01*
Y77500D01*
X17500D01*
Y2500D02*Y47500D01*
X62500D01*
Y2500D01*
X17500D01*
X117500D02*Y47500D01*
X162500D01*
Y2500D01*
X117500D01*
X317500D02*Y47500D01*
X362500D01*
Y2500D01*
X317500D01*
X117500Y77500D02*Y122500D01*
X162500D01*
Y77500D01*
X117500D01*
X317500D02*Y122500D01*
X362500D01*
Y77500D01*
X317500D01*
X217500D02*Y122500D01*
X262500D01*
Y77500D01*
X217500D01*
Y2500D02*Y47500D01*
X262500D01*
Y2500D01*
X217500D01*
M02*
