M48
INCH
T34C0.125
T33C0.070
T32C0.052
T31C0.042
%
T31
X017000Y006750
X017000Y005750
X018000Y006750
X018000Y005750
X019000Y006750
X019000Y005750
X020000Y006750
X020000Y005750
X021000Y006750
X021000Y005750
T32
X004000Y010000
X004000Y002500
X014000Y010000
X014000Y002500
X024000Y010000
X024000Y002500
X034000Y010000
X034000Y002500
T33
X002750Y011250
X002750Y008750
X002750Y003750
X002750Y001250
X005250Y011250
X005250Y008750
X005250Y003750
X005250Y001250
X012750Y011250
X012750Y008750
X012750Y003750
X012750Y001250
X015250Y011250
X015250Y008750
X015250Y003750
X015250Y001250
X022750Y011250
X022750Y008750
X022750Y003750
X022750Y001250
X025250Y011250
X025250Y008750
X025250Y003750
X025250Y001250
X032750Y011250
X032750Y008750
X032750Y003750
X032750Y001250
X035250Y011250
X035250Y008750
X035250Y003750
X035250Y001250
T34
X009000Y010000
X009000Y002500
X029000Y010000
X029000Y002500
M30
