G04 start of page 10 for group -3984 idx -3984 *
G04 Title: (unknown), fab *
G04 Creator: pcb 20140316 *
G04 CreationDate: Tue 28 Aug 2018 06:00:51 PM GMT UTC *
G04 For: thomasc *
G04 Format: Gerber/RS-274X *
G04 PCB-Dimensions (mil): 3800.00 1250.00 *
G04 PCB-Coordinate-Origin: lower left *
%MOIN*%
%FSLAX25Y25*%
%LNFAB*%
%ADD52C,0.0100*%
%ADD51C,0.0075*%
%ADD50C,0.0060*%
%ADD49C,0.0080*%
G54D49*X89200Y25000D02*G75*G03X90800Y25000I800J0D01*G01*
G75*G03X89200Y25000I-800J0D01*G01*
Y100000D02*G75*G03X90800Y100000I800J0D01*G01*
G75*G03X89200Y100000I-800J0D01*G01*
X289200Y25000D02*G75*G03X290800Y25000I800J0D01*G01*
G75*G03X289200Y25000I-800J0D01*G01*
Y100000D02*G75*G03X290800Y100000I800J0D01*G01*
G75*G03X289200Y100000I-800J0D01*G01*
X14200Y136250D02*G75*G03X15800Y136250I800J0D01*G01*
G75*G03X14200Y136250I-800J0D01*G01*
G54D50*X135000Y138500D02*X136500Y135500D01*
X138000Y138500D01*
X136500Y135500D02*Y132500D01*
X139800Y135800D02*X142050D01*
X139800Y132500D02*X142800D01*
X139800Y138500D02*Y132500D01*
Y138500D02*X142800D01*
X147600D02*X148350Y137750D01*
X145350Y138500D02*X147600D01*
X144600Y137750D02*X145350Y138500D01*
X144600Y137750D02*Y136250D01*
X145350Y135500D01*
X147600D01*
X148350Y134750D01*
Y133250D01*
X147600Y132500D02*X148350Y133250D01*
X145350Y132500D02*X147600D01*
X144600Y133250D02*X145350Y132500D01*
X98000Y134750D02*X101000Y138500D01*
X98000Y134750D02*X101750D01*
X101000Y138500D02*Y132500D01*
X45000Y133250D02*X45750Y132500D01*
X45000Y137750D02*Y133250D01*
Y137750D02*X45750Y138500D01*
X47250D01*
X48000Y137750D01*
Y133250D01*
X47250Y132500D02*X48000Y133250D01*
X45750Y132500D02*X47250D01*
X45000Y134000D02*X48000Y137000D01*
X49800Y132500D02*X50550D01*
X52350Y137300D02*X53550Y138500D01*
Y132500D01*
X52350D02*X54600D01*
X56400Y137750D02*X57150Y138500D01*
X59400D01*
X60150Y137750D01*
Y136250D01*
X56400Y132500D02*X60150Y136250D01*
X56400Y132500D02*X60150D01*
X61950Y138500D02*X64950D01*
X61950D02*Y135500D01*
X62700Y136250D01*
X64200D01*
X64950Y135500D01*
Y133250D01*
X64200Y132500D02*X64950Y133250D01*
X62700Y132500D02*X64200D01*
X61950Y133250D02*X62700Y132500D01*
X26300Y113700D02*X28700Y111300D01*
X26300D02*X28700Y113700D01*
X51300D02*X53700Y111300D01*
X51300D02*X53700Y113700D01*
X51300Y88700D02*X53700Y86300D01*
X51300D02*X53700Y88700D01*
X26300D02*X28700Y86300D01*
X26300D02*X28700Y88700D01*
X26300Y38700D02*X28700Y36300D01*
X26300D02*X28700Y38700D01*
X51300D02*X53700Y36300D01*
X51300D02*X53700Y38700D01*
X51300Y13700D02*X53700Y11300D01*
X51300D02*X53700Y13700D01*
X26300D02*X28700Y11300D01*
X26300D02*X28700Y13700D01*
X126300Y38700D02*X128700Y36300D01*
X126300D02*X128700Y38700D01*
X151300D02*X153700Y36300D01*
X151300D02*X153700Y38700D01*
X151300Y13700D02*X153700Y11300D01*
X151300D02*X153700Y13700D01*
X126300D02*X128700Y11300D01*
X126300D02*X128700Y13700D01*
X126300Y113700D02*X128700Y111300D01*
X126300D02*X128700Y113700D01*
X151300D02*X153700Y111300D01*
X151300D02*X153700Y113700D01*
X151300Y88700D02*X153700Y86300D01*
X151300D02*X153700Y88700D01*
X126300D02*X128700Y86300D01*
X126300D02*X128700Y88700D01*
X226300Y113700D02*X228700Y111300D01*
X226300D02*X228700Y113700D01*
X251300D02*X253700Y111300D01*
X251300D02*X253700Y113700D01*
X251300Y88700D02*X253700Y86300D01*
X251300D02*X253700Y88700D01*
X226300D02*X228700Y86300D01*
X226300D02*X228700Y88700D01*
X226300Y38700D02*X228700Y36300D01*
X226300D02*X228700Y38700D01*
X251300D02*X253700Y36300D01*
X251300D02*X253700Y38700D01*
X251300Y13700D02*X253700Y11300D01*
X251300D02*X253700Y13700D01*
X226300D02*X228700Y11300D01*
X226300D02*X228700Y13700D01*
X326300Y38700D02*X328700Y36300D01*
X326300D02*X328700Y38700D01*
X351300D02*X353700Y36300D01*
X351300D02*X353700Y38700D01*
X351300Y13700D02*X353700Y11300D01*
X351300D02*X353700Y13700D01*
X326300D02*X328700Y11300D01*
X326300D02*X328700Y13700D01*
X326300Y113700D02*X328700Y111300D01*
X326300D02*X328700Y113700D01*
X351300D02*X353700Y111300D01*
X351300D02*X353700Y113700D01*
X351300Y88700D02*X353700Y86300D01*
X351300D02*X353700Y88700D01*
X326300D02*X328700Y86300D01*
X326300D02*X328700Y88700D01*
X13800Y152450D02*X16200Y150050D01*
X13800D02*X16200Y152450D01*
X135000Y153500D02*X136500Y150500D01*
X138000Y153500D01*
X136500Y150500D02*Y147500D01*
X139800Y150800D02*X142050D01*
X139800Y147500D02*X142800D01*
X139800Y153500D02*Y147500D01*
Y153500D02*X142800D01*
X147600D02*X148350Y152750D01*
X145350Y153500D02*X147600D01*
X144600Y152750D02*X145350Y153500D01*
X144600Y152750D02*Y151250D01*
X145350Y150500D01*
X147600D01*
X148350Y149750D01*
Y148250D01*
X147600Y147500D02*X148350Y148250D01*
X145350Y147500D02*X147600D01*
X144600Y148250D02*X145350Y147500D01*
X98000Y152750D02*X98750Y153500D01*
X100250D01*
X101000Y152750D01*
X100250Y147500D02*X101000Y148250D01*
X98750Y147500D02*X100250D01*
X98000Y148250D02*X98750Y147500D01*
Y150800D02*X100250D01*
X101000Y152750D02*Y151550D01*
Y150050D02*Y148250D01*
Y150050D02*X100250Y150800D01*
X101000Y151550D02*X100250Y150800D01*
X102800Y152750D02*X103550Y153500D01*
X105800D01*
X106550Y152750D01*
Y151250D01*
X102800Y147500D02*X106550Y151250D01*
X102800Y147500D02*X106550D01*
X45000Y148250D02*X45750Y147500D01*
X45000Y152750D02*Y148250D01*
Y152750D02*X45750Y153500D01*
X47250D01*
X48000Y152750D01*
Y148250D01*
X47250Y147500D02*X48000Y148250D01*
X45750Y147500D02*X47250D01*
X45000Y149000D02*X48000Y152000D01*
X49800Y147500D02*X50550D01*
X52350Y148250D02*X53100Y147500D01*
X52350Y152750D02*Y148250D01*
Y152750D02*X53100Y153500D01*
X54600D01*
X55350Y152750D01*
Y148250D01*
X54600Y147500D02*X55350Y148250D01*
X53100Y147500D02*X54600D01*
X52350Y149000D02*X55350Y152000D01*
X57900Y147500D02*X60900Y153500D01*
X57150D02*X60900D01*
X62700Y148250D02*X63450Y147500D01*
X62700Y152750D02*Y148250D01*
Y152750D02*X63450Y153500D01*
X64950D01*
X65700Y152750D01*
Y148250D01*
X64950Y147500D02*X65700Y148250D01*
X63450Y147500D02*X64950D01*
X62700Y149000D02*X65700Y152000D01*
X40000Y101600D02*Y98400D01*
X38400Y100000D02*X41600D01*
X40000Y26600D02*Y23400D01*
X38400Y25000D02*X41600D01*
X140000Y26600D02*Y23400D01*
X138400Y25000D02*X141600D01*
X140000Y101600D02*Y98400D01*
X138400Y100000D02*X141600D01*
X240000Y101600D02*Y98400D01*
X238400Y100000D02*X241600D01*
X240000Y26600D02*Y23400D01*
X238400Y25000D02*X241600D01*
X340000Y26600D02*Y23400D01*
X338400Y25000D02*X341600D01*
X340000Y101600D02*Y98400D01*
X338400Y100000D02*X341600D01*
X15000Y167850D02*Y164650D01*
X13400Y166250D02*X16600D01*
X135000Y168500D02*X136500Y165500D01*
X138000Y168500D01*
X136500Y165500D02*Y162500D01*
X139800Y165800D02*X142050D01*
X139800Y162500D02*X142800D01*
X139800Y168500D02*Y162500D01*
Y168500D02*X142800D01*
X147600D02*X148350Y167750D01*
X145350Y168500D02*X147600D01*
X144600Y167750D02*X145350Y168500D01*
X144600Y167750D02*Y166250D01*
X145350Y165500D01*
X147600D01*
X148350Y164750D01*
Y163250D01*
X147600Y162500D02*X148350Y163250D01*
X145350Y162500D02*X147600D01*
X144600Y163250D02*X145350Y162500D01*
X98000Y163250D02*X98750Y162500D01*
X98000Y164450D02*Y163250D01*
Y164450D02*X99050Y165500D01*
X99950D01*
X101000Y164450D01*
Y163250D01*
X100250Y162500D02*X101000Y163250D01*
X98750Y162500D02*X100250D01*
X98000Y166550D02*X99050Y165500D01*
X98000Y167750D02*Y166550D01*
Y167750D02*X98750Y168500D01*
X100250D01*
X101000Y167750D01*
Y166550D01*
X99950Y165500D02*X101000Y166550D01*
X45000Y163250D02*X45750Y162500D01*
X45000Y167750D02*Y163250D01*
Y167750D02*X45750Y168500D01*
X47250D01*
X48000Y167750D01*
Y163250D01*
X47250Y162500D02*X48000Y163250D01*
X45750Y162500D02*X47250D01*
X45000Y164000D02*X48000Y167000D01*
X49800Y162500D02*X50550D01*
X52350Y163250D02*X53100Y162500D01*
X52350Y167750D02*Y163250D01*
Y167750D02*X53100Y168500D01*
X54600D01*
X55350Y167750D01*
Y163250D01*
X54600Y162500D02*X55350Y163250D01*
X53100Y162500D02*X54600D01*
X52350Y164000D02*X55350Y167000D01*
X57150Y168500D02*X60150D01*
X57150D02*Y165500D01*
X57900Y166250D01*
X59400D01*
X60150Y165500D01*
Y163250D01*
X59400Y162500D02*X60150Y163250D01*
X57900Y162500D02*X59400D01*
X57150Y163250D02*X57900Y162500D01*
X61950Y167750D02*X62700Y168500D01*
X64950D01*
X65700Y167750D01*
Y166250D01*
X61950Y162500D02*X65700Y166250D01*
X61950Y162500D02*X65700D01*
X170000Y57500D02*Y55900D01*
Y57500D02*X171387Y58300D01*
X170000Y57500D02*X168613Y58300D01*
X170000Y67500D02*Y65900D01*
Y67500D02*X171387Y68300D01*
X170000Y67500D02*X168613Y68300D01*
X180000Y57500D02*Y55900D01*
Y57500D02*X181387Y58300D01*
X180000Y57500D02*X178613Y58300D01*
X180000Y67500D02*Y65900D01*
Y67500D02*X181387Y68300D01*
X180000Y67500D02*X178613Y68300D01*
X190000Y57500D02*Y55900D01*
Y57500D02*X191387Y58300D01*
X190000Y57500D02*X188613Y58300D01*
X190000Y67500D02*Y65900D01*
Y67500D02*X191387Y68300D01*
X190000Y67500D02*X188613Y68300D01*
X200000Y57500D02*Y55900D01*
Y57500D02*X201387Y58300D01*
X200000Y57500D02*X198613Y58300D01*
X200000Y67500D02*Y65900D01*
Y67500D02*X201387Y68300D01*
X200000Y67500D02*X198613Y68300D01*
X210000Y57500D02*Y55900D01*
Y57500D02*X211387Y58300D01*
X210000Y57500D02*X208613Y58300D01*
X210000Y67500D02*Y65900D01*
Y67500D02*X211387Y68300D01*
X210000Y67500D02*X208613Y68300D01*
X15000Y181250D02*Y179650D01*
Y181250D02*X16387Y182050D01*
X15000Y181250D02*X13613Y182050D01*
X135000Y183500D02*X136500Y180500D01*
X138000Y183500D01*
X136500Y180500D02*Y177500D01*
X139800Y180800D02*X142050D01*
X139800Y177500D02*X142800D01*
X139800Y183500D02*Y177500D01*
Y183500D02*X142800D01*
X147600D02*X148350Y182750D01*
X145350Y183500D02*X147600D01*
X144600Y182750D02*X145350Y183500D01*
X144600Y182750D02*Y181250D01*
X145350Y180500D01*
X147600D01*
X148350Y179750D01*
Y178250D01*
X147600Y177500D02*X148350Y178250D01*
X145350Y177500D02*X147600D01*
X144600Y178250D02*X145350Y177500D01*
X98000Y182300D02*X99200Y183500D01*
Y177500D01*
X98000D02*X100250D01*
X102050Y178250D02*X102800Y177500D01*
X102050Y182750D02*Y178250D01*
Y182750D02*X102800Y183500D01*
X104300D01*
X105050Y182750D01*
Y178250D01*
X104300Y177500D02*X105050Y178250D01*
X102800Y177500D02*X104300D01*
X102050Y179000D02*X105050Y182000D01*
X45000Y178250D02*X45750Y177500D01*
X45000Y182750D02*Y178250D01*
Y182750D02*X45750Y183500D01*
X47250D01*
X48000Y182750D01*
Y178250D01*
X47250Y177500D02*X48000Y178250D01*
X45750Y177500D02*X47250D01*
X45000Y179000D02*X48000Y182000D01*
X49800Y177500D02*X50550D01*
X52350Y178250D02*X53100Y177500D01*
X52350Y182750D02*Y178250D01*
Y182750D02*X53100Y183500D01*
X54600D01*
X55350Y182750D01*
Y178250D01*
X54600Y177500D02*X55350Y178250D01*
X53100Y177500D02*X54600D01*
X52350Y179000D02*X55350Y182000D01*
X57150Y179750D02*X60150Y183500D01*
X57150Y179750D02*X60900D01*
X60150Y183500D02*Y177500D01*
X62700Y182750D02*X63450Y183500D01*
X65700D01*
X66450Y182750D01*
Y181250D01*
X62700Y177500D02*X66450Y181250D01*
X62700Y177500D02*X66450D01*
X3000Y198500D02*X3750Y197750D01*
X750Y198500D02*X3000D01*
X0Y197750D02*X750Y198500D01*
X0Y197750D02*Y196250D01*
X750Y195500D01*
X3000D01*
X3750Y194750D01*
Y193250D01*
X3000Y192500D02*X3750Y193250D01*
X750Y192500D02*X3000D01*
X0Y193250D02*X750Y192500D01*
X5550Y195500D02*Y193250D01*
X6300Y192500D01*
X8550Y195500D02*Y191000D01*
X7800Y190250D02*X8550Y191000D01*
X6300Y190250D02*X7800D01*
X5550Y191000D02*X6300Y190250D01*
Y192500D02*X7800D01*
X8550Y193250D01*
X11100Y194750D02*Y192500D01*
Y194750D02*X11850Y195500D01*
X12600D01*
X13350Y194750D01*
Y192500D01*
Y194750D02*X14100Y195500D01*
X14850D01*
X15600Y194750D01*
Y192500D01*
X10350Y195500D02*X11100Y194750D01*
X17400Y198500D02*Y192500D01*
Y193250D02*X18150Y192500D01*
X19650D01*
X20400Y193250D01*
Y194750D02*Y193250D01*
X19650Y195500D02*X20400Y194750D01*
X18150Y195500D02*X19650D01*
X17400Y194750D02*X18150Y195500D01*
X22200Y194750D02*Y193250D01*
Y194750D02*X22950Y195500D01*
X24450D01*
X25200Y194750D01*
Y193250D01*
X24450Y192500D02*X25200Y193250D01*
X22950Y192500D02*X24450D01*
X22200Y193250D02*X22950Y192500D01*
X27000Y198500D02*Y193250D01*
X27750Y192500D01*
X0Y189250D02*X29250D01*
X41750Y198500D02*Y192500D01*
X43700Y198500D02*X44750Y197450D01*
Y193550D01*
X43700Y192500D02*X44750Y193550D01*
X41000Y192500D02*X43700D01*
X41000Y198500D02*X43700D01*
G54D51*X46550Y197000D02*Y196850D01*
G54D50*Y194750D02*Y192500D01*
X50300Y195500D02*X51050Y194750D01*
X48800Y195500D02*X50300D01*
X48050Y194750D02*X48800Y195500D01*
X48050Y194750D02*Y193250D01*
X48800Y192500D01*
X51050Y195500D02*Y193250D01*
X51800Y192500D01*
X48800D02*X50300D01*
X51050Y193250D01*
X54350Y194750D02*Y192500D01*
Y194750D02*X55100Y195500D01*
X55850D01*
X56600Y194750D01*
Y192500D01*
Y194750D02*X57350Y195500D01*
X58100D01*
X58850Y194750D01*
Y192500D01*
X53600Y195500D02*X54350Y194750D01*
X60650Y192500D02*X61400D01*
X65900Y193250D02*X66650Y192500D01*
X65900Y197750D02*X66650Y198500D01*
X65900Y197750D02*Y193250D01*
X68450Y198500D02*X69950D01*
X69200D02*Y192500D01*
X68450D02*X69950D01*
X72500Y194750D02*Y192500D01*
Y194750D02*X73250Y195500D01*
X74000D01*
X74750Y194750D01*
Y192500D01*
X71750Y195500D02*X72500Y194750D01*
X77300Y195500D02*X79550D01*
X76550Y194750D02*X77300Y195500D01*
X76550Y194750D02*Y193250D01*
X77300Y192500D01*
X79550D01*
X81350Y198500D02*Y192500D01*
Y194750D02*X82100Y195500D01*
X83600D01*
X84350Y194750D01*
Y192500D01*
X86150Y198500D02*X86900Y197750D01*
Y193250D01*
X86150Y192500D02*X86900Y193250D01*
X41000Y189250D02*X88700D01*
X96050Y192500D02*X98000D01*
X95000Y193550D02*X96050Y192500D01*
X95000Y197450D02*Y193550D01*
Y197450D02*X96050Y198500D01*
X98000D01*
X99800Y194750D02*Y193250D01*
Y194750D02*X100550Y195500D01*
X102050D01*
X102800Y194750D01*
Y193250D01*
X102050Y192500D02*X102800Y193250D01*
X100550Y192500D02*X102050D01*
X99800Y193250D02*X100550Y192500D01*
X104600Y195500D02*Y193250D01*
X105350Y192500D01*
X106850D01*
X107600Y193250D01*
Y195500D02*Y193250D01*
X110150Y194750D02*Y192500D01*
Y194750D02*X110900Y195500D01*
X111650D01*
X112400Y194750D01*
Y192500D01*
X109400Y195500D02*X110150Y194750D01*
X114950Y198500D02*Y193250D01*
X115700Y192500D01*
X114200Y196250D02*X115700D01*
X95000Y189250D02*X117200D01*
X130750Y198500D02*Y192500D01*
X130000Y198500D02*X133000D01*
X133750Y197750D01*
Y196250D01*
X133000Y195500D02*X133750Y196250D01*
X130750Y195500D02*X133000D01*
X135550Y198500D02*Y193250D01*
X136300Y192500D01*
X140050Y195500D02*X140800Y194750D01*
X138550Y195500D02*X140050D01*
X137800Y194750D02*X138550Y195500D01*
X137800Y194750D02*Y193250D01*
X138550Y192500D01*
X140800Y195500D02*Y193250D01*
X141550Y192500D01*
X138550D02*X140050D01*
X140800Y193250D01*
X144100Y198500D02*Y193250D01*
X144850Y192500D01*
X143350Y196250D02*X144850D01*
X147100Y192500D02*X149350D01*
X146350Y193250D02*X147100Y192500D01*
X146350Y194750D02*Y193250D01*
Y194750D02*X147100Y195500D01*
X148600D01*
X149350Y194750D01*
X146350Y194000D02*X149350D01*
Y194750D02*Y194000D01*
X154150Y198500D02*Y192500D01*
X153400D02*X154150Y193250D01*
X151900Y192500D02*X153400D01*
X151150Y193250D02*X151900Y192500D01*
X151150Y194750D02*Y193250D01*
Y194750D02*X151900Y195500D01*
X153400D01*
X154150Y194750D01*
X157450Y195500D02*Y194750D01*
Y193250D02*Y192500D01*
X155950Y197750D02*Y197000D01*
Y197750D02*X156700Y198500D01*
X158200D01*
X158950Y197750D01*
Y197000D01*
X157450Y195500D02*X158950Y197000D01*
X130000Y189250D02*X160750D01*
X0Y213500D02*X3000D01*
X1500D02*Y207500D01*
X4800Y213500D02*Y207500D01*
Y209750D02*X5550Y210500D01*
X7050D01*
X7800Y209750D01*
Y207500D01*
X10350D02*X12600D01*
X9600Y208250D02*X10350Y207500D01*
X9600Y209750D02*Y208250D01*
Y209750D02*X10350Y210500D01*
X11850D01*
X12600Y209750D01*
X9600Y209000D02*X12600D01*
Y209750D02*Y209000D01*
X15150Y209750D02*Y207500D01*
Y209750D02*X15900Y210500D01*
X17400D01*
X14400D02*X15150Y209750D01*
X19950Y207500D02*X22200D01*
X19200Y208250D02*X19950Y207500D01*
X19200Y209750D02*Y208250D01*
Y209750D02*X19950Y210500D01*
X21450D01*
X22200Y209750D01*
X19200Y209000D02*X22200D01*
Y209750D02*Y209000D01*
X28950Y210500D02*X29700Y209750D01*
X27450Y210500D02*X28950D01*
X26700Y209750D02*X27450Y210500D01*
X26700Y209750D02*Y208250D01*
X27450Y207500D01*
X29700Y210500D02*Y208250D01*
X30450Y207500D01*
X27450D02*X28950D01*
X29700Y208250D01*
X33000Y209750D02*Y207500D01*
Y209750D02*X33750Y210500D01*
X35250D01*
X32250D02*X33000Y209750D01*
X37800Y207500D02*X40050D01*
X37050Y208250D02*X37800Y207500D01*
X37050Y209750D02*Y208250D01*
Y209750D02*X37800Y210500D01*
X39300D01*
X40050Y209750D01*
X37050Y209000D02*X40050D01*
Y209750D02*Y209000D01*
X44550Y209750D02*X47550Y213500D01*
X44550Y209750D02*X48300D01*
X47550Y213500D02*Y207500D01*
X55800Y213500D02*Y207500D01*
X55050D02*X55800Y208250D01*
X53550Y207500D02*X55050D01*
X52800Y208250D02*X53550Y207500D01*
X52800Y209750D02*Y208250D01*
Y209750D02*X53550Y210500D01*
X55050D01*
X55800Y209750D01*
G54D51*X57600Y212000D02*Y211850D01*
G54D50*Y209750D02*Y207500D01*
X59850Y212750D02*Y207500D01*
Y212750D02*X60600Y213500D01*
X61350D01*
X59100Y210500D02*X60600D01*
X63600Y212750D02*Y207500D01*
Y212750D02*X64350Y213500D01*
X65100D01*
X62850Y210500D02*X64350D01*
X67350Y207500D02*X69600D01*
X66600Y208250D02*X67350Y207500D01*
X66600Y209750D02*Y208250D01*
Y209750D02*X67350Y210500D01*
X68850D01*
X69600Y209750D01*
X66600Y209000D02*X69600D01*
Y209750D02*Y209000D01*
X72150Y209750D02*Y207500D01*
Y209750D02*X72900Y210500D01*
X74400D01*
X71400D02*X72150Y209750D01*
X76950Y207500D02*X79200D01*
X76200Y208250D02*X76950Y207500D01*
X76200Y209750D02*Y208250D01*
Y209750D02*X76950Y210500D01*
X78450D01*
X79200Y209750D01*
X76200Y209000D02*X79200D01*
Y209750D02*Y209000D01*
X81750Y209750D02*Y207500D01*
Y209750D02*X82500Y210500D01*
X83250D01*
X84000Y209750D01*
Y207500D01*
X81000Y210500D02*X81750Y209750D01*
X86550Y213500D02*Y208250D01*
X87300Y207500D01*
X85800Y211250D02*X87300D01*
X94500Y213500D02*Y207500D01*
X93750D02*X94500Y208250D01*
X92250Y207500D02*X93750D01*
X91500Y208250D02*X92250Y207500D01*
X91500Y209750D02*Y208250D01*
Y209750D02*X92250Y210500D01*
X93750D01*
X94500Y209750D01*
X97050D02*Y207500D01*
Y209750D02*X97800Y210500D01*
X99300D01*
X96300D02*X97050Y209750D01*
G54D51*X101100Y212000D02*Y211850D01*
G54D50*Y209750D02*Y207500D01*
X102600Y213500D02*Y208250D01*
X103350Y207500D01*
X104850Y213500D02*Y208250D01*
X105600Y207500D01*
X110550D02*X112800D01*
X113550Y208250D01*
X112800Y209000D02*X113550Y208250D01*
X110550Y209000D02*X112800D01*
X109800Y209750D02*X110550Y209000D01*
X109800Y209750D02*X110550Y210500D01*
X112800D01*
X113550Y209750D01*
X109800Y208250D02*X110550Y207500D01*
G54D51*X115350Y212000D02*Y211850D01*
G54D50*Y209750D02*Y207500D01*
X116850Y210500D02*X119850D01*
X116850Y207500D02*X119850Y210500D01*
X116850Y207500D02*X119850D01*
X122400D02*X124650D01*
X121650Y208250D02*X122400Y207500D01*
X121650Y209750D02*Y208250D01*
Y209750D02*X122400Y210500D01*
X123900D01*
X124650Y209750D01*
X121650Y209000D02*X124650D01*
Y209750D02*Y209000D01*
X127200Y207500D02*X129450D01*
X130200Y208250D01*
X129450Y209000D02*X130200Y208250D01*
X127200Y209000D02*X129450D01*
X126450Y209750D02*X127200Y209000D01*
X126450Y209750D02*X127200Y210500D01*
X129450D01*
X130200Y209750D01*
X126450Y208250D02*X127200Y207500D01*
X134700Y210500D02*Y208250D01*
X135450Y207500D01*
X136950D01*
X137700Y208250D01*
Y210500D02*Y208250D01*
X140250Y207500D02*X142500D01*
X143250Y208250D01*
X142500Y209000D02*X143250Y208250D01*
X140250Y209000D02*X142500D01*
X139500Y209750D02*X140250Y209000D01*
X139500Y209750D02*X140250Y210500D01*
X142500D01*
X143250Y209750D01*
X139500Y208250D02*X140250Y207500D01*
X145800D02*X148050D01*
X145050Y208250D02*X145800Y207500D01*
X145050Y209750D02*Y208250D01*
Y209750D02*X145800Y210500D01*
X147300D01*
X148050Y209750D01*
X145050Y209000D02*X148050D01*
Y209750D02*Y209000D01*
X152850Y213500D02*Y207500D01*
X152100D02*X152850Y208250D01*
X150600Y207500D02*X152100D01*
X149850Y208250D02*X150600Y207500D01*
X149850Y209750D02*Y208250D01*
Y209750D02*X150600Y210500D01*
X152100D01*
X152850Y209750D01*
G54D51*X157350Y212000D02*Y211850D01*
G54D50*Y209750D02*Y207500D01*
X159600Y209750D02*Y207500D01*
Y209750D02*X160350Y210500D01*
X161100D01*
X161850Y209750D01*
Y207500D01*
X158850Y210500D02*X159600Y209750D01*
X167100Y213500D02*Y208250D01*
X167850Y207500D01*
X166350Y211250D02*X167850D01*
X169350Y213500D02*Y207500D01*
Y209750D02*X170100Y210500D01*
X171600D01*
X172350Y209750D01*
Y207500D01*
G54D51*X174150Y212000D02*Y211850D01*
G54D50*Y209750D02*Y207500D01*
X176400D02*X178650D01*
X179400Y208250D01*
X178650Y209000D02*X179400Y208250D01*
X176400Y209000D02*X178650D01*
X175650Y209750D02*X176400Y209000D01*
X175650Y209750D02*X176400Y210500D01*
X178650D01*
X179400Y209750D01*
X175650Y208250D02*X176400Y207500D01*
X183900Y213500D02*Y208250D01*
X184650Y207500D01*
X188400Y210500D02*X189150Y209750D01*
X186900Y210500D02*X188400D01*
X186150Y209750D02*X186900Y210500D01*
X186150Y209750D02*Y208250D01*
X186900Y207500D01*
X189150Y210500D02*Y208250D01*
X189900Y207500D01*
X186900D02*X188400D01*
X189150Y208250D01*
X191700Y210500D02*Y208250D01*
X192450Y207500D01*
X194700Y210500D02*Y206000D01*
X193950Y205250D02*X194700Y206000D01*
X192450Y205250D02*X193950D01*
X191700Y206000D02*X192450Y205250D01*
Y207500D02*X193950D01*
X194700Y208250D01*
X196500Y209750D02*Y208250D01*
Y209750D02*X197250Y210500D01*
X198750D01*
X199500Y209750D01*
Y208250D01*
X198750Y207500D02*X199500Y208250D01*
X197250Y207500D02*X198750D01*
X196500Y208250D02*X197250Y207500D01*
X201300Y210500D02*Y208250D01*
X202050Y207500D01*
X203550D01*
X204300Y208250D01*
Y210500D02*Y208250D01*
X206850Y213500D02*Y208250D01*
X207600Y207500D01*
X206100Y211250D02*X207600D01*
X209100Y206000D02*X210600Y207500D01*
X215100Y213500D02*X218100D01*
X215100D02*Y210500D01*
X215850Y211250D01*
X217350D01*
X218100Y210500D01*
Y208250D01*
X217350Y207500D02*X218100Y208250D01*
X215850Y207500D02*X217350D01*
X215100Y208250D02*X215850Y207500D01*
X219900Y209750D02*X222900Y213500D01*
X219900Y209750D02*X223650D01*
X222900Y213500D02*Y207500D01*
X228150Y213500D02*Y207500D01*
Y209750D02*X228900Y210500D01*
X230400D01*
X231150Y209750D01*
Y207500D01*
X232950Y209750D02*Y208250D01*
Y209750D02*X233700Y210500D01*
X235200D01*
X235950Y209750D01*
Y208250D01*
X235200Y207500D02*X235950Y208250D01*
X233700Y207500D02*X235200D01*
X232950Y208250D02*X233700Y207500D01*
X237750Y213500D02*Y208250D01*
X238500Y207500D01*
X240750D02*X243000D01*
X240000Y208250D02*X240750Y207500D01*
X240000Y209750D02*Y208250D01*
Y209750D02*X240750Y210500D01*
X242250D01*
X243000Y209750D01*
X240000Y209000D02*X243000D01*
Y209750D02*Y209000D01*
X245550Y207500D02*X247800D01*
X248550Y208250D01*
X247800Y209000D02*X248550Y208250D01*
X245550Y209000D02*X247800D01*
X244800Y209750D02*X245550Y209000D01*
X244800Y209750D02*X245550Y210500D01*
X247800D01*
X248550Y209750D01*
X244800Y208250D02*X245550Y207500D01*
X253800Y213500D02*Y208250D01*
X254550Y207500D01*
X253050Y211250D02*X254550D01*
X256050Y209750D02*Y208250D01*
Y209750D02*X256800Y210500D01*
X258300D01*
X259050Y209750D01*
Y208250D01*
X258300Y207500D02*X259050Y208250D01*
X256800Y207500D02*X258300D01*
X256050Y208250D02*X256800Y207500D01*
X261600Y213500D02*Y208250D01*
X262350Y207500D01*
X260850Y211250D02*X262350D01*
X266100Y210500D02*X266850Y209750D01*
X264600Y210500D02*X266100D01*
X263850Y209750D02*X264600Y210500D01*
X263850Y209750D02*Y208250D01*
X264600Y207500D01*
X266850Y210500D02*Y208250D01*
X267600Y207500D01*
X264600D02*X266100D01*
X266850Y208250D01*
X269400Y213500D02*Y208250D01*
X270150Y207500D01*
G54D52*X0Y125000D02*Y0D01*
X380000D01*
Y125000D01*
X0D01*
G54D50*X103675Y-9500D02*X106675D01*
X107425Y-8750D01*
Y-6950D02*Y-8750D01*
X106675Y-6200D02*X107425Y-6950D01*
X104425Y-6200D02*X106675D01*
X104425Y-3500D02*Y-9500D01*
X103675Y-3500D02*X106675D01*
X107425Y-4250D01*
Y-5450D01*
X106675Y-6200D02*X107425Y-5450D01*
X109225Y-7250D02*Y-8750D01*
Y-7250D02*X109975Y-6500D01*
X111475D01*
X112225Y-7250D01*
Y-8750D01*
X111475Y-9500D02*X112225Y-8750D01*
X109975Y-9500D02*X111475D01*
X109225Y-8750D02*X109975Y-9500D01*
X116275Y-6500D02*X117025Y-7250D01*
X114775Y-6500D02*X116275D01*
X114025Y-7250D02*X114775Y-6500D01*
X114025Y-7250D02*Y-8750D01*
X114775Y-9500D01*
X117025Y-6500D02*Y-8750D01*
X117775Y-9500D01*
X114775D02*X116275D01*
X117025Y-8750D01*
X120325Y-7250D02*Y-9500D01*
Y-7250D02*X121075Y-6500D01*
X122575D01*
X119575D02*X120325Y-7250D01*
X127375Y-3500D02*Y-9500D01*
X126625D02*X127375Y-8750D01*
X125125Y-9500D02*X126625D01*
X124375Y-8750D02*X125125Y-9500D01*
X124375Y-7250D02*Y-8750D01*
Y-7250D02*X125125Y-6500D01*
X126625D01*
X127375Y-7250D01*
X131875D02*Y-8750D01*
Y-7250D02*X132625Y-6500D01*
X134125D01*
X134875Y-7250D01*
Y-8750D01*
X134125Y-9500D02*X134875Y-8750D01*
X132625Y-9500D02*X134125D01*
X131875Y-8750D02*X132625Y-9500D01*
X136675Y-6500D02*Y-8750D01*
X137425Y-9500D01*
X138925D01*
X139675Y-8750D01*
Y-6500D02*Y-8750D01*
X142225Y-3500D02*Y-8750D01*
X142975Y-9500D01*
X141475Y-5750D02*X142975D01*
X144475Y-3500D02*Y-8750D01*
X145225Y-9500D01*
G54D51*X146725Y-5000D02*Y-5150D01*
G54D50*Y-7250D02*Y-9500D01*
X148975Y-7250D02*Y-9500D01*
Y-7250D02*X149725Y-6500D01*
X150475D01*
X151225Y-7250D01*
Y-9500D01*
X148225Y-6500D02*X148975Y-7250D01*
X153775Y-9500D02*X156025D01*
X153025Y-8750D02*X153775Y-9500D01*
X153025Y-7250D02*Y-8750D01*
Y-7250D02*X153775Y-6500D01*
X155275D01*
X156025Y-7250D01*
X153025Y-8000D02*X156025D01*
Y-7250D02*Y-8000D01*
G54D51*X160525Y-5000D02*Y-5150D01*
G54D50*Y-7250D02*Y-9500D01*
X162775D02*X165025D01*
X165775Y-8750D01*
X165025Y-8000D02*X165775Y-8750D01*
X162775Y-8000D02*X165025D01*
X162025Y-7250D02*X162775Y-8000D01*
X162025Y-7250D02*X162775Y-6500D01*
X165025D01*
X165775Y-7250D01*
X162025Y-8750D02*X162775Y-9500D01*
X171025Y-3500D02*Y-8750D01*
X171775Y-9500D01*
X170275Y-5750D02*X171775D01*
X173275Y-3500D02*Y-9500D01*
Y-7250D02*X174025Y-6500D01*
X175525D01*
X176275Y-7250D01*
Y-9500D01*
X178825D02*X181075D01*
X178075Y-8750D02*X178825Y-9500D01*
X178075Y-7250D02*Y-8750D01*
Y-7250D02*X178825Y-6500D01*
X180325D01*
X181075Y-7250D01*
X178075Y-8000D02*X181075D01*
Y-7250D02*Y-8000D01*
X186325Y-6500D02*X188575D01*
X185575Y-7250D02*X186325Y-6500D01*
X185575Y-7250D02*Y-8750D01*
X186325Y-9500D01*
X188575D01*
X191125D02*X193375D01*
X190375Y-8750D02*X191125Y-9500D01*
X190375Y-7250D02*Y-8750D01*
Y-7250D02*X191125Y-6500D01*
X192625D01*
X193375Y-7250D01*
X190375Y-8000D02*X193375D01*
Y-7250D02*Y-8000D01*
X195925Y-7250D02*Y-9500D01*
Y-7250D02*X196675Y-6500D01*
X197425D01*
X198175Y-7250D01*
Y-9500D01*
X195175Y-6500D02*X195925Y-7250D01*
X200725Y-3500D02*Y-8750D01*
X201475Y-9500D01*
X199975Y-5750D02*X201475D01*
X203725Y-9500D02*X205975D01*
X202975Y-8750D02*X203725Y-9500D01*
X202975Y-7250D02*Y-8750D01*
Y-7250D02*X203725Y-6500D01*
X205225D01*
X205975Y-7250D01*
X202975Y-8000D02*X205975D01*
Y-7250D02*Y-8000D01*
X208525Y-7250D02*Y-9500D01*
Y-7250D02*X209275Y-6500D01*
X210775D01*
X207775D02*X208525Y-7250D01*
X212575Y-3500D02*Y-8750D01*
X213325Y-9500D01*
G54D51*X214825Y-5000D02*Y-5150D01*
G54D50*Y-7250D02*Y-9500D01*
X217075Y-7250D02*Y-9500D01*
Y-7250D02*X217825Y-6500D01*
X218575D01*
X219325Y-7250D01*
Y-9500D01*
X216325Y-6500D02*X217075Y-7250D01*
X221875Y-9500D02*X224125D01*
X221125Y-8750D02*X221875Y-9500D01*
X221125Y-7250D02*Y-8750D01*
Y-7250D02*X221875Y-6500D01*
X223375D01*
X224125Y-7250D01*
X221125Y-8000D02*X224125D01*
Y-7250D02*Y-8000D01*
X228625Y-7250D02*Y-8750D01*
Y-7250D02*X229375Y-6500D01*
X230875D01*
X231625Y-7250D01*
Y-8750D01*
X230875Y-9500D02*X231625Y-8750D01*
X229375Y-9500D02*X230875D01*
X228625Y-8750D02*X229375Y-9500D01*
X234175Y-4250D02*Y-9500D01*
Y-4250D02*X234925Y-3500D01*
X235675D01*
X233425Y-6500D02*X234925D01*
X240625Y-3500D02*Y-8750D01*
X241375Y-9500D01*
X239875Y-5750D02*X241375D01*
X242875Y-3500D02*Y-9500D01*
Y-7250D02*X243625Y-6500D01*
X245125D01*
X245875Y-7250D01*
Y-9500D01*
G54D51*X247675Y-5000D02*Y-5150D01*
G54D50*Y-7250D02*Y-9500D01*
X249925D02*X252175D01*
X252925Y-8750D01*
X252175Y-8000D02*X252925Y-8750D01*
X249925Y-8000D02*X252175D01*
X249175Y-7250D02*X249925Y-8000D01*
X249175Y-7250D02*X249925Y-6500D01*
X252175D01*
X252925Y-7250D01*
X249175Y-8750D02*X249925Y-9500D01*
X258175Y-7250D02*Y-11750D01*
X257425Y-6500D02*X258175Y-7250D01*
X258925Y-6500D01*
X260425D01*
X261175Y-7250D01*
Y-8750D01*
X260425Y-9500D02*X261175Y-8750D01*
X258925Y-9500D02*X260425D01*
X258175Y-8750D02*X258925Y-9500D01*
X265225Y-6500D02*X265975Y-7250D01*
X263725Y-6500D02*X265225D01*
X262975Y-7250D02*X263725Y-6500D01*
X262975Y-7250D02*Y-8750D01*
X263725Y-9500D01*
X265975Y-6500D02*Y-8750D01*
X266725Y-9500D01*
X263725D02*X265225D01*
X265975Y-8750D01*
X269275Y-3500D02*Y-8750D01*
X270025Y-9500D01*
X268525Y-5750D02*X270025D01*
X271525Y-3500D02*Y-9500D01*
Y-7250D02*X272275Y-6500D01*
X273775D01*
X274525Y-7250D01*
Y-9500D01*
X200750Y153500D02*Y147500D01*
X202700Y153500D02*X203750Y152450D01*
Y148550D01*
X202700Y147500D02*X203750Y148550D01*
X200000Y147500D02*X202700D01*
X200000Y153500D02*X202700D01*
X207800Y150500D02*X208550Y149750D01*
X206300Y150500D02*X207800D01*
X205550Y149750D02*X206300Y150500D01*
X205550Y149750D02*Y148250D01*
X206300Y147500D01*
X208550Y150500D02*Y148250D01*
X209300Y147500D01*
X206300D02*X207800D01*
X208550Y148250D01*
X211850Y153500D02*Y148250D01*
X212600Y147500D01*
X211100Y151250D02*X212600D01*
X214850Y147500D02*X217100D01*
X214100Y148250D02*X214850Y147500D01*
X214100Y149750D02*Y148250D01*
Y149750D02*X214850Y150500D01*
X216350D01*
X217100Y149750D01*
X214100Y149000D02*X217100D01*
Y149750D02*Y149000D01*
X218900Y151250D02*X219650D01*
X218900Y149750D02*X219650D01*
X224150Y153500D02*X227150D01*
X225650D02*Y147500D01*
X228950Y150500D02*Y148250D01*
X229700Y147500D01*
X231200D01*
X231950Y148250D01*
Y150500D02*Y148250D01*
X234500Y147500D02*X236750D01*
X233750Y148250D02*X234500Y147500D01*
X233750Y149750D02*Y148250D01*
Y149750D02*X234500Y150500D01*
X236000D01*
X236750Y149750D01*
X233750Y149000D02*X236750D01*
Y149750D02*Y149000D01*
X241250Y152750D02*X242000Y153500D01*
X244250D01*
X245000Y152750D01*
Y151250D01*
X241250Y147500D02*X245000Y151250D01*
X241250Y147500D02*X245000D01*
X246800Y148250D02*X247550Y147500D01*
X246800Y149450D02*Y148250D01*
Y149450D02*X247850Y150500D01*
X248750D01*
X249800Y149450D01*
Y148250D01*
X249050Y147500D02*X249800Y148250D01*
X247550Y147500D02*X249050D01*
X246800Y151550D02*X247850Y150500D01*
X246800Y152750D02*Y151550D01*
Y152750D02*X247550Y153500D01*
X249050D01*
X249800Y152750D01*
Y151550D01*
X248750Y150500D02*X249800Y151550D01*
X254300Y152000D02*Y147500D01*
Y152000D02*X255350Y153500D01*
X257000D01*
X258050Y152000D01*
Y147500D01*
X254300Y150500D02*X258050D01*
X259850D02*Y148250D01*
X260600Y147500D01*
X262100D01*
X262850Y148250D01*
Y150500D02*Y148250D01*
X266900Y150500D02*X267650Y149750D01*
X265400Y150500D02*X266900D01*
X264650Y149750D02*X265400Y150500D01*
X264650Y149750D02*Y148250D01*
X265400Y147500D01*
X266900D01*
X267650Y148250D01*
X264650Y146000D02*X265400Y145250D01*
X266900D01*
X267650Y146000D01*
Y150500D02*Y146000D01*
X272150Y152750D02*X272900Y153500D01*
X275150D01*
X275900Y152750D01*
Y151250D01*
X272150Y147500D02*X275900Y151250D01*
X272150Y147500D02*X275900D01*
X277700Y148250D02*X278450Y147500D01*
X277700Y152750D02*Y148250D01*
Y152750D02*X278450Y153500D01*
X279950D01*
X280700Y152750D01*
Y148250D01*
X279950Y147500D02*X280700Y148250D01*
X278450Y147500D02*X279950D01*
X277700Y149000D02*X280700Y152000D01*
X282500Y152300D02*X283700Y153500D01*
Y147500D01*
X282500D02*X284750D01*
X286550Y148250D02*X287300Y147500D01*
X286550Y149450D02*Y148250D01*
Y149450D02*X287600Y150500D01*
X288500D01*
X289550Y149450D01*
Y148250D01*
X288800Y147500D02*X289550Y148250D01*
X287300Y147500D02*X288800D01*
X286550Y151550D02*X287600Y150500D01*
X286550Y152750D02*Y151550D01*
Y152750D02*X287300Y153500D01*
X288800D01*
X289550Y152750D01*
Y151550D01*
X288500Y150500D02*X289550Y151550D01*
X294050Y148250D02*X294800Y147500D01*
X294050Y152750D02*Y148250D01*
Y152750D02*X294800Y153500D01*
X296300D01*
X297050Y152750D01*
Y148250D01*
X296300Y147500D02*X297050Y148250D01*
X294800Y147500D02*X296300D01*
X294050Y149000D02*X297050Y152000D01*
X301100Y153500D02*X301850Y152750D01*
X299600Y153500D02*X301100D01*
X298850Y152750D02*X299600Y153500D01*
X298850Y152750D02*Y148250D01*
X299600Y147500D01*
X301100Y150800D02*X301850Y150050D01*
X298850Y150800D02*X301100D01*
X299600Y147500D02*X301100D01*
X301850Y148250D01*
Y150050D02*Y148250D01*
X303650Y151250D02*X304400D01*
X303650Y149750D02*X304400D01*
X306200Y148250D02*X306950Y147500D01*
X306200Y152750D02*Y148250D01*
Y152750D02*X306950Y153500D01*
X308450D01*
X309200Y152750D01*
Y148250D01*
X308450Y147500D02*X309200Y148250D01*
X306950Y147500D02*X308450D01*
X306200Y149000D02*X309200Y152000D01*
X311000Y148250D02*X311750Y147500D01*
X311000Y152750D02*Y148250D01*
Y152750D02*X311750Y153500D01*
X313250D01*
X314000Y152750D01*
Y148250D01*
X313250Y147500D02*X314000Y148250D01*
X311750Y147500D02*X313250D01*
X311000Y149000D02*X314000Y152000D01*
X315800Y151250D02*X316550D01*
X315800Y149750D02*X316550D01*
X318350Y153500D02*X321350D01*
X318350D02*Y150500D01*
X319100Y151250D01*
X320600D01*
X321350Y150500D01*
Y148250D01*
X320600Y147500D02*X321350Y148250D01*
X319100Y147500D02*X320600D01*
X318350Y148250D02*X319100Y147500D01*
X323150Y152300D02*X324350Y153500D01*
Y147500D01*
X323150D02*X325400D01*
X330650Y153500D02*Y147500D01*
X329900Y153500D02*X332900D01*
X333650Y152750D01*
Y151250D01*
X332900Y150500D02*X333650Y151250D01*
X330650Y150500D02*X332900D01*
X335450Y153500D02*Y147500D01*
Y153500D02*X337700Y150500D01*
X339950Y153500D01*
Y147500D01*
X347450Y153500D02*X348200Y152750D01*
X345200Y153500D02*X347450D01*
X344450Y152750D02*X345200Y153500D01*
X344450Y152750D02*Y148250D01*
X345200Y147500D01*
X347450D01*
X348200Y148250D01*
Y149750D02*Y148250D01*
X347450Y150500D02*X348200Y149750D01*
X345950Y150500D02*X347450D01*
X350000Y153500D02*Y147500D01*
Y153500D02*X352250Y150500D01*
X354500Y153500D01*
Y147500D01*
X356300Y153500D02*X359300D01*
X357800D02*Y147500D01*
X363800Y153500D02*Y148250D01*
X364550Y147500D01*
X366050D01*
X366800Y148250D01*
Y153500D02*Y148250D01*
X368600Y153500D02*X371600D01*
X370100D02*Y147500D01*
X374450D02*X376400D01*
X373400Y148550D02*X374450Y147500D01*
X373400Y152450D02*Y148550D01*
Y152450D02*X374450Y153500D01*
X376400D01*
X200000Y167000D02*Y162500D01*
Y167000D02*X201050Y168500D01*
X202700D01*
X203750Y167000D01*
Y162500D01*
X200000Y165500D02*X203750D01*
X205550D02*Y163250D01*
X206300Y162500D01*
X207800D01*
X208550Y163250D01*
Y165500D02*Y163250D01*
X211100Y168500D02*Y163250D01*
X211850Y162500D01*
X210350Y166250D02*X211850D01*
X213350Y168500D02*Y162500D01*
Y164750D02*X214100Y165500D01*
X215600D01*
X216350Y164750D01*
Y162500D01*
X218150Y164750D02*Y163250D01*
Y164750D02*X218900Y165500D01*
X220400D01*
X221150Y164750D01*
Y163250D01*
X220400Y162500D02*X221150Y163250D01*
X218900Y162500D02*X220400D01*
X218150Y163250D02*X218900Y162500D01*
X223700Y164750D02*Y162500D01*
Y164750D02*X224450Y165500D01*
X225950D01*
X222950D02*X223700Y164750D01*
X227750Y166250D02*X228500D01*
X227750Y164750D02*X228500D01*
X234050Y162500D02*X236000D01*
X233000Y163550D02*X234050Y162500D01*
X233000Y167450D02*Y163550D01*
Y167450D02*X234050Y168500D01*
X236000D01*
X237800D02*Y162500D01*
Y164750D02*X238550Y165500D01*
X240050D01*
X240800Y164750D01*
Y162500D01*
X243350Y164750D02*Y162500D01*
Y164750D02*X244100Y165500D01*
X245600D01*
X242600D02*X243350Y164750D01*
G54D51*X247400Y167000D02*Y166850D01*
G54D50*Y164750D02*Y162500D01*
X249650D02*X251900D01*
X252650Y163250D01*
X251900Y164000D02*X252650Y163250D01*
X249650Y164000D02*X251900D01*
X248900Y164750D02*X249650Y164000D01*
X248900Y164750D02*X249650Y165500D01*
X251900D01*
X252650Y164750D01*
X248900Y163250D02*X249650Y162500D01*
X255200Y168500D02*Y163250D01*
X255950Y162500D01*
X254450Y166250D02*X255950D01*
X257450Y164750D02*Y163250D01*
Y164750D02*X258200Y165500D01*
X259700D01*
X260450Y164750D01*
Y163250D01*
X259700Y162500D02*X260450Y163250D01*
X258200Y162500D02*X259700D01*
X257450Y163250D02*X258200Y162500D01*
X263000Y164750D02*Y160250D01*
X262250Y165500D02*X263000Y164750D01*
X263750Y165500D01*
X265250D01*
X266000Y164750D01*
Y163250D01*
X265250Y162500D02*X266000Y163250D01*
X263750Y162500D02*X265250D01*
X263000Y163250D02*X263750Y162500D01*
X267800Y168500D02*Y162500D01*
Y164750D02*X268550Y165500D01*
X270050D01*
X270800Y164750D01*
Y162500D01*
X273350D02*X275600D01*
X272600Y163250D02*X273350Y162500D01*
X272600Y164750D02*Y163250D01*
Y164750D02*X273350Y165500D01*
X274850D01*
X275600Y164750D01*
X272600Y164000D02*X275600D01*
Y164750D02*Y164000D01*
X278150Y164750D02*Y162500D01*
Y164750D02*X278900Y165500D01*
X280400D01*
X277400D02*X278150Y164750D01*
X284900Y168500D02*X287900D01*
X286400D02*Y162500D01*
X289700Y168500D02*Y162500D01*
Y164750D02*X290450Y165500D01*
X291950D01*
X292700Y164750D01*
Y162500D01*
X294500Y164750D02*Y163250D01*
Y164750D02*X295250Y165500D01*
X296750D01*
X297500Y164750D01*
Y163250D01*
X296750Y162500D02*X297500Y163250D01*
X295250Y162500D02*X296750D01*
X294500Y163250D02*X295250Y162500D01*
X300050Y164750D02*Y162500D01*
Y164750D02*X300800Y165500D01*
X301550D01*
X302300Y164750D01*
Y162500D01*
Y164750D02*X303050Y165500D01*
X303800D01*
X304550Y164750D01*
Y162500D01*
X299300Y165500D02*X300050Y164750D01*
X308600Y165500D02*X309350Y164750D01*
X307100Y165500D02*X308600D01*
X306350Y164750D02*X307100Y165500D01*
X306350Y164750D02*Y163250D01*
X307100Y162500D01*
X309350Y165500D02*Y163250D01*
X310100Y162500D01*
X307100D02*X308600D01*
X309350Y163250D01*
X312650Y162500D02*X314900D01*
X315650Y163250D01*
X314900Y164000D02*X315650Y163250D01*
X312650Y164000D02*X314900D01*
X311900Y164750D02*X312650Y164000D01*
X311900Y164750D02*X312650Y165500D01*
X314900D01*
X315650Y164750D01*
X311900Y163250D02*X312650Y162500D01*
X200000Y183500D02*X203000D01*
X201500D02*Y177500D01*
G54D51*X204800Y182000D02*Y181850D01*
G54D50*Y179750D02*Y177500D01*
X207050Y183500D02*Y178250D01*
X207800Y177500D01*
X206300Y181250D02*X207800D01*
X209300Y183500D02*Y178250D01*
X210050Y177500D01*
X212300D02*X214550D01*
X211550Y178250D02*X212300Y177500D01*
X211550Y179750D02*Y178250D01*
Y179750D02*X212300Y180500D01*
X213800D01*
X214550Y179750D01*
X211550Y179000D02*X214550D01*
Y179750D02*Y179000D01*
X216350Y181250D02*X217100D01*
X216350Y179750D02*X217100D01*
X221600Y178250D02*X222350Y177500D01*
X221600Y182750D02*X222350Y183500D01*
X221600Y182750D02*Y178250D01*
X224150Y180500D02*Y178250D01*
X224900Y177500D01*
X226400D01*
X227150Y178250D01*
Y180500D02*Y178250D01*
X229700Y179750D02*Y177500D01*
Y179750D02*X230450Y180500D01*
X231200D01*
X231950Y179750D01*
Y177500D01*
X228950Y180500D02*X229700Y179750D01*
X233750Y183500D02*Y177500D01*
Y179750D02*X236000Y177500D01*
X233750Y179750D02*X235250Y181250D01*
X238550Y179750D02*Y177500D01*
Y179750D02*X239300Y180500D01*
X240050D01*
X240800Y179750D01*
Y177500D01*
X237800Y180500D02*X238550Y179750D01*
X242600D02*Y178250D01*
Y179750D02*X243350Y180500D01*
X244850D01*
X245600Y179750D01*
Y178250D01*
X244850Y177500D02*X245600Y178250D01*
X243350Y177500D02*X244850D01*
X242600Y178250D02*X243350Y177500D01*
X247400Y180500D02*Y178250D01*
X248150Y177500D01*
X248900D01*
X249650Y178250D01*
Y180500D02*Y178250D01*
X250400Y177500D01*
X251150D01*
X251900Y178250D01*
Y180500D02*Y178250D01*
X254450Y179750D02*Y177500D01*
Y179750D02*X255200Y180500D01*
X255950D01*
X256700Y179750D01*
Y177500D01*
X253700Y180500D02*X254450Y179750D01*
X258500Y183500D02*X259250Y182750D01*
Y178250D01*
X258500Y177500D02*X259250Y178250D01*
X263750Y180500D02*X266750D01*
X271250Y183500D02*Y177500D01*
Y183500D02*X274250D01*
X271250Y180800D02*X273500D01*
X278300Y180500D02*X279050Y179750D01*
X276800Y180500D02*X278300D01*
X276050Y179750D02*X276800Y180500D01*
X276050Y179750D02*Y178250D01*
X276800Y177500D01*
X279050Y180500D02*Y178250D01*
X279800Y177500D01*
X276800D02*X278300D01*
X279050Y178250D01*
X281600Y183500D02*Y177500D01*
Y178250D02*X282350Y177500D01*
X283850D01*
X284600Y178250D01*
Y179750D02*Y178250D01*
X283850Y180500D02*X284600Y179750D01*
X282350Y180500D02*X283850D01*
X281600Y179750D02*X282350Y180500D01*
X287150Y179750D02*Y177500D01*
Y179750D02*X287900Y180500D01*
X289400D01*
X286400D02*X287150Y179750D01*
G54D51*X291200Y182000D02*Y181850D01*
G54D50*Y179750D02*Y177500D01*
X293450Y180500D02*X295700D01*
X292700Y179750D02*X293450Y180500D01*
X292700Y179750D02*Y178250D01*
X293450Y177500D01*
X295700D01*
X299750Y180500D02*X300500Y179750D01*
X298250Y180500D02*X299750D01*
X297500Y179750D02*X298250Y180500D01*
X297500Y179750D02*Y178250D01*
X298250Y177500D01*
X300500Y180500D02*Y178250D01*
X301250Y177500D01*
X298250D02*X299750D01*
X300500Y178250D01*
X303800Y183500D02*Y178250D01*
X304550Y177500D01*
X303050Y181250D02*X304550D01*
G54D51*X306050Y182000D02*Y181850D01*
G54D50*Y179750D02*Y177500D01*
X307550Y179750D02*Y178250D01*
Y179750D02*X308300Y180500D01*
X309800D01*
X310550Y179750D01*
Y178250D01*
X309800Y177500D02*X310550Y178250D01*
X308300Y177500D02*X309800D01*
X307550Y178250D02*X308300Y177500D01*
X313100Y179750D02*Y177500D01*
Y179750D02*X313850Y180500D01*
X314600D01*
X315350Y179750D01*
Y177500D01*
X312350Y180500D02*X313100Y179750D01*
X320600Y183500D02*Y177500D01*
X322550Y183500D02*X323600Y182450D01*
Y178550D01*
X322550Y177500D02*X323600Y178550D01*
X319850Y177500D02*X322550D01*
X319850Y183500D02*X322550D01*
X326150Y179750D02*Y177500D01*
Y179750D02*X326900Y180500D01*
X328400D01*
X325400D02*X326150Y179750D01*
X332450Y180500D02*X333200Y179750D01*
X330950Y180500D02*X332450D01*
X330200Y179750D02*X330950Y180500D01*
X330200Y179750D02*Y178250D01*
X330950Y177500D01*
X333200Y180500D02*Y178250D01*
X333950Y177500D01*
X330950D02*X332450D01*
X333200Y178250D01*
X335750Y180500D02*Y178250D01*
X336500Y177500D01*
X337250D01*
X338000Y178250D01*
Y180500D02*Y178250D01*
X338750Y177500D01*
X339500D01*
X340250Y178250D01*
Y180500D02*Y178250D01*
G54D51*X342050Y182000D02*Y181850D01*
G54D50*Y179750D02*Y177500D01*
X344300Y179750D02*Y177500D01*
Y179750D02*X345050Y180500D01*
X345800D01*
X346550Y179750D01*
Y177500D01*
X343550Y180500D02*X344300Y179750D01*
X350600Y180500D02*X351350Y179750D01*
X349100Y180500D02*X350600D01*
X348350Y179750D02*X349100Y180500D01*
X348350Y179750D02*Y178250D01*
X349100Y177500D01*
X350600D01*
X351350Y178250D01*
X348350Y176000D02*X349100Y175250D01*
X350600D01*
X351350Y176000D01*
Y180500D02*Y176000D01*
M02*
