G04 start of page 3 for group 5 idx 5 *
G04 Title: (unknown), bottom *
G04 Creator: pcb 20140316 *
G04 CreationDate: Tue 28 Aug 2018 05:59:29 PM GMT UTC *
G04 For: thomasc *
G04 Format: Gerber/RS-274X *
G04 PCB-Dimensions (mil): 5300.00 1250.00 *
G04 PCB-Coordinate-Origin: lower left *
%MOIN*%
%FSLAX25Y25*%
%LNBOTTOM*%
%ADD32C,0.0520*%
%ADD31C,0.0420*%
%ADD30C,0.1250*%
%ADD29C,0.1290*%
%ADD28C,0.0001*%
%ADD27C,0.1000*%
%ADD26C,0.0800*%
%ADD25C,0.0700*%
%ADD24C,0.0100*%
%ADD23C,0.0250*%
G54D23*X342500Y40000D02*X315000D01*
X310000Y35000D01*
Y30000D01*
X355000Y60000D02*Y52500D01*
X342500Y40000D01*
X355000Y70000D02*Y75000D01*
X352500Y77500D01*
X327500D01*
G54D24*X240000Y100000D02*X217500D01*
X195000Y77500D01*
X135000D01*
X125000Y67500D01*
X340000Y95000D02*Y77500D01*
G54D23*X327500D02*X302500Y52500D01*
Y27500D01*
X310000Y20000D01*
G54D25*X155000Y57500D03*
Y67500D03*
X165000Y57500D03*
X175000D03*
X165000Y67500D03*
X175000D03*
G54D26*X40000Y100000D03*
G54D27*X27500Y112500D03*
Y87500D03*
X52500Y112500D03*
Y87500D03*
G54D25*X105000Y57500D03*
G54D28*G36*
X101500Y71000D02*Y64000D01*
X108500D01*
Y71000D01*
X101500D01*
G37*
G54D25*X115000Y57500D03*
Y67500D03*
X125000Y57500D03*
Y67500D03*
X135000Y57500D03*
Y67500D03*
X145000Y57500D03*
Y67500D03*
G54D26*X140000Y100000D03*
G54D27*X127500Y112500D03*
X152500D03*
Y87500D03*
X127500D03*
G54D26*X90000Y25000D03*
G54D27*X77500Y37500D03*
X102500D03*
Y12500D03*
X77500D03*
G54D26*X240000Y100000D03*
G54D27*X227500Y112500D03*
Y87500D03*
X252500Y112500D03*
Y87500D03*
G54D26*X190000Y25000D03*
G54D27*X177500Y37500D03*
X202500D03*
Y12500D03*
X177500D03*
G54D25*X470000Y20000D03*
G54D28*G36*
X466500Y33500D02*Y26500D01*
X473500D01*
Y33500D01*
X466500D01*
G37*
G54D25*X460000Y20000D03*
Y30000D03*
X435000Y70000D03*
X425000D03*
X415000D03*
X405000D03*
G54D28*G36*
X431500Y63500D02*Y56500D01*
X438500D01*
Y63500D01*
X431500D01*
G37*
G54D25*X425000Y60000D03*
X415000D03*
X405000D03*
X450000Y20000D03*
X440000D03*
X430000D03*
X450000Y30000D03*
X440000D03*
X430000D03*
X420000D03*
X410000D03*
X400000D03*
X420000Y20000D03*
X410000D03*
X400000D03*
X390000D03*
Y30000D03*
X380000Y20000D03*
X370000D03*
X360000D03*
X380000Y30000D03*
X370000D03*
X360000D03*
X350000D03*
X340000D03*
X330000D03*
X350000Y20000D03*
X340000D03*
X330000D03*
X320000D03*
Y30000D03*
X310000D03*
X340000Y95000D03*
Y105000D03*
X310000Y20000D03*
X395000Y70000D03*
Y60000D03*
X385000Y70000D03*
Y60000D03*
X375000Y70000D03*
Y60000D03*
X365000Y70000D03*
Y60000D03*
X355000D03*
X345000D03*
X355000Y70000D03*
X345000D03*
G54D29*X65000Y62500D03*
X490000D03*
X215000D03*
X290000D03*
G54D30*G54D31*G54D32*G54D25*G54D31*G54D32*G54D25*G54D32*G54D25*G54D32*G54D25*G54D32*G54D25*G54D31*M02*
