M48
INCH
T37C0.125
T36C0.070
T35C0.052
T34C0.042
%
T34
X010500Y006750
X010500Y005750
X011500Y006750
X011500Y005750
X012500Y006750
X012500Y005750
X013500Y006750
X013500Y005750
X014500Y006750
X014500Y005750
X015500Y006750
X015500Y005750
X016500Y006750
X016500Y005750
X017500Y006750
X017500Y005750
X031000Y003000
X031000Y002000
X032000Y003000
X032000Y002000
X033000Y003000
X033000Y002000
X034000Y010500
X034000Y009500
X034000Y003000
X034000Y002000
X034500Y007000
X034500Y006000
X035000Y003000
X035000Y002000
X035500Y007000
X035500Y006000
X036000Y003000
X036000Y002000
X036500Y007000
X036500Y006000
X037000Y003000
X037000Y002000
X037500Y007000
X037500Y006000
X038000Y003000
X038000Y002000
X038500Y007000
X038500Y006000
X039000Y003000
X039000Y002000
X039500Y007000
X039500Y006000
X040000Y003000
X040000Y002000
X040500Y007000
X040500Y006000
X041000Y003000
X041000Y002000
X041500Y007000
X041500Y006000
X042000Y003000
X042000Y002000
X042500Y007000
X042500Y006000
X043000Y003000
X043000Y002000
X043500Y007000
X043500Y006000
X044000Y003000
X044000Y002000
X045000Y003000
X045000Y002000
X046000Y003000
X046000Y002000
X047000Y003000
X047000Y002000
T35
X004000Y010000
X009000Y002500
X014000Y010000
X019000Y002500
X024000Y010000
T36
X002750Y011250
X002750Y008750
X005250Y011250
X005250Y008750
X007750Y003750
X007750Y001250
X010250Y003750
X010250Y001250
X012750Y011250
X012750Y008750
X015250Y011250
X015250Y008750
X017750Y003750
X017750Y001250
X020250Y003750
X020250Y001250
X022750Y011250
X022750Y008750
X025250Y011250
X025250Y008750
T37
X006500Y006250
X021500Y006250
X029000Y006250
X049000Y006250
M30
