G04 start of page 3 for group 5 idx 5 *
G04 Title: (unknown), bottom *
G04 Creator: pcb 20140316 *
G04 CreationDate: Fri 02 Jun 2017 06:05:26 PM GMT UTC *
G04 For: thomasc *
G04 Format: Gerber/RS-274X *
G04 PCB-Dimensions (mil): 2500.00 2750.00 *
G04 PCB-Coordinate-Origin: lower left *
%MOIN*%
%FSLAX25Y25*%
%LNBOTTOM*%
%ADD33C,0.1250*%
%ADD32C,0.0450*%
%ADD31C,0.0420*%
%ADD30C,0.0280*%
%ADD29C,0.1520*%
%ADD28C,0.0500*%
%ADD27C,0.1560*%
%ADD26C,0.2500*%
%ADD25C,0.0700*%
%ADD24C,0.0100*%
%ADD23C,0.0200*%
%ADD22C,0.0001*%
G54D22*G36*
X230000Y102500D02*X235000D01*
Y97500D01*
X230000D01*
Y102500D01*
G37*
G54D23*X205000Y255000D02*X40000D01*
X35000Y250000D01*
Y237500D01*
X60000Y212500D02*X35000Y237500D01*
X60000Y192500D02*X160000D01*
X45000Y20000D02*X210000D01*
G54D24*X115000Y52500D02*X132500D01*
X105000Y57500D02*X137500D01*
G54D23*X215000Y37500D02*Y25000D01*
X210000Y20000D02*X215000Y25000D01*
Y70000D02*X210000Y65000D01*
Y42500D01*
X215000Y37500D01*
G54D24*X95000Y62500D02*X142500D01*
X85000Y67500D02*X147500D01*
G54D23*X13800Y153700D02*Y161300D01*
X20000Y167500D01*
X19400Y186100D02*X43600D01*
X50000Y192500D01*
X20000Y167500D02*X45000D01*
X60000Y182500D01*
Y212500D01*
G54D24*X25000Y115900D02*X48400Y92500D01*
X25000Y126700D02*X35800D01*
X13800Y121300D02*X31200D01*
X52500Y100000D01*
X13800Y132100D02*X42900D01*
X35800Y126700D02*X55000Y107500D01*
X42900Y132100D02*X60000Y115000D01*
X25000Y137500D02*X47500D01*
X62500Y122500D01*
X25000Y148300D02*X59200D01*
X70000Y137500D01*
X25000Y159100D02*X70900D01*
X54600Y142900D02*X67500Y130000D01*
X13800Y142900D02*X54600D01*
X70900Y159100D02*X77500Y152500D01*
G54D23*X160000Y192500D02*X215000Y137500D01*
Y70000D01*
G54D24*X55000Y107500D02*X200000D01*
X52500Y100000D02*X180000D01*
X55000Y82500D02*X162500D01*
X75000Y72500D02*X152500D01*
X65000Y77500D02*X157500D01*
X62500Y122500D02*X195000D01*
X70000Y137500D02*X190000D01*
X60000Y115000D02*X175000D01*
X67500Y130000D02*X170000D01*
X77500Y152500D02*X185000D01*
X48400Y92500D02*X205000D01*
X230000Y105000D02*X238000D01*
X231000D02*X230000Y106000D01*
Y108000D01*
X231000Y109000D01*
X233000D01*
X234000Y108000D02*X233000Y109000D01*
X234000Y106000D02*Y108000D01*
X233000Y105000D02*X234000Y106000D01*
X231000Y111400D02*X233000D01*
X234000Y112400D01*
Y114400D01*
X233000Y115400D01*
X231000D02*X233000D01*
X230000Y114400D02*X231000Y115400D01*
X230000Y112400D02*Y114400D01*
X231000Y111400D02*X230000Y112400D01*
X231000Y118800D02*X238000D01*
X231000D02*X230000Y119800D01*
X235000Y117800D02*Y119800D01*
X231000Y122800D02*X238000D01*
X231000D02*X230000Y123800D01*
X235000Y121800D02*Y123800D01*
X231000Y125800D02*X233000D01*
X234000Y126800D01*
Y128800D01*
X233000Y129800D01*
X231000D02*X233000D01*
X230000Y128800D02*X231000Y129800D01*
X230000Y126800D02*Y128800D01*
X231000Y125800D02*X230000Y126800D01*
Y133200D02*X233000D01*
X234000Y134200D01*
Y135200D01*
X233000Y136200D01*
X230000D02*X233000D01*
X234000Y137200D01*
Y138200D01*
X233000Y139200D01*
X230000D02*X233000D01*
X234000Y132200D02*X233000Y133200D01*
X234000Y146200D02*Y149200D01*
X233000Y145200D02*X234000Y146200D01*
X231000Y145200D02*X233000D01*
X231000D02*X230000Y146200D01*
Y149200D01*
X231000Y151600D02*X233000D01*
X234000Y152600D01*
Y154600D01*
X233000Y155600D01*
X231000D02*X233000D01*
X230000Y154600D02*X231000Y155600D01*
X230000Y152600D02*Y154600D01*
X231000Y151600D02*X230000Y152600D01*
X227000Y159000D02*X233000D01*
X234000Y158000D02*X233000Y159000D01*
X234000Y160000D01*
Y162000D01*
X233000Y163000D01*
X231000D02*X233000D01*
X230000Y162000D02*X231000Y163000D01*
X230000Y160000D02*Y162000D01*
X231000Y159000D02*X230000Y160000D01*
X227000Y166400D02*X233000D01*
X234000Y165400D02*X233000Y166400D01*
X234000Y167400D01*
Y169400D01*
X233000Y170400D01*
X231000D02*X233000D01*
X230000Y169400D02*X231000Y170400D01*
X230000Y167400D02*Y169400D01*
X231000Y166400D02*X230000Y167400D01*
Y173800D02*Y176800D01*
X231000Y172800D02*X230000Y173800D01*
X231000Y172800D02*X233000D01*
X234000Y173800D01*
Y175800D01*
X233000Y176800D01*
X232000Y172800D02*Y176800D01*
X233000D01*
X230000Y180200D02*X233000D01*
X234000Y181200D01*
Y183200D01*
Y179200D02*X233000Y180200D01*
G54D25*X95000Y255000D03*
X105000D03*
X115000D03*
X95000Y245000D03*
X105000D03*
X115000D03*
X125000D03*
X135000D03*
X145000D03*
X125000Y255000D03*
X135000D03*
X145000D03*
X155000D03*
Y245000D03*
X165000Y255000D03*
X175000D03*
X185000D03*
X195000D03*
X205000D03*
X165000Y245000D03*
X175000D03*
X185000D03*
X195000D03*
X205000D03*
X65000Y255000D03*
Y245000D03*
X75000Y255000D03*
Y245000D03*
X45000Y255000D03*
G54D22*G36*
X41500Y248500D02*Y241500D01*
X48500D01*
Y248500D01*
X41500D01*
G37*
G54D25*X55000Y255000D03*
Y245000D03*
X85000Y255000D03*
Y245000D03*
G54D22*G36*
X46500Y196000D02*Y189000D01*
X53500D01*
Y196000D01*
X46500D01*
G37*
G54D25*X60000Y192500D03*
X205000Y20000D03*
G54D22*G36*
X201500Y33500D02*Y26500D01*
X208500D01*
Y33500D01*
X201500D01*
G37*
G54D25*X195000Y20000D03*
Y30000D03*
X185000Y20000D03*
Y30000D03*
X175000D03*
X165000D03*
X175000Y20000D03*
X165000D03*
X155000D03*
X145000D03*
X135000D03*
X125000D03*
X155000Y30000D03*
X145000D03*
X135000D03*
X125000D03*
X115000Y20000D03*
Y30000D03*
X105000D03*
X95000D03*
X105000Y20000D03*
X95000D03*
X85000D03*
X75000D03*
X65000D03*
X55000D03*
X85000Y30000D03*
X75000D03*
X65000D03*
X55000D03*
X45000Y20000D03*
Y30000D03*
G54D22*G36*
X21500Y119400D02*Y112400D01*
X28500D01*
Y119400D01*
X21500D01*
G37*
G54D25*X25000Y126700D03*
X13800Y121300D03*
Y132100D03*
X25000Y137500D03*
Y148300D03*
Y159100D03*
X13800Y142900D03*
Y153700D03*
G54D26*X19400Y186100D03*
Y88900D03*
G54D27*X25000Y225000D03*
Y50000D03*
G54D28*X92500Y152500D03*
X72500Y92500D03*
X77500Y107500D03*
X97500Y100000D03*
X82500Y122500D03*
X87500Y137500D03*
X102500Y115000D03*
X107500Y130000D03*
X55000Y82500D03*
X65000Y77500D03*
X75000Y72500D03*
X85000Y67500D03*
X95000Y62500D03*
X105000Y57500D03*
X115000Y52500D03*
G54D27*X225000Y225000D03*
Y50000D03*
G54D28*X205000Y92500D03*
X200000Y107500D03*
X195000Y122500D03*
X190000Y137500D03*
X185000Y152500D03*
X180000Y100000D03*
X175000Y115000D03*
X170000Y130000D03*
X162500Y82500D03*
X157500Y77500D03*
X152500Y72500D03*
X147500Y67500D03*
X142500Y62500D03*
X137500Y57500D03*
X132500Y52500D03*
G54D29*G54D30*G54D29*G54D30*G54D31*G54D32*G54D33*M02*
