M48
INCH
T39C0.028
T38C0.152
T37C0.125
T36C0.045
T35C0.042
%
T39
X005500Y008250
X006500Y007750
X007250Y009250
X007500Y007250
X007750Y010750
X008250Y012250
X008500Y006750
X008750Y013750
X009250Y015250
X009500Y006250
X009750Y010000
X010250Y011500
X010500Y005750
X010750Y013000
X011500Y005250
X013250Y005250
X013750Y005750
X014250Y006250
X014750Y006750
X015250Y007250
X015750Y007750
X016250Y008250
X017000Y013000
X017500Y011500
X018000Y010000
X018500Y015250
X019000Y013750
X019500Y012250
X020000Y010750
X020500Y009250
T35
X004500Y025500
X004500Y024500
X004500Y003000
X004500Y002000
X005000Y019250
X005500Y025500
X005500Y024500
X005500Y003000
X005500Y002000
X006000Y019250
X006500Y025500
X006500Y024500
X006500Y003000
X006500Y002000
X007500Y025500
X007500Y024500
X007500Y003000
X007500Y002000
X008500Y025500
X008500Y024500
X008500Y003000
X008500Y002000
X009500Y025500
X009500Y024500
X009500Y003000
X009500Y002000
X010500Y025500
X010500Y024500
X010500Y003000
X010500Y002000
X011500Y025500
X011500Y024500
X011500Y003000
X011500Y002000
X012500Y025500
X012500Y024500
X012500Y003000
X012500Y002000
X013500Y025500
X013500Y024500
X013500Y003000
X013500Y002000
X014500Y025500
X014500Y024500
X014500Y003000
X014500Y002000
X015500Y025500
X015500Y024500
X015500Y003000
X015500Y002000
X016500Y025500
X016500Y024500
X016500Y003000
X016500Y002000
X017500Y025500
X017500Y024500
X017500Y003000
X017500Y002000
X018500Y025500
X018500Y024500
X018500Y003000
X018500Y002000
X019500Y025500
X019500Y024500
X019500Y003000
X019500Y002000
X020500Y025500
X020500Y024500
X020500Y003000
X020500Y002000
T36
X001380Y015370
X001380Y014290
X001380Y013210
X001380Y012130
X002500Y015910
X002500Y014830
X002500Y013750
X002500Y012670
X002500Y011590
T37
X001940Y018610
X001940Y008890
T38
X002500Y022500
X002500Y005000
X022500Y022500
X022500Y005000
M30
