G04 start of page 7 for group -4062 idx -4062 *
G04 Title: (unknown), soldermask *
G04 Creator: pcb 20140316 *
G04 CreationDate: Fri 02 Jun 2017 06:05:26 PM GMT UTC *
G04 For: thomasc *
G04 Format: Gerber/RS-274X *
G04 PCB-Dimensions (mil): 2500.00 2750.00 *
G04 PCB-Coordinate-Origin: lower left *
%MOIN*%
%FSLAX25Y25*%
%LNBOTTOMMASK*%
%ADD45C,0.2560*%
%ADD44C,0.0001*%
%ADD43C,0.0760*%
G54D43*X95000Y255000D03*
X105000D03*
X115000D03*
X95000Y245000D03*
X105000D03*
X115000D03*
X125000D03*
X135000D03*
X145000D03*
X125000Y255000D03*
X135000D03*
X145000D03*
X155000D03*
Y245000D03*
X165000Y255000D03*
X175000D03*
X185000D03*
X195000D03*
X205000D03*
X165000Y245000D03*
X175000D03*
X185000D03*
X195000D03*
X205000D03*
X65000Y255000D03*
Y245000D03*
X75000Y255000D03*
Y245000D03*
X45000Y255000D03*
G54D44*G36*
X41200Y248800D02*Y241200D01*
X48800D01*
Y248800D01*
X41200D01*
G37*
G54D43*X55000Y255000D03*
Y245000D03*
X85000Y255000D03*
Y245000D03*
G54D44*G36*
X46200Y196300D02*Y188700D01*
X53800D01*
Y196300D01*
X46200D01*
G37*
G54D43*X60000Y192500D03*
X205000Y20000D03*
G54D44*G36*
X201200Y33800D02*Y26200D01*
X208800D01*
Y33800D01*
X201200D01*
G37*
G54D43*X195000Y20000D03*
Y30000D03*
X185000Y20000D03*
Y30000D03*
X175000D03*
X165000D03*
X175000Y20000D03*
X165000D03*
X155000D03*
X145000D03*
X135000D03*
X125000D03*
X155000Y30000D03*
X145000D03*
X135000D03*
X125000D03*
X115000Y20000D03*
Y30000D03*
X105000D03*
X95000D03*
X105000Y20000D03*
X95000D03*
X85000D03*
X75000D03*
X65000D03*
X55000D03*
X85000Y30000D03*
X75000D03*
X65000D03*
X55000D03*
X45000Y20000D03*
Y30000D03*
G54D44*G36*
X21200Y119700D02*Y112100D01*
X28800D01*
Y119700D01*
X21200D01*
G37*
G54D43*X25000Y126700D03*
X13800Y121300D03*
Y132100D03*
X25000Y137500D03*
Y148300D03*
Y159100D03*
X13800Y142900D03*
Y153700D03*
G54D45*X19400Y186100D03*
Y88900D03*
M02*
