G04 start of page 8 for group -4079 idx -4079 *
G04 Title: (unknown), topsilk *
G04 Creator: pcb 20140316 *
G04 CreationDate: Fri 02 Jun 2017 06:05:26 PM GMT UTC *
G04 For: thomasc *
G04 Format: Gerber/RS-274X *
G04 PCB-Dimensions (mil): 2500.00 2750.00 *
G04 PCB-Coordinate-Origin: lower left *
%MOIN*%
%FSLAX25Y25*%
%LNTOPSILK*%
%ADD47C,0.0150*%
%ADD46C,0.0100*%
G54D46*X92500Y233000D02*Y225000D01*
Y233000D02*X97500Y225000D01*
Y233000D02*Y225000D01*
X100900D02*X103900D01*
X99900Y226000D02*X100900Y225000D01*
X99900Y228000D02*Y226000D01*
Y228000D02*X100900Y229000D01*
X102900D01*
X103900Y228000D01*
X99900Y227000D02*X103900D01*
Y228000D02*Y227000D01*
X106300Y229000D02*Y226000D01*
X107300Y225000D01*
X109300D01*
X110300Y226000D01*
Y229000D02*Y226000D01*
X113700Y228000D02*Y225000D01*
Y228000D02*X114700Y229000D01*
X116700D01*
X112700D02*X113700Y228000D01*
X122100Y229000D02*X123100Y228000D01*
X120100Y229000D02*X122100D01*
X119100Y228000D02*X120100Y229000D01*
X119100Y228000D02*Y226000D01*
X120100Y225000D01*
X123100Y229000D02*Y226000D01*
X124100Y225000D01*
X120100D02*X122100D01*
X123100Y226000D01*
X127500Y228000D02*Y225000D01*
Y228000D02*X128500Y229000D01*
X130500D01*
X126500D02*X127500Y228000D01*
X136900Y233000D02*Y225000D01*
X135900D02*X136900Y226000D01*
X133900Y225000D02*X135900D01*
X132900Y226000D02*X133900Y225000D01*
X132900Y228000D02*Y226000D01*
Y228000D02*X133900Y229000D01*
X135900D01*
X136900Y228000D01*
X139300Y229000D02*Y226000D01*
X140300Y225000D01*
X142300D01*
X143300Y226000D01*
Y229000D02*Y226000D01*
X145700Y231000D02*Y230800D01*
Y228000D02*Y225000D01*
X148700Y228000D02*Y225000D01*
Y228000D02*X149700Y229000D01*
X150700D01*
X151700Y228000D01*
Y225000D01*
X147700Y229000D02*X148700Y228000D01*
X154100D02*Y226000D01*
Y228000D02*X155100Y229000D01*
X157100D01*
X158100Y228000D01*
Y226000D01*
X157100Y225000D02*X158100Y226000D01*
X155100Y225000D02*X157100D01*
X154100Y226000D02*X155100Y225000D01*
X46400Y202500D02*X49000D01*
X45000Y203900D02*X46400Y202500D01*
X45000Y209100D02*Y203900D01*
Y209100D02*X46400Y210500D01*
X49000D01*
X54400Y206500D02*X55400Y205500D01*
X52400Y206500D02*X54400D01*
X51400Y205500D02*X52400Y206500D01*
X51400Y205500D02*Y203500D01*
X52400Y202500D01*
X55400Y206500D02*Y203500D01*
X56400Y202500D01*
X52400D02*X54400D01*
X55400Y203500D01*
X59800Y202500D02*X62800D01*
X63800Y203500D01*
X62800Y204500D02*X63800Y203500D01*
X59800Y204500D02*X62800D01*
X58800Y205500D02*X59800Y204500D01*
X58800Y205500D02*X59800Y206500D01*
X62800D01*
X63800Y205500D01*
X58800Y203500D02*X59800Y202500D01*
X67200D02*X70200D01*
X66200Y203500D02*X67200Y202500D01*
X66200Y205500D02*Y203500D01*
Y205500D02*X67200Y206500D01*
X69200D01*
X70200Y205500D01*
X66200Y204500D02*X70200D01*
Y205500D02*Y204500D01*
X80200Y210500D02*X81200Y209500D01*
X77200Y210500D02*X80200D01*
X76200Y209500D02*X77200Y210500D01*
X76200Y209500D02*Y203500D01*
X77200Y202500D01*
X80200D01*
X81200Y203500D01*
Y205500D02*Y203500D01*
X80200Y206500D02*X81200Y205500D01*
X78200Y206500D02*X80200D01*
X84600Y205500D02*Y202500D01*
Y205500D02*X85600Y206500D01*
X86600D01*
X87600Y205500D01*
Y202500D01*
X83600Y206500D02*X84600Y205500D01*
X94000Y210500D02*Y202500D01*
X93000D02*X94000Y203500D01*
X91000Y202500D02*X93000D01*
X90000Y203500D02*X91000Y202500D01*
X90000Y205500D02*Y203500D01*
Y205500D02*X91000Y206500D01*
X93000D01*
X94000Y205500D01*
X51900Y157500D02*Y154500D01*
X47500Y157500D02*Y153500D01*
Y157500D02*X55500D01*
Y153500D01*
X48500Y151100D02*X51500D01*
X48500D02*X47500Y150100D01*
X45500Y147100D02*X51500D01*
X44500Y148100D02*X45500Y147100D01*
X44500Y150100D02*Y148100D01*
X45500Y151100D02*X44500Y150100D01*
X47500D02*Y148100D01*
X48500Y147100D01*
X47500Y143700D02*Y140700D01*
X48500Y144700D02*X47500Y143700D01*
X48500Y144700D02*X50500D01*
X51500Y143700D01*
Y141700D01*
X50500Y140700D01*
X49500Y144700D02*Y140700D01*
X50500D01*
X55500Y134700D02*Y130700D01*
X47500Y132700D02*X55500D01*
X47500Y127300D02*X50500D01*
X51500Y126300D01*
Y124300D01*
Y128300D02*X50500Y127300D01*
X51500Y118900D02*X50500Y117900D01*
X51500Y120900D02*Y118900D01*
X50500Y121900D02*X51500Y120900D01*
X48500Y121900D02*X50500D01*
X48500D02*X47500Y120900D01*
X48500Y117900D02*X51500D01*
X48500D02*X47500Y116900D01*
Y120900D02*Y118900D01*
X48500Y117900D01*
X51500Y113500D02*Y110500D01*
X50500Y114500D02*X51500Y113500D01*
X48500Y114500D02*X50500D01*
X48500D02*X47500Y113500D01*
Y110500D01*
Y108100D02*X55500D01*
X50500D02*X47500Y105100D01*
X50500Y108100D02*X52500Y106100D01*
X47500Y101700D02*Y98700D01*
X48500Y102700D02*X47500Y101700D01*
X48500Y102700D02*X50500D01*
X51500Y101700D01*
Y99700D01*
X50500Y98700D01*
X49500Y102700D02*Y98700D01*
X50500D01*
X47500Y95300D02*X50500D01*
X51500Y94300D01*
Y92300D01*
Y96300D02*X50500Y95300D01*
X205000Y77000D02*Y71000D01*
Y77000D02*X206000Y78000D01*
X208000D01*
X209000Y77000D01*
Y71000D01*
X208000Y70000D02*X209000Y71000D01*
X206000Y70000D02*X208000D01*
X205000Y71000D02*X206000Y70000D01*
X211400Y74000D02*Y71000D01*
X212400Y70000D01*
X214400D01*
X215400Y71000D01*
Y74000D02*Y71000D01*
X218800Y78000D02*Y71000D01*
X219800Y70000D01*
X217800Y75000D02*X219800D01*
X222800Y73000D02*Y67000D01*
X221800Y74000D02*X222800Y73000D01*
X223800Y74000D01*
X225800D01*
X226800Y73000D01*
Y71000D01*
X225800Y70000D02*X226800Y71000D01*
X223800Y70000D02*X225800D01*
X222800Y71000D02*X223800Y70000D01*
X229200Y74000D02*Y71000D01*
X230200Y70000D01*
X232200D01*
X233200Y71000D01*
Y74000D02*Y71000D01*
X236600Y78000D02*Y71000D01*
X237600Y70000D01*
X235600Y75000D02*X237600D01*
G54D47*X210000Y260000D02*Y240000D01*
X40000Y260000D02*Y240000D01*
G54D46*X42000D02*Y236000D01*
G54D47*X40000Y240000D02*X210000D01*
G54D46*X42000Y236000D02*X46000D01*
G54D47*X40000Y260000D02*X210000D01*
G54D46*X46000Y240000D02*Y236000D01*
X135000Y240000D02*Y236000D01*
X115000Y240000D02*Y236000D01*
X115500D02*X135000D01*
G54D47*X40000Y35000D02*Y15000D01*
X210000Y35000D02*Y15000D01*
G54D46*X208000Y39000D02*Y35000D01*
G54D47*X40000D02*X210000D01*
G54D46*X204000Y39000D02*X208000D01*
G54D47*X40000Y15000D02*X210000D01*
G54D46*X204000Y39000D02*Y35000D01*
X115000Y39000D02*Y35000D01*
X135000Y39000D02*Y35000D01*
X115000Y39000D02*X134500D01*
G54D47*X65000Y197500D02*X45000D01*
Y187500D02*X65000D01*
G54D46*X47000Y183500D02*X51000D01*
Y187500D01*
X47000D02*Y183500D01*
G54D47*X45000Y197500D02*Y187500D01*
X65000Y197500D02*Y187500D01*
M02*
