G04 start of page 2 for group 0 idx 0 *
G04 Title: (unknown), top *
G04 Creator: pcb 20140316 *
G04 CreationDate: Fri 02 Jun 2017 06:05:26 PM GMT UTC *
G04 For: thomasc *
G04 Format: Gerber/RS-274X *
G04 PCB-Dimensions (mil): 2500.00 2750.00 *
G04 PCB-Coordinate-Origin: lower left *
%MOIN*%
%FSLAX25Y25*%
%LNTOP*%
%ADD21C,0.1250*%
%ADD20C,0.0450*%
%ADD19C,0.0420*%
%ADD18C,0.0280*%
%ADD17C,0.1520*%
%ADD16C,0.0500*%
%ADD15C,0.1560*%
%ADD14C,0.2500*%
%ADD13C,0.0700*%
%ADD12C,0.0100*%
%ADD11C,0.0001*%
G54D11*G36*
X230000Y102500D02*X235000D01*
Y97500D01*
X230000D01*
Y102500D01*
G37*
G54D12*X185000Y30000D02*Y45000D01*
X195000Y55000D02*X185000Y45000D01*
X190000Y60000D02*X175000Y45000D01*
Y30000D02*Y45000D01*
X165000Y30000D02*Y45000D01*
X185000Y65000D02*X165000Y45000D01*
X180000Y70000D02*X155000Y45000D01*
X175000Y75000D02*X145000Y45000D01*
X170000Y80000D02*X135000Y45000D01*
Y30000D02*Y45000D01*
X145000Y30000D02*Y45000D01*
X155000Y30000D02*Y45000D01*
X205000Y30000D02*Y92500D01*
X195000Y30000D02*Y45000D01*
X200000Y50000D01*
Y107500D01*
X195000Y122500D02*Y55000D01*
X190000Y137500D02*Y60000D01*
X185000Y152500D02*Y65000D01*
X180000Y100000D02*Y70000D01*
X175000Y115000D02*Y75000D01*
X170000Y130000D02*Y80000D01*
X162500Y82500D02*Y187500D01*
X157500Y77500D02*Y192500D01*
X152500Y72500D02*Y197500D01*
X147500Y67500D02*Y202500D01*
X142500Y62500D02*Y207500D01*
X137500Y57500D02*Y212500D01*
X145000Y220000D01*
X132500Y217500D02*X135000Y220000D01*
X132500Y52500D02*Y217500D01*
X125000Y245000D02*Y30000D01*
X162500Y187500D02*X195000Y220000D01*
X157500Y192500D02*X185000Y220000D01*
X152500Y197500D02*X175000Y220000D01*
X147500Y202500D02*X165000Y220000D01*
X142500Y207500D02*X155000Y220000D01*
X195000D02*Y245000D01*
X185000Y220000D02*Y245000D01*
X175000Y220000D02*Y245000D01*
X165000Y220000D02*Y245000D01*
X155000Y220000D02*Y245000D01*
X145000Y220000D02*Y245000D01*
X135000Y220000D02*Y245000D01*
X45000D02*Y237500D01*
X55000Y245000D02*Y235000D01*
X65000Y245000D02*Y232500D01*
X45000Y237500D02*X72500Y210000D01*
X55000Y235000D02*X77500Y212500D01*
X65000Y232500D02*X82500Y215000D01*
X75000Y230000D02*X87500Y217500D01*
X85000Y227500D02*X92500Y220000D01*
X95000Y225000D02*X97500Y222500D01*
X75000Y245000D02*Y230000D01*
X85000Y245000D02*Y227500D01*
X95000Y245000D02*Y225000D01*
X105000Y245000D02*Y225000D01*
X115000Y245000D02*Y227500D01*
X105000Y225000D02*X102500Y222500D01*
X115000Y227500D02*X107500Y220000D01*
X72500Y210000D02*Y92500D01*
X77500Y212500D02*Y107500D01*
X82500Y215000D02*Y122500D01*
X87500Y217500D02*Y137500D01*
X92500Y220000D02*Y152500D01*
X97500Y222500D02*Y100000D01*
X102500Y222500D02*Y115000D01*
X107500Y220000D02*Y130000D01*
X55000Y30000D02*Y82500D01*
X65000Y77500D02*Y30000D01*
X75000D02*Y72500D01*
X85000Y67500D02*Y30000D01*
X95000D02*Y62500D01*
X105000Y57500D02*Y30000D01*
X115000Y52500D02*Y30000D01*
X227000Y106000D02*X234000D01*
X235000Y107000D01*
X230000D02*Y105000D01*
X232000Y109000D02*X234000D01*
X232000D02*X231000Y110000D01*
Y112000D02*Y110000D01*
Y112000D02*X232000Y113000D01*
X234000D01*
X235000Y112000D02*X234000Y113000D01*
X235000Y112000D02*Y110000D01*
X234000Y109000D02*X235000Y110000D01*
X232000Y116400D02*X238000D01*
X231000Y115400D02*X232000Y116400D01*
X231000Y117400D01*
Y119400D02*Y117400D01*
Y119400D02*X232000Y120400D01*
X234000D01*
X235000Y119400D02*X234000Y120400D01*
X235000Y119400D02*Y117400D01*
X234000Y116400D02*X235000Y117400D01*
X231000Y130400D02*Y127400D01*
X232000Y126400D02*X231000Y127400D01*
X232000Y126400D02*X234000D01*
X235000Y127400D01*
Y130400D02*Y127400D01*
X232000Y132800D02*X234000D01*
X232000D02*X231000Y133800D01*
Y135800D02*Y133800D01*
Y135800D02*X232000Y136800D01*
X234000D01*
X235000Y135800D02*X234000Y136800D01*
X235000Y135800D02*Y133800D01*
X234000Y132800D02*X235000Y133800D01*
X232000Y140200D02*X238000D01*
X231000Y139200D02*X232000Y140200D01*
X231000Y141200D01*
Y143200D02*Y141200D01*
Y143200D02*X232000Y144200D01*
X234000D01*
X235000Y143200D02*X234000Y144200D01*
X235000Y143200D02*Y141200D01*
X234000Y140200D02*X235000Y141200D01*
X232000Y147600D02*X238000D01*
X231000Y146600D02*X232000Y147600D01*
X231000Y148600D01*
Y150600D02*Y148600D01*
Y150600D02*X232000Y151600D01*
X234000D01*
X235000Y150600D02*X234000Y151600D01*
X235000Y150600D02*Y148600D01*
X234000Y147600D02*X235000Y148600D01*
Y158000D02*Y155000D01*
X234000Y154000D02*X235000Y155000D01*
X232000Y154000D02*X234000D01*
X232000D02*X231000Y155000D01*
Y157000D02*Y155000D01*
Y157000D02*X232000Y158000D01*
X233000D02*Y154000D01*
X232000Y158000D02*X233000D01*
X232000Y161400D02*X235000D01*
X232000D02*X231000Y162400D01*
Y164400D02*Y162400D01*
Y160400D02*X232000Y161400D01*
G54D13*X95000Y255000D03*
X105000D03*
X115000D03*
X95000Y245000D03*
X105000D03*
X115000D03*
X125000D03*
X135000D03*
X145000D03*
X125000Y255000D03*
X135000D03*
X145000D03*
X155000D03*
Y245000D03*
X165000Y255000D03*
X175000D03*
X185000D03*
X195000D03*
X205000D03*
X165000Y245000D03*
X175000D03*
X185000D03*
X195000D03*
X205000D03*
X65000Y255000D03*
Y245000D03*
X75000Y255000D03*
Y245000D03*
X45000Y255000D03*
G54D11*G36*
X41500Y248500D02*Y241500D01*
X48500D01*
Y248500D01*
X41500D01*
G37*
G54D13*X55000Y255000D03*
Y245000D03*
X85000Y255000D03*
Y245000D03*
G54D11*G36*
X46500Y196000D02*Y189000D01*
X53500D01*
Y196000D01*
X46500D01*
G37*
G54D13*X60000Y192500D03*
X205000Y20000D03*
G54D11*G36*
X201500Y33500D02*Y26500D01*
X208500D01*
Y33500D01*
X201500D01*
G37*
G54D13*X195000Y20000D03*
Y30000D03*
X185000Y20000D03*
Y30000D03*
X175000D03*
X165000D03*
X175000Y20000D03*
X165000D03*
X155000D03*
X145000D03*
X135000D03*
X125000D03*
X155000Y30000D03*
X145000D03*
X135000D03*
X125000D03*
X115000Y20000D03*
Y30000D03*
X105000D03*
X95000D03*
X105000Y20000D03*
X95000D03*
X85000D03*
X75000D03*
X65000D03*
X55000D03*
X85000Y30000D03*
X75000D03*
X65000D03*
X55000D03*
X45000Y20000D03*
Y30000D03*
G54D11*G36*
X21500Y119400D02*Y112400D01*
X28500D01*
Y119400D01*
X21500D01*
G37*
G54D13*X25000Y126700D03*
X13800Y121300D03*
Y132100D03*
X25000Y137500D03*
Y148300D03*
Y159100D03*
X13800Y142900D03*
Y153700D03*
G54D14*X19400Y186100D03*
Y88900D03*
G54D15*X25000Y225000D03*
Y50000D03*
G54D16*X92500Y152500D03*
X72500Y92500D03*
X77500Y107500D03*
X97500Y100000D03*
X82500Y122500D03*
X87500Y137500D03*
X102500Y115000D03*
X107500Y130000D03*
X55000Y82500D03*
X65000Y77500D03*
X75000Y72500D03*
X85000Y67500D03*
X95000Y62500D03*
X105000Y57500D03*
X115000Y52500D03*
G54D15*X225000Y225000D03*
Y50000D03*
G54D16*X205000Y92500D03*
X200000Y107500D03*
X195000Y122500D03*
X190000Y137500D03*
X185000Y152500D03*
X180000Y100000D03*
X175000Y115000D03*
X170000Y130000D03*
X162500Y82500D03*
X157500Y77500D03*
X152500Y72500D03*
X147500Y67500D03*
X142500Y62500D03*
X137500Y57500D03*
X132500Y52500D03*
G54D17*G54D18*G54D17*G54D18*G54D19*G54D20*G54D21*M02*
