G04 start of page 9 for group -3984 idx -3984 *
G04 Title: (unknown), fab *
G04 Creator: pcb 20140316 *
G04 CreationDate: Fri 02 Jun 2017 06:05:26 PM GMT UTC *
G04 For: thomasc *
G04 Format: Gerber/RS-274X *
G04 PCB-Dimensions (mil): 2500.00 2750.00 *
G04 PCB-Coordinate-Origin: lower left *
%MOIN*%
%FSLAX25Y25*%
%LNFAB*%
%ADD51C,0.0100*%
%ADD50C,0.0075*%
%ADD49C,0.0060*%
%ADD48C,0.0080*%
G54D48*X23400Y226600D02*X26600D01*
X23400D02*Y223400D01*
X26600D01*
Y226600D02*Y223400D01*
X223400Y226600D02*X226600D01*
X223400D02*Y223400D01*
X226600D01*
Y226600D02*Y223400D01*
X23400Y51600D02*X26600D01*
X23400D02*Y48400D01*
X26600D01*
Y51600D02*Y48400D01*
X223400Y51600D02*X226600D01*
X223400D02*Y48400D01*
X226600D01*
Y51600D02*Y48400D01*
X13400Y287850D02*X16600D01*
X13400D02*Y284650D01*
X16600D01*
Y287850D02*Y284650D01*
G54D49*X135000Y288500D02*X136500Y285500D01*
X138000Y288500D01*
X136500Y285500D02*Y282500D01*
X139800Y285800D02*X142050D01*
X139800Y282500D02*X142800D01*
X139800Y288500D02*Y282500D01*
Y288500D02*X142800D01*
X147600D02*X148350Y287750D01*
X145350Y288500D02*X147600D01*
X144600Y287750D02*X145350Y288500D01*
X144600Y287750D02*Y286250D01*
X145350Y285500D01*
X147600D01*
X148350Y284750D01*
Y283250D01*
X147600Y282500D02*X148350Y283250D01*
X145350Y282500D02*X147600D01*
X144600Y283250D02*X145350Y282500D01*
X98000Y284750D02*X101000Y288500D01*
X98000Y284750D02*X101750D01*
X101000Y288500D02*Y282500D01*
X45000Y283250D02*X45750Y282500D01*
X45000Y287750D02*Y283250D01*
Y287750D02*X45750Y288500D01*
X47250D01*
X48000Y287750D01*
Y283250D01*
X47250Y282500D02*X48000Y283250D01*
X45750Y282500D02*X47250D01*
X45000Y284000D02*X48000Y287000D01*
X49800Y282500D02*X50550D01*
X52350Y287300D02*X53550Y288500D01*
Y282500D01*
X52350D02*X54600D01*
X56400Y288500D02*X59400D01*
X56400D02*Y285500D01*
X57150Y286250D01*
X58650D01*
X59400Y285500D01*
Y283250D01*
X58650Y282500D02*X59400Y283250D01*
X57150Y282500D02*X58650D01*
X56400Y283250D02*X57150Y282500D01*
X61200Y287750D02*X61950Y288500D01*
X64200D01*
X64950Y287750D01*
Y286250D01*
X61200Y282500D02*X64950Y286250D01*
X61200Y282500D02*X64950D01*
X18600Y186100D02*G75*G03X20200Y186100I800J0D01*G01*
G75*G03X18600Y186100I-800J0D01*G01*
Y88900D02*G75*G03X20200Y88900I800J0D01*G01*
G75*G03X18600Y88900I-800J0D01*G01*
X14200Y301250D02*G75*G03X15800Y301250I800J0D01*G01*
G75*G03X14200Y301250I-800J0D01*G01*
X135000Y303500D02*X136500Y300500D01*
X138000Y303500D01*
X136500Y300500D02*Y297500D01*
X139800Y300800D02*X142050D01*
X139800Y297500D02*X142800D01*
X139800Y303500D02*Y297500D01*
Y303500D02*X142800D01*
X147600D02*X148350Y302750D01*
X145350Y303500D02*X147600D01*
X144600Y302750D02*X145350Y303500D01*
X144600Y302750D02*Y301250D01*
X145350Y300500D01*
X147600D01*
X148350Y299750D01*
Y298250D01*
X147600Y297500D02*X148350Y298250D01*
X145350Y297500D02*X147600D01*
X144600Y298250D02*X145350Y297500D01*
X98000Y302750D02*X98750Y303500D01*
X101000D01*
X101750Y302750D01*
Y301250D01*
X98000Y297500D02*X101750Y301250D01*
X98000Y297500D02*X101750D01*
X45000Y298250D02*X45750Y297500D01*
X45000Y302750D02*Y298250D01*
Y302750D02*X45750Y303500D01*
X47250D01*
X48000Y302750D01*
Y298250D01*
X47250Y297500D02*X48000Y298250D01*
X45750Y297500D02*X47250D01*
X45000Y299000D02*X48000Y302000D01*
X49800Y297500D02*X50550D01*
X52350Y302300D02*X53550Y303500D01*
Y297500D01*
X52350D02*X54600D01*
X56400Y302750D02*X57150Y303500D01*
X59400D01*
X60150Y302750D01*
Y301250D01*
X56400Y297500D02*X60150Y301250D01*
X56400Y297500D02*X60150D01*
X61950Y303500D02*X64950D01*
X61950D02*Y300500D01*
X62700Y301250D01*
X64200D01*
X64950Y300500D01*
Y298250D01*
X64200Y297500D02*X64950Y298250D01*
X62700Y297500D02*X64200D01*
X61950Y298250D02*X62700Y297500D01*
X23800Y117100D02*X26200Y114700D01*
X23800D02*X26200Y117100D01*
X23800Y127900D02*X26200Y125500D01*
X23800D02*X26200Y127900D01*
X23800Y138700D02*X26200Y136300D01*
X23800D02*X26200Y138700D01*
X23800Y149500D02*X26200Y147100D01*
X23800D02*X26200Y149500D01*
X23800Y160300D02*X26200Y157900D01*
X23800D02*X26200Y160300D01*
X12600Y122500D02*X15000Y120100D01*
X12600D02*X15000Y122500D01*
X12600Y133300D02*X15000Y130900D01*
X12600D02*X15000Y133300D01*
X12600Y144100D02*X15000Y141700D01*
X12600D02*X15000Y144100D01*
X12600Y154900D02*X15000Y152500D01*
X12600D02*X15000Y154900D01*
X13800Y317450D02*X16200Y315050D01*
X13800D02*X16200Y317450D01*
X135000Y318500D02*X136500Y315500D01*
X138000Y318500D01*
X136500Y315500D02*Y312500D01*
X139800Y315800D02*X142050D01*
X139800Y312500D02*X142800D01*
X139800Y318500D02*Y312500D01*
Y318500D02*X142800D01*
X147600D02*X148350Y317750D01*
X145350Y318500D02*X147600D01*
X144600Y317750D02*X145350Y318500D01*
X144600Y317750D02*Y316250D01*
X145350Y315500D01*
X147600D01*
X148350Y314750D01*
Y313250D01*
X147600Y312500D02*X148350Y313250D01*
X145350Y312500D02*X147600D01*
X144600Y313250D02*X145350Y312500D01*
X98750D02*X101000Y315500D01*
Y317750D02*Y315500D01*
X100250Y318500D02*X101000Y317750D01*
X98750Y318500D02*X100250D01*
X98000Y317750D02*X98750Y318500D01*
X98000Y317750D02*Y316250D01*
X98750Y315500D01*
X101000D01*
X45000Y313250D02*X45750Y312500D01*
X45000Y317750D02*Y313250D01*
Y317750D02*X45750Y318500D01*
X47250D01*
X48000Y317750D01*
Y313250D01*
X47250Y312500D02*X48000Y313250D01*
X45750Y312500D02*X47250D01*
X45000Y314000D02*X48000Y317000D01*
X49800Y312500D02*X50550D01*
X52350Y313250D02*X53100Y312500D01*
X52350Y317750D02*Y313250D01*
Y317750D02*X53100Y318500D01*
X54600D01*
X55350Y317750D01*
Y313250D01*
X54600Y312500D02*X55350Y313250D01*
X53100Y312500D02*X54600D01*
X52350Y314000D02*X55350Y317000D01*
X57150Y314750D02*X60150Y318500D01*
X57150Y314750D02*X60900D01*
X60150Y318500D02*Y312500D01*
X62700Y318500D02*X65700D01*
X62700D02*Y315500D01*
X63450Y316250D01*
X64950D01*
X65700Y315500D01*
Y313250D01*
X64950Y312500D02*X65700Y313250D01*
X63450Y312500D02*X64950D01*
X62700Y313250D02*X63450Y312500D01*
X45000Y256600D02*Y253400D01*
X43400Y255000D02*X46600D01*
X45000Y246600D02*Y243400D01*
X43400Y245000D02*X46600D01*
X55000Y256600D02*Y253400D01*
X53400Y255000D02*X56600D01*
X55000Y246600D02*Y243400D01*
X53400Y245000D02*X56600D01*
X65000Y256600D02*Y253400D01*
X63400Y255000D02*X66600D01*
X65000Y246600D02*Y243400D01*
X63400Y245000D02*X66600D01*
X75000Y256600D02*Y253400D01*
X73400Y255000D02*X76600D01*
X75000Y246600D02*Y243400D01*
X73400Y245000D02*X76600D01*
X85000Y256600D02*Y253400D01*
X83400Y255000D02*X86600D01*
X85000Y246600D02*Y243400D01*
X83400Y245000D02*X86600D01*
X95000Y256600D02*Y253400D01*
X93400Y255000D02*X96600D01*
X95000Y246600D02*Y243400D01*
X93400Y245000D02*X96600D01*
X105000Y256600D02*Y253400D01*
X103400Y255000D02*X106600D01*
X105000Y246600D02*Y243400D01*
X103400Y245000D02*X106600D01*
X115000Y256600D02*Y253400D01*
X113400Y255000D02*X116600D01*
X115000Y246600D02*Y243400D01*
X113400Y245000D02*X116600D01*
X125000Y256600D02*Y253400D01*
X123400Y255000D02*X126600D01*
X125000Y246600D02*Y243400D01*
X123400Y245000D02*X126600D01*
X135000Y256600D02*Y253400D01*
X133400Y255000D02*X136600D01*
X135000Y246600D02*Y243400D01*
X133400Y245000D02*X136600D01*
X145000Y256600D02*Y253400D01*
X143400Y255000D02*X146600D01*
X145000Y246600D02*Y243400D01*
X143400Y245000D02*X146600D01*
X155000Y256600D02*Y253400D01*
X153400Y255000D02*X156600D01*
X155000Y246600D02*Y243400D01*
X153400Y245000D02*X156600D01*
X165000Y256600D02*Y253400D01*
X163400Y255000D02*X166600D01*
X165000Y246600D02*Y243400D01*
X163400Y245000D02*X166600D01*
X175000Y256600D02*Y253400D01*
X173400Y255000D02*X176600D01*
X175000Y246600D02*Y243400D01*
X173400Y245000D02*X176600D01*
X185000Y256600D02*Y253400D01*
X183400Y255000D02*X186600D01*
X185000Y246600D02*Y243400D01*
X183400Y245000D02*X186600D01*
X195000Y256600D02*Y253400D01*
X193400Y255000D02*X196600D01*
X195000Y246600D02*Y243400D01*
X193400Y245000D02*X196600D01*
X205000Y256600D02*Y253400D01*
X203400Y255000D02*X206600D01*
X205000Y246600D02*Y243400D01*
X203400Y245000D02*X206600D01*
X205000Y21600D02*Y18400D01*
X203400Y20000D02*X206600D01*
X205000Y31600D02*Y28400D01*
X203400Y30000D02*X206600D01*
X195000Y21600D02*Y18400D01*
X193400Y20000D02*X196600D01*
X195000Y31600D02*Y28400D01*
X193400Y30000D02*X196600D01*
X185000Y21600D02*Y18400D01*
X183400Y20000D02*X186600D01*
X185000Y31600D02*Y28400D01*
X183400Y30000D02*X186600D01*
X175000Y21600D02*Y18400D01*
X173400Y20000D02*X176600D01*
X175000Y31600D02*Y28400D01*
X173400Y30000D02*X176600D01*
X165000Y21600D02*Y18400D01*
X163400Y20000D02*X166600D01*
X165000Y31600D02*Y28400D01*
X163400Y30000D02*X166600D01*
X155000Y21600D02*Y18400D01*
X153400Y20000D02*X156600D01*
X155000Y31600D02*Y28400D01*
X153400Y30000D02*X156600D01*
X145000Y21600D02*Y18400D01*
X143400Y20000D02*X146600D01*
X145000Y31600D02*Y28400D01*
X143400Y30000D02*X146600D01*
X135000Y21600D02*Y18400D01*
X133400Y20000D02*X136600D01*
X135000Y31600D02*Y28400D01*
X133400Y30000D02*X136600D01*
X125000Y21600D02*Y18400D01*
X123400Y20000D02*X126600D01*
X125000Y31600D02*Y28400D01*
X123400Y30000D02*X126600D01*
X115000Y21600D02*Y18400D01*
X113400Y20000D02*X116600D01*
X115000Y31600D02*Y28400D01*
X113400Y30000D02*X116600D01*
X105000Y21600D02*Y18400D01*
X103400Y20000D02*X106600D01*
X105000Y31600D02*Y28400D01*
X103400Y30000D02*X106600D01*
X95000Y21600D02*Y18400D01*
X93400Y20000D02*X96600D01*
X95000Y31600D02*Y28400D01*
X93400Y30000D02*X96600D01*
X85000Y21600D02*Y18400D01*
X83400Y20000D02*X86600D01*
X85000Y31600D02*Y28400D01*
X83400Y30000D02*X86600D01*
X75000Y21600D02*Y18400D01*
X73400Y20000D02*X76600D01*
X75000Y31600D02*Y28400D01*
X73400Y30000D02*X76600D01*
X65000Y21600D02*Y18400D01*
X63400Y20000D02*X66600D01*
X65000Y31600D02*Y28400D01*
X63400Y30000D02*X66600D01*
X55000Y21600D02*Y18400D01*
X53400Y20000D02*X56600D01*
X55000Y31600D02*Y28400D01*
X53400Y30000D02*X56600D01*
X45000Y21600D02*Y18400D01*
X43400Y20000D02*X46600D01*
X45000Y31600D02*Y28400D01*
X43400Y30000D02*X46600D01*
X50000Y194100D02*Y190900D01*
X48400Y192500D02*X51600D01*
X60000Y194100D02*Y190900D01*
X58400Y192500D02*X61600D01*
X15000Y332850D02*Y329650D01*
X13400Y331250D02*X16600D01*
X135000Y333500D02*X136500Y330500D01*
X138000Y333500D01*
X136500Y330500D02*Y327500D01*
X139800Y330800D02*X142050D01*
X139800Y327500D02*X142800D01*
X139800Y333500D02*Y327500D01*
Y333500D02*X142800D01*
X147600D02*X148350Y332750D01*
X145350Y333500D02*X147600D01*
X144600Y332750D02*X145350Y333500D01*
X144600Y332750D02*Y331250D01*
X145350Y330500D01*
X147600D01*
X148350Y329750D01*
Y328250D01*
X147600Y327500D02*X148350Y328250D01*
X145350Y327500D02*X147600D01*
X144600Y328250D02*X145350Y327500D01*
X98750D02*X101750Y333500D01*
X98000D02*X101750D01*
X103550Y328250D02*X104300Y327500D01*
X103550Y332750D02*Y328250D01*
Y332750D02*X104300Y333500D01*
X105800D01*
X106550Y332750D01*
Y328250D01*
X105800Y327500D02*X106550Y328250D01*
X104300Y327500D02*X105800D01*
X103550Y329000D02*X106550Y332000D01*
X45000Y328250D02*X45750Y327500D01*
X45000Y332750D02*Y328250D01*
Y332750D02*X45750Y333500D01*
X47250D01*
X48000Y332750D01*
Y328250D01*
X47250Y327500D02*X48000Y328250D01*
X45750Y327500D02*X47250D01*
X45000Y329000D02*X48000Y332000D01*
X49800Y327500D02*X50550D01*
X52350Y328250D02*X53100Y327500D01*
X52350Y332750D02*Y328250D01*
Y332750D02*X53100Y333500D01*
X54600D01*
X55350Y332750D01*
Y328250D01*
X54600Y327500D02*X55350Y328250D01*
X53100Y327500D02*X54600D01*
X52350Y329000D02*X55350Y332000D01*
X57150Y329750D02*X60150Y333500D01*
X57150Y329750D02*X60900D01*
X60150Y333500D02*Y327500D01*
X62700Y332750D02*X63450Y333500D01*
X65700D01*
X66450Y332750D01*
Y331250D01*
X62700Y327500D02*X66450Y331250D01*
X62700Y327500D02*X66450D01*
X205000Y92500D02*Y90900D01*
Y92500D02*X206387Y93300D01*
X205000Y92500D02*X203613Y93300D01*
X200000Y107500D02*Y105900D01*
Y107500D02*X201387Y108300D01*
X200000Y107500D02*X198613Y108300D01*
X195000Y122500D02*Y120900D01*
Y122500D02*X196387Y123300D01*
X195000Y122500D02*X193613Y123300D01*
X190000Y137500D02*Y135900D01*
Y137500D02*X191387Y138300D01*
X190000Y137500D02*X188613Y138300D01*
X185000Y152500D02*Y150900D01*
Y152500D02*X186387Y153300D01*
X185000Y152500D02*X183613Y153300D01*
X180000Y100000D02*Y98400D01*
Y100000D02*X181387Y100800D01*
X180000Y100000D02*X178613Y100800D01*
X175000Y115000D02*Y113400D01*
Y115000D02*X176387Y115800D01*
X175000Y115000D02*X173613Y115800D01*
X170000Y130000D02*Y128400D01*
Y130000D02*X171387Y130800D01*
X170000Y130000D02*X168613Y130800D01*
X72500Y92500D02*Y90900D01*
Y92500D02*X73887Y93300D01*
X72500Y92500D02*X71113Y93300D01*
X77500Y107500D02*Y105900D01*
Y107500D02*X78887Y108300D01*
X77500Y107500D02*X76113Y108300D01*
X82500Y122500D02*Y120900D01*
Y122500D02*X83887Y123300D01*
X82500Y122500D02*X81113Y123300D01*
X87500Y137500D02*Y135900D01*
Y137500D02*X88887Y138300D01*
X87500Y137500D02*X86113Y138300D01*
X92500Y152500D02*Y150900D01*
Y152500D02*X93887Y153300D01*
X92500Y152500D02*X91113Y153300D01*
X97500Y100000D02*Y98400D01*
Y100000D02*X98887Y100800D01*
X97500Y100000D02*X96113Y100800D01*
X102500Y115000D02*Y113400D01*
Y115000D02*X103887Y115800D01*
X102500Y115000D02*X101113Y115800D01*
X107500Y130000D02*Y128400D01*
Y130000D02*X108887Y130800D01*
X107500Y130000D02*X106113Y130800D01*
X55000Y82500D02*Y80900D01*
Y82500D02*X56387Y83300D01*
X55000Y82500D02*X53613Y83300D01*
X65000Y77500D02*Y75900D01*
Y77500D02*X66387Y78300D01*
X65000Y77500D02*X63613Y78300D01*
X75000Y72500D02*Y70900D01*
Y72500D02*X76387Y73300D01*
X75000Y72500D02*X73613Y73300D01*
X85000Y67500D02*Y65900D01*
Y67500D02*X86387Y68300D01*
X85000Y67500D02*X83613Y68300D01*
X95000Y62500D02*Y60900D01*
Y62500D02*X96387Y63300D01*
X95000Y62500D02*X93613Y63300D01*
X105000Y57500D02*Y55900D01*
Y57500D02*X106387Y58300D01*
X105000Y57500D02*X103613Y58300D01*
X115000Y52500D02*Y50900D01*
Y52500D02*X116387Y53300D01*
X115000Y52500D02*X113613Y53300D01*
X162500Y82500D02*Y80900D01*
Y82500D02*X163887Y83300D01*
X162500Y82500D02*X161113Y83300D01*
X157500Y77500D02*Y75900D01*
Y77500D02*X158887Y78300D01*
X157500Y77500D02*X156113Y78300D01*
X152500Y72500D02*Y70900D01*
Y72500D02*X153887Y73300D01*
X152500Y72500D02*X151113Y73300D01*
X147500Y67500D02*Y65900D01*
Y67500D02*X148887Y68300D01*
X147500Y67500D02*X146113Y68300D01*
X142500Y62500D02*Y60900D01*
Y62500D02*X143887Y63300D01*
X142500Y62500D02*X141113Y63300D01*
X137500Y57500D02*Y55900D01*
Y57500D02*X138887Y58300D01*
X137500Y57500D02*X136113Y58300D01*
X132500Y52500D02*Y50900D01*
Y52500D02*X133887Y53300D01*
X132500Y52500D02*X131113Y53300D01*
X15000Y346250D02*Y344650D01*
Y346250D02*X16387Y347050D01*
X15000Y346250D02*X13613Y347050D01*
X135000Y348500D02*X136500Y345500D01*
X138000Y348500D01*
X136500Y345500D02*Y342500D01*
X139800Y345800D02*X142050D01*
X139800Y342500D02*X142800D01*
X139800Y348500D02*Y342500D01*
Y348500D02*X142800D01*
X147600D02*X148350Y347750D01*
X145350Y348500D02*X147600D01*
X144600Y347750D02*X145350Y348500D01*
X144600Y347750D02*Y346250D01*
X145350Y345500D01*
X147600D01*
X148350Y344750D01*
Y343250D01*
X147600Y342500D02*X148350Y343250D01*
X145350Y342500D02*X147600D01*
X144600Y343250D02*X145350Y342500D01*
X98000Y347750D02*X98750Y348500D01*
X100250D01*
X101000Y347750D01*
X100250Y342500D02*X101000Y343250D01*
X98750Y342500D02*X100250D01*
X98000Y343250D02*X98750Y342500D01*
Y345800D02*X100250D01*
X101000Y347750D02*Y346550D01*
Y345050D02*Y343250D01*
Y345050D02*X100250Y345800D01*
X101000Y346550D02*X100250Y345800D01*
X102800Y343250D02*X103550Y342500D01*
X102800Y347750D02*Y343250D01*
Y347750D02*X103550Y348500D01*
X105050D01*
X105800Y347750D01*
Y343250D01*
X105050Y342500D02*X105800Y343250D01*
X103550Y342500D02*X105050D01*
X102800Y344000D02*X105800Y347000D01*
X45000Y343250D02*X45750Y342500D01*
X45000Y347750D02*Y343250D01*
Y347750D02*X45750Y348500D01*
X47250D01*
X48000Y347750D01*
Y343250D01*
X47250Y342500D02*X48000Y343250D01*
X45750Y342500D02*X47250D01*
X45000Y344000D02*X48000Y347000D01*
X49800Y342500D02*X50550D01*
X52350Y343250D02*X53100Y342500D01*
X52350Y347750D02*Y343250D01*
Y347750D02*X53100Y348500D01*
X54600D01*
X55350Y347750D01*
Y343250D01*
X54600Y342500D02*X55350Y343250D01*
X53100Y342500D02*X54600D01*
X52350Y344000D02*X55350Y347000D01*
X57150Y347750D02*X57900Y348500D01*
X60150D01*
X60900Y347750D01*
Y346250D01*
X57150Y342500D02*X60900Y346250D01*
X57150Y342500D02*X60900D01*
X62700Y343250D02*X63450Y342500D01*
X62700Y344450D02*Y343250D01*
Y344450D02*X63750Y345500D01*
X64650D01*
X65700Y344450D01*
Y343250D01*
X64950Y342500D02*X65700Y343250D01*
X63450Y342500D02*X64950D01*
X62700Y346550D02*X63750Y345500D01*
X62700Y347750D02*Y346550D01*
Y347750D02*X63450Y348500D01*
X64950D01*
X65700Y347750D01*
Y346550D01*
X64650Y345500D02*X65700Y346550D01*
X3000Y363500D02*X3750Y362750D01*
X750Y363500D02*X3000D01*
X0Y362750D02*X750Y363500D01*
X0Y362750D02*Y361250D01*
X750Y360500D01*
X3000D01*
X3750Y359750D01*
Y358250D01*
X3000Y357500D02*X3750Y358250D01*
X750Y357500D02*X3000D01*
X0Y358250D02*X750Y357500D01*
X5550Y360500D02*Y358250D01*
X6300Y357500D01*
X8550Y360500D02*Y356000D01*
X7800Y355250D02*X8550Y356000D01*
X6300Y355250D02*X7800D01*
X5550Y356000D02*X6300Y355250D01*
Y357500D02*X7800D01*
X8550Y358250D01*
X11100Y359750D02*Y357500D01*
Y359750D02*X11850Y360500D01*
X12600D01*
X13350Y359750D01*
Y357500D01*
Y359750D02*X14100Y360500D01*
X14850D01*
X15600Y359750D01*
Y357500D01*
X10350Y360500D02*X11100Y359750D01*
X17400Y363500D02*Y357500D01*
Y358250D02*X18150Y357500D01*
X19650D01*
X20400Y358250D01*
Y359750D02*Y358250D01*
X19650Y360500D02*X20400Y359750D01*
X18150Y360500D02*X19650D01*
X17400Y359750D02*X18150Y360500D01*
X22200Y359750D02*Y358250D01*
Y359750D02*X22950Y360500D01*
X24450D01*
X25200Y359750D01*
Y358250D01*
X24450Y357500D02*X25200Y358250D01*
X22950Y357500D02*X24450D01*
X22200Y358250D02*X22950Y357500D01*
X27000Y363500D02*Y358250D01*
X27750Y357500D01*
X0Y354250D02*X29250D01*
X41750Y363500D02*Y357500D01*
X43700Y363500D02*X44750Y362450D01*
Y358550D01*
X43700Y357500D02*X44750Y358550D01*
X41000Y357500D02*X43700D01*
X41000Y363500D02*X43700D01*
G54D50*X46550Y362000D02*Y361850D01*
G54D49*Y359750D02*Y357500D01*
X50300Y360500D02*X51050Y359750D01*
X48800Y360500D02*X50300D01*
X48050Y359750D02*X48800Y360500D01*
X48050Y359750D02*Y358250D01*
X48800Y357500D01*
X51050Y360500D02*Y358250D01*
X51800Y357500D01*
X48800D02*X50300D01*
X51050Y358250D01*
X54350Y359750D02*Y357500D01*
Y359750D02*X55100Y360500D01*
X55850D01*
X56600Y359750D01*
Y357500D01*
Y359750D02*X57350Y360500D01*
X58100D01*
X58850Y359750D01*
Y357500D01*
X53600Y360500D02*X54350Y359750D01*
X60650Y357500D02*X61400D01*
X65900Y358250D02*X66650Y357500D01*
X65900Y362750D02*X66650Y363500D01*
X65900Y362750D02*Y358250D01*
X68450Y363500D02*X69950D01*
X69200D02*Y357500D01*
X68450D02*X69950D01*
X72500Y359750D02*Y357500D01*
Y359750D02*X73250Y360500D01*
X74000D01*
X74750Y359750D01*
Y357500D01*
X71750Y360500D02*X72500Y359750D01*
X77300Y360500D02*X79550D01*
X76550Y359750D02*X77300Y360500D01*
X76550Y359750D02*Y358250D01*
X77300Y357500D01*
X79550D01*
X81350Y363500D02*Y357500D01*
Y359750D02*X82100Y360500D01*
X83600D01*
X84350Y359750D01*
Y357500D01*
X86150Y363500D02*X86900Y362750D01*
Y358250D01*
X86150Y357500D02*X86900Y358250D01*
X41000Y354250D02*X88700D01*
X96050Y357500D02*X98000D01*
X95000Y358550D02*X96050Y357500D01*
X95000Y362450D02*Y358550D01*
Y362450D02*X96050Y363500D01*
X98000D01*
X99800Y359750D02*Y358250D01*
Y359750D02*X100550Y360500D01*
X102050D01*
X102800Y359750D01*
Y358250D01*
X102050Y357500D02*X102800Y358250D01*
X100550Y357500D02*X102050D01*
X99800Y358250D02*X100550Y357500D01*
X104600Y360500D02*Y358250D01*
X105350Y357500D01*
X106850D01*
X107600Y358250D01*
Y360500D02*Y358250D01*
X110150Y359750D02*Y357500D01*
Y359750D02*X110900Y360500D01*
X111650D01*
X112400Y359750D01*
Y357500D01*
X109400Y360500D02*X110150Y359750D01*
X114950Y363500D02*Y358250D01*
X115700Y357500D01*
X114200Y361250D02*X115700D01*
X95000Y354250D02*X117200D01*
X130750Y363500D02*Y357500D01*
X130000Y363500D02*X133000D01*
X133750Y362750D01*
Y361250D01*
X133000Y360500D02*X133750Y361250D01*
X130750Y360500D02*X133000D01*
X135550Y363500D02*Y358250D01*
X136300Y357500D01*
X140050Y360500D02*X140800Y359750D01*
X138550Y360500D02*X140050D01*
X137800Y359750D02*X138550Y360500D01*
X137800Y359750D02*Y358250D01*
X138550Y357500D01*
X140800Y360500D02*Y358250D01*
X141550Y357500D01*
X138550D02*X140050D01*
X140800Y358250D01*
X144100Y363500D02*Y358250D01*
X144850Y357500D01*
X143350Y361250D02*X144850D01*
X147100Y357500D02*X149350D01*
X146350Y358250D02*X147100Y357500D01*
X146350Y359750D02*Y358250D01*
Y359750D02*X147100Y360500D01*
X148600D01*
X149350Y359750D01*
X146350Y359000D02*X149350D01*
Y359750D02*Y359000D01*
X154150Y363500D02*Y357500D01*
X153400D02*X154150Y358250D01*
X151900Y357500D02*X153400D01*
X151150Y358250D02*X151900Y357500D01*
X151150Y359750D02*Y358250D01*
Y359750D02*X151900Y360500D01*
X153400D01*
X154150Y359750D01*
X157450Y360500D02*Y359750D01*
Y358250D02*Y357500D01*
X155950Y362750D02*Y362000D01*
Y362750D02*X156700Y363500D01*
X158200D01*
X158950Y362750D01*
Y362000D01*
X157450Y360500D02*X158950Y362000D01*
X130000Y354250D02*X160750D01*
X0Y378500D02*X3000D01*
X1500D02*Y372500D01*
X4800Y378500D02*Y372500D01*
Y374750D02*X5550Y375500D01*
X7050D01*
X7800Y374750D01*
Y372500D01*
X10350D02*X12600D01*
X9600Y373250D02*X10350Y372500D01*
X9600Y374750D02*Y373250D01*
Y374750D02*X10350Y375500D01*
X11850D01*
X12600Y374750D01*
X9600Y374000D02*X12600D01*
Y374750D02*Y374000D01*
X15150Y374750D02*Y372500D01*
Y374750D02*X15900Y375500D01*
X17400D01*
X14400D02*X15150Y374750D01*
X19950Y372500D02*X22200D01*
X19200Y373250D02*X19950Y372500D01*
X19200Y374750D02*Y373250D01*
Y374750D02*X19950Y375500D01*
X21450D01*
X22200Y374750D01*
X19200Y374000D02*X22200D01*
Y374750D02*Y374000D01*
X28950Y375500D02*X29700Y374750D01*
X27450Y375500D02*X28950D01*
X26700Y374750D02*X27450Y375500D01*
X26700Y374750D02*Y373250D01*
X27450Y372500D01*
X29700Y375500D02*Y373250D01*
X30450Y372500D01*
X27450D02*X28950D01*
X29700Y373250D01*
X33000Y374750D02*Y372500D01*
Y374750D02*X33750Y375500D01*
X35250D01*
X32250D02*X33000Y374750D01*
X37800Y372500D02*X40050D01*
X37050Y373250D02*X37800Y372500D01*
X37050Y374750D02*Y373250D01*
Y374750D02*X37800Y375500D01*
X39300D01*
X40050Y374750D01*
X37050Y374000D02*X40050D01*
Y374750D02*Y374000D01*
X44550Y378500D02*X47550D01*
X44550D02*Y375500D01*
X45300Y376250D01*
X46800D01*
X47550Y375500D01*
Y373250D01*
X46800Y372500D02*X47550Y373250D01*
X45300Y372500D02*X46800D01*
X44550Y373250D02*X45300Y372500D01*
X55050Y378500D02*Y372500D01*
X54300D02*X55050Y373250D01*
X52800Y372500D02*X54300D01*
X52050Y373250D02*X52800Y372500D01*
X52050Y374750D02*Y373250D01*
Y374750D02*X52800Y375500D01*
X54300D01*
X55050Y374750D01*
G54D50*X56850Y377000D02*Y376850D01*
G54D49*Y374750D02*Y372500D01*
X59100Y377750D02*Y372500D01*
Y377750D02*X59850Y378500D01*
X60600D01*
X58350Y375500D02*X59850D01*
X62850Y377750D02*Y372500D01*
Y377750D02*X63600Y378500D01*
X64350D01*
X62100Y375500D02*X63600D01*
X66600Y372500D02*X68850D01*
X65850Y373250D02*X66600Y372500D01*
X65850Y374750D02*Y373250D01*
Y374750D02*X66600Y375500D01*
X68100D01*
X68850Y374750D01*
X65850Y374000D02*X68850D01*
Y374750D02*Y374000D01*
X71400Y374750D02*Y372500D01*
Y374750D02*X72150Y375500D01*
X73650D01*
X70650D02*X71400Y374750D01*
X76200Y372500D02*X78450D01*
X75450Y373250D02*X76200Y372500D01*
X75450Y374750D02*Y373250D01*
Y374750D02*X76200Y375500D01*
X77700D01*
X78450Y374750D01*
X75450Y374000D02*X78450D01*
Y374750D02*Y374000D01*
X81000Y374750D02*Y372500D01*
Y374750D02*X81750Y375500D01*
X82500D01*
X83250Y374750D01*
Y372500D01*
X80250Y375500D02*X81000Y374750D01*
X85800Y378500D02*Y373250D01*
X86550Y372500D01*
X85050Y376250D02*X86550D01*
X93750Y378500D02*Y372500D01*
X93000D02*X93750Y373250D01*
X91500Y372500D02*X93000D01*
X90750Y373250D02*X91500Y372500D01*
X90750Y374750D02*Y373250D01*
Y374750D02*X91500Y375500D01*
X93000D01*
X93750Y374750D01*
X96300D02*Y372500D01*
Y374750D02*X97050Y375500D01*
X98550D01*
X95550D02*X96300Y374750D01*
G54D50*X100350Y377000D02*Y376850D01*
G54D49*Y374750D02*Y372500D01*
X101850Y378500D02*Y373250D01*
X102600Y372500D01*
X104100Y378500D02*Y373250D01*
X104850Y372500D01*
X109800D02*X112050D01*
X112800Y373250D01*
X112050Y374000D02*X112800Y373250D01*
X109800Y374000D02*X112050D01*
X109050Y374750D02*X109800Y374000D01*
X109050Y374750D02*X109800Y375500D01*
X112050D01*
X112800Y374750D01*
X109050Y373250D02*X109800Y372500D01*
G54D50*X114600Y377000D02*Y376850D01*
G54D49*Y374750D02*Y372500D01*
X116100Y375500D02*X119100D01*
X116100Y372500D02*X119100Y375500D01*
X116100Y372500D02*X119100D01*
X121650D02*X123900D01*
X120900Y373250D02*X121650Y372500D01*
X120900Y374750D02*Y373250D01*
Y374750D02*X121650Y375500D01*
X123150D01*
X123900Y374750D01*
X120900Y374000D02*X123900D01*
Y374750D02*Y374000D01*
X126450Y372500D02*X128700D01*
X129450Y373250D01*
X128700Y374000D02*X129450Y373250D01*
X126450Y374000D02*X128700D01*
X125700Y374750D02*X126450Y374000D01*
X125700Y374750D02*X126450Y375500D01*
X128700D01*
X129450Y374750D01*
X125700Y373250D02*X126450Y372500D01*
X133950Y375500D02*Y373250D01*
X134700Y372500D01*
X136200D01*
X136950Y373250D01*
Y375500D02*Y373250D01*
X139500Y372500D02*X141750D01*
X142500Y373250D01*
X141750Y374000D02*X142500Y373250D01*
X139500Y374000D02*X141750D01*
X138750Y374750D02*X139500Y374000D01*
X138750Y374750D02*X139500Y375500D01*
X141750D01*
X142500Y374750D01*
X138750Y373250D02*X139500Y372500D01*
X145050D02*X147300D01*
X144300Y373250D02*X145050Y372500D01*
X144300Y374750D02*Y373250D01*
Y374750D02*X145050Y375500D01*
X146550D01*
X147300Y374750D01*
X144300Y374000D02*X147300D01*
Y374750D02*Y374000D01*
X152100Y378500D02*Y372500D01*
X151350D02*X152100Y373250D01*
X149850Y372500D02*X151350D01*
X149100Y373250D02*X149850Y372500D01*
X149100Y374750D02*Y373250D01*
Y374750D02*X149850Y375500D01*
X151350D01*
X152100Y374750D01*
G54D50*X156600Y377000D02*Y376850D01*
G54D49*Y374750D02*Y372500D01*
X158850Y374750D02*Y372500D01*
Y374750D02*X159600Y375500D01*
X160350D01*
X161100Y374750D01*
Y372500D01*
X158100Y375500D02*X158850Y374750D01*
X166350Y378500D02*Y373250D01*
X167100Y372500D01*
X165600Y376250D02*X167100D01*
X168600Y378500D02*Y372500D01*
Y374750D02*X169350Y375500D01*
X170850D01*
X171600Y374750D01*
Y372500D01*
G54D50*X173400Y377000D02*Y376850D01*
G54D49*Y374750D02*Y372500D01*
X175650D02*X177900D01*
X178650Y373250D01*
X177900Y374000D02*X178650Y373250D01*
X175650Y374000D02*X177900D01*
X174900Y374750D02*X175650Y374000D01*
X174900Y374750D02*X175650Y375500D01*
X177900D01*
X178650Y374750D01*
X174900Y373250D02*X175650Y372500D01*
X183150Y378500D02*Y373250D01*
X183900Y372500D01*
X187650Y375500D02*X188400Y374750D01*
X186150Y375500D02*X187650D01*
X185400Y374750D02*X186150Y375500D01*
X185400Y374750D02*Y373250D01*
X186150Y372500D01*
X188400Y375500D02*Y373250D01*
X189150Y372500D01*
X186150D02*X187650D01*
X188400Y373250D01*
X190950Y375500D02*Y373250D01*
X191700Y372500D01*
X193950Y375500D02*Y371000D01*
X193200Y370250D02*X193950Y371000D01*
X191700Y370250D02*X193200D01*
X190950Y371000D02*X191700Y370250D01*
Y372500D02*X193200D01*
X193950Y373250D01*
X195750Y374750D02*Y373250D01*
Y374750D02*X196500Y375500D01*
X198000D01*
X198750Y374750D01*
Y373250D01*
X198000Y372500D02*X198750Y373250D01*
X196500Y372500D02*X198000D01*
X195750Y373250D02*X196500Y372500D01*
X200550Y375500D02*Y373250D01*
X201300Y372500D01*
X202800D01*
X203550Y373250D01*
Y375500D02*Y373250D01*
X206100Y378500D02*Y373250D01*
X206850Y372500D01*
X205350Y376250D02*X206850D01*
X208350Y371000D02*X209850Y372500D01*
X214350Y377300D02*X215550Y378500D01*
Y372500D01*
X214350D02*X216600D01*
X218400Y377300D02*X219600Y378500D01*
Y372500D01*
X218400D02*X220650D01*
X222450Y378500D02*X225450D01*
X222450D02*Y375500D01*
X223200Y376250D01*
X224700D01*
X225450Y375500D01*
Y373250D01*
X224700Y372500D02*X225450Y373250D01*
X223200Y372500D02*X224700D01*
X222450Y373250D02*X223200Y372500D01*
X229950Y378500D02*Y372500D01*
Y374750D02*X230700Y375500D01*
X232200D01*
X232950Y374750D01*
Y372500D01*
X234750Y374750D02*Y373250D01*
Y374750D02*X235500Y375500D01*
X237000D01*
X237750Y374750D01*
Y373250D01*
X237000Y372500D02*X237750Y373250D01*
X235500Y372500D02*X237000D01*
X234750Y373250D02*X235500Y372500D01*
X239550Y378500D02*Y373250D01*
X240300Y372500D01*
X242550D02*X244800D01*
X241800Y373250D02*X242550Y372500D01*
X241800Y374750D02*Y373250D01*
Y374750D02*X242550Y375500D01*
X244050D01*
X244800Y374750D01*
X241800Y374000D02*X244800D01*
Y374750D02*Y374000D01*
X247350Y372500D02*X249600D01*
X250350Y373250D01*
X249600Y374000D02*X250350Y373250D01*
X247350Y374000D02*X249600D01*
X246600Y374750D02*X247350Y374000D01*
X246600Y374750D02*X247350Y375500D01*
X249600D01*
X250350Y374750D01*
X246600Y373250D02*X247350Y372500D01*
X255600Y378500D02*Y373250D01*
X256350Y372500D01*
X254850Y376250D02*X256350D01*
X257850Y374750D02*Y373250D01*
Y374750D02*X258600Y375500D01*
X260100D01*
X260850Y374750D01*
Y373250D01*
X260100Y372500D02*X260850Y373250D01*
X258600Y372500D02*X260100D01*
X257850Y373250D02*X258600Y372500D01*
X263400Y378500D02*Y373250D01*
X264150Y372500D01*
X262650Y376250D02*X264150D01*
X267900Y375500D02*X268650Y374750D01*
X266400Y375500D02*X267900D01*
X265650Y374750D02*X266400Y375500D01*
X265650Y374750D02*Y373250D01*
X266400Y372500D01*
X268650Y375500D02*Y373250D01*
X269400Y372500D01*
X266400D02*X267900D01*
X268650Y373250D01*
X271200Y378500D02*Y373250D01*
X271950Y372500D01*
G54D51*X0Y275000D02*Y0D01*
X250000D02*Y275000D01*
X0D01*
Y0D02*X250000D01*
G54D49*X38675Y-9500D02*X41675D01*
X42425Y-8750D01*
Y-6950D02*Y-8750D01*
X41675Y-6200D02*X42425Y-6950D01*
X39425Y-6200D02*X41675D01*
X39425Y-3500D02*Y-9500D01*
X38675Y-3500D02*X41675D01*
X42425Y-4250D01*
Y-5450D01*
X41675Y-6200D02*X42425Y-5450D01*
X44225Y-7250D02*Y-8750D01*
Y-7250D02*X44975Y-6500D01*
X46475D01*
X47225Y-7250D01*
Y-8750D01*
X46475Y-9500D02*X47225Y-8750D01*
X44975Y-9500D02*X46475D01*
X44225Y-8750D02*X44975Y-9500D01*
X51275Y-6500D02*X52025Y-7250D01*
X49775Y-6500D02*X51275D01*
X49025Y-7250D02*X49775Y-6500D01*
X49025Y-7250D02*Y-8750D01*
X49775Y-9500D01*
X52025Y-6500D02*Y-8750D01*
X52775Y-9500D01*
X49775D02*X51275D01*
X52025Y-8750D01*
X55325Y-7250D02*Y-9500D01*
Y-7250D02*X56075Y-6500D01*
X57575D01*
X54575D02*X55325Y-7250D01*
X62375Y-3500D02*Y-9500D01*
X61625D02*X62375Y-8750D01*
X60125Y-9500D02*X61625D01*
X59375Y-8750D02*X60125Y-9500D01*
X59375Y-7250D02*Y-8750D01*
Y-7250D02*X60125Y-6500D01*
X61625D01*
X62375Y-7250D01*
X66875D02*Y-8750D01*
Y-7250D02*X67625Y-6500D01*
X69125D01*
X69875Y-7250D01*
Y-8750D01*
X69125Y-9500D02*X69875Y-8750D01*
X67625Y-9500D02*X69125D01*
X66875Y-8750D02*X67625Y-9500D01*
X71675Y-6500D02*Y-8750D01*
X72425Y-9500D01*
X73925D01*
X74675Y-8750D01*
Y-6500D02*Y-8750D01*
X77225Y-3500D02*Y-8750D01*
X77975Y-9500D01*
X76475Y-5750D02*X77975D01*
X79475Y-3500D02*Y-8750D01*
X80225Y-9500D01*
G54D50*X81725Y-5000D02*Y-5150D01*
G54D49*Y-7250D02*Y-9500D01*
X83975Y-7250D02*Y-9500D01*
Y-7250D02*X84725Y-6500D01*
X85475D01*
X86225Y-7250D01*
Y-9500D01*
X83225Y-6500D02*X83975Y-7250D01*
X88775Y-9500D02*X91025D01*
X88025Y-8750D02*X88775Y-9500D01*
X88025Y-7250D02*Y-8750D01*
Y-7250D02*X88775Y-6500D01*
X90275D01*
X91025Y-7250D01*
X88025Y-8000D02*X91025D01*
Y-7250D02*Y-8000D01*
G54D50*X95525Y-5000D02*Y-5150D01*
G54D49*Y-7250D02*Y-9500D01*
X97775D02*X100025D01*
X100775Y-8750D01*
X100025Y-8000D02*X100775Y-8750D01*
X97775Y-8000D02*X100025D01*
X97025Y-7250D02*X97775Y-8000D01*
X97025Y-7250D02*X97775Y-6500D01*
X100025D01*
X100775Y-7250D01*
X97025Y-8750D02*X97775Y-9500D01*
X106025Y-3500D02*Y-8750D01*
X106775Y-9500D01*
X105275Y-5750D02*X106775D01*
X108275Y-3500D02*Y-9500D01*
Y-7250D02*X109025Y-6500D01*
X110525D01*
X111275Y-7250D01*
Y-9500D01*
X113825D02*X116075D01*
X113075Y-8750D02*X113825Y-9500D01*
X113075Y-7250D02*Y-8750D01*
Y-7250D02*X113825Y-6500D01*
X115325D01*
X116075Y-7250D01*
X113075Y-8000D02*X116075D01*
Y-7250D02*Y-8000D01*
X121325Y-6500D02*X123575D01*
X120575Y-7250D02*X121325Y-6500D01*
X120575Y-7250D02*Y-8750D01*
X121325Y-9500D01*
X123575D01*
X126125D02*X128375D01*
X125375Y-8750D02*X126125Y-9500D01*
X125375Y-7250D02*Y-8750D01*
Y-7250D02*X126125Y-6500D01*
X127625D01*
X128375Y-7250D01*
X125375Y-8000D02*X128375D01*
Y-7250D02*Y-8000D01*
X130925Y-7250D02*Y-9500D01*
Y-7250D02*X131675Y-6500D01*
X132425D01*
X133175Y-7250D01*
Y-9500D01*
X130175Y-6500D02*X130925Y-7250D01*
X135725Y-3500D02*Y-8750D01*
X136475Y-9500D01*
X134975Y-5750D02*X136475D01*
X138725Y-9500D02*X140975D01*
X137975Y-8750D02*X138725Y-9500D01*
X137975Y-7250D02*Y-8750D01*
Y-7250D02*X138725Y-6500D01*
X140225D01*
X140975Y-7250D01*
X137975Y-8000D02*X140975D01*
Y-7250D02*Y-8000D01*
X143525Y-7250D02*Y-9500D01*
Y-7250D02*X144275Y-6500D01*
X145775D01*
X142775D02*X143525Y-7250D01*
X147575Y-3500D02*Y-8750D01*
X148325Y-9500D01*
G54D50*X149825Y-5000D02*Y-5150D01*
G54D49*Y-7250D02*Y-9500D01*
X152075Y-7250D02*Y-9500D01*
Y-7250D02*X152825Y-6500D01*
X153575D01*
X154325Y-7250D01*
Y-9500D01*
X151325Y-6500D02*X152075Y-7250D01*
X156875Y-9500D02*X159125D01*
X156125Y-8750D02*X156875Y-9500D01*
X156125Y-7250D02*Y-8750D01*
Y-7250D02*X156875Y-6500D01*
X158375D01*
X159125Y-7250D01*
X156125Y-8000D02*X159125D01*
Y-7250D02*Y-8000D01*
X163625Y-7250D02*Y-8750D01*
Y-7250D02*X164375Y-6500D01*
X165875D01*
X166625Y-7250D01*
Y-8750D01*
X165875Y-9500D02*X166625Y-8750D01*
X164375Y-9500D02*X165875D01*
X163625Y-8750D02*X164375Y-9500D01*
X169175Y-4250D02*Y-9500D01*
Y-4250D02*X169925Y-3500D01*
X170675D01*
X168425Y-6500D02*X169925D01*
X175625Y-3500D02*Y-8750D01*
X176375Y-9500D01*
X174875Y-5750D02*X176375D01*
X177875Y-3500D02*Y-9500D01*
Y-7250D02*X178625Y-6500D01*
X180125D01*
X180875Y-7250D01*
Y-9500D01*
G54D50*X182675Y-5000D02*Y-5150D01*
G54D49*Y-7250D02*Y-9500D01*
X184925D02*X187175D01*
X187925Y-8750D01*
X187175Y-8000D02*X187925Y-8750D01*
X184925Y-8000D02*X187175D01*
X184175Y-7250D02*X184925Y-8000D01*
X184175Y-7250D02*X184925Y-6500D01*
X187175D01*
X187925Y-7250D01*
X184175Y-8750D02*X184925Y-9500D01*
X193175Y-7250D02*Y-11750D01*
X192425Y-6500D02*X193175Y-7250D01*
X193925Y-6500D01*
X195425D01*
X196175Y-7250D01*
Y-8750D01*
X195425Y-9500D02*X196175Y-8750D01*
X193925Y-9500D02*X195425D01*
X193175Y-8750D02*X193925Y-9500D01*
X200225Y-6500D02*X200975Y-7250D01*
X198725Y-6500D02*X200225D01*
X197975Y-7250D02*X198725Y-6500D01*
X197975Y-7250D02*Y-8750D01*
X198725Y-9500D01*
X200975Y-6500D02*Y-8750D01*
X201725Y-9500D01*
X198725D02*X200225D01*
X200975Y-8750D01*
X204275Y-3500D02*Y-8750D01*
X205025Y-9500D01*
X203525Y-5750D02*X205025D01*
X206525Y-3500D02*Y-9500D01*
Y-7250D02*X207275Y-6500D01*
X208775D01*
X209525Y-7250D01*
Y-9500D01*
X200750Y303500D02*Y297500D01*
X202700Y303500D02*X203750Y302450D01*
Y298550D01*
X202700Y297500D02*X203750Y298550D01*
X200000Y297500D02*X202700D01*
X200000Y303500D02*X202700D01*
X207800Y300500D02*X208550Y299750D01*
X206300Y300500D02*X207800D01*
X205550Y299750D02*X206300Y300500D01*
X205550Y299750D02*Y298250D01*
X206300Y297500D01*
X208550Y300500D02*Y298250D01*
X209300Y297500D01*
X206300D02*X207800D01*
X208550Y298250D01*
X211850Y303500D02*Y298250D01*
X212600Y297500D01*
X211100Y301250D02*X212600D01*
X214850Y297500D02*X217100D01*
X214100Y298250D02*X214850Y297500D01*
X214100Y299750D02*Y298250D01*
Y299750D02*X214850Y300500D01*
X216350D01*
X217100Y299750D01*
X214100Y299000D02*X217100D01*
Y299750D02*Y299000D01*
X218900Y301250D02*X219650D01*
X218900Y299750D02*X219650D01*
X224150Y303500D02*Y297500D01*
Y303500D02*X227150D01*
X224150Y300800D02*X226400D01*
X229700Y299750D02*Y297500D01*
Y299750D02*X230450Y300500D01*
X231950D01*
X228950D02*X229700Y299750D01*
G54D50*X233750Y302000D02*Y301850D01*
G54D49*Y299750D02*Y297500D01*
X237950Y298250D02*X238700Y297500D01*
X237950Y302750D02*Y298250D01*
Y302750D02*X238700Y303500D01*
X240200D01*
X240950Y302750D01*
Y298250D01*
X240200Y297500D02*X240950Y298250D01*
X238700Y297500D02*X240200D01*
X237950Y299000D02*X240950Y302000D01*
X242750Y302750D02*X243500Y303500D01*
X245750D01*
X246500Y302750D01*
Y301250D01*
X242750Y297500D02*X246500Y301250D01*
X242750Y297500D02*X246500D01*
X252050Y303500D02*X253250D01*
Y298250D01*
X252500Y297500D02*X253250Y298250D01*
X251750Y297500D02*X252500D01*
X251000Y298250D02*X251750Y297500D01*
X251000Y299000D02*Y298250D01*
X255050Y300500D02*Y298250D01*
X255800Y297500D01*
X257300D01*
X258050Y298250D01*
Y300500D02*Y298250D01*
X260600Y299750D02*Y297500D01*
Y299750D02*X261350Y300500D01*
X262100D01*
X262850Y299750D01*
Y297500D01*
X259850Y300500D02*X260600Y299750D01*
X267350Y302750D02*X268100Y303500D01*
X270350D01*
X271100Y302750D01*
Y301250D01*
X267350Y297500D02*X271100Y301250D01*
X267350Y297500D02*X271100D01*
X272900Y298250D02*X273650Y297500D01*
X272900Y302750D02*Y298250D01*
Y302750D02*X273650Y303500D01*
X275150D01*
X275900Y302750D01*
Y298250D01*
X275150Y297500D02*X275900Y298250D01*
X273650Y297500D02*X275150D01*
X272900Y299000D02*X275900Y302000D01*
X277700Y302300D02*X278900Y303500D01*
Y297500D01*
X277700D02*X279950D01*
X282500D02*X285500Y303500D01*
X281750D02*X285500D01*
X290000Y298250D02*X290750Y297500D01*
X290000Y302750D02*Y298250D01*
Y302750D02*X290750Y303500D01*
X292250D01*
X293000Y302750D01*
Y298250D01*
X292250Y297500D02*X293000Y298250D01*
X290750Y297500D02*X292250D01*
X290000Y299000D02*X293000Y302000D01*
X297050Y303500D02*X297800Y302750D01*
X295550Y303500D02*X297050D01*
X294800Y302750D02*X295550Y303500D01*
X294800Y302750D02*Y298250D01*
X295550Y297500D01*
X297050Y300800D02*X297800Y300050D01*
X294800Y300800D02*X297050D01*
X295550Y297500D02*X297050D01*
X297800Y298250D01*
Y300050D02*Y298250D01*
X299600Y301250D02*X300350D01*
X299600Y299750D02*X300350D01*
X302150Y298250D02*X302900Y297500D01*
X302150Y302750D02*Y298250D01*
Y302750D02*X302900Y303500D01*
X304400D01*
X305150Y302750D01*
Y298250D01*
X304400Y297500D02*X305150Y298250D01*
X302900Y297500D02*X304400D01*
X302150Y299000D02*X305150Y302000D01*
X306950Y303500D02*X309950D01*
X306950D02*Y300500D01*
X307700Y301250D01*
X309200D01*
X309950Y300500D01*
Y298250D01*
X309200Y297500D02*X309950Y298250D01*
X307700Y297500D02*X309200D01*
X306950Y298250D02*X307700Y297500D01*
X311750Y301250D02*X312500D01*
X311750Y299750D02*X312500D01*
X314300Y302750D02*X315050Y303500D01*
X317300D01*
X318050Y302750D01*
Y301250D01*
X314300Y297500D02*X318050Y301250D01*
X314300Y297500D02*X318050D01*
X322100Y303500D02*X322850Y302750D01*
X320600Y303500D02*X322100D01*
X319850Y302750D02*X320600Y303500D01*
X319850Y302750D02*Y298250D01*
X320600Y297500D01*
X322100Y300800D02*X322850Y300050D01*
X319850Y300800D02*X322100D01*
X320600Y297500D02*X322100D01*
X322850Y298250D01*
Y300050D02*Y298250D01*
X328100Y303500D02*Y297500D01*
X327350Y303500D02*X330350D01*
X331100Y302750D01*
Y301250D01*
X330350Y300500D02*X331100Y301250D01*
X328100Y300500D02*X330350D01*
X332900Y303500D02*Y297500D01*
Y303500D02*X335150Y300500D01*
X337400Y303500D01*
Y297500D01*
X344900Y303500D02*X345650Y302750D01*
X342650Y303500D02*X344900D01*
X341900Y302750D02*X342650Y303500D01*
X341900Y302750D02*Y298250D01*
X342650Y297500D01*
X344900D01*
X345650Y298250D01*
Y299750D02*Y298250D01*
X344900Y300500D02*X345650Y299750D01*
X343400Y300500D02*X344900D01*
X347450Y303500D02*Y297500D01*
Y303500D02*X349700Y300500D01*
X351950Y303500D01*
Y297500D01*
X353750Y303500D02*X356750D01*
X355250D02*Y297500D01*
X361250Y303500D02*Y298250D01*
X362000Y297500D01*
X363500D01*
X364250Y298250D01*
Y303500D02*Y298250D01*
X366050Y303500D02*X369050D01*
X367550D02*Y297500D01*
X371900D02*X373850D01*
X370850Y298550D02*X371900Y297500D01*
X370850Y302450D02*Y298550D01*
Y302450D02*X371900Y303500D01*
X373850D01*
X200000Y317000D02*Y312500D01*
Y317000D02*X201050Y318500D01*
X202700D01*
X203750Y317000D01*
Y312500D01*
X200000Y315500D02*X203750D01*
X205550D02*Y313250D01*
X206300Y312500D01*
X207800D01*
X208550Y313250D01*
Y315500D02*Y313250D01*
X211100Y318500D02*Y313250D01*
X211850Y312500D01*
X210350Y316250D02*X211850D01*
X213350Y318500D02*Y312500D01*
Y314750D02*X214100Y315500D01*
X215600D01*
X216350Y314750D01*
Y312500D01*
X218150Y314750D02*Y313250D01*
Y314750D02*X218900Y315500D01*
X220400D01*
X221150Y314750D01*
Y313250D01*
X220400Y312500D02*X221150Y313250D01*
X218900Y312500D02*X220400D01*
X218150Y313250D02*X218900Y312500D01*
X223700Y314750D02*Y312500D01*
Y314750D02*X224450Y315500D01*
X225950D01*
X222950D02*X223700Y314750D01*
X227750Y316250D02*X228500D01*
X227750Y314750D02*X228500D01*
X234050Y312500D02*X236000D01*
X233000Y313550D02*X234050Y312500D01*
X233000Y317450D02*Y313550D01*
Y317450D02*X234050Y318500D01*
X236000D01*
X237800D02*Y312500D01*
Y314750D02*X238550Y315500D01*
X240050D01*
X240800Y314750D01*
Y312500D01*
X243350Y314750D02*Y312500D01*
Y314750D02*X244100Y315500D01*
X245600D01*
X242600D02*X243350Y314750D01*
G54D50*X247400Y317000D02*Y316850D01*
G54D49*Y314750D02*Y312500D01*
X249650D02*X251900D01*
X252650Y313250D01*
X251900Y314000D02*X252650Y313250D01*
X249650Y314000D02*X251900D01*
X248900Y314750D02*X249650Y314000D01*
X248900Y314750D02*X249650Y315500D01*
X251900D01*
X252650Y314750D01*
X248900Y313250D02*X249650Y312500D01*
X255200Y318500D02*Y313250D01*
X255950Y312500D01*
X254450Y316250D02*X255950D01*
X257450Y314750D02*Y313250D01*
Y314750D02*X258200Y315500D01*
X259700D01*
X260450Y314750D01*
Y313250D01*
X259700Y312500D02*X260450Y313250D01*
X258200Y312500D02*X259700D01*
X257450Y313250D02*X258200Y312500D01*
X263000Y314750D02*Y310250D01*
X262250Y315500D02*X263000Y314750D01*
X263750Y315500D01*
X265250D01*
X266000Y314750D01*
Y313250D01*
X265250Y312500D02*X266000Y313250D01*
X263750Y312500D02*X265250D01*
X263000Y313250D02*X263750Y312500D01*
X267800Y318500D02*Y312500D01*
Y314750D02*X268550Y315500D01*
X270050D01*
X270800Y314750D01*
Y312500D01*
X273350D02*X275600D01*
X272600Y313250D02*X273350Y312500D01*
X272600Y314750D02*Y313250D01*
Y314750D02*X273350Y315500D01*
X274850D01*
X275600Y314750D01*
X272600Y314000D02*X275600D01*
Y314750D02*Y314000D01*
X278150Y314750D02*Y312500D01*
Y314750D02*X278900Y315500D01*
X280400D01*
X277400D02*X278150Y314750D01*
X284900Y318500D02*X287900D01*
X286400D02*Y312500D01*
X289700Y318500D02*Y312500D01*
Y314750D02*X290450Y315500D01*
X291950D01*
X292700Y314750D01*
Y312500D01*
X294500Y314750D02*Y313250D01*
Y314750D02*X295250Y315500D01*
X296750D01*
X297500Y314750D01*
Y313250D01*
X296750Y312500D02*X297500Y313250D01*
X295250Y312500D02*X296750D01*
X294500Y313250D02*X295250Y312500D01*
X300050Y314750D02*Y312500D01*
Y314750D02*X300800Y315500D01*
X301550D01*
X302300Y314750D01*
Y312500D01*
Y314750D02*X303050Y315500D01*
X303800D01*
X304550Y314750D01*
Y312500D01*
X299300Y315500D02*X300050Y314750D01*
X308600Y315500D02*X309350Y314750D01*
X307100Y315500D02*X308600D01*
X306350Y314750D02*X307100Y315500D01*
X306350Y314750D02*Y313250D01*
X307100Y312500D01*
X309350Y315500D02*Y313250D01*
X310100Y312500D01*
X307100D02*X308600D01*
X309350Y313250D01*
X312650Y312500D02*X314900D01*
X315650Y313250D01*
X314900Y314000D02*X315650Y313250D01*
X312650Y314000D02*X314900D01*
X311900Y314750D02*X312650Y314000D01*
X311900Y314750D02*X312650Y315500D01*
X314900D01*
X315650Y314750D01*
X311900Y313250D02*X312650Y312500D01*
X200000Y333500D02*X203000D01*
X201500D02*Y327500D01*
G54D50*X204800Y332000D02*Y331850D01*
G54D49*Y329750D02*Y327500D01*
X207050Y333500D02*Y328250D01*
X207800Y327500D01*
X206300Y331250D02*X207800D01*
X209300Y333500D02*Y328250D01*
X210050Y327500D01*
X212300D02*X214550D01*
X211550Y328250D02*X212300Y327500D01*
X211550Y329750D02*Y328250D01*
Y329750D02*X212300Y330500D01*
X213800D01*
X214550Y329750D01*
X211550Y329000D02*X214550D01*
Y329750D02*Y329000D01*
X216350Y331250D02*X217100D01*
X216350Y329750D02*X217100D01*
X221600Y328250D02*X222350Y327500D01*
X221600Y332750D02*X222350Y333500D01*
X221600Y332750D02*Y328250D01*
X224150Y330500D02*Y328250D01*
X224900Y327500D01*
X226400D01*
X227150Y328250D01*
Y330500D02*Y328250D01*
X229700Y329750D02*Y327500D01*
Y329750D02*X230450Y330500D01*
X231200D01*
X231950Y329750D01*
Y327500D01*
X228950Y330500D02*X229700Y329750D01*
X233750Y333500D02*Y327500D01*
Y329750D02*X236000Y327500D01*
X233750Y329750D02*X235250Y331250D01*
X238550Y329750D02*Y327500D01*
Y329750D02*X239300Y330500D01*
X240050D01*
X240800Y329750D01*
Y327500D01*
X237800Y330500D02*X238550Y329750D01*
X242600D02*Y328250D01*
Y329750D02*X243350Y330500D01*
X244850D01*
X245600Y329750D01*
Y328250D01*
X244850Y327500D02*X245600Y328250D01*
X243350Y327500D02*X244850D01*
X242600Y328250D02*X243350Y327500D01*
X247400Y330500D02*Y328250D01*
X248150Y327500D01*
X248900D01*
X249650Y328250D01*
Y330500D02*Y328250D01*
X250400Y327500D01*
X251150D01*
X251900Y328250D01*
Y330500D02*Y328250D01*
X254450Y329750D02*Y327500D01*
Y329750D02*X255200Y330500D01*
X255950D01*
X256700Y329750D01*
Y327500D01*
X253700Y330500D02*X254450Y329750D01*
X258500Y333500D02*X259250Y332750D01*
Y328250D01*
X258500Y327500D02*X259250Y328250D01*
X263750Y330500D02*X266750D01*
X271250Y333500D02*Y327500D01*
Y333500D02*X274250D01*
X271250Y330800D02*X273500D01*
X278300Y330500D02*X279050Y329750D01*
X276800Y330500D02*X278300D01*
X276050Y329750D02*X276800Y330500D01*
X276050Y329750D02*Y328250D01*
X276800Y327500D01*
X279050Y330500D02*Y328250D01*
X279800Y327500D01*
X276800D02*X278300D01*
X279050Y328250D01*
X281600Y333500D02*Y327500D01*
Y328250D02*X282350Y327500D01*
X283850D01*
X284600Y328250D01*
Y329750D02*Y328250D01*
X283850Y330500D02*X284600Y329750D01*
X282350Y330500D02*X283850D01*
X281600Y329750D02*X282350Y330500D01*
X287150Y329750D02*Y327500D01*
Y329750D02*X287900Y330500D01*
X289400D01*
X286400D02*X287150Y329750D01*
G54D50*X291200Y332000D02*Y331850D01*
G54D49*Y329750D02*Y327500D01*
X293450Y330500D02*X295700D01*
X292700Y329750D02*X293450Y330500D01*
X292700Y329750D02*Y328250D01*
X293450Y327500D01*
X295700D01*
X299750Y330500D02*X300500Y329750D01*
X298250Y330500D02*X299750D01*
X297500Y329750D02*X298250Y330500D01*
X297500Y329750D02*Y328250D01*
X298250Y327500D01*
X300500Y330500D02*Y328250D01*
X301250Y327500D01*
X298250D02*X299750D01*
X300500Y328250D01*
X303800Y333500D02*Y328250D01*
X304550Y327500D01*
X303050Y331250D02*X304550D01*
G54D50*X306050Y332000D02*Y331850D01*
G54D49*Y329750D02*Y327500D01*
X307550Y329750D02*Y328250D01*
Y329750D02*X308300Y330500D01*
X309800D01*
X310550Y329750D01*
Y328250D01*
X309800Y327500D02*X310550Y328250D01*
X308300Y327500D02*X309800D01*
X307550Y328250D02*X308300Y327500D01*
X313100Y329750D02*Y327500D01*
Y329750D02*X313850Y330500D01*
X314600D01*
X315350Y329750D01*
Y327500D01*
X312350Y330500D02*X313100Y329750D01*
X320600Y333500D02*Y327500D01*
X322550Y333500D02*X323600Y332450D01*
Y328550D01*
X322550Y327500D02*X323600Y328550D01*
X319850Y327500D02*X322550D01*
X319850Y333500D02*X322550D01*
X326150Y329750D02*Y327500D01*
Y329750D02*X326900Y330500D01*
X328400D01*
X325400D02*X326150Y329750D01*
X332450Y330500D02*X333200Y329750D01*
X330950Y330500D02*X332450D01*
X330200Y329750D02*X330950Y330500D01*
X330200Y329750D02*Y328250D01*
X330950Y327500D01*
X333200Y330500D02*Y328250D01*
X333950Y327500D01*
X330950D02*X332450D01*
X333200Y328250D01*
X335750Y330500D02*Y328250D01*
X336500Y327500D01*
X337250D01*
X338000Y328250D01*
Y330500D02*Y328250D01*
X338750Y327500D01*
X339500D01*
X340250Y328250D01*
Y330500D02*Y328250D01*
G54D50*X342050Y332000D02*Y331850D01*
G54D49*Y329750D02*Y327500D01*
X344300Y329750D02*Y327500D01*
Y329750D02*X345050Y330500D01*
X345800D01*
X346550Y329750D01*
Y327500D01*
X343550Y330500D02*X344300Y329750D01*
X350600Y330500D02*X351350Y329750D01*
X349100Y330500D02*X350600D01*
X348350Y329750D02*X349100Y330500D01*
X348350Y329750D02*Y328250D01*
X349100Y327500D01*
X350600D01*
X351350Y328250D01*
X348350Y326000D02*X349100Y325250D01*
X350600D01*
X351350Y326000D01*
Y330500D02*Y326000D01*
M02*
