G04 start of page 2 for group 0 idx 0 *
G04 Title: (unknown), top *
G04 Creator: pcb 20140316 *
G04 CreationDate: Wed 08 Jan 2020 10:14:59 PM GMT UTC *
G04 For: thomasc *
G04 Format: Gerber/RS-274X *
G04 PCB-Dimensions (mil): 1500.00 625.00 *
G04 PCB-Coordinate-Origin: lower left *
%MOIN*%
%FSLAX25Y25*%
%LNTOP*%
%ADD16C,0.0689*%
%ADD15C,0.0420*%
%ADD14C,0.0001*%
%ADD13C,0.1083*%
%ADD12C,0.0700*%
%ADD11C,0.0100*%
G54D11*X109941Y17500D02*Y17559D01*
X54823Y17500D02*X55000D01*
X95000Y32500D02*Y42500D01*
X90000Y32500D02*Y37500D01*
X80000Y28898D02*Y37500D01*
X85000Y27500D02*Y42500D01*
X68602Y17500D02*X80000Y28898D01*
X82382Y17500D02*Y24882D01*
X85000Y27500D01*
X65000D02*X70000D01*
X67500Y30000D02*X70000Y32500D01*
Y37500D01*
X62500Y32500D02*X65000Y35000D01*
Y42500D01*
X127500D02*X137500Y32500D01*
Y17500D01*
X115000Y37500D02*X123720Y28780D01*
Y17500D01*
X100000Y47500D02*X105000Y42500D01*
X127500D01*
X100000Y37500D02*X115000D01*
X109941Y17559D02*X95000Y32500D01*
X96161Y17500D02*Y26339D01*
X90000Y32500D01*
X95000Y42500D02*X90000Y47500D01*
X85000Y42500D02*X80000Y47500D01*
X75000Y42500D02*X70000Y47500D01*
X65000Y42500D02*X60000Y47500D01*
X70000Y27500D02*X75000Y32500D01*
Y42500D01*
X55000Y17500D02*X65000Y27500D01*
X41043Y17500D02*X53543Y30000D01*
X67500D01*
X27264Y17500D02*X42264Y32500D01*
X13484Y17500D02*X33484Y37500D01*
X42264Y32500D02*X62500D01*
X33484Y37500D02*X60000D01*
G54D12*X80000D03*
X70000D03*
G54D13*X82382Y17500D03*
G54D12*X100000Y37500D03*
X90000D03*
G54D13*X96161Y17500D03*
X109941D03*
X123720D03*
G54D14*G36*
X132087Y22913D02*Y12087D01*
X142913D01*
Y22913D01*
X132087D01*
G37*
G54D12*X60000Y37500D03*
Y47500D03*
G54D13*X54823Y17500D03*
X68602D03*
G54D14*G36*
X96500Y51000D02*Y44000D01*
X103500D01*
Y51000D01*
X96500D01*
G37*
G54D12*X90000Y47500D03*
X80000D03*
X70000D03*
G54D13*X13484Y17500D03*
X27264D03*
X41043D03*
G54D15*G54D16*G54D15*G54D16*G54D15*G54D16*G54D15*G54D16*M02*
