M48
INCH
T24C0.069
T23C0.042
%
T23
X006000Y004750
X006000Y003750
X007000Y004750
X007000Y003750
X008000Y004750
X008000Y003750
X009000Y004750
X009000Y003750
X010000Y004750
X010000Y003750
T24
X001348Y001750
X002726Y001750
X004104Y001750
X005482Y001750
X006860Y001750
X008238Y001750
X009616Y001750
X010994Y001750
X012372Y001750
X013750Y001750
M30
